g CH0331_Halo
v -0.078628495 0.13309424 1.1014682
v -0.108222835 0.1589553 1.0870796
v -0.108222805 0.1488391 1.0688975
v -0.07862848 0.12297805 1.0832862
v -0.12722355 0.18142593 1.0507668
v -0.041337445 0.116490446 1.1107063
v -0.12722358 0.19154212 1.068949
v -0.04133744 0.10637427 1.092524
v -0.13377076 0.21754868 1.0306687
v -5.9604643E-10 0.11076917 1.1138896
v -0.13377078 0.22766489 1.048851
v -4.7683715E-09 0.10065296 1.0957073
v -0.12722363 0.2536713 1.0105709
v 0.041337438 0.116490446 1.1107063
v -0.12722366 0.26378748 1.028753
v 0.04133742 0.10637427 1.092524
v -0.10822291 0.28625813 0.99244016
v 0.078628466 0.13309424 1.1014682
v -0.10822294 0.29637435 1.0106223
v 0.07862845 0.122978054 1.0832862
v -0.078628615 0.31211922 0.9780516
v 0.108222835 0.1589553 1.0870796
v -0.078628644 0.32223544 0.9962337
v 0.10822281 0.14883913 1.0688975
v -0.0413376 0.3287231 0.9688135
v 0.12722355 0.19154215 1.068949
v -0.0413376 0.3388393 0.9869956
v 0.12722355 0.18142593 1.0507668
v -1.5497207E-07 0.33444443 0.96563023
v 0.1337708 0.22766492 1.0488509
v -1.5079975E-07 0.34456062 0.9838124
v 0.13377076 0.21754871 1.0306687
v 0.041337304 0.32872313 0.9688135
v 0.12722352 0.26378772 1.0287529
v 0.04133731 0.33883938 0.9869956
v 0.12722349 0.2536715 1.0105708
v 0.07862837 0.31211936 0.9780514
v 0.10822279 0.29637453 1.0106223
v 0.07862838 0.32223555 0.99623364
v 0.10822276 0.2862583 0.99244
v -0.11862762 0.1523494 1.0907551
v -0.086188 0.1138858 1.0883448
v -0.11862759 0.14223321 1.072573
v -0.08618802 0.124001995 1.106527
v -0.13945514 0.18806921 1.0708812
v -0.045311723 0.0956857 1.098471
v -0.13945512 0.17795299 1.0526991
v -0.045311727 0.10580187 1.1166532
v -0.1466318 0.22766489 1.048851
v -2.3841857E-09 0.08941434 1.1019603
v -0.14663178 0.21754868 1.0306689
v 1.7881393E-09 0.09953054 1.1201425
v -0.13945521 0.2672604 1.0268208
v 0.045311697 0.0956857 1.098471
v -0.1394552 0.25714418 1.0086386
v 0.045311715 0.10580187 1.1166532
v -0.118627734 0.30298024 1.0069469
v 0.08618796 0.11388582 1.0883448
v -0.11862772 0.29286402 0.98876476
v 0.08618799 0.124001995 1.106527
v -0.08618819 0.33132765 0.991175
v 0.118627615 0.14223322 1.0725728
v -0.08618816 0.32121146 0.9729928
v 0.11862764 0.15234941 1.090755
v -0.045311894 0.3495279 0.9810487
v 0.13945512 0.177953 1.052699
v -0.045311894 0.33941168 0.96286654
v 0.13945514 0.18806922 1.0708811
v -1.6272068E-07 0.35579926 0.9775594
v 0.14663178 0.21754873 1.0306687
v -1.66893E-07 0.34568304 0.9593773
v 0.14663182 0.22766495 1.0488509
v 0.045311585 0.34952796 0.98104864
v 0.13945507 0.25714442 1.0086384
v 0.045311574 0.33941174 0.9628665
v 0.1394551 0.26726064 1.0268205
v 0.08618789 0.33132783 0.9911748
v 0.118627556 0.29286423 0.98876464
v 0.08618789 0.32121158 0.97299266
v 0.11862757 0.30298045 1.0069468
v 0.07823043 0.24680413 1.034056
v 0.058011163 0.24314094 1.0360941
v 0.058027573 0.25506666 1.0294589
v 0.058019366 0.24677151 1.0285846
v 0.074087195 0.23978533 1.0324715
v 0.06994395 0.23743108 1.0392709
v 0.08957397 0.23217164 1.0421971
v 0.08326064 0.22713618 1.0395093
v 0.07694731 0.22676529 1.0452052
v 0.0941592 0.213585 1.0525384
v 0.08692592 0.21123151 1.0483583
v 0.07969262 0.21354257 1.0525621
v 0.089524016 0.19366008 1.0636243
v 0.08278761 0.19385532 1.0580262
v 0.07605119 0.19871514 1.0608118
v 0.07781869 0.17693426 1.0729302
v 0.072442934 0.17906727 1.0662539
v 0.067067176 0.18586482 1.0679615
v 0.05986851 0.16468978 1.0797429
v 0.056183346 0.16789232 1.0724715
v 0.052498188 0.17575942 1.0735838
v 0.038145754 0.15793955 1.0834985
v 0.03649683 0.16178624 1.0758688
v 0.034847897 0.17029749 1.0766228
v 0.01595192 0.16982517 1.0768856
v 0.009637149 0.16235802 1.0755507
v 0.015951915 0.15679519 1.0841353
v 0.0033223806 0.1599443 1.0823832
v 0.0033223832 0.17219642 1.0755663
v 0.003322401 0.259237 1.0271385
v 0.009637173 0.258482 1.0220691
v 0.015951937 0.26239157 1.0253834
v -0.07810016 0.2049724 1.0573304
v -0.057880897 0.2086356 1.0552922
v -0.05789729 0.19670987 1.0619274
v -0.05788909 0.20034045 1.054418
v -0.073956914 0.20732665 1.050531
v -0.069813676 0.21434547 1.0521153
v -0.0894437 0.21960491 1.0491891
v -0.08313037 0.21997581 1.0434933
v -0.076817036 0.22501127 1.0461811
v -0.09402893 0.23819155 1.0388478
v -0.08679564 0.23588046 1.0346441
v -0.07956235 0.23823398 1.0388242
v -0.08939375 0.25811645 1.0277619
v -0.08265734 0.25325668 1.0249764
v -0.075920925 0.2530614 1.0305746
v -0.07768843 0.2748423 1.0184561
v -0.07231266 0.26804474 1.0167485
v -0.0669369 0.26591173 1.0234249
v -0.05973825 0.28708678 1.0116435
v -0.056053087 0.27921966 1.0105311
v -0.05236792 0.27601713 1.0178024
v -0.038015492 0.293837 1.0078877
v -0.036366567 0.28532574 1.0071337
v -0.034717634 0.28147906 1.0147635
v -0.009742729 0.28554127 1.0070138
v -0.015821652 0.2819514 1.0145007
v -0.01582165 0.29498136 1.007251
v -0.0031921135 0.29183227 1.0090032
v -0.0031921153 0.27958012 1.01582
v -0.0031921242 0.19253956 1.0642477
v -0.009506894 0.18862997 1.0609335
v -0.015821662 0.18938495 1.0660028
v -0.108222805 0.1488391 1.0688975
v -0.11862759 0.14223321 1.072573
v -0.086188 0.1138858 1.0883448
v -0.07862848 0.12297805 1.0832862
v -0.12722355 0.18142593 1.0507668
v -0.045311723 0.0956857 1.098471
v -0.13945512 0.17795299 1.0526991
v -0.04133744 0.10637427 1.092524
v -0.13377076 0.21754868 1.0306687
v -2.3841857E-09 0.08941434 1.1019603
v -0.14663178 0.21754868 1.0306689
v -4.7683715E-09 0.10065296 1.0957073
v -0.12722363 0.2536713 1.0105709
v 0.045311697 0.0956857 1.098471
v -0.1394552 0.25714418 1.0086386
v 0.04133742 0.10637427 1.092524
v -0.10822291 0.28625813 0.99244016
v 0.08618796 0.11388582 1.0883448
v -0.11862772 0.29286402 0.98876476
v 0.07862845 0.122978054 1.0832862
v -0.078628615 0.31211922 0.9780516
v 0.118627615 0.14223322 1.0725728
v -0.08618816 0.32121146 0.9729928
v 0.10822281 0.14883913 1.0688975
v -0.0413376 0.3287231 0.9688135
v 0.13945512 0.177953 1.052699
v -0.045311894 0.33941168 0.96286654
v 0.12722355 0.18142593 1.0507668
v -1.5497207E-07 0.33444443 0.96563023
v 0.14663178 0.21754873 1.0306687
v -1.66893E-07 0.34568304 0.9593773
v 0.13377076 0.21754871 1.0306687
v 0.041337304 0.32872313 0.9688135
v 0.13945507 0.25714442 1.0086384
v 0.045311574 0.33941174 0.9628665
v 0.12722349 0.2536715 1.0105708
v 0.07862837 0.31211936 0.9780514
v 0.118627556 0.29286423 0.98876464
v 0.08618789 0.32121158 0.97299266
v 0.10822276 0.2862583 0.99244
v -0.08618802 0.124001995 1.106527
v -0.11862762 0.1523494 1.0907551
v -0.108222835 0.1589553 1.0870796
v -0.078628495 0.13309424 1.1014682
v -0.12722358 0.19154212 1.068949
v -0.045311727 0.10580187 1.1166532
v -0.13945514 0.18806921 1.0708812
v -0.041337445 0.116490446 1.1107063
v -0.13377078 0.22766489 1.048851
v 1.7881393E-09 0.09953054 1.1201425
v -0.1466318 0.22766489 1.048851
v -5.9604643E-10 0.11076917 1.1138896
v -0.12722366 0.26378748 1.028753
v 0.045311715 0.10580187 1.1166532
v -0.13945521 0.2672604 1.0268208
v 0.041337438 0.116490446 1.1107063
v -0.10822294 0.29637435 1.0106223
v 0.08618799 0.124001995 1.106527
v -0.118627734 0.30298024 1.0069469
v 0.078628466 0.13309424 1.1014682
v -0.078628644 0.32223544 0.9962337
v 0.11862764 0.15234941 1.090755
v -0.08618819 0.33132765 0.991175
v 0.108222835 0.1589553 1.0870796
v -0.0413376 0.3388393 0.9869956
v 0.13945514 0.18806922 1.0708811
v -0.045311894 0.3495279 0.9810487
v 0.12722355 0.19154215 1.068949
v -1.5079975E-07 0.34456062 0.9838124
v 0.14663182 0.22766495 1.0488509
v -1.6272068E-07 0.35579926 0.9775594
v 0.1337708 0.22766492 1.0488509
v 0.04133731 0.33883938 0.9869956
v 0.1394551 0.26726064 1.0268205
v 0.045311585 0.34952796 0.98104864
v 0.12722352 0.26378772 1.0287529
v 0.07862838 0.32223555 0.99623364
v 0.11862757 0.30298045 1.0069468
v 0.08618789 0.33132783 0.9911748
v 0.10822279 0.29637453 1.0106223
vt 0.24172449 0.15313298
vt 0.14451426 0.24886641
vt 0.14451432 0.24242994
vt 0.24172452 0.14669654
vt 0.082101524 0.36306107
vt 0.36421654 0.0916684
vt 0.082101464 0.36949754
vt 0.36421654 0.08523193
vt 0.060595483 0.49678168
vt 0.5 0.07048914
vt 0.060595483 0.5032182
vt 0.5 0.06405267
vt 0.082101285 0.6305016
vt 0.63578343 0.0916684
vt 0.082101256 0.63693815
vt 0.63578343 0.08523193
vt 0.144514 0.7511329
vt 0.7582754 0.15313298
vt 0.14451396 0.75756943
vt 0.7582754 0.14669654
vt 0.2417241 0.8468664
vt 0.8554857 0.24886644
vt 0.24172407 0.85330296
vt 0.8554857 0.24242997
vt 0.36421606 0.9083313
vt 0.91789854 0.36949763
vt 0.36421606 0.91476774
vt 0.91789854 0.36306113
vt 0.49999955 0.9295107
vt 0.93940455 0.5032183
vt 0.49999955 0.9359472
vt 0.9394045 0.4967818
vt 0.6357831 0.9083315
vt 0.9178984 0.6369389
vt 0.6357831 0.91476804
vt 0.9178984 0.63050246
vt 0.7582752 0.84686697
vt 0.8554856 0.75757015
vt 0.7582752 0.85330343
vt 0.85548556 0.7511336
vt 0.09549156 0.21379036
vt 0.20610744 0.098418474
vt 0.09549159 0.20735392
vt 0.20610741 0.10485497
vt 0.02447182 0.351057
vt 0.34549153 0.028477818
vt 0.02447185 0.34462053
vt 0.34549153 0.034914285
vt 5.9604645E-08 0.5032182
vt 0.5 0.004377812
vt 1.1920929E-07 0.49678168
vt 0.5 0.010814339
vt 0.024471551 0.6553787
vt 0.6545085 0.028477818
vt 0.024471551 0.6489422
vt 0.6545085 0.034914285
vt 0.0954912 0.79264534
vt 0.7938925 0.098418504
vt 0.09549123 0.78620887
vt 0.7938925 0.10485497
vt 0.2061069 0.9015809
vt 0.9045084 0.20735395
vt 0.2061069 0.89514446
vt 0.9045085 0.21379042
vt 0.345491 0.971522
vt 0.97552824 0.3446206
vt 0.345491 0.9650855
vt 0.97552824 0.35105708
vt 0.4999995 0.99562216
vt 0.9999999 0.49678183
vt 0.4999995 0.9891856
vt 0.99999994 0.5032183
vt 0.6545081 0.9715222
vt 0.97552806 0.64894307
vt 0.65450805 0.9650857
vt 0.97552806 0.65537953
vt 0.79389226 0.9015815
vt 0.90450823 0.78620964
vt 0.79389226 0.89514494
vt 0.9045083 0.79264617
vt 0.7957032 0.59016055
vt 0.71926916 0.5745544
vt 0.71933115 0.62536097
vt 0.7193001 0.59680873
vt 0.7800406 0.5670458
vt 0.76437813 0.55022895
vt 0.83858466 0.5278224
vt 0.8147186 0.51315725
vt 0.7908526 0.50478995
vt 0.855918 0.44863862
vt 0.82857424 0.4453993
vt 0.80123055 0.44845784
vt 0.8383958 0.36375335
vt 0.8129304 0.37137234
vt 0.7874651 0.38528913
vt 0.79414666 0.29249713
vt 0.77382493 0.30837142
vt 0.7535032 0.3305436
vt 0.7262903 0.24033254
vt 0.7123594 0.26076335
vt 0.6984286 0.28749204
vt 0.6441728 0.21157493
vt 0.6379394 0.23474993
vt 0.631706 0.2642228
vt 0.56027436 0.2622106
vt 0.53640294 0.23718573
vt 0.56027436 0.20669965
vt 0.5125315 0.22011563
vt 0.5125315 0.27231276
vt 0.5125316 0.6431277
vt 0.536403 0.6466984
vt 0.5602745 0.65656704
vt 0.20473339 0.41194674
vt 0.2811674 0.42755288
vt 0.28110543 0.3767463
vt 0.2811364 0.39900067
vt 0.22039592 0.42876357
vt 0.23605844 0.45187834
vt 0.1618519 0.47428486
vt 0.18571791 0.48265216
vt 0.20958397 0.49731734
vt 0.14451855 0.55346864
vt 0.17186224 0.55041015
vt 0.19920594 0.5536494
vt 0.16204076 0.63835394
vt 0.18750608 0.62443703
vt 0.21297146 0.61681813
vt 0.20628981 0.70961016
vt 0.22661161 0.68743795
vt 0.24693337 0.6715636
vt 0.27414614 0.7617747
vt 0.28807703 0.735046
vt 0.30200788 0.7146152
vt 0.35626373 0.7905324
vt 0.36249712 0.76105946
vt 0.36873046 0.73788446
vt 0.46314204 0.7619777
vt 0.44016212 0.73989666
vt 0.44016212 0.79540765
vt 0.48790506 0.78199166
vt 0.48790506 0.7297945
vt 0.487905 0.3589796
vt 0.46403357 0.34911102
vt 0.44016206 0.34554023
vt 0.14451432 0.24242994
vt 0.09549159 0.20735392
vt 0.20610744 0.098418474
vt 0.24172452 0.14669654
vt 0.082101524 0.36306107
vt 0.34549153 0.028477818
vt 0.02447185 0.34462053
vt 0.36421654 0.08523193
vt 0.060595483 0.49678168
vt 0.5 0.004377812
vt 1.1920929E-07 0.49678168
vt 0.5 0.06405267
vt 0.082101285 0.6305016
vt 0.6545085 0.028477818
vt 0.024471551 0.6489422
vt 0.63578343 0.08523193
vt 0.144514 0.7511329
vt 0.7938925 0.098418504
vt 0.09549123 0.78620887
vt 0.7582754 0.14669654
vt 0.2417241 0.8468664
vt 0.9045084 0.20735395
vt 0.2061069 0.89514446
vt 0.8554857 0.24242997
vt 0.36421606 0.9083313
vt 0.97552824 0.3446206
vt 0.345491 0.9650855
vt 0.91789854 0.36306113
vt 0.49999955 0.9295107
vt 0.9999999 0.49678183
vt 0.4999995 0.9891856
vt 0.9394045 0.4967818
vt 0.6357831 0.9083315
vt 0.97552806 0.64894307
vt 0.65450805 0.9650857
vt 0.9178984 0.63050246
vt 0.7582752 0.84686697
vt 0.90450823 0.78620964
vt 0.79389226 0.89514494
vt 0.85548556 0.7511336
vt 0.20610741 0.10485497
vt 0.09549156 0.21379036
vt 0.14451426 0.24886641
vt 0.24172449 0.15313298
vt 0.082101464 0.36949754
vt 0.34549153 0.034914285
vt 0.02447182 0.351057
vt 0.36421654 0.0916684
vt 0.060595483 0.5032182
vt 0.5 0.010814339
vt 5.9604645E-08 0.5032182
vt 0.5 0.07048914
vt 0.082101256 0.63693815
vt 0.6545085 0.034914285
vt 0.024471551 0.6553787
vt 0.63578343 0.0916684
vt 0.14451396 0.75756943
vt 0.7938925 0.10485497
vt 0.0954912 0.79264534
vt 0.7582754 0.15313298
vt 0.24172407 0.85330296
vt 0.9045085 0.21379042
vt 0.2061069 0.9015809
vt 0.8554857 0.24886644
vt 0.36421606 0.91476774
vt 0.97552824 0.35105708
vt 0.345491 0.971522
vt 0.91789854 0.36949763
vt 0.49999955 0.9359472
vt 0.99999994 0.5032183
vt 0.4999995 0.99562216
vt 0.93940455 0.5032183
vt 0.6357831 0.91476804
vt 0.97552806 0.65537953
vt 0.6545081 0.9715222
vt 0.9178984 0.6369389
vt 0.7582752 0.85330343
vt 0.9045083 0.79264617
vt 0.79389226 0.9015815
vt 0.8554856 0.75757015
vn 0.5877851 0.70696086 -0.39333832
vn 0.8090172 0.5136369 -0.28577667
vn 0.8090171 0.51363707 -0.28577673
vn 0.5877849 0.706961 -0.39333835
vn 0.95105654 0.2700352 -0.15024117
vn 0.30901667 0.83108264 -0.46239644
vn 0.95105654 0.27003518 -0.15024114
vn 0.30901673 0.8310825 -0.46239638
vn 1 8.019862E-07 5.090451E-07
vn -0 0.87385195 -0.48619217
vn 1 1.0997298E-06 3.4096428E-07
vn -0 0.87385195 -0.48619217
vn 0.9510569 -0.2700334 0.15024266
vn -0.30901685 0.83108264 -0.4623962
vn 0.9510568 -0.2700334 0.15024263
vn -0.3090168 0.8310827 -0.46239623
vn 0.8090178 -0.513635 0.28577876
vn -0.5877852 0.706961 -0.39333788
vn 0.80901766 -0.51363504 0.28577882
vn -0.5877852 0.70696104 -0.39333788
vn 0.5877867 -0.70695865 0.39334005
vn -0.8090171 0.51363695 -0.28577685
vn 0.58778673 -0.70695853 0.39333996
vn -0.8090172 0.5136369 -0.2857768
vn 0.30901837 -0.83108103 0.46239808
vn -0.95105654 0.27003497 -0.15024173
vn 0.30901843 -0.83108103 0.46239808
vn -0.9510565 0.27003512 -0.15024182
vn 6.483119E-07 -0.87385076 0.48619425
vn -1 0 1.169363E-06
vn 5.378589E-07 -0.8738508 0.48619425
vn -1 0 1.1261419E-06
vn -0.3090164 -0.83108157 0.46239844
vn -0.95105636 -0.2700346 0.15024373
vn -0.3090164 -0.83108157 0.46239847
vn -0.95105636 -0.27003452 0.15024368
vn -0.5877844 -0.7069608 0.3933395
vn -0.80901676 -0.51363665 0.28577834
vn -0.5877846 -0.7069607 0.39333943
vn -0.80901664 -0.51363677 0.2857784
vn -0.8090171 -0.51363707 0.2857767
vn -0.58778507 -0.70696074 0.39333847
vn -0.80901706 -0.5136371 0.28577673
vn -0.5877853 -0.7069606 0.39333838
vn -0.95105654 -0.27003515 0.15024121
vn -0.3090168 -0.8310822 0.4623971
vn -0.9510565 -0.2700354 0.15024133
vn -0.30901673 -0.8310822 0.4623971
vn -1 -9.844739E-07 -6.93934E-07
vn -0 -0.87385154 0.4861927
vn -1 -9.604614E-07 -7.059391E-07
vn -0 -0.87385154 0.48619267
vn -0.9510569 0.27003315 -0.15024245
vn 0.30901685 -0.8310823 0.46239674
vn -0.9510568 0.27003354 -0.15024263
vn 0.30901694 -0.8310823 0.4623967
vn -0.80901784 0.5136353 -0.28577775
vn 0.58778524 -0.7069609 0.39333797
vn -0.8090179 0.5136352 -0.28577775
vn 0.5877853 -0.7069609 0.39333802
vn -0.58778685 0.7069591 -0.39333862
vn 0.8090171 -0.51363707 0.28577644
vn -0.58778656 0.7069594 -0.3933387
vn 0.8090171 -0.5136371 0.28577644
vn -0.3090183 0.83108145 -0.46239743
vn 0.95105654 -0.2700353 0.15024106
vn -0.30901828 0.8310814 -0.46239743
vn 0.95105654 -0.27003506 0.15024091
vn -9.844736E-07 0.87385076 -0.48619425
vn 1 -4.4181235E-07 -1.7216275E-06
vn -9.364508E-07 0.87385076 -0.4861943
vn 1 -3.1695282E-07 -1.7912637E-06
vn 0.30901635 0.8310812 -0.46239904
vn 0.9510565 0.27003422 -0.15024392
vn 0.3090164 0.8310812 -0.46239904
vn 0.9510565 0.27003425 -0.15024392
vn 0.5877845 0.70695996 -0.39334074
vn 0.80901664 0.5136363 -0.28577912
vn 0.5877847 0.70695984 -0.39334065
vn 0.8090166 0.51363647 -0.28577924
vn 0.62613374 0.7696252 -0.1250349
vn -0.70586145 -0.41405728 0.5747314
vn -0.3996027 0.88371116 -0.24366409
vn -0.56502986 -0.2788512 -0.7765199
vn 0.062438108 -0.41774642 -0.9064157
vn -0.64336884 -0.41079336 0.64600724
vn 0.886211 0.46027786 0.05267292
vn 0.05856718 -0.46068224 -0.88563067
vn -0.88218546 -0.12910569 0.45285815
vn 0.9654586 0.1293635 0.22617435
vn 0.07078231 -0.48238227 -0.8730963
vn -0.9441143 0.16769584 0.28377116
vn 0.8971737 -0.18416855 0.4014491
vn 0.05658927 -0.5024279 -0.86276525
vn -0.881736 0.45867813 0.11025443
vn 0.71962476 -0.43787846 0.53889024
vn 0.046819717 -0.5199796 -0.8528946
vn -0.71162504 0.702047 -0.02682958
vn 0.46662906 -0.61116815 0.6393206
vn 0.025630927 -0.5294894 -0.8479293
vn -0.4565601 0.8805425 -0.12727088
vn 0.17988929 -0.7074147 0.6835235
vn 0.009391642 -0.5183771 -0.8551005
vn -0.1496566 0.974766 -0.16563249
vn 0.6016792 0.784149 0.15196235
vn -0.17970422 -0.5871796 -0.7892569
vn -0.07003679 -0.72360325 0.68665355
vn -0.77402854 -0.42992803 0.46480274
vn -0.9477064 0.15516683 0.27888334
vn -0.86273617 0.50322264 0.04953
vn -0.07942426 0.11731759 -0.9899132
vn 0.70507246 0.70006555 -0.11305334
vn -0.6261337 -0.5120124 0.58804756
vn 0.7058622 0.7066651 -0.04881513
vn 0.39960226 -0.6729657 0.622443
vn 0.5650294 -0.5128073 -0.64635175
vn -0.06243954 -0.54995376 -0.8328578
vn 0.64336854 0.7655098 -0.008462449
vn -0.8862107 -0.19791147 0.41888133
vn -0.058569767 -0.5096559 -0.85838246
vn 0.88218665 0.452871 0.12905218
vn -0.9654579 0.12398134 0.22917151
vn -0.07078363 -0.487563 -0.87021375
vn 0.9441155 0.15271285 0.2921037
vn -0.89717484 0.4382174 0.055162955
vn -0.056587994 -0.46821538 -0.88180053
vn 0.88173455 -0.14814231 0.4478818
vn -0.7196242 0.68877083 -0.0879531
vn -0.046819996 -0.45057428 -0.89151037
vn 0.7116226 -0.39293736 0.5824031
vn -0.4666275 0.8654726 -0.18225269
vn -0.02563148 -0.44134143 -0.8969731
vn 0.45656052 -0.5723929 0.68111587
vn -0.18528105 0.9541162 -0.23523019
vn -0.009697397 -0.44758475 -0.89418894
vn 0.16287722 -0.65849483 0.73474854
vn 0.17974536 -0.33565202 -0.92467797
vn -0.6332404 -0.26482734 0.7272365
vn 0.05840472 0.9689584 -0.24022588
vn 0.78678787 0.60831064 -0.10451264
vn 0.9493813 0.15344584 0.2740974
vn 0.862442 -0.22773322 0.45203018
vn 0.07316827 -0.9036783 -0.42191455
vn -0.7083729 -0.45769298 0.5373313
vn -0 -0.48619395 -0.87385094
vn -0 -0.48619395 -0.87385094
vn -4.486137E-07 -0.4861942 -0.8738508
vn -4.4861343E-07 -0.4861942 -0.8738508
vn -1.7596897E-06 -0.48619434 -0.87385064
vn -9.326611E-07 -0.48619536 -0.8738501
vn -1.7596867E-06 -0.48619434 -0.87385064
vn -9.32661E-07 -0.48619536 -0.8738501
vn -2.4389635E-06 -0.4861942 -0.8738508
vn -0 -0.48619598 -0.8738498
vn -2.438966E-06 -0.4861942 -0.8738508
vn -0 -0.48619592 -0.8738498
vn -4.760308E-07 -0.4861942 -0.8738508
vn 1.0436447E-06 -0.48619536 -0.8738501
vn -4.7602862E-07 -0.48619425 -0.8738508
vn 1.0436448E-06 -0.48619536 -0.8738501
vn 1.0322772E-06 -0.48619476 -0.87385046
vn -0 -0.48619467 -0.8738506
vn 1.0322773E-06 -0.48619476 -0.87385046
vn -0 -0.48619458 -0.8738506
vn 9.975116E-07 -0.48619482 -0.87385046
vn -1.4066811E-06 -0.4861937 -0.8738511
vn 9.975099E-07 -0.48619485 -0.8738504
vn -1.406681E-06 -0.4861937 -0.8738511
vn 1.3170882E-07 -0.48619384 -0.873851
vn -1.4173787E-06 -0.4861932 -0.8738513
vn 1.3170846E-07 -0.48619378 -0.873851
vn -1.4173796E-06 -0.48619327 -0.8738513
vn -3.717268E-07 -0.48619425 -0.8738508
vn -6.79272E-07 -0.4861941 -0.87385094
vn -3.7172677E-07 -0.48619425 -0.87385076
vn -6.792724E-07 -0.4861941 -0.87385094
vn -8.751633E-07 -0.4861951 -0.8738503
vn -0 -0.48619437 -0.87385076
vn -8.7516275E-07 -0.4861951 -0.8738503
vn -0 -0.48619434 -0.87385064
vn -5.749746E-07 -0.4861943 -0.87385076
vn 1.3104057E-07 -0.4861941 -0.87385094
vn -5.7497294E-07 -0.4861943 -0.87385076
vn 1.3104057E-07 -0.4861941 -0.87385094
vn -5.234941E-07 0.48619315 0.87385136
vn -0 0.48619384 0.873851
vn -0 0.48619384 0.873851
vn -5.23494E-07 0.4861931 0.87385136
vn 7.274096E-07 0.48619384 0.87385094
vn -6.3648326E-07 0.48619336 0.8738513
vn 7.274093E-07 0.48619395 0.87385094
vn -6.3648326E-07 0.48619336 0.8738513
vn 1.3799416E-06 0.48619366 0.873851
vn -0 0.48619372 0.873851
vn 1.3799422E-06 0.4861937 0.8738511
vn -0 0.48619366 0.873851
vn 1.7596916E-06 0.48619384 0.873851
vn 6.3681756E-07 0.48619327 0.8738513
vn 1.7596914E-06 0.48619384 0.873851
vn 6.368176E-07 0.4861933 0.8738513
vn 7.354318E-07 0.48619366 0.873851
vn 8.952208E-07 0.4861937 0.8738511
vn 7.35431E-07 0.48619366 0.873851
vn 8.95221E-07 0.4861937 0.8738511
vn 3.4297847E-07 0.48619357 0.8738512
vn 1.2275019E-06 0.48619357 0.8738511
vn 3.4297776E-07 0.4861935 0.8738512
vn 1.2275016E-06 0.48619357 0.8738511
vn 7.3008283E-07 0.4861932 0.8738513
vn 1.246222E-06 0.48619315 0.87385136
vn 7.300825E-07 0.4861932 0.8738513
vn 1.2462222E-06 0.4861931 0.87385136
vn 1.6246342E-07 0.48619425 0.87385076
vn 6.846196E-07 0.4861941 0.87385094
vn 1.6246342E-07 0.4861943 0.87385076
vn 6.8462E-07 0.48619404 0.87385094
vn 8.530988E-07 0.48619598 0.87384975
vn 1.4494691E-06 0.48619452 0.87385064
vn 8.530979E-07 0.48619598 0.87384975
vn 1.449467E-06 0.48619452 0.8738506
vn 2.2891934E-06 0.48619655 0.87384945
vn 2.781265E-06 0.4861956 0.87385
vn 2.2891918E-06 0.48619655 0.87384945
vn 2.7812646E-06 0.4861956 0.87385
g CH0331_Halo_0
f 3/3/3 2/2/2 1/1/1
f 4/4/4 3/3/3 1/1/1
f 3/3/3 5/5/5 2/2/2
f 4/4/4 1/1/1 6/6/6
f 5/5/5 7/7/7 2/2/2
f 8/8/8 4/4/4 6/6/6
f 5/5/5 9/9/9 7/7/7
f 8/8/8 6/6/6 10/10/10
f 9/9/9 11/11/11 7/7/7
f 12/12/12 8/8/8 10/10/10
f 9/9/9 13/13/13 11/11/11
f 12/12/12 10/10/10 14/14/14
f 13/13/13 15/15/15 11/11/11
f 16/16/16 12/12/12 14/14/14
f 13/13/13 17/17/17 15/15/15
f 16/16/16 14/14/14 18/18/18
f 17/17/17 19/19/19 15/15/15
f 20/20/20 16/16/16 18/18/18
f 17/17/17 21/21/21 19/19/19
f 20/20/20 18/18/18 22/22/22
f 21/21/21 23/23/23 19/19/19
f 24/24/24 20/20/20 22/22/22
f 21/21/21 25/25/25 23/23/23
f 24/24/24 22/22/22 26/26/26
f 25/25/25 27/27/27 23/23/23
f 28/28/28 24/24/24 26/26/26
f 25/25/25 29/29/29 27/27/27
f 28/28/28 26/26/26 30/30/30
f 29/29/29 31/31/31 27/27/27
f 32/32/32 28/28/28 30/30/30
f 29/29/29 33/33/33 31/31/31
f 32/32/32 30/30/30 34/34/34
f 33/33/33 35/35/35 31/31/31
f 36/36/36 32/32/32 34/34/34
f 33/33/33 37/37/37 35/35/35
f 36/36/36 34/34/34 38/38/38
f 37/37/37 39/39/39 35/35/35
f 40/40/40 36/36/36 38/38/38
f 40/40/40 38/38/38 39/39/39
f 37/37/37 40/40/40 39/39/39
f 43/43/43 42/42/42 41/41/41
f 42/42/42 44/44/44 41/41/41
f 43/43/43 41/41/41 45/45/45
f 42/42/42 46/46/46 44/44/44
f 47/47/47 43/43/43 45/45/45
f 46/46/46 48/48/48 44/44/44
f 47/47/47 45/45/45 49/49/49
f 46/46/46 50/50/50 48/48/48
f 51/51/51 47/47/47 49/49/49
f 50/50/50 52/52/52 48/48/48
f 51/51/51 49/49/49 53/53/53
f 50/50/50 54/54/54 52/52/52
f 55/55/55 51/51/51 53/53/53
f 54/54/54 56/56/56 52/52/52
f 55/55/55 53/53/53 57/57/57
f 54/54/54 58/58/58 56/56/56
f 59/59/59 55/55/55 57/57/57
f 58/58/58 60/60/60 56/56/56
f 59/59/59 57/57/57 61/61/61
f 58/58/58 62/62/62 60/60/60
f 63/63/63 59/59/59 61/61/61
f 62/62/62 64/64/64 60/60/60
f 63/63/63 61/61/61 65/65/65
f 62/62/62 66/66/66 64/64/64
f 67/67/67 63/63/63 65/65/65
f 66/66/66 68/68/68 64/64/64
f 67/67/67 65/65/65 69/69/69
f 66/66/66 70/70/70 68/68/68
f 71/71/71 67/67/67 69/69/69
f 70/70/70 72/72/72 68/68/68
f 71/71/71 69/69/69 73/73/73
f 70/70/70 74/74/74 72/72/72
f 75/75/75 71/71/71 73/73/73
f 74/74/74 76/76/76 72/72/72
f 75/75/75 73/73/73 77/77/77
f 74/74/74 78/78/78 76/76/76
f 79/79/79 75/75/75 77/77/77
f 78/78/78 80/80/80 76/76/76
f 79/79/79 77/77/77 80/80/80
f 78/78/78 79/79/79 80/80/80
f 83/83/83 82/82/82 81/81/81
f 84/84/84 83/83/83 81/81/81
f 84/84/84 82/82/82 83/83/83
f 84/84/84 85/85/85 82/82/82
f 85/85/85 84/84/84 81/81/81
f 82/82/82 86/86/86 81/81/81
f 85/85/85 86/86/86 82/82/82
f 85/85/85 81/81/81 87/87/87
f 81/81/81 86/86/86 87/87/87
f 85/85/85 88/88/88 86/86/86
f 88/88/88 85/85/85 87/87/87
f 86/86/86 89/89/89 87/87/87
f 88/88/88 89/89/89 86/86/86
f 88/88/88 87/87/87 90/90/90
f 87/87/87 89/89/89 90/90/90
f 88/88/88 91/91/91 89/89/89
f 91/91/91 88/88/88 90/90/90
f 89/89/89 92/92/92 90/90/90
f 91/91/91 92/92/92 89/89/89
f 91/91/91 90/90/90 93/93/93
f 90/90/90 92/92/92 93/93/93
f 91/91/91 94/94/94 92/92/92
f 94/94/94 91/91/91 93/93/93
f 92/92/92 95/95/95 93/93/93
f 94/94/94 95/95/95 92/92/92
f 94/94/94 93/93/93 96/96/96
f 93/93/93 95/95/95 96/96/96
f 94/94/94 97/97/97 95/95/95
f 97/97/97 94/94/94 96/96/96
f 95/95/95 98/98/98 96/96/96
f 97/97/97 98/98/98 95/95/95
f 97/97/97 96/96/96 99/99/99
f 96/96/96 98/98/98 99/99/99
f 97/97/97 100/100/100 98/98/98
f 100/100/100 97/97/97 99/99/99
f 98/98/98 101/101/101 99/99/99
f 100/100/100 101/101/101 98/98/98
f 100/100/100 99/99/99 102/102/102
f 99/99/99 101/101/101 102/102/102
f 100/100/100 103/103/103 101/101/101
f 103/103/103 100/100/100 102/102/102
f 101/101/101 104/104/104 102/102/102
f 103/103/103 104/104/104 101/101/101
f 104/104/104 105/105/105 102/102/102
f 103/103/103 106/106/106 104/104/104
f 106/106/106 105/105/105 104/104/104
f 103/103/103 102/102/102 107/107/107
f 105/105/105 107/107/107 102/102/102
f 106/106/106 103/103/103 107/107/107
f 106/106/106 107/107/107 108/108/108
f 107/107/107 109/109/109 108/108/108
f 107/107/107 105/105/105 109/109/109
f 106/106/106 108/108/108 109/109/109
f 106/106/106 109/109/109 110/110/110
f 110/110/110 109/109/109 105/105/105
f 106/106/106 111/111/111 105/105/105
f 111/111/111 106/106/106 110/110/110
f 112/112/112 110/110/110 105/105/105
f 111/111/111 112/112/112 105/105/105
f 111/111/111 110/110/110 112/112/112
f 115/115/115 114/114/114 113/113/113
f 116/116/116 115/115/115 113/113/113
f 116/116/116 114/114/114 115/115/115
f 116/116/116 117/117/117 114/114/114
f 117/117/117 116/116/116 113/113/113
f 114/114/114 118/118/118 113/113/113
f 117/117/117 118/118/118 114/114/114
f 117/117/117 113/113/113 119/119/119
f 113/113/113 118/118/118 119/119/119
f 117/117/117 120/120/120 118/118/118
f 120/120/120 117/117/117 119/119/119
f 118/118/118 121/121/121 119/119/119
f 120/120/120 121/121/121 118/118/118
f 120/120/120 119/119/119 122/122/122
f 119/119/119 121/121/121 122/122/122
f 120/120/120 123/123/123 121/121/121
f 123/123/123 120/120/120 122/122/122
f 121/121/121 124/124/124 122/122/122
f 123/123/123 124/124/124 121/121/121
f 123/123/123 122/122/122 125/125/125
f 122/122/122 124/124/124 125/125/125
f 123/123/123 126/126/126 124/124/124
f 126/126/126 123/123/123 125/125/125
f 124/124/124 127/127/127 125/125/125
f 126/126/126 127/127/127 124/124/124
f 126/126/126 125/125/125 128/128/128
f 125/125/125 127/127/127 128/128/128
f 126/126/126 129/129/129 127/127/127
f 129/129/129 126/126/126 128/128/128
f 127/127/127 130/130/130 128/128/128
f 129/129/129 130/130/130 127/127/127
f 129/129/129 128/128/128 131/131/131
f 128/128/128 130/130/130 131/131/131
f 129/129/129 132/132/132 130/130/130
f 132/132/132 129/129/129 131/131/131
f 130/130/130 133/133/133 131/131/131
f 132/132/132 133/133/133 130/130/130
f 132/132/132 131/131/131 134/134/134
f 131/131/131 133/133/133 134/134/134
f 132/132/132 135/135/135 133/133/133
f 135/135/135 132/132/132 134/134/134
f 133/133/133 136/136/136 134/134/134
f 135/135/135 136/136/136 133/133/133
f 135/135/135 137/137/137 136/136/136
f 136/136/136 138/138/138 134/134/134
f 137/137/137 138/138/138 136/136/136
f 135/135/135 134/134/134 139/139/139
f 138/138/138 139/139/139 134/134/134
f 137/137/137 135/135/135 139/139/139
f 139/139/139 138/138/138 140/140/140
f 137/137/137 139/139/139 140/140/140
f 138/138/138 141/141/141 140/140/140
f 137/137/137 140/140/140 141/141/141
f 137/137/137 141/141/141 142/142/142
f 142/142/142 141/141/141 138/138/138
f 137/137/137 143/143/143 138/138/138
f 143/143/143 137/137/137 142/142/142
f 144/144/144 142/142/142 138/138/138
f 143/143/143 144/144/144 138/138/138
f 143/143/143 142/142/142 144/144/144
f 147/147/147 146/146/146 145/145/145
f 148/148/148 147/147/147 145/145/145
f 145/145/145 146/146/146 149/149/149
f 150/150/150 147/147/147 148/148/148
f 146/146/146 151/151/151 149/149/149
f 152/152/152 150/150/150 148/148/148
f 149/149/149 151/151/151 153/153/153
f 154/154/154 150/150/150 152/152/152
f 151/151/151 155/155/155 153/153/153
f 156/156/156 154/154/154 152/152/152
f 153/153/153 155/155/155 157/157/157
f 158/158/158 154/154/154 156/156/156
f 155/155/155 159/159/159 157/157/157
f 160/160/160 158/158/158 156/156/156
f 157/157/157 159/159/159 161/161/161
f 162/162/162 158/158/158 160/160/160
f 159/159/159 163/163/163 161/161/161
f 164/164/164 162/162/162 160/160/160
f 161/161/161 163/163/163 165/165/165
f 166/166/166 162/162/162 164/164/164
f 163/163/163 167/167/167 165/165/165
f 168/168/168 166/166/166 164/164/164
f 165/165/165 167/167/167 169/169/169
f 170/170/170 166/166/166 168/168/168
f 167/167/167 171/171/171 169/169/169
f 172/172/172 170/170/170 168/168/168
f 169/169/169 171/171/171 173/173/173
f 174/174/174 170/170/170 172/172/172
f 171/171/171 175/175/175 173/173/173
f 176/176/176 174/174/174 172/172/172
f 173/173/173 175/175/175 177/177/177
f 178/178/178 174/174/174 176/176/176
f 175/175/175 179/179/179 177/177/177
f 180/180/180 178/178/178 176/176/176
f 177/177/177 179/179/179 181/181/181
f 182/182/182 178/178/178 180/180/180
f 179/179/179 183/183/183 181/181/181
f 184/184/184 182/182/182 180/180/180
f 181/181/181 183/183/183 184/184/184
f 183/183/183 182/182/182 184/184/184
f 187/187/187 186/186/186 185/185/185
f 188/188/188 187/187/187 185/185/185
f 187/187/187 189/189/189 186/186/186
f 188/188/188 185/185/185 190/190/190
f 189/189/189 191/191/191 186/186/186
f 192/192/192 188/188/188 190/190/190
f 189/189/189 193/193/193 191/191/191
f 192/192/192 190/190/190 194/194/194
f 193/193/193 195/195/195 191/191/191
f 196/196/196 192/192/192 194/194/194
f 193/193/193 197/197/197 195/195/195
f 196/196/196 194/194/194 198/198/198
f 197/197/197 199/199/199 195/195/195
f 200/200/200 196/196/196 198/198/198
f 197/197/197 201/201/201 199/199/199
f 200/200/200 198/198/198 202/202/202
f 201/201/201 203/203/203 199/199/199
f 204/204/204 200/200/200 202/202/202
f 201/201/201 205/205/205 203/203/203
f 204/204/204 202/202/202 206/206/206
f 205/205/205 207/207/207 203/203/203
f 208/208/208 204/204/204 206/206/206
f 205/205/205 209/209/209 207/207/207
f 208/208/208 206/206/206 210/210/210
f 209/209/209 211/211/211 207/207/207
f 212/212/212 208/208/208 210/210/210
f 209/209/209 213/213/213 211/211/211
f 212/212/212 210/210/210 214/214/214
f 213/213/213 215/215/215 211/211/211
f 216/216/216 212/212/212 214/214/214
f 213/213/213 217/217/217 215/215/215
f 216/216/216 214/214/214 218/218/218
f 217/217/217 219/219/219 215/215/215
f 220/220/220 216/216/216 218/218/218
f 217/217/217 221/221/221 219/219/219
f 220/220/220 218/218/218 222/222/222
f 221/221/221 223/223/223 219/219/219
f 224/224/224 220/220/220 222/222/222
f 224/224/224 222/222/222 223/223/223
f 221/221/221 224/224/224 223/223/223
