g CH0331_Prop_Outline
v 0.07938246 -0.18434097 0.87220424
v 0.08140892 -0.16853388 0.86853135
v 0.09278324 -0.18630998 0.86373
v 0.09907171 -0.18328972 0.87672734
v 0.088022746 -0.16565318 0.8809286
v 0.08583166 -0.18146068 0.88460165
v 0.050766047 -0.18268725 0.87931824
v 0.036290493 -0.16478592 0.88466096
v 0.035387155 -0.18059233 0.88833374
v 0.028016634 -0.18369797 0.87496847
v 0.028731793 -0.16789156 0.87129563
v 0.04367033 -0.18580993 0.8658794
v 0.055850524 -0.16817446 0.941775
v 0.04373436 -0.15426408 0.92994237
v 0.04264576 -0.17007051 0.93361527
v 0.049057942 -0.17314893 0.920367
v 0.050310247 -0.1573425 0.91669416
v 0.06272699 -0.1711217 0.9290911
v -0.07938255 -0.18434097 0.8722044
v -0.09278324 -0.18630998 0.86373
v -0.08140894 -0.16853386 0.86853135
v -0.09907178 -0.18328972 0.87672734
v -0.08583168 -0.18146068 0.88460165
v -0.08802276 -0.16565317 0.8809286
v -0.050766114 -0.18268722 0.8793181
v -0.035387278 -0.18059233 0.88833374
v -0.03629054 -0.16478594 0.88466096
v -0.02801672 -0.18369797 0.8749683
v -0.04367047 -0.18580993 0.8658794
v -0.028731842 -0.16789156 0.87129563
v -0.055850558 -0.16817446 0.941775
v -0.04264587 -0.17007051 0.93361527
v -0.043734405 -0.15426408 0.92994237
v -0.049058054 -0.1731489 0.9203671
v -0.06272713 -0.17112173 0.9290912
v -0.0503103 -0.15734254 0.91669416
v 0.12358536 -0.18630126 0.84752995
v 0.03148202 -0.18630129 0.84752995
v 0.016732635 -0.18069573 0.87165403
v 0.12358541 -0.16295023 0.9480232
v -0.016732674 -0.18069573 0.87165403
v -0.12358545 -0.16295023 0.94802326
v -0.12358543 -0.18630126 0.84752995
v -0.031482056 -0.18630126 0.84752995
v 0.03148202 -0.18630129 0.84752995
v 0.12671743 -0.17051703 0.8438623
v 0.03227989 -0.17051703 0.8438623
v 0.12358536 -0.18630126 0.84752995
v 0.12671742 -0.14716594 0.94435555
v 0.12358541 -0.16295023 0.9480232
v -0.1267175 -0.14716592 0.94435555
v -0.12358545 -0.16295023 0.94802326
v -0.1267175 -0.17051703 0.8438623
v -0.12358543 -0.18630126 0.84752995
v -0.03227991 -0.17051703 0.8438623
v -0.031482056 -0.18630126 0.84752995
v 0.013620462 -0.17019714 0.86137336
v 0.013316373 -0.18437393 0.8646676
v 0.022009 -0.18881197 0.845568
v 0.022511626 -0.1746352 0.8422738
v 0.08140892 -0.16853388 0.86853135
v 0.07938246 -0.18434097 0.87220424
v 0.08583166 -0.18146068 0.88460165
v 0.088022746 -0.16565318 0.8809286
v 0.088022746 -0.16565318 0.8809286
v 0.09907171 -0.18328972 0.87672734
v 0.09278324 -0.18630998 0.86373
v 0.08140892 -0.16853388 0.86853135
v 0.036290493 -0.16478592 0.88466096
v 0.050766047 -0.18268725 0.87931824
v 0.04367033 -0.18580993 0.8658794
v 0.028731793 -0.16789156 0.87129563
v 0.028731793 -0.16789156 0.87129563
v 0.028016634 -0.18369797 0.87496847
v 0.035387155 -0.18059233 0.88833374
v 0.036290493 -0.16478592 0.88466096
v 0.050310247 -0.1573425 0.91669416
v 0.049057942 -0.17314893 0.920367
v 0.04264576 -0.17007051 0.93361527
v 0.04373436 -0.15426408 0.92994237
v 0.04373436 -0.15426408 0.92994237
v 0.055850524 -0.16817446 0.941775
v 0.06272699 -0.1711217 0.9290911
v 0.050310247 -0.1573425 0.91669416
v 0.091353774 -0.15505978 0.9265181
v 0.0893145 -0.16923654 0.9298123
v 0.08219059 -0.16660398 0.94114166
v 0.084067345 -0.15242723 0.93784744
v 0.120032825 -0.15038037 0.9466562
v 0.11735322 -0.16455719 0.9499504
v 0.0893145 -0.16923654 0.9298123
v 0.091353774 -0.15505978 0.9265181
v 0.084067345 -0.15242723 0.93784744
v 0.08219059 -0.16660398 0.94114166
v 0.09507028 -0.16455717 0.9499504
v 0.09724117 -0.1503804 0.9466562
v 0.0071264836 -0.1503804 0.9466562
v 0.0069664475 -0.16455719 0.9499504
v 0.0069663427 -0.16827616 0.9339456
v 0.007125416 -0.15409933 0.9306514
v 0.091353774 -0.15505978 0.9265181
v 0.084067345 -0.15242723 0.93784744
v 0.09724117 -0.1503804 0.9466562
v 0.120032825 -0.15038037 0.9466562
v -0.013620548 -0.17019714 0.86137336
v -0.022511682 -0.17463514 0.8422738
v -0.022009153 -0.188812 0.845568
v -0.013316497 -0.18437392 0.86466765
v 0.013316373 -0.18437393 0.8646676
v 0.013620462 -0.17019714 0.86137336
v -0.013620548 -0.17019714 0.86137336
v -0.013316497 -0.18437392 0.86466765
v -0.08140894 -0.16853386 0.86853135
v -0.08802276 -0.16565317 0.8809286
v -0.08583168 -0.18146068 0.88460165
v -0.07938255 -0.18434097 0.8722044
v -0.08802276 -0.16565317 0.8809286
v -0.08140894 -0.16853386 0.86853135
v -0.09278324 -0.18630998 0.86373
v -0.09907178 -0.18328972 0.87672734
v -0.03629054 -0.16478594 0.88466096
v -0.028731842 -0.16789156 0.87129563
v -0.04367047 -0.18580993 0.8658794
v -0.050766114 -0.18268722 0.8793181
v -0.028731842 -0.16789156 0.87129563
v -0.03629054 -0.16478594 0.88466096
v -0.035387278 -0.18059233 0.88833374
v -0.02801672 -0.18369797 0.8749683
v -0.0503103 -0.15734254 0.91669416
v -0.043734405 -0.15426408 0.92994237
v -0.04264587 -0.17007051 0.93361527
v -0.049058054 -0.1731489 0.9203671
v -0.043734405 -0.15426408 0.92994237
v -0.0503103 -0.15734254 0.91669416
v -0.06272713 -0.17112173 0.9290912
v -0.055850558 -0.16817446 0.941775
v -0.09135389 -0.15505978 0.9265181
v -0.08406736 -0.15242726 0.93784744
v -0.08219065 -0.16660398 0.94114166
v -0.08931451 -0.16923656 0.9298123
v -0.12003293 -0.15038043 0.9466562
v -0.09135389 -0.15505978 0.9265181
v -0.08931451 -0.16923656 0.9298123
v -0.117353275 -0.16455719 0.9499504
v -0.08406736 -0.15242726 0.93784744
v -0.09724124 -0.1503804 0.9466562
v -0.0950704 -0.16455714 0.9499504
v -0.08219065 -0.16660398 0.94114166
v -0.0071254536 -0.15409933 0.9306514
v 0.007125416 -0.15409933 0.9306514
v 0.0069663427 -0.16827616 0.9339456
v -0.0069664 -0.16827616 0.9339456
v -0.00712656 -0.15038039 0.9466562
v -0.0071254536 -0.15409933 0.9306514
v -0.0069664 -0.16827616 0.9339456
v -0.0069665336 -0.1645572 0.9499504
v -0.09135389 -0.15505978 0.9265181
v -0.12003293 -0.15038043 0.9466562
v -0.09724124 -0.1503804 0.9466562
v -0.08406736 -0.15242726 0.93784744
v 0.013620462 -0.17019714 0.86137336
v 0.022511626 -0.1746352 0.8422738
v -0.022511682 -0.17463514 0.8422738
v -0.013620548 -0.17019714 0.86137336
v -0.00712656 -0.15038039 0.9466562
v 0.0071264836 -0.1503804 0.9466562
v 0.007125416 -0.15409933 0.9306514
v -0.0071254536 -0.15409933 0.9306514
v 0.033070203 -0.18894307 0.8455703
v 0.03621849 -0.18937862 0.85061455
v 0.034109496 -0.18894307 0.8455703
v 0.035287436 -0.18937862 0.85061455
v 0.043028086 -0.18606636 0.86663175
v 0.043709543 -0.18615837 0.86623585
v 0.05907873 -0.17871986 0.8982479
v 0.050653953 -0.18309446 0.8794216
v 0.04994173 -0.18299736 0.87983936
v 0.060029294 -0.17868385 0.89840287
v 0.03637251 -0.16741535 0.94570434
v 0.03534361 -0.1674198 0.9457054
v 0.03309759 -0.1646664 0.94994545
v 0.034156665 -0.16466641 0.94994545
v -0.033070296 -0.18894307 0.8455703
v -0.034109563 -0.18894307 0.8455703
v -0.03621852 -0.18937862 0.85061455
v -0.03528756 -0.18937862 0.85061455
v -0.043709658 -0.18615837 0.86623585
v -0.043028172 -0.18606634 0.86663175
v -0.059078824 -0.17871988 0.8982477
v -0.049941845 -0.18299736 0.87983936
v -0.050654054 -0.18309443 0.8794216
v -0.060029373 -0.17868385 0.898403
v -0.036372602 -0.16741534 0.94570434
v -0.03534372 -0.1674198 0.9457054
v -0.034156684 -0.1646664 0.94994545
v -0.03309762 -0.1646664 0.94994545
v -0.12805031 -0.14385806 0.94514054
v -6.67572E-08 -0.15598546 0.8929495
v 0.12805021 -0.14385803 0.94514054
v -0.13223276 -0.14494057 0.9404819
v 0.1322327 -0.14494057 0.9404819
v -0.13223276 -0.16702935 0.8454212
v 0.13223268 -0.16702934 0.8454212
v -0.12805031 -0.16811286 0.84075826
v 0.12805025 -0.16811284 0.84075826
v -0.022622414 -0.16985056 0.8452751
v -0.02271472 -0.18727353 0.8391176
v -0.022085227 -0.18502352 0.8488007
v -0.024454508 -0.1864205 0.8491253
v -0.02326722 -0.17210063 0.83559185
v -0.025523119 -0.17110473 0.8335407
v -0.025160503 -0.16845356 0.84495044
v -0.059749726 -0.1706471 0.83551025
v -0.06242339 -0.16845357 0.84495044
v -0.062301405 -0.17196923 0.83615714
v -0.064770356 -0.16985056 0.8452751
v -0.060821895 -0.18714218 0.83968276
v -0.06323222 -0.18502347 0.8488007
v -0.059164267 -0.17273575 0.8328583
v -0.05807323 -0.18861413 0.83968496
v -0.060671814 -0.18642053 0.8491253
v -0.024806947 -0.18907171 0.83771574
v -0.023994893 -0.18833423 0.8345525
v -0.024578562 -0.17316136 0.8310268
v -0.031114625 -0.17240104 0.82796204
v -0.057759225 -0.18790871 0.83638406
v -0.030241555 -0.19036804 0.832137
v -0.028505668 -0.17407377 0.8271002
v -0.032774474 -0.17435572 0.8258869
v -0.02782874 -0.18924665 0.83062583
v -0.031996146 -0.18952863 0.8294125
v 0.02445444 -0.18642053 0.8491253
v 0.060671825 -0.18642053 0.8491253
v 0.058073156 -0.18861413 0.83968496
v 0.06323215 -0.18502347 0.8488007
v 0.060821913 -0.1871422 0.83968276
v 0.064770356 -0.16985057 0.8452751
v 0.06230135 -0.17196926 0.83615714
v 0.06242334 -0.16845356 0.84495044
v 0.059749622 -0.1706471 0.83551025
v 0.025160389 -0.16845356 0.84495044
v 0.059164103 -0.17273577 0.8328583
v 0.057759132 -0.18790872 0.83638406
v 0.025523061 -0.17110477 0.8335407
v 0.022622375 -0.16985057 0.8452751
v 0.02480689 -0.18907174 0.83771574
v 0.030241527 -0.19036801 0.832137
v 0.031996116 -0.18952863 0.8294125
v 0.032774363 -0.1743557 0.8258869
v 0.027828684 -0.18924665 0.83062583
v 0.022714633 -0.18727353 0.8391176
v 0.02208515 -0.18502347 0.8488007
v 0.031114578 -0.17240106 0.82796204
v 0.028505629 -0.17407377 0.8271002
v 0.023994846 -0.18833426 0.8345525
v 0.02326723 -0.1721006 0.83559185
v 0.024578532 -0.17316136 0.8310268
v 0.1322327 -0.14494057 0.9404819
v 0.13223268 -0.16702934 0.8454212
v 0.12796639 -0.1877285 0.850231
v 0.12805025 -0.16811284 0.84075826
v 0.12796639 -0.16563973 0.94529164
v 0.123918794 -0.16455719 0.9499504
v 0.12359359 -0.16726933 0.94567037
v 0.12805021 -0.14385803 0.94514054
v 0.12359359 -0.1893581 0.85060954
v 0.123918794 -0.18881197 0.845568
v 0.120032825 -0.15038037 0.9466562
v -0.12805031 -0.14385806 0.94514054
v 0.09724117 -0.1503804 0.9466562
v 0.11735322 -0.16455719 0.9499504
v 0.022511626 -0.1746352 0.8422738
v -0.12805031 -0.16811286 0.84075826
v -0.022511682 -0.17463514 0.8422738
v 0.022009 -0.18881197 0.845568
v -0.12391891 -0.188812 0.845568
v -0.13223276 -0.16702935 0.8454212
v -0.022009153 -0.188812 0.845568
v -0.12359366 -0.18935812 0.85060954
v -0.12796646 -0.18772848 0.850231
v -0.12359365 -0.16726933 0.94567037
v -0.13223276 -0.14494057 0.9404819
v -0.12796643 -0.16563974 0.9452918
v 0.024392813 -0.1893581 0.85060954
v -0.02439292 -0.18935807 0.85060954
v -0.016769132 -0.18545787 0.8673947
v -0.013316497 -0.18437392 0.86466765
v 0.013316373 -0.18437393 0.8646676
v 0.016769018 -0.18545784 0.8673947
v -0.12391891 -0.16455722 0.9499504
v 0.09278324 -0.18630998 0.86373
v 0.09907171 -0.18328972 0.87672734
v 0.08583166 -0.18146068 0.88460165
v 0.04367033 -0.18580993 0.8658794
v 0.07938246 -0.18434097 0.87220424
v 0.050766047 -0.18268725 0.87931824
v 0.028016634 -0.18369797 0.87496847
v 0.035387155 -0.18059233 0.88833374
v -0.035387278 -0.18059233 0.88833374
v 0.08874887 -0.17194614 0.9255437
v -0.02801672 -0.18369797 0.8749683
v -0.04367047 -0.18580993 0.8658794
v 0.11820051 -0.16726932 0.94567037
v 0.0893145 -0.16923654 0.9298123
v 0.08219059 -0.16660398 0.94114166
v 0.076110974 -0.16790791 0.94292194
v 0.09507028 -0.16455717 0.9499504
v -0.09278324 -0.18630998 0.86373
v -0.09907178 -0.18328972 0.87672734
v -0.07938255 -0.18434097 0.8722044
v -0.050766114 -0.18268722 0.8793181
v -0.08583168 -0.18146068 0.88460165
v -0.08874895 -0.17194614 0.9255437
v -0.118200555 -0.16726933 0.9456704
v -0.117353275 -0.16455719 0.9499504
v -0.12003293 -0.15038043 0.9466562
v -0.08931451 -0.16923656 0.9298123
v -0.09724124 -0.1503804 0.9466562
v -0.00712656 -0.15038039 0.9466562
v -0.0950704 -0.16455714 0.9499504
v 0.0071264836 -0.1503804 0.9466562
v 0.0069664475 -0.16455719 0.9499504
v -0.0069665336 -0.1645572 0.9499504
v 0.080414504 -0.16726932 0.94567037
v 0.010939464 -0.16726932 0.94567037
v 0.0069663427 -0.16827616 0.9339456
v -0.07611102 -0.16790791 0.94292194
v -0.08219065 -0.16660398 0.94114166
v -0.08041455 -0.16726929 0.94567037
v -0.010939522 -0.16726932 0.94567037
v 0.010984983 -0.17098925 0.9296614
v -0.0069664 -0.16827616 0.9339456
v -0.010985012 -0.17098926 0.9296614
v 0.055850524 -0.16817446 0.941775
v 0.06272699 -0.1711217 0.9290911
v 0.04264576 -0.17007051 0.93361527
v 0.049057942 -0.17314893 0.920367
v -0.049058054 -0.1731489 0.9203671
v -0.04264587 -0.17007051 0.93361527
v -0.06272713 -0.17112173 0.9290912
v -0.055850558 -0.16817446 0.941775
v -0.011162911 -0.18425141 0.8644586
v -0.011437883 -0.16895017 0.8609031
v 0.011437873 -0.16895019 0.8609031
v 0.011162796 -0.18425147 0.8644585
v 0.014126205 -0.16937487 0.85907567
v 0.013786478 -0.18467613 0.86263114
v 0.021085948 -0.17284179 0.8441552
v -0.013786554 -0.1846761 0.86263114
v -0.014126234 -0.16937487 0.85907567
v 0.0118538095 -0.18562324 0.8626025
v 0.020578928 -0.18814307 0.8477106
v 0.020102672 -0.1732665 0.84232754
v -0.020578947 -0.18814307 0.8477106
v -0.021085968 -0.17284182 0.8441552
v -0.011853895 -0.18562324 0.8626025
v 0.018421983 -0.1889805 0.8481539
v 0.019619236 -0.18856774 0.845883
v -0.020102605 -0.1732665 0.84232754
v -0.019619226 -0.18856774 0.845883
v -0.018421993 -0.1889805 0.8481539
v 0.053432703 -0.107084885 0.93492144
v -5.7220458E-08 -0.14230895 0.94310623
v -3.8146972E-08 -0.110716864 0.93576545
v -3.8146972E-08 -0.11008869 0.9299266
v -0.05343276 -0.107084885 0.93492144
v 0.12563783 -0.14230895 0.94310623
v 0.049841203 -0.10665933 0.9291298
v 0.09031989 -0.084791645 0.92974126
v 0.049841184 -0.124952115 0.8375096
v 0.08561432 -0.085884005 0.9243023
v 0.14413653 -0.08479164 0.92974126
v 0.09078643 -0.08387625 0.92383575
v 0.08769473 -0.10503144 0.83288074
v 0.082745425 -0.10702648 0.83334434
v 0.14926744 -0.08604667 0.9243401
v 0.14672466 -0.08375381 0.9238073
v 0.12529871 -0.14530139 0.9381088
v 0.13011022 -0.143564 0.937705
v 0.13011025 -0.16469982 0.8467455
v 0.1492675 -0.107182465 0.8333806
v 0.12529865 -0.16643718 0.84714913
v -3.8146972E-08 -0.16643718 0.84714913
v 0.12563781 -0.16580285 0.8419985
v 0.14413655 -0.10828552 0.8286335
v 0.14672457 -0.10488962 0.8328477
v 0.14225253 -0.10244221 0.8389491
v 0.14225253 -0.08277686 0.9235803
v 0.08703931 -0.10828551 0.82863355
v -5.7220458E-08 -0.1453014 0.9381088
v -0.1252987 -0.1453014 0.9381088
v 0.09329484 -0.08277689 0.92358035
v -0.12070276 -0.14230894 0.94310623
v 0.053401366 -0.1274203 0.83307976
v -3.8146972E-08 -0.16580284 0.8419985
v -3.8146972E-08 -0.13123451 0.833966
v 0.09120213 -0.1024422 0.8389491
v 0.08808507 -0.10318652 0.832452
v -1.9073486E-08 -0.12853992 0.83834326
v -0.04984126 -0.1249521 0.8375096
v -0.05340142 -0.12742029 0.83307976
v -0.12563795 -0.16580284 0.8419985
v 0.090557754 -0.08205875 0.9234135
v 0.14670767 -0.08202118 0.9234047
v -0.04984126 -0.106659345 0.9291298
v -0.090319976 -0.084791645 0.92974126
v -0.08561439 -0.08588403 0.9243023
v -0.08274543 -0.107026495 0.83334434
v -0.087694764 -0.10503142 0.83288074
v -0.087039314 -0.10828551 0.82863355
v -0.090786435 -0.08387624 0.92383575
v -0.14413656 -0.08479164 0.92974126
v -0.1492675 -0.08604668 0.9243401
v -0.14672467 -0.0837538 0.9238073
v -0.12499947 -0.14356399 0.93770504
v -0.12529872 -0.16643718 0.84714913
v -0.13011032 -0.16469982 0.8467455
v -0.14413656 -0.10828551 0.8286335
v -0.1492675 -0.10718248 0.8333806
v -0.14672467 -0.10488962 0.8328477
v -0.14225255 -0.102442205 0.8389491
v -0.14225255 -0.08277688 0.92358035
v -0.09329489 -0.08277688 0.92358035
v -0.09120216 -0.102442205 0.8389491
v -0.08808509 -0.10318649 0.832452
v -0.09055782 -0.08205875 0.9234135
v -0.14670773 -0.08202117 0.92340475
v -0.14670299 -0.10315703 0.8324452
v -0.09510985 -0.078605376 0.92830384
v -0.08729225 -0.10101778 0.83194804
v -0.08970407 -0.07988216 0.9229077
v -0.14421113 -0.078605354 0.92830384
v -0.116186015 -0.056084603 0.9230708
v -0.1493381 -0.079860434 0.92290264
v -0.11092941 -0.05733964 0.91766965
v -0.09244772 -0.10209927 0.8271961
v -0.14420033 -0.10209923 0.8271961
v -0.108624436 -0.078475446 0.82671005
v -0.14933531 -0.10099622 0.83194304
v -0.14974733 -0.078475446 0.82671005
v -0.14982 -0.05733964 0.91766965
v -0.113629654 -0.0795785 0.821963
v -0.14461245 -0.079578474 0.821963
v -0.14469303 -0.056084584 0.9230708
v -0.14539333 -0.05536453 0.8163366
v -0.14469236 -0.040518694 0.91945386
v -0.15008613 -0.040811624 0.913829
v -0.15008616 -0.048358887 0.8873758
v -0.12373723 -0.030997103 0.91724133
v -0.14337741 -0.0300033 0.91131765
v -0.13850753 -0.029051045 0.9167892
v -0.15008615 -0.055069845 0.8512802
v -0.14410566 -0.037958372 0.8852651
v -0.13796625 -0.029235171 0.9111392
v -0.12343213 -0.031104773 0.9115735
v -0.11838101 -0.033183794 0.9120567
v -0.15034515 -0.053940315 0.821009
v -0.14450687 -0.045073614 0.8492623
v -0.123154044 -0.03946305 0.8853728
v -0.1181735 -0.040993698 0.88757735
v -0.1387445 -0.037239008 0.8850752
v -0.1226441 -0.04672075 0.84940183
v -0.11757895 -0.04908223 0.8479979
v -0.13918076 -0.044362124 0.8490779
v -0.14537595 -0.045452204 0.8190366
v -0.11705147 -0.049051322 0.819873
v -0.12199555 -0.04646307 0.8192715
v -0.12188307 -0.048137825 0.81465805
v -0.14039887 -0.045604065 0.8143926
v -0.13958098 -0.04416085 0.81873655
v 0.14670295 -0.10315701 0.8324452
v 0.14933802 -0.07986043 0.92290264
v 0.14420031 -0.10209925 0.8271961
v 0.14933524 -0.10099622 0.83194304
v 0.1497473 -0.078475446 0.82671005
v 0.1446124 -0.07957848 0.821963
v 0.14421107 -0.07860536 0.92830384
v 0.14981997 -0.05733962 0.91766965
v 0.095109716 -0.078605376 0.92830384
v 0.09244765 -0.10209923 0.8271961
v 0.113629594 -0.07957848 0.821963
v 0.08729218 -0.10101778 0.83194804
v 0.08970401 -0.079882175 0.92290777
v 0.11618599 -0.056084584 0.9230708
v 0.10862443 -0.078475446 0.82671005
v 0.11092934 -0.05733964 0.91766965
v 0.144693 -0.056084584 0.9230708
v 0.1453933 -0.05536454 0.8163366
v 0.1500861 -0.04081163 0.9138291
v 0.14469229 -0.040518694 0.91945386
v 0.1500861 -0.048358876 0.8873758
v 0.12373717 -0.030997103 0.91724133
v 0.14337727 -0.0300033 0.91131765
v 0.13850746 -0.029051065 0.91678923
v 0.15008609 -0.055069856 0.8512802
v 0.14410557 -0.037958354 0.8852651
v 0.13796616 -0.029235171 0.91113913
v 0.12343207 -0.031104755 0.9115736
v 0.11838096 -0.033183794 0.9120567
v 0.15034504 -0.053940322 0.821009
v 0.14450672 -0.04507362 0.8492623
v 0.12315398 -0.03946305 0.88537276
v 0.11817347 -0.04099369 0.88757735
v 0.13874444 -0.037239008 0.8850752
v 0.12264407 -0.04672075 0.84940183
v 0.11757893 -0.04908223 0.8479979
v 0.13918075 -0.044362124 0.8490778
v 0.14537589 -0.04545221 0.8190366
v 0.11705144 -0.049051303 0.819873
v 0.12199542 -0.04646308 0.8192715
v 0.12188302 -0.048137825 0.81465805
v 0.14039877 -0.045604065 0.8143926
v 0.1395809 -0.04416085 0.81873655
vt 0.016860962 0.96435547
vt 0.016860962 0.96435547
vt 0.016036987 0.96435547
vt 0.016036987 0.9628906
vt 0.016860962 0.9628906
vt 0.016860962 0.9628906
vt 0.016036987 0.9628906
vt 0.016860962 0.9628906
vt 0.016860962 0.9628906
vt 0.016860962 0.96435547
vt 0.016860962 0.96435547
vt 0.016036987 0.96435547
vt 0.016036987 0.9628906
vt 0.016860962 0.9628906
vt 0.016860962 0.9628906
vt 0.016860962 0.96435547
vt 0.016860962 0.96435547
vt 0.016036987 0.96435547
vt 0.016860962 0.96435547
vt 0.016036987 0.96435547
vt 0.016860962 0.96435547
vt 0.016036987 0.9628906
vt 0.016860962 0.9628906
vt 0.016860962 0.9628906
vt 0.016036987 0.9628906
vt 0.016860962 0.9628906
vt 0.016860962 0.9628906
vt 0.016860962 0.96435547
vt 0.016036987 0.96435547
vt 0.016860962 0.96435547
vt 0.016036987 0.9628906
vt 0.016860962 0.9628906
vt 0.016860962 0.9628906
vt 0.016860962 0.96435547
vt 0.016036987 0.96435547
vt 0.016860962 0.96435547
vt 0.024108887 0.8232422
vt 0.023971558 0.8232422
vt 0.023956299 0.82373047
vt 0.024108887 0.82373047
vt 0.023910522 0.82373047
vt 0.023757935 0.82373047
vt 0.023757935 0.8232422
vt 0.023895264 0.8232422
vt 0.023971558 0.8232422
vt 0.024108887 0.8232422
vt 0.023971558 0.8232422
vt 0.024108887 0.8232422
vt 0.024108887 0.82373047
vt 0.024108887 0.82373047
vt 0.023757935 0.82373047
vt 0.023757935 0.82373047
vt 0.023757935 0.8232422
vt 0.023757935 0.8232422
vt 0.023895264 0.8232422
vt 0.023895264 0.8232422
vt 0.005054474 0.9140625
vt 0.005054474 0.9140625
vt 0.005054474 0.9140625
vt 0.005054474 0.9140625
vt 0.016860962 0.96435547
vt 0.016860962 0.96435547
vt 0.016860962 0.9628906
vt 0.016860962 0.9628906
vt 0.016860962 0.9628906
vt 0.016036987 0.9628906
vt 0.016036987 0.96435547
vt 0.016860962 0.96435547
vt 0.016860962 0.9628906
vt 0.016036987 0.9628906
vt 0.016036987 0.96435547
vt 0.016860962 0.96435547
vt 0.016860962 0.96435547
vt 0.016860962 0.96435547
vt 0.016860962 0.9628906
vt 0.016860962 0.9628906
vt 0.016860962 0.96435547
vt 0.016860962 0.96435547
vt 0.016860962 0.9628906
vt 0.016860962 0.9628906
vt 0.016860962 0.9628906
vt 0.016036987 0.9628906
vt 0.016036987 0.96435547
vt 0.016860962 0.96435547
vt 0.016860962 0.96435547
vt 0.016860962 0.96435547
vt 0.016860962 0.9628906
vt 0.016860962 0.9628906
vt 0.016036987 0.96435547
vt 0.016036987 0.96435547
vt 0.016860962 0.96435547
vt 0.016860962 0.96435547
vt 0.016860962 0.9628906
vt 0.016860962 0.9628906
vt 0.016036987 0.9628906
vt 0.016036987 0.9628906
vt 0.016860962 0.9628906
vt 0.016860962 0.9628906
vt 0.016860962 0.96435547
vt 0.016860962 0.96435547
vt 0.016860962 0.96435547
vt 0.016860962 0.9628906
vt 0.016036987 0.9628906
vt 0.016036987 0.96435547
vt 0.005054474 0.9140625
vt 0.005054474 0.9140625
vt 0.005054474 0.9140625
vt 0.005054474 0.9140625
vt 0.005054474 0.9140625
vt 0.005054474 0.9140625
vt 0.005054474 0.9140625
vt 0.005054474 0.9140625
vt 0.016860962 0.96435547
vt 0.016860962 0.9628906
vt 0.016860962 0.9628906
vt 0.016860962 0.96435547
vt 0.016860962 0.9628906
vt 0.016860962 0.96435547
vt 0.016036987 0.96435547
vt 0.016036987 0.9628906
vt 0.016860962 0.9628906
vt 0.016860962 0.96435547
vt 0.016036987 0.96435547
vt 0.016036987 0.9628906
vt 0.016860962 0.96435547
vt 0.016860962 0.9628906
vt 0.016860962 0.9628906
vt 0.016860962 0.96435547
vt 0.016860962 0.96435547
vt 0.016860962 0.9628906
vt 0.016860962 0.9628906
vt 0.016860962 0.96435547
vt 0.016860962 0.9628906
vt 0.016860962 0.96435547
vt 0.016036987 0.96435547
vt 0.016036987 0.9628906
vt 0.016860962 0.96435547
vt 0.016860962 0.9628906
vt 0.016860962 0.9628906
vt 0.016860962 0.96435547
vt 0.016036987 0.96435547
vt 0.016860962 0.96435547
vt 0.016860962 0.96435547
vt 0.016036987 0.96435547
vt 0.016860962 0.9628906
vt 0.016036987 0.9628906
vt 0.016036987 0.9628906
vt 0.016860962 0.9628906
vt 0.016036987 0.96435547
vt 0.016860962 0.96435547
vt 0.016860962 0.96435547
vt 0.016036987 0.96435547
vt 0.016036987 0.9628906
vt 0.016036987 0.96435547
vt 0.016036987 0.96435547
vt 0.016036987 0.9628906
vt 0.016860962 0.96435547
vt 0.016036987 0.96435547
vt 0.016036987 0.9628906
vt 0.016860962 0.9628906
vt 0.005054474 0.9140625
vt 0.005054474 0.9140625
vt 0.005054474 0.9140625
vt 0.005054474 0.9140625
vt 0.016036987 0.9628906
vt 0.016860962 0.9628906
vt 0.016860962 0.96435547
vt 0.016036987 0.96435547
vt 0.015777588 0.88916016
vt 0.01663208 0.88671875
vt 0.015365601 0.8886719
vt 0.016998291 0.88671875
vt 0.016296387 0.88671875
vt 0.016677856 0.88623047
vt 0.016677856 0.88623047
vt 0.0154953 0.8881836
vt 0.015960693 0.8881836
vt 0.017196655 0.88671875
vt 0.017196655 0.88671875
vt 0.01663208 0.88671875
vt 0.015327454 0.8886719
vt 0.015914917 0.8886719
vt 0.015777588 0.88916016
vt 0.015365601 0.8886719
vt 0.01663208 0.88671875
vt 0.016998291 0.88671875
vt 0.016677856 0.88623047
vt 0.016296387 0.88671875
vt 0.016677856 0.88623047
vt 0.015960693 0.8881836
vt 0.0154953 0.8881836
vt 0.017196655 0.88671875
vt 0.017196655 0.88671875
vt 0.01663208 0.88671875
vt 0.015914917 0.8886719
vt 0.015327454 0.8886719
vt 0.005054474 0.9140625
vt 0.022399902 0.9140625
vt 0.005054474 0.9140625
vt 0.023086548 0.9140625
vt 0.023086548 0.9140625
vt 0.023086548 0.9140625
vt 0.023086548 0.9140625
vt 0.005054474 0.9140625
vt 0.005054474 0.9140625
vt 0.005054474 0.9140625
vt 0.005054474 0.9140625
vt 0.005054474 0.9140625
vt 0.023086548 0.9140625
vt 0.005054474 0.9140625
vt 0.023086548 0.9140625
vt 0.023086548 0.9140625
vt 0.023086548 0.9140625
vt 0.023086548 0.9140625
vt 0.023162842 0.9326172
vt 0.023162842 0.9326172
vt 0.023162842 0.9326172
vt 0.023162842 0.9326172
vt 0.005054474 0.9140625
vt 0.023086548 0.9140625
vt 0.023086548 0.9140625
vt 0.023086548 0.9140625
vt 0.023162842 0.9326172
vt 0.023162842 0.9326172
vt 0.023086548 0.9140625
vt 0.005054474 0.9140625
vt 0.023086548 0.9140625
vt 0.023162842 0.9326172
vt 0.005054474 0.9140625
vt 0.023162842 0.9326172
vt 0.005054474 0.9140625
vt 0.023086548 0.9140625
vt 0.023086548 0.9140625
vt 0.023086548 0.9140625
vt 0.023162842 0.9326172
vt 0.023162842 0.9326172
vt 0.023162842 0.9326172
vt 0.023162842 0.9326172
vt 0.023086548 0.9140625
vt 0.023086548 0.9140625
vt 0.023086548 0.9140625
vt 0.005054474 0.9140625
vt 0.005054474 0.9140625
vt 0.023086548 0.9140625
vt 0.005054474 0.9140625
vt 0.023086548 0.9140625
vt 0.023086548 0.9140625
vt 0.005054474 0.9140625
vt 0.005054474 0.9140625
vt 0.023162842 0.9326172
vt 0.005054474 0.9140625
vt 0.005054474 0.9140625
vt 0.023086548 0.9140625
vt 0.023162842 0.9326172
vt 0.023162842 0.9326172
vt 0.005054474 0.9140625
vt 0.023162842 0.9326172
vt 0.023086548 0.9140625
vt 0.023086548 0.9140625
vt 0.023086548 0.9140625
vt 0.005054474 0.9140625
vt 0.023086548 0.9140625
vt 0.005054474 0.9140625
vt 0.023162842 0.9326172
vt 0.005054474 0.9140625
vt 0.023162842 0.9326172
vt 0.005054474 0.9140625
vt 0.005054474 0.9140625
vt 0.005054474 0.9140625
vt 0.005054474 0.9140625
vt 0.005054474 0.9140625
vt 0.005054474 0.9140625
vt 0.005054474 0.9140625
vt 0.005054474 0.9140625
vt 0.005054474 0.9140625
vt 0.005054474 0.9140625
vt 0.023086548 0.9140625
vt 0.005054474 0.9140625
vt 0.023162842 0.9326172
vt 0.023086548 0.9140625
vt 0.023162842 0.9326172
vt 0.023086548 0.9140625
vt 0.023086548 0.9140625
vt 0.023162842 0.9326172
vt 0.023162842 0.9326172
vt 0.023162842 0.9326172
vt 0.005054474 0.9140625
vt 0.005054474 0.9140625
vt 0.023162842 0.9326172
vt 0.005054474 0.9140625
vt 0.023162842 0.9326172
vt 0.023162842 0.9326172
vt 0.023162842 0.9326172
vt 0.023162842 0.9326172
vt 0.023162842 0.9326172
vt 0.023162842 0.9326172
vt 0.023162842 0.9326172
vt 0.023162842 0.9326172
vt 0.023162842 0.9326172
vt 0.023162842 0.9326172
vt 0.023162842 0.9326172
vt 0.023162842 0.9326172
vt 0.023162842 0.9326172
vt 0.005054474 0.9140625
vt 0.005054474 0.9140625
vt 0.023162842 0.9326172
vt 0.005054474 0.9140625
vt 0.023162842 0.9326172
vt 0.023162842 0.9326172
vt 0.023162842 0.9326172
vt 0.023162842 0.9326172
vt 0.023162842 0.9326172
vt 0.023162842 0.9326172
vt 0.023162842 0.9326172
vt 0.005054474 0.9140625
vt 0.005054474 0.9140625
vt 0.005054474 0.9140625
vt 0.005054474 0.9140625
vt 0.005054474 0.9140625
vt 0.005054474 0.9140625
vt 0.005054474 0.9140625
vt 0.005054474 0.9140625
vt 0.005054474 0.9140625
vt 0.023162842 0.9326172
vt 0.023162842 0.9326172
vt 0.005054474 0.9140625
vt 0.023162842 0.9326172
vt 0.005054474 0.9140625
vt 0.023162842 0.9326172
vt 0.023162842 0.9326172
vt 0.023162842 0.9326172
vt 0.005054474 0.9140625
vt 0.023162842 0.9326172
vt 0.023162842 0.9326172
vt 0.023162842 0.9326172
vt 0.023162842 0.9326172
vt 0.023162842 0.9326172
vt 0.023162842 0.9326172
vt 0.023162842 0.9326172
vt 0.023162842 0.9326172
vt 0.023162842 0.9326172
vt 0.023162842 0.9326172
vt 0.023162842 0.9326172
vt 0.023162842 0.9326172
vt 0.023162842 0.9326172
vt 0.023086548 0.9140625
vt 0.023086548 0.9140625
vt 0.023086548 0.9140625
vt 0.023086548 0.9140625
vt 0.023086548 0.9140625
vt 0.005054474 0.9140625
vt 0.023086548 0.9140625
vt 0.023162842 0.9326172
vt 0.023086548 0.9140625
vt 0.023086548 0.9140625
vt 0.005054474 0.9140625
vt 0.005054474 0.9140625
vt 0.023162842 0.9326172
vt 0.023162842 0.9326172
vt 0.023162842 0.9326172
vt 0.005054474 0.9140625
vt 0.025268555 0.7734375
vt 0.025268555 0.7734375
vt 0.025268555 0.7734375
vt 0.025268555 0.7578125
vt 0.025268555 0.7734375
vt 0.025268555 0.7734375
vt 0.025268555 0.7578125
vt 0.025268555 0.7734375
vt 0.025268555 0.7578125
vt 0.025268555 0.7578125
vt 0.025268555 0.7734375
vt 0.0053901672 0.7578125
vt 0.0053901672 0.7578125
vt 0.025268555 0.7578125
vt 0.025268555 0.7578125
vt 0.0053901672 0.7578125
vt 0.0053901672 0.7578125
vt 0.025268555 0.7578125
vt 0.025268555 0.7578125
vt 0.025268555 0.7578125
vt 0.0053901672 0.7578125
vt 0.0053901672 0.7578125
vt 0.025268555 0.7734375
vt 0.025268555 0.7734375
vt 0.0053901672 0.7578125
vt 0.0053901672 0.7578125
vt 0.0053901672 0.7578125
vt 0.025268555 0.7734375
vt 0.0053901672 0.7578125
vt 0.0053901672 0.7578125
vt 0.0053901672 0.7578125
vt 0.025268555 0.7734375
vt 0.025268555 0.7734375
vt 0.025268555 0.7734375
vt 0.025268555 0.7734375
vt 0.0053901672 0.7578125
vt 0.0053901672 0.7578125
vt 0.025268555 0.7578125
vt 0.025268555 0.7578125
vt 0.025268555 0.7734375
vt 0.025268555 0.7734375
vt 0.0053901672 0.7578125
vt 0.0053901672 0.7578125
vt 0.025268555 0.7578125
vt 0.025268555 0.7734375
vt 0.025268555 0.7578125
vt 0.025268555 0.7578125
vt 0.0053901672 0.7578125
vt 0.025268555 0.7734375
vt 0.0053901672 0.7578125
vt 0.025268555 0.7734375
vt 0.025268555 0.7578125
vt 0.0053901672 0.7578125
vt 0.025268555 0.7578125
vt 0.0053901672 0.7578125
vt 0.025268555 0.7578125
vt 0.025268555 0.7734375
vt 0.025268555 0.7578125
vt 0.0053901672 0.7578125
vt 0.0053901672 0.7578125
vt 0.0053901672 0.7578125
vt 0.0053901672 0.7578125
vt 0.0053901672 0.7578125
vt 0.0053901672 0.7578125
vt 0.0053901672 0.7578125
vt 0.0053901672 0.7578125
vt 0.0053901672 0.7578125
vt 0.025268555 0.7734375
vt 0.025268555 0.7578125
vt 0.025268555 0.7578125
vt 0.025268555 0.7734375
vt 0.025268555 0.7734375
vt 0.025268555 0.7578125
vt 0.025268555 0.7578125
vt 0.025268555 0.7734375
vt 0.025268555 0.7734375
vt 0.025268555 0.7578125
vt 0.025268555 0.7578125
vt 0.025268555 0.7578125
vt 0.025268555 0.7578125
vt 0.025268555 0.7734375
vt 0.025268555 0.7734375
vt 0.025268555 0.7734375
vt 0.025268555 0.7734375
vt 0.025268555 0.7734375
vt 0.025268555 0.7578125
vt 0.025268555 0.7578125
vt 0.025268555 0.7734375
vt 0.025268555 0.7578125
vt 0.025268555 0.7734375
vt 0.025268555 0.7578125
vt 0.025268555 0.7578125
vt 0.0053901672 0.7578125
vt 0.0053901672 0.7578125
vt 0.025268555 0.7578125
vt 0.025268555 0.7578125
vt 0.025268555 0.7578125
vt 0.0053901672 0.7578125
vt 0.025268555 0.7578125
vt 0.0053901672 0.7578125
vt 0.0053901672 0.7578125
vt 0.025268555 0.7578125
vt 0.0053901672 0.7578125
vt 0.025268555 0.7578125
vt 0.025268555 0.7578125
vt 0.0053901672 0.7578125
vt 0.025268555 0.7734375
vt 0.025268555 0.7734375
vt 0.0053901672 0.7578125
vt 0.0053901672 0.7578125
vt 0.025268555 0.7578125
vt 0.025268555 0.7734375
vt 0.025268555 0.7578125
vt 0.025268555 0.7578125
vt 0.025268555 0.7734375
vt 0.025268555 0.7734375
vt 0.025268555 0.7578125
vt 0.025268555 0.7734375
vt 0.025268555 0.7734375
vt 0.025268555 0.7734375
vt 0.025268555 0.7578125
vt 0.025268555 0.7578125
vt 0.025268555 0.7734375
vt 0.025268555 0.7578125
vt 0.025268555 0.7578125
vt 0.025268555 0.7734375
vt 0.025268555 0.7734375
vt 0.025268555 0.7578125
vt 0.025268555 0.7734375
vt 0.025268555 0.7578125
vt 0.025268555 0.7734375
vt 0.025268555 0.7578125
vt 0.025268555 0.7734375
vt 0.025268555 0.7578125
vt 0.025268555 0.7578125
vt 0.0053901672 0.7578125
vt 0.0053901672 0.7578125
vt 0.025268555 0.7578125
vt 0.025268555 0.7578125
vt 0.025268555 0.7578125
vt 0.0053901672 0.7578125
vt 0.025268555 0.7578125
vt 0.0053901672 0.7578125
vt 0.0053901672 0.7578125
vt 0.025268555 0.7578125
vt 0.0053901672 0.7578125
vt 0.025268555 0.7578125
vt 0.025268555 0.7578125
vt 0.0053901672 0.7578125
vt 0.025268555 0.7734375
vt 0.025268555 0.7734375
vt 0.0053901672 0.7578125
vn 0.41971552 0.20531209 0.88412994
vn 0.42694208 0.20485646 0.88076913
vn 0.41858968 0.20578924 0.88455266
vn -0.3984262 -0.207265 -0.8934751
vn -0.40760934 -0.20664582 -0.8894673
vn -0.39856994 -0.20743066 -0.89337254
vn -0.39320764 -0.20797913 -0.8956185
vn -0.40258026 -0.20735537 -0.8915902
vn -0.39333686 -0.20832635 -0.8954811
vn 0.3903728 0.208085 0.8968332
vn 0.39911017 0.2077118 0.893066
vn 0.39114535 0.20837069 0.8964301
vn 0.41151896 -0.20604354 -0.8878052
vn 0.42079052 -0.20537908 -0.8836033
vn 0.4118335 -0.20601143 -0.8876669
vn -0.44060054 0.20326675 0.8743877
vn -0.450369 0.20183413 0.86973023
vn -0.4412314 0.2030043 0.8741305
vn -0.41928628 0.20535699 0.88432324
vn -0.41940334 0.20534474 0.8842705
vn -0.42801756 0.20472874 0.88027674
vn 0.39833087 -0.20745413 -0.8934737
vn 0.39833087 -0.20745413 -0.8934737
vn 0.40648696 -0.2069388 -0.88991266
vn 0.39349705 -0.20831083 -0.8954143
vn 0.39365724 -0.20829527 -0.8953475
vn 0.40211943 -0.20722137 -0.8918292
vn -0.3894098 0.20820305 0.89722437
vn -0.39074376 0.20840932 0.8965962
vn -0.3990305 0.2077197 0.89309984
vn -0.4117781 -0.20619674 -0.8876495
vn -0.41151896 -0.20604354 -0.8878052
vn -0.42071265 -0.20538728 -0.8836385
vn 0.44134572 0.20299159 0.87407565
vn 0.44163364 0.20313917 0.873896
vn 0.45055872 0.20269702 0.8694312
vn -0 -0.9740496 0.2263344
vn 2.0171393E-07 -0.97404975 0.22633417
vn -0 -0.9740496 0.2263344
vn -0 -0.9740496 0.22633444
vn -0 -0.97404975 0.22633421
vn -0 -0.9740496 0.22633444
vn -0 -0.97404975 0.2263343
vn -0 -0.97404987 0.22633332
vn -0 -0.22633328 -0.97404987
vn 0.7376388 -0.2882438 -0.6105773
vn -0 -0.22633329 -0.97404987
vn 0.6534109 -0.2919471 -0.69844186
vn 0.7376371 0.0105054425 0.6751157
vn 0.6534127 0.04592146 0.7556078
vn -0.7376382 0.010504608 0.67511445
vn -0.6534111 0.045921784 0.75560915
vn -0.7376384 -0.2882441 -0.6105774
vn -0.65341115 -0.29194742 -0.6984415
vn -0 -0.22633344 -0.97404987
vn -0 -0.22633345 -0.97404987
vn -0.85488474 -0.11726992 -0.50539076
vn -0.84968776 -0.11914716 -0.51364833
vn -0.849113 -0.11936886 -0.5145466
vn -0.8557421 -0.11710057 -0.5039772
vn 0.82099986 -0.12919194 -0.5561193
vn 0.8150022 -0.13177572 -0.5642752
vn 0.8143154 -0.13113746 -0.5654143
vn 0.82101953 -0.1290094 -0.5561326
vn -0.8256867 -0.018385736 0.56382924
vn -0.83181334 -0.02079069 0.554666
vn -0.82438815 -0.019858066 0.5656765
vn -0.81836444 -0.017463397 0.5744342
vn -0.8003378 -0.042768978 0.5980219
vn -0.80305314 -0.04443846 0.5942482
vn -0.79785836 -0.044087768 0.6012307
vn -0.7951615 -0.041855495 0.60495144
vn 0.8045909 -0.1342069 -0.5784652
vn 0.7975362 -0.13631669 -0.58766806
vn 0.7986046 -0.13632444 -0.58621365
vn 0.80419195 -0.13434169 -0.57898843
vn 0.8134231 0.13126916 0.56666684
vn 0.8062884 0.13382381 0.5761858
vn 0.80689347 0.13380086 0.5753437
vn 0.81363994 0.1313641 0.5663335
vn -0.8064644 -0.270804 -0.5256237
vn -0.7986638 -0.2744651 -0.5355417
vn -0.80104494 -0.27408576 -0.5321692
vn -0.80893475 -0.27032664 -0.5220613
vn 0.76699716 0.14551319 0.624933
vn 0.7593731 0.14724635 0.6337752
vn 0.75933 0.14709339 0.63386244
vn 0.76651716 0.14521323 0.62559134
vn -0.47464052 0.19920148 0.85734195
vn -0.4662173 0.20029376 0.8616982
vn -0.46610457 0.19994827 0.8618394
vn -0.47403073 0.19919878 0.85767984
vn 0.4564267 -0.20134248 -0.8666809
vn 0.44867632 -0.20246306 -0.8704586
vn 0.449566 -0.2025413 -0.8699812
vn 0.45761523 -0.20129396 -0.8660652
vn -1 0 0
vn -1 -0.00018323408 0
vn -1 0.0003665017 0
vn -1 0 0
vn -0.13687241 -0.9650648 0.22341846
vn -0.12863943 -0.9660346 0.22411849
vn -0.14808643 -0.9634194 0.22336847
vn -0.17836602 -0.95881265 0.2210519
vn 0.8549346 -0.11725135 -0.5053107
vn 0.8556366 -0.117667414 -0.50402415
vn 0.850379 -0.119045645 -0.5125267
vn 0.8495401 -0.119376786 -0.51383924
vn 0.00047670514 -0.22653028 -0.974004
vn 0.0001906903 -0.22634938 -0.9740461
vn -0 -0.22634938 -0.9740461
vn -0.00019069856 -0.22616847 -0.9740882
vn -0.82099986 -0.12919194 -0.5561193
vn -0.82085913 -0.1294139 -0.55627555
vn -0.814233 -0.1313399 -0.565486
vn -0.8140209 -0.1317598 -0.5656937
vn 0.82574296 -0.01856854 0.56374085
vn 0.8184538 -0.017645095 0.57430136
vn 0.8239586 -0.019483313 0.56631494
vn 0.83181334 -0.02079069 0.554666
vn 0.8003505 -0.042397745 0.5980314
vn 0.7951273 -0.041858595 0.6049962
vn 0.79789215 -0.044084493 0.60118604
vn 0.80246 -0.0446276 0.59503466
vn -0.8051332 -0.13420436 -0.57771075
vn -0.80496967 -0.1342546 -0.57792693
vn -0.7985708 -0.13633455 -0.5862572
vn -0.7984157 -0.13655764 -0.58641654
vn -0.8133462 0.13155773 0.56671023
vn -0.81370276 0.13134426 0.56624794
vn -0.80679613 0.13383093 0.5754731
vn -0.8068686 0.1334558 0.57545847
vn 0.8064238 -0.27097625 -0.5255973
vn 0.80906427 -0.26995146 -0.5220549
vn 0.8004509 -0.2736966 -0.53326213
vn 0.7984954 -0.2745671 -0.5357406
vn -0.7669692 0.14543237 0.62498623
vn -0.766381 0.14542688 0.6257085
vn -0.75911164 0.14732789 0.6340694
vn -0.7596889 0.1471629 0.633416
vn 0.47495306 0.19970155 0.8570525
vn 0.47451675 0.19940856 0.8573623
vn 0.46640867 0.20007873 0.86164457
vn 0.4663266 0.19992182 0.86172545
vn -0.45670015 -0.20141308 -0.86652046
vn -0.45621973 -0.20102033 -0.8668648
vn -0.4485626 -0.20268035 -0.87046665
vn -0.4488104 -0.20262747 -0.87035125
vn -0.00047673602 0.22625893 0.97406703
vn 0.00047674633 0.22616847 0.9740881
vn -0 0.22654289 0.9740011
vn -9.526616E-05 0.22654289 0.9740011
vn 0.99999976 9.161701E-05 0.0007329361
vn 0.9999989 -0.00027485084 0.0014658711
vn 1 0 0
vn 1 0 0
vn 0.13772668 -0.9649446 0.22341269
vn 0.1812803 -0.95774686 0.22329009
vn 0.14619061 -0.96405756 0.22185904
vn 0.12725683 -0.9661986 0.22420077
vn -0.020982102 -0.9737603 0.22660671
vn -0.0325243 -0.9734398 0.22662088
vn 0.033191223 -0.9734185 0.22661594
vn 0.019933427 -0.9737812 0.22661158
vn 0.010108317 -0.9741175 0.225816
vn -0.010680423 -0.97411174 0.22581466
vn -0.011443365 -0.9739257 0.22657864
vn 0.0099186655 -0.9739367 0.22660337
vn -0 -0.9962929 -0.08602566
vn -0.0035521984 -0.99513996 0.09840623
vn -0 -0.9962929 -0.086025655
vn -0.0020420006 -0.99980515 0.019635532
vn -0.005574854 -0.9787925 0.20477834
vn -0.005574854 -0.9787925 0.20477834
vn 0.0008250441 -0.9733812 0.22919072
vn -1.0306083E-05 -0.97404814 0.2263408
vn -1.0306082E-05 -0.97404814 0.22634079
vn 0.0010318765 -0.9732146 0.22989602
vn 0.0019272001 -0.936344 0.3510786
vn 0.0019983258 -0.89877385 0.43840787
vn 0.0020632935 -0.8384157 0.5450274
vn 0.0020632932 -0.8384157 0.5450274
vn -0 -0.9962929 -0.08602567
vn -0 -0.9962929 -0.086025685
vn 0.0035588378 -0.9951396 0.09840949
vn 0.0020458195 -0.99980515 0.019637467
vn 0.0055852802 -0.97879124 0.20478378
vn 0.00558528 -0.97879124 0.20478377
vn -0.00081317185 -0.9733819 0.22918801
vn 1.7972532E-05 -0.9740477 0.22634293
vn 1.7972532E-05 -0.9740477 0.22634293
vn -0.0010193877 -0.9732152 0.22989355
vn -0.0019222299 -0.93634486 0.3510763
vn -0.0020022695 -0.8987733 0.43840915
vn -0.002078661 -0.838412 0.54503304
vn -0.002078661 -0.838412 0.5450329
vn -1.08815755E-07 0.97404927 -0.22633606
vn -0 0.9740496 -0.22633454
vn -1.08815755E-07 0.97404927 -0.22633606
vn 1.9213851E-07 0.9740495 -0.22633508
vn -2.660378E-07 0.9740495 -0.22633491
vn 1.9213853E-07 0.9740495 -0.22633511
vn -2.6603786E-07 0.9740495 -0.22633496
vn -0 0.9740496 -0.22633454
vn -0 0.9740496 -0.22633454
vn 0.99630713 -0.01961451 -0.08359081
vn 0.99612087 -0.019612648 -0.085782416
vn 0.9961825 -0.019615665 -0.085062325
vn 0.03728705 -0.97327787 0.22658321
vn 0.99631906 -0.019061292 -0.08357643
vn -0.03814359 0.9734244 -0.22581004
vn -0.039381362 0.9733776 -0.2257992
vn -0.090365924 0.9698132 -0.22648676
vn -0.094178125 0.96980596 -0.2249599
vn -0.944378 -0.07455253 -0.3202997
vn -0.944383 -0.07454929 -0.32028586
vn -0.941955 -0.07639463 -0.3269322
vn -0.94192386 -0.0764145 -0.32701728
vn -0.20153667 -0.2221094 -0.9539656
vn 0.09071359 -0.96977264 0.22652182
vn 0.09451002 -0.96959746 0.22571832
vn 0.03957858 -0.9735377 0.22507338
vn 0.6043886 -0.18028262 -0.7760236
vn 0.6137112 -0.1788933 -0.76899654
vn -0.04700356 0.9728688 -0.22653237
vn -0.1965319 -0.22183564 -0.9550728
vn 0.99650794 -0.0813232 0.018936096
vn 0.6140213 -0.17849456 -0.76884174
vn -0.2012416 -0.22123249 -0.9542317
vn 0.6042487 -0.180485 -0.7760855
vn -0.19673474 -0.22198157 -0.9549971
vn -0.03623945 -0.97331536 0.22659193
vn -0.096462645 -0.9695831 0.22495241
vn -0.09342461 -0.96951866 0.22650701
vn 0.9419267 -0.07623805 -0.32705024
vn 0.94196063 -0.07604178 -0.32699808
vn 0.9441432 -0.07436808 -0.3210345
vn 0.94441885 -0.07417673 -0.32026675
vn 0.09285642 0.969749 -0.22575359
vn 0.090760864 0.9697684 -0.2265208
vn 0.03900053 0.9733922 -0.22580257
vn 0.20245871 -0.2218856 -0.95382243
vn 0.1965402 -0.22165474 -0.9551132
vn 0.039381362 0.9733776 -0.2257992
vn -0.9963148 -0.019246263 -0.08358377
vn -0.0402451 -0.9735117 0.22506738
vn -0.996509 -0.08130995 0.018933011
vn 0.19630164 -0.22145876 -0.95520765
vn 0.2019192 -0.22173014 -0.953973
vn -0.60503954 -0.18033656 -0.77550364
vn -0.9961216 -0.019610858 -0.08577459
vn -0.9961732 -0.019987646 -0.08508502
vn 0.046432752 0.97289485 -0.22653843
vn -0.6135701 -0.17893054 -0.76910055
vn -0.60470724 -0.1800496 -0.7758295
vn -0.9963085 -0.01961093 -0.08357554
vn -0.6141214 -0.17882101 -0.76868594
vn 1 0 0
vn 1 0 0
vn 1 0 0
vn -0 -0.22618137 -0.9740853
vn 0.9999989 -0.00018328425 0.001466274
vn 0.00019070675 0.22598751 0.97413015
vn -0.19009922 -0.95640105 0.22171894
vn 0.0003814135 0.22598751 0.97413015
vn -0.19046885 -0.9561537 0.22246762
vn 0.00057209557 -0.22616847 -0.9740881
vn 0.00076285977 0.2258065 0.97417194
vn -0 0.226078 0.97410923
vn 0.0003814135 0.22598751 0.97413015
vn -0 0.22616847 0.9740882
vn -0.0001906903 -0.22634938 -0.9740461
vn -9.5278476E-05 -0.22600056 -0.9741271
vn -0.00038134767 -0.2267112 -0.973962
vn 0.0006674448 -0.22616842 -0.97408795
vn 0.00019070675 -0.22598751 -0.97413015
vn -1 0 0
vn 0.00028606015 -0.22598751 -0.97413015
vn 0.1913295 -0.9559808 0.22247171
vn -1 -0.00018323408 0
vn 0.19074172 -0.9562797 0.22169082
vn -1 0 0
vn -0.99999976 0 -0.0007329361
vn -0.036619928 -0.9734798 0.2258229
vn 0.04005522 -0.9733417 0.22583513
vn 0.028130151 -0.9735893 0.2265669
vn 0.14919476 -0.9690409 -0.1967251
vn -0.14919567 -0.9690411 -0.19672321
vn -0.026419166 -0.9739803 0.22508751
vn -0 0.22634938 0.9740461
vn -0.1463294 -0.9635257 0.2240669
vn -0.15418252 -0.96264017 0.22260222
vn -0.13323158 -0.9654048 0.22414927
vn -0.06617967 -0.97209734 0.22504902
vn -0.12463481 -0.96620566 0.22563855
vn -0.07989162 -0.97090244 0.22575578
vn -0.043775328 -0.9733574 0.22507577
vn -0.054735206 -0.9724558 0.22656943
vn 0.05549573 -0.972415 0.2265599
vn -0.1376097 -0.96479267 0.22413991
vn 0.043863546 -0.9730079 0.22656476
vn 0.068470456 -0.97193706 0.22505608
vn -0.184046 -0.9575726 0.2217697
vn 0.06904671 -0.86731184 0.4929531
vn 0.28145993 -0.940196 0.19186416
vn -0.11797328 -0.9670379 0.22565487
vn 0.0003814135 0.22598751 0.97413015
vn 0.14453083 -0.9637929 0.22408472
vn 0.15427552 -0.9626259 0.22259893
vn 0.12427928 -0.96659553 0.2241602
vn 0.07937159 -0.9707646 0.2265308
vn 0.13264714 -0.96531296 0.22489026
vn 0.13714218 -0.96485585 0.22415458
vn 0.18318152 -0.9579165 0.22099903
vn -0 0.22616847 0.9740882
vn 0.00028601073 0.2267112 0.973962
vn -0.06904703 -0.86731124 0.49295408
vn -9.5353374E-05 0.22598751 0.97413015
vn -0 0.226078 0.97410923
vn 0.00019069856 0.22616847 0.9740882
vn -0 0.22598751 0.97413015
vn -0 0.22580652 0.9741721
vn 0.00047676684 0.22598748 0.97413003
vn -0.1262018 -0.96633965 0.22418927
vn -0.019361392 -0.9737922 0.22661413
vn -0.20696124 -0.90223545 0.37833604
vn 0.11848856 -0.9671563 0.22487575
vn -0.28145826 -0.94019574 0.19186772
vn 0.12540826 -0.96610093 0.22565861
vn 0.017549826 -0.97382474 0.2266217
vn -0.018121682 -0.97399276 0.22585338
vn 0.20696281 -0.90223515 0.37833613
vn 0.016786791 -0.9740155 0.22585866
vn -0.09019121 -0.97017515 0.2250013
vn -0.09931528 -0.9689435 0.22646171
vn -0.06674929 -0.9720604 0.22504047
vn -0.07741462 -0.97092426 0.22652358
vn 0.07656067 -0.97116685 0.22577293
vn 0.0673179 -0.9722002 0.22426587
vn 0.09857594 -0.96936184 0.22498956
vn 0.087226264 -0.97045183 0.22497705
vn 0.0008581801 0.22598745 0.97412986
vn -0 0.2265303 0.97400403
vn -0.00019068207 0.2265303 0.97400403
vn 0.00057167077 0.22600052 0.974127
vn 0.85566145 0.11765808 0.5039842
vn 0.8504372 0.11920025 0.51239425
vn 0.8557917 0.117082 0.50389725
vn -0.85037214 0.11887222 0.5125785
vn -0.8560987 0.11748194 0.5032823
vn -0.018499624 -0.9739957 0.22580987
vn 0.8502318 0.11927546 0.5127175
vn -0.001049712 -0.22597434 -0.97413266
vn -0.8504116 0.119209655 0.5124346
vn -0.8557421 0.11710057 0.5039772
vn 0.018118553 -0.9738246 0.22657728
vn -0.030416667 -0.9735241 0.22655174
vn -0.00076282694 -0.22598748 -0.97413
vn -0.00038171362 -0.22597447 -0.97413313
vn -0.00028606015 -0.22598751 -0.97413015
vn 0.028606547 -0.9735762 0.22656387
vn -0 0.22646824 0.9740185
vn 9.542018E-05 0.22633667 0.9740492
vn 8.9199435E-05 0.22629899 0.9740579
vn -0 0.99981433 0.019273527
vn -0 0.22646824 0.9740185
vn -0 0.2261556 0.9740912
vn -0.9180405 0.3963779 0.009280346
vn 0.00017839528 0.22638361 0.9740382
vn -0.9116344 0.4109403 -0.007137478
vn -0.97842467 0.20660391 0
vn -0.00035679055 0.22638361 0.9740382
vn -0.953139 0.2857989 0.0992221
vn -0.46861893 0.45524007 -0.75706846
vn -0.9769892 0.21235016 -0.019985897
vn 1 0 0
vn 0.87747836 0.47872195 -0.029273082
vn -0.18665984 -0.95672697 0.22322994
vn 1 -9.164223E-05 0
vn 1 0.0003665017 0
vn 1 -8.922199E-05 0
vn -0.18816416 -0.9564377 0.22320688
vn -9.537646E-05 -0.9739845 0.22661448
vn -0.00019071497 -0.22580652 -0.9741721
vn -0.0005352074 -0.22621432 -0.97407746
vn 0.49114263 0.549323 -0.6760349
vn 0.88494074 -0.10343347 -0.45407203
vn 0.640505 0.17431013 0.74790996
vn -0.0005355688 -0.22645633 -0.97402114
vn -0 -0.9741478 0.22591144
vn 0.18662865 -0.9572459 0.22102015
vn -0.7210863 0.14737727 0.6769892
vn -0 0.22587578 0.9741562
vn -0.00017839887 -0.22629899 -0.9740579
vn -0.0002860355 -0.22634941 -0.9740461
vn -8.9199435E-05 -0.22629899 -0.9740579
vn -0.92404765 -0.06432114 -0.37682733
vn -0.34172335 -0.8649259 -0.367598
vn -0 0.99995697 0.009279515
vn 0.9117346 0.41071776 -0.0071382625
vn -0.00017839528 -0.22638361 -0.9740382
vn 9.534515E-05 -0.22634938 -0.9740461
vn -0.9076443 -0.3735889 0.19134605
vn 0.82005274 -0.5415847 0.18493134
vn 0.918008 0.39645308 0.0092800185
vn -0 0.22655286 0.97399884
vn 0.97839874 0.20672531 0.0007137688
vn 0.9769522 0.21252055 -0.019985141
vn 0.4688152 0.45498985 -0.75709736
vn -0.00017852295 -0.22645639 -0.97402126
vn 0.9531146 0.28588086 0.09921957
vn -0 0.22629899 0.9740579
vn -1 8.922199E-05 0
vn -0.8776729 0.47836566 -0.029267663
vn -1 -0.00017845989 0
vn 0.18702748 -0.9566589 0.22321405
vn -1 0 0
vn -0 -0.22646824 -0.9740185
vn -1 0.00017844398 0
vn -0.4906632 0.54892886 -0.676703
vn -0.88494074 -0.10343347 -0.45407203
vn -0.64073175 0.1745097 0.7476691
vn 0.72110534 0.1472026 0.6770071
vn 0.924309 -0.06433312 -0.3761837
vn 0.34174973 -0.8649034 -0.36762634
vn 0.907568 -0.3737727 0.19134878
vn -0.8205124 -0.5413865 0.18346637
vn -0.43654948 -0.85712546 -0.27342346
vn 8.9199435E-05 0.22629899 0.9740579
vn 0.99886596 0.045419224 0.014277162
vn 0.9988569 0.045147087 0.015703334
vn -0 0.22621436 0.9740776
vn -8.9263296E-05 0.22637172 0.97404104
vn -0.99999964 -0.0008922196 0
vn 0.99853003 0.05327278 0.009994223
vn 0.00017839887 -0.22629899 -0.9740579
vn -0 -0.2263836 -0.9740382
vn 0.9982212 0.056656286 0.018558279
vn -0.9999994 -0.00089221937 0.00071377546
vn -0.99999917 -0.0013383286 0
vn -0.99999785 -0.0015166352 -0.0014274213
vn 8.920483E-05 -0.22604506 -0.9741168
vn -0 -0.22621436 -0.9740776
vn 8.9206645E-05 0.22596043 0.97413653
vn -0.00089203 -0.22612962 -0.9740968
vn -0 0.2263836 0.9740382
vn -0.99975866 0.01606038 -0.014989688
vn -0.99995995 0.008921841 -0.0007137473
vn 8.9199435E-05 0.22629899 0.9740579
vn -0.9986519 0.03899311 -0.03426397
vn -0 0.22646824 0.9740185
vn -0.99964356 0.016862964 0.02069951
vn -0.9990042 0.04461035 -0.0007137656
vn 0.7862161 0.31828767 -0.52967644
vn 0.7752683 0.3248276 -0.5417065
vn 0.9995728 0.019093866 -0.02212747
vn -0.99833184 0.026318848 0.051388666
vn -0.9953129 0.06022736 0.07566341
vn 0.8768209 0.44327223 -0.18626535
vn 0.9994413 0.031140527 0.01213499
vn 0.88101333 0.43546495 -0.18489411
vn 0.69906086 0.4950343 0.51599896
vn 0.99880993 0.034709405 0.034263264
vn 0.6952845 0.49052662 0.525322
vn -0.98761624 0.07236689 0.13920142
vn 0.9961665 0.03997515 0.077808775
vn 0.4910216 0.42715755 0.75923264
vn -0.0008920121 -0.22621427 -0.9740772
vn -0.011870312 -0.22357242 -0.97461504
vn 0.4902766 0.42274758 0.7621767
vn 0.43606028 -0.8574009 -0.27334058
vn 0.99999964 -0.0008920604 0
vn -0.00035679055 -0.22638361 -0.9740382
vn 0.9999993 -0.000981266 0.00071364804
vn 0.99999917 -0.0013380898 0
vn 0.0016055879 -0.2262987 -0.97405666
vn 0.00035679774 0.22629899 0.9740579
vn 0.9999976 -0.0016958188 -0.0014280579
vn 0.00017839528 0.22638361 0.9740382
vn 0.0003567689 -0.22663745 -0.9739792
vn 0.00017839528 -0.22638361 -0.9740382
vn -0.99886155 0.045516383 0.014279651
vn -0.9988595 0.045329697 0.014990925
vn -0.00053559046 0.22628698 0.9740605
vn -0.9982212 0.056656286 0.018558279
vn -0.99853003 0.05327278 0.009994223
vn -0.0003568193 0.22604506 0.9741168
vn 0.00017840965 -0.22604506 -0.9741168
vn 0.99974185 0.016418466 -0.01570462
vn -0 0.2263836 0.9740382
vn 0.9999639 0.008472758 -0.0007134954
vn -0 0.22612967 0.97409713
vn 0.9986563 0.038890146 -0.034251876
vn -0.000357017 0.22679506 0.9739424
vn 0.99964666 0.016681591 0.02069588
vn 0.99901915 0.044273898 -0.00071409513
vn -0.78695977 0.31888825 -0.52820885
vn -0.7750055 0.32415327 -0.542486
vn -0.9995659 0.019452365 -0.022129292
vn 0.9983296 0.026408004 0.051388547
vn 0.99530125 0.060410522 0.0756693
vn -0.8771591 0.44375613 -0.1835001
vn -0.9994205 0.03122074 0.013558721
vn -0.8808964 0.43571988 -0.18485087
vn -0.69909173 0.49496698 0.5160218
vn -0.99880993 0.034709405 0.034263264
vn -0.69494617 0.49029836 0.5259824
vn 0.9876016 0.072620384 0.13917421
vn -0.99617493 0.0397899 0.0777955
vn -0.4910474 0.42681155 0.7594105
vn 0.0005352074 -0.22621432 -0.97407746
vn 0.011602365 -0.2236579 -0.9745986
vn -0.48940733 0.42318922 0.7624902
g CH0331_Prop_Outline_0
f 3/3/3 2/2/2 1/1/1
f 6/6/6 5/5/5 4/4/4
f 9/9/9 8/8/8 7/7/7
f 12/12/12 11/11/11 10/10/10
f 15/15/15 14/14/14 13/13/13
f 18/18/18 17/17/17 16/16/16
f 21/21/21 20/20/20 19/19/19
f 24/24/24 23/23/23 22/22/22
f 27/27/27 26/26/26 25/25/25
f 30/30/30 29/29/29 28/28/28
f 33/33/33 32/32/32 31/31/31
f 36/36/36 35/35/35 34/34/34
f 39/39/39 38/38/38 37/37/37
f 39/39/39 37/37/37 40/40/40
f 40/40/40 41/41/41 39/39/39
f 41/41/41 40/40/40 42/42/42
f 42/42/42 43/43/43 41/41/41
f 44/44/44 41/41/41 43/43/43
f 47/47/47 46/46/46 45/45/45
f 46/46/46 48/48/48 45/45/45
f 46/46/46 49/49/49 48/48/48
f 49/49/49 50/50/50 48/48/48
f 49/49/49 51/51/51 50/50/50
f 51/51/51 52/52/52 50/50/50
f 51/51/51 53/53/53 52/52/52
f 53/53/53 54/54/54 52/52/52
f 53/53/53 55/55/55 54/54/54
f 55/55/55 56/56/56 54/54/54
f 59/59/59 58/58/58 57/57/57
f 60/60/60 59/59/59 57/57/57
f 63/63/63 62/62/62 61/61/61
f 64/64/64 63/63/63 61/61/61
f 67/67/67 66/66/66 65/65/65
f 68/68/68 67/67/67 65/65/65
f 71/71/71 70/70/70 69/69/69
f 72/72/72 71/71/71 69/69/69
f 75/75/75 74/74/74 73/73/73
f 76/76/76 75/75/75 73/73/73
f 79/79/79 78/78/78 77/77/77
f 80/80/80 79/79/79 77/77/77
f 83/83/83 82/82/82 81/81/81
f 84/84/84 83/83/83 81/81/81
f 87/87/87 86/86/86 85/85/85
f 88/88/88 87/87/87 85/85/85
f 91/91/91 90/90/90 89/89/89
f 92/92/92 91/91/91 89/89/89
f 95/95/95 94/94/94 93/93/93
f 96/96/96 95/95/95 93/93/93
f 99/99/99 98/98/98 97/97/97
f 100/100/100 99/99/99 97/97/97
f 103/103/103 102/102/102 101/101/101
f 104/104/104 103/103/103 101/101/101
f 107/107/107 106/106/106 105/105/105
f 108/108/108 107/107/107 105/105/105
f 111/111/111 110/110/110 109/109/109
f 112/112/112 111/111/111 109/109/109
f 115/115/115 114/114/114 113/113/113
f 116/116/116 115/115/115 113/113/113
f 119/119/119 118/118/118 117/117/117
f 120/120/120 119/119/119 117/117/117
f 123/123/123 122/122/122 121/121/121
f 124/124/124 123/123/123 121/121/121
f 127/127/127 126/126/126 125/125/125
f 128/128/128 127/127/127 125/125/125
f 131/131/131 130/130/130 129/129/129
f 132/132/132 131/131/131 129/129/129
f 135/135/135 134/134/134 133/133/133
f 136/136/136 135/135/135 133/133/133
f 139/139/139 138/138/138 137/137/137
f 140/140/140 139/139/139 137/137/137
f 143/143/143 142/142/142 141/141/141
f 144/144/144 143/143/143 141/141/141
f 147/147/147 146/146/146 145/145/145
f 148/148/148 147/147/147 145/145/145
f 151/151/151 150/150/150 149/149/149
f 152/152/152 151/151/151 149/149/149
f 155/155/155 154/154/154 153/153/153
f 156/156/156 155/155/155 153/153/153
f 159/159/159 158/158/158 157/157/157
f 160/160/160 159/159/159 157/157/157
f 163/163/163 162/162/162 161/161/161
f 164/164/164 163/163/163 161/161/161
f 167/167/167 166/166/166 165/165/165
f 168/168/168 167/167/167 165/165/165
f 171/171/171 170/170/170 169/169/169
f 170/170/170 172/172/172 169/169/169
f 173/173/173 172/172/172 170/170/170
f 174/174/174 173/173/173 170/170/170
f 177/177/177 176/176/176 175/175/175
f 176/176/176 178/178/178 175/175/175
f 178/178/178 179/179/179 175/175/175
f 179/179/179 180/180/180 175/175/175
f 181/181/181 180/180/180 179/179/179
f 182/182/182 181/181/181 179/179/179
f 185/185/185 184/184/184 183/183/183
f 186/186/186 185/185/185 183/183/183
f 187/187/187 185/185/185 186/186/186
f 188/188/188 187/187/187 186/186/186
f 191/191/191 190/190/190 189/189/189
f 192/192/192 191/191/191 189/189/189
f 193/193/193 192/192/192 189/189/189
f 194/194/194 193/193/193 189/189/189
f 195/195/195 193/193/193 194/194/194
f 196/196/196 195/195/195 194/194/194
f 199/199/199 198/198/198 197/197/197
f 197/197/197 198/198/198 200/200/200
f 201/201/201 198/198/198 199/199/199
f 200/200/200 198/198/198 202/202/202
f 203/203/203 198/198/198 201/201/201
f 202/202/202 198/198/198 204/204/204
f 205/205/205 198/198/198 203/203/203
f 204/204/204 198/198/198 205/205/205
f 208/208/208 207/207/207 206/206/206
f 207/207/207 208/208/208 209/209/209
f 207/207/207 210/210/210 206/206/206
f 206/206/206 210/210/210 211/211/211
f 212/212/212 206/206/206 211/211/211
f 213/213/213 212/212/212 211/211/211
f 213/213/213 214/214/214 212/212/212
f 213/213/213 215/215/215 214/214/214
f 215/215/215 216/216/216 214/214/214
f 215/215/215 217/217/217 216/216/216
f 217/217/217 218/218/218 216/216/216
f 219/219/219 215/215/215 213/213/213
f 217/217/217 215/215/215 219/219/219
f 218/218/218 217/217/217 220/220/220
f 221/221/221 218/218/218 220/220/220
f 209/209/209 221/221/221 220/220/220
f 222/222/222 207/207/207 209/209/209
f 222/222/222 209/209/209 220/220/220
f 207/207/207 223/223/223 210/210/210
f 223/223/223 207/207/207 222/222/222
f 211/211/211 210/210/210 224/224/224
f 223/223/223 224/224/224 210/210/210
f 211/211/211 225/225/225 213/213/213
f 211/211/211 224/224/224 225/225/225
f 226/226/226 220/220/220 217/217/217
f 226/226/226 217/217/217 219/219/219
f 220/220/220 227/227/227 222/222/222
f 220/220/220 226/226/226 227/227/227
f 224/224/224 223/223/223 228/228/228
f 224/224/224 228/228/228 225/225/225
f 225/225/225 229/229/229 213/213/213
f 229/229/229 219/219/219 213/213/213
f 225/225/225 228/228/228 229/229/229
f 230/230/230 223/223/223 222/222/222
f 227/227/227 230/230/230 222/222/222
f 223/223/223 230/230/230 228/228/228
f 231/231/231 226/226/226 219/219/219
f 229/229/229 231/231/231 219/219/219
f 226/226/226 231/231/231 227/227/227
f 229/229/229 228/228/228 231/231/231
f 230/230/230 227/227/227 231/231/231
f 228/228/228 230/230/230 231/231/231
f 234/234/234 233/233/233 232/232/232
f 235/235/235 233/233/233 234/234/234
f 236/236/236 235/235/235 234/234/234
f 235/235/235 236/236/236 237/237/237
f 236/236/236 238/238/238 237/237/237
f 237/237/237 238/238/238 239/239/239
f 238/238/238 240/240/240 239/239/239
f 241/241/241 239/239/239 240/240/240
f 238/238/238 236/236/236 242/242/242
f 238/238/238 242/242/242 240/240/240
f 234/234/234 243/243/243 236/236/236
f 236/236/236 243/243/243 242/242/242
f 244/244/244 241/241/241 240/240/240
f 245/245/245 241/241/241 244/244/244
f 234/234/234 232/232/232 246/246/246
f 243/243/243 234/234/234 247/247/247
f 246/246/246 247/247/247 234/234/234
f 243/243/243 248/248/248 242/242/242
f 248/248/248 243/243/243 247/247/247
f 242/242/242 249/249/249 240/240/240
f 248/248/248 249/249/249 242/242/242
f 247/247/247 250/250/250 248/248/248
f 250/250/250 247/247/247 246/246/246
f 251/251/251 246/246/246 232/232/232
f 252/252/252 251/251/251 232/232/232
f 251/251/251 252/252/252 245/245/245
f 249/249/249 253/253/253 240/240/240
f 240/240/240 253/253/253 244/244/244
f 254/254/254 249/249/249 248/248/248
f 250/250/250 254/254/254 248/248/248
f 254/254/254 253/253/253 249/249/249
f 255/255/255 250/250/250 246/246/246
f 251/251/251 255/255/255 246/246/246
f 250/250/250 255/255/255 254/254/254
f 256/256/256 251/251/251 245/245/245
f 256/256/256 245/245/245 244/244/244
f 255/255/255 251/251/251 256/256/256
f 257/257/257 244/244/244 253/253/253
f 254/254/254 257/257/257 253/253/253
f 256/256/256 244/244/244 257/257/257
f 255/255/255 257/257/257 254/254/254
f 257/257/257 255/255/255 256/256/256
f 260/260/260 259/259/259 258/258/258
f 261/261/261 259/259/259 260/260/260
f 262/262/262 260/260/260 258/258/258
f 262/262/262 258/258/258 263/263/263
f 263/263/263 264/264/264 262/262/262
f 258/258/258 265/265/265 263/263/263
f 260/260/260 262/262/262 266/266/266
f 262/262/262 264/264/264 266/266/266
f 267/267/267 261/261/261 260/260/260
f 267/267/267 260/260/260 266/266/266
f 268/268/268 263/263/263 265/265/265
f 265/265/265 269/269/269 268/268/268
f 269/269/269 270/270/270 268/268/268
f 263/263/263 268/268/268 271/271/271
f 263/263/263 271/271/271 264/264/264
f 261/261/261 267/267/267 272/272/272
f 272/272/272 273/273/273 261/261/261
f 272/272/272 274/274/274 273/273/273
f 272/272/272 267/267/267 275/275/275
f 274/274/274 276/276/276 273/273/273
f 273/273/273 276/276/276 277/277/277
f 274/274/274 278/278/278 276/276/276
f 276/276/276 278/278/278 279/279/279
f 280/280/280 276/276/276 279/279/279
f 276/276/276 280/280/280 277/277/277
f 280/280/280 279/279/279 281/281/281
f 277/277/277 280/280/280 282/282/282
f 280/280/280 283/283/283 282/282/282
f 283/283/283 280/280/280 281/281/281
f 282/282/282 283/283/283 269/269/269
f 275/275/275 267/267/267 284/284/284
f 267/267/267 266/266/266 284/284/284
f 278/278/278 285/285/285 279/279/279
f 279/279/279 285/285/285 286/286/286
f 285/285/285 278/278/278 287/287/287
f 286/286/286 285/285/285 287/287/287
f 286/286/286 287/287/287 288/288/288
f 289/289/289 288/288/288 275/275/275
f 284/284/284 289/289/289 275/275/275
f 289/289/289 286/286/286 288/288/288
f 290/290/290 283/283/283 281/281/281
f 283/283/283 290/290/290 269/269/269
f 291/291/291 284/284/284 266/266/266
f 266/266/266 292/292/292 291/291/291
f 266/266/266 264/264/264 292/292/292
f 264/264/264 293/293/293 292/292/292
f 284/284/284 291/291/291 294/294/294
f 294/294/294 289/289/289 284/284/284
f 294/294/294 291/291/291 295/295/295
f 295/295/295 296/296/296 294/294/294
f 295/295/295 293/293/293 296/296/296
f 294/294/294 297/297/297 289/289/289
f 286/286/286 289/289/289 297/297/297
f 293/293/293 298/298/298 296/296/296
f 297/297/297 298/298/298 299/299/299
f 293/293/293 300/300/300 298/298/298
f 264/264/264 300/300/300 293/293/293
f 300/300/300 299/299/299 298/298/298
f 297/297/297 301/301/301 286/286/286
f 297/297/297 299/299/299 301/301/301
f 286/286/286 301/301/301 302/302/302
f 286/286/286 302/302/302 279/279/279
f 264/264/264 303/303/303 300/300/300
f 271/271/271 303/303/303 264/264/264
f 303/303/303 271/271/271 304/304/304
f 300/300/300 303/303/303 304/304/304
f 300/300/300 304/304/304 305/305/305
f 306/306/306 300/300/300 305/305/305
f 306/306/306 305/305/305 307/307/307
f 302/302/302 308/308/308 279/279/279
f 279/279/279 308/308/308 309/309/309
f 310/310/310 308/308/308 302/302/302
f 302/302/302 311/311/311 310/310/310
f 309/309/309 281/281/281 279/279/279
f 311/311/311 312/312/312 310/310/310
f 309/309/309 312/312/312 281/281/281
f 312/312/312 313/313/313 281/281/281
f 313/313/313 314/314/314 281/281/281
f 311/311/311 299/299/299 312/312/312
f 299/299/299 313/313/313 312/312/312
f 290/290/290 281/281/281 314/314/314
f 315/315/315 290/290/290 314/314/314
f 314/314/314 313/313/313 315/315/315
f 315/315/315 316/316/316 290/290/290
f 269/269/269 290/290/290 316/316/316
f 313/313/313 317/317/317 315/315/315
f 269/269/269 316/316/316 318/318/318
f 269/269/269 318/318/318 319/319/319
f 318/318/318 320/320/320 319/319/319
f 269/269/269 319/319/319 321/321/321
f 269/269/269 321/321/321 270/270/270
f 321/321/321 307/307/307 270/270/270
f 307/307/307 321/321/321 322/322/322
f 323/323/323 319/319/319 320/320/320
f 307/307/307 322/322/322 324/324/324
f 324/324/324 306/306/306 307/307/307
f 322/322/322 325/325/325 324/324/324
f 306/306/306 324/324/324 325/325/325
f 325/325/325 322/322/322 326/326/326
f 313/313/313 327/327/327 317/317/317
f 327/327/327 328/328/328 317/317/317
f 329/329/329 320/320/320 328/328/328
f 327/327/327 329/329/329 328/328/328
f 320/320/320 329/329/329 330/330/330
f 323/323/323 320/320/320 330/330/330
f 330/330/330 329/329/329 327/327/327
f 331/331/331 325/325/325 326/326/326
f 331/331/331 326/326/326 332/332/332
f 333/333/333 332/332/332 323/323/323
f 330/330/330 333/333/333 323/323/323
f 333/333/333 331/331/331 332/332/332
f 306/306/306 325/325/325 334/334/334
f 306/306/306 334/334/334 335/335/335
f 300/300/300 306/306/306 335/335/335
f 336/336/336 334/334/334 325/325/325
f 336/336/336 325/325/325 331/331/331
f 300/300/300 335/335/335 337/337/337
f 300/300/300 337/337/337 299/299/299
f 336/336/336 331/331/331 338/338/338
f 338/338/338 337/337/337 336/336/336
f 299/299/299 337/337/337 338/338/338
f 338/338/338 331/331/331 333/333/333
f 299/299/299 338/338/338 313/313/313
f 333/333/333 339/339/339 338/338/338
f 333/333/333 330/330/330 339/339/339
f 338/338/338 340/340/340 313/313/313
f 330/330/330 341/341/341 339/339/339
f 340/340/340 327/327/327 313/313/313
f 340/340/340 341/341/341 327/327/327
f 341/341/341 330/330/330 327/327/327
f 344/344/344 343/343/343 342/342/342
f 345/345/345 344/344/344 342/342/342
f 346/346/346 344/344/344 345/345/345
f 347/347/347 346/346/346 345/345/345
f 348/348/348 346/346/346 347/347/347
f 342/342/342 343/343/343 349/349/349
f 343/343/343 350/350/350 349/349/349
f 345/345/345 342/342/342 351/351/351
f 345/345/345 351/351/351 347/347/347
f 352/352/352 348/348/348 347/347/347
f 353/353/353 348/348/348 352/352/352
f 349/349/349 350/350/350 354/354/354
f 350/350/350 355/355/355 354/354/354
f 349/349/349 356/356/356 342/342/342
f 342/342/342 356/356/356 351/351/351
f 349/349/349 354/354/354 356/356/356
f 347/347/347 351/351/351 357/357/357
f 352/352/352 347/347/347 357/357/357
f 351/351/351 356/356/356 357/357/357
f 358/358/358 353/353/353 352/352/352
f 358/358/358 352/352/352 357/357/357
f 359/359/359 353/353/353 358/358/358
f 355/355/355 359/359/359 360/360/360
f 354/354/354 355/355/355 360/360/360
f 360/360/360 359/359/359 358/358/358
f 356/356/356 361/361/361 357/357/357
f 354/354/354 361/361/361 356/356/356
f 358/358/358 357/357/357 361/361/361
f 354/354/354 360/360/360 361/361/361
f 360/360/360 358/358/358 361/361/361
f 364/364/364 363/363/363 362/362/362
f 365/365/365 364/364/364 362/362/362
f 363/363/363 364/364/364 366/366/366
f 364/364/364 365/365/365 366/366/366
f 363/363/363 367/367/367 362/362/362
f 368/368/368 365/365/365 362/362/362
f 369/369/369 362/362/362 367/367/367
f 368/368/368 362/362/362 369/369/369
f 368/368/368 370/370/370 365/365/365
f 371/371/371 368/368/368 369/369/369
f 370/370/370 368/368/368 371/371/371
f 372/372/372 369/369/369 367/367/367
f 371/371/371 369/369/369 373/373/373
f 373/373/373 369/369/369 372/372/372
f 373/373/373 374/374/374 371/371/371
f 375/375/375 370/370/370 371/371/371
f 374/374/374 375/375/375 371/371/371
f 376/376/376 372/372/372 367/367/367
f 377/377/377 373/373/373 372/372/372
f 372/372/372 376/376/376 377/377/377
f 367/367/367 363/363/363 378/378/378
f 379/379/379 376/376/376 367/367/367
f 367/367/367 378/378/378 379/379/379
f 376/376/376 379/379/379 380/380/380
f 377/377/377 376/376/376 381/381/381
f 381/381/381 376/376/376 380/380/380
f 379/379/379 378/378/378 382/382/382
f 380/380/380 379/379/379 382/382/382
f 382/382/382 378/378/378 383/383/383
f 380/380/380 382/382/382 384/384/384
f 384/384/384 382/382/382 383/383/383
f 381/381/381 380/380/380 385/385/385
f 380/380/380 384/384/384 385/385/385
f 386/386/386 381/381/381 385/385/385
f 386/386/386 377/377/377 381/381/381
f 377/377/377 386/386/386 387/387/387
f 373/373/373 377/377/377 388/388/388
f 388/388/388 377/377/377 387/387/387
f 385/385/385 389/389/389 386/386/386
f 385/385/385 384/384/384 389/389/389
f 378/378/378 390/390/390 383/383/383
f 363/363/363 390/390/390 378/378/378
f 390/390/390 363/363/363 391/391/391
f 390/390/390 391/391/391 383/383/383
f 392/392/392 373/373/373 388/388/388
f 374/374/374 373/373/373 392/392/392
f 386/386/386 374/374/374 387/387/387
f 389/389/389 374/374/374 386/386/386
f 363/363/363 393/393/393 391/391/391
f 393/393/393 363/363/363 366/366/366
f 389/389/389 375/375/375 374/374/374
f 375/375/375 389/389/389 394/394/394
f 389/389/389 384/384/384 394/394/394
f 370/370/370 375/375/375 394/394/394
f 394/394/394 384/384/384 395/395/395
f 395/395/395 384/384/384 383/383/383
f 370/370/370 394/394/394 396/396/396
f 396/396/396 394/394/394 395/395/395
f 374/374/374 397/397/397 387/387/387
f 397/397/397 398/398/398 387/387/387
f 397/397/397 374/374/374 392/392/392
f 398/398/398 397/397/397 392/392/392
f 399/399/399 370/370/370 396/396/396
f 370/370/370 399/399/399 365/365/365
f 400/400/400 399/399/399 396/396/396
f 399/399/399 400/400/400 365/365/365
f 401/401/401 396/396/396 395/395/395
f 401/401/401 400/400/400 396/396/396
f 402/402/402 395/395/395 383/383/383
f 402/402/402 401/401/401 395/395/395
f 403/403/403 398/398/398 392/392/392
f 403/403/403 392/392/392 388/388/388
f 404/404/404 388/388/388 387/387/387
f 404/404/404 403/403/403 388/388/388
f 400/400/400 405/405/405 365/365/365
f 365/365/365 405/405/405 366/366/366
f 366/366/366 405/405/405 406/406/406
f 366/366/366 406/406/406 393/393/393
f 405/405/405 400/400/400 407/407/407
f 405/405/405 407/407/407 406/406/406
f 408/408/408 400/400/400 401/401/401
f 400/400/400 408/408/408 407/407/407
f 408/408/408 409/409/409 407/407/407
f 410/410/410 408/408/408 401/401/401
f 408/408/408 410/410/410 409/409/409
f 402/402/402 410/410/410 401/401/401
f 406/406/406 407/407/407 411/411/411
f 409/409/409 411/411/411 407/407/407
f 406/406/406 412/412/412 393/393/393
f 406/406/406 411/411/411 412/412/412
f 412/412/412 413/413/413 393/393/393
f 411/411/411 414/414/414 412/412/412
f 413/413/413 412/412/412 414/414/414
f 413/413/413 415/415/415 393/393/393
f 391/391/391 393/393/393 415/415/415
f 391/391/391 415/415/415 416/416/416
f 391/391/391 416/416/416 383/383/383
f 416/416/416 402/402/402 383/383/383
f 415/415/415 417/417/417 416/416/416
f 415/415/415 413/413/413 417/417/417
f 416/416/416 417/417/417 402/402/402
f 402/402/402 418/418/418 410/410/410
f 402/402/402 417/417/417 418/418/418
f 413/413/413 419/419/419 417/417/417
f 417/417/417 419/419/419 418/418/418
f 413/413/413 414/414/414 419/419/419
f 410/410/410 418/418/418 420/420/420
f 419/419/419 420/420/420 418/418/418
f 414/414/414 420/420/420 419/419/419
f 420/420/420 414/414/414 421/421/421
f 409/409/409 410/410/410 420/420/420
f 409/409/409 420/420/420 421/421/421
f 414/414/414 422/422/422 421/421/421
f 414/414/414 411/411/411 422/422/422
f 411/411/411 409/409/409 423/423/423
f 411/411/411 423/423/423 422/422/422
f 424/424/424 409/409/409 421/421/421
f 409/409/409 424/424/424 423/423/423
f 424/424/424 425/425/425 423/423/423
f 425/425/425 424/424/424 421/421/421
f 423/423/423 426/426/426 422/422/422
f 425/425/425 426/426/426 423/423/423
f 422/422/422 427/427/427 421/421/421
f 426/426/426 427/427/427 422/422/422
f 428/428/428 425/425/425 421/421/421
f 427/427/427 428/428/428 421/421/421
f 426/426/426 429/429/429 427/427/427
f 425/425/425 430/430/430 426/426/426
f 431/431/431 429/429/429 426/426/426
f 430/430/430 431/431/431 426/426/426
f 429/429/429 432/432/432 427/427/427
f 429/429/429 431/431/431 433/433/433
f 429/429/429 433/433/433 432/432/432
f 427/427/427 434/434/434 428/428/428
f 432/432/432 434/434/434 427/427/427
f 431/431/431 430/430/430 435/435/435
f 431/431/431 435/435/435 433/433/433
f 436/436/436 430/430/430 425/425/425
f 425/425/425 428/428/428 437/437/437
f 436/436/436 425/425/425 437/437/437
f 438/438/438 430/430/430 436/436/436
f 430/430/430 438/438/438 435/435/435
f 434/434/434 439/439/439 428/428/428
f 437/437/437 428/428/428 439/439/439
f 439/439/439 434/434/434 440/440/440
f 441/441/441 434/434/434 432/432/432
f 434/434/434 441/441/441 440/440/440
f 442/442/442 436/436/436 437/437/437
f 442/442/442 438/438/438 436/436/436
f 443/443/443 437/437/437 439/439/439
f 440/440/440 443/443/443 439/439/439
f 443/443/443 442/442/442 437/437/437
f 433/433/433 444/444/444 432/432/432
f 444/444/444 441/441/441 432/432/432
f 445/445/445 443/443/443 440/440/440
f 442/442/442 443/443/443 445/445/445
f 433/433/433 446/446/446 444/444/444
f 447/447/447 441/441/441 444/444/444
f 446/446/446 447/447/447 444/444/444
f 441/441/441 447/447/447 448/448/448
f 440/440/440 441/441/441 448/448/448
f 433/433/433 449/449/449 446/446/446
f 449/449/449 433/433/433 435/435/435
f 447/447/447 446/446/446 450/450/450
f 447/447/447 450/450/450 448/448/448
f 449/449/449 451/451/451 446/446/446
f 446/446/446 451/451/451 450/450/450
f 452/452/452 440/440/440 448/448/448
f 450/450/450 453/453/453 448/448/448
f 448/448/448 453/453/453 452/452/452
f 451/451/451 454/454/454 450/450/450
f 450/450/450 454/454/454 453/453/453
f 449/449/449 455/455/455 451/451/451
f 455/455/455 454/454/454 451/451/451
f 456/456/456 449/449/449 435/435/435
f 449/449/449 456/456/456 455/455/455
f 452/452/452 457/457/457 440/440/440
f 457/457/457 445/445/445 440/440/440
f 453/453/453 458/458/458 452/452/452
f 452/452/452 458/458/458 457/457/457
f 455/455/455 459/459/459 454/454/454
f 459/459/459 455/455/455 456/456/456
f 460/460/460 456/456/456 435/435/435
f 460/460/460 459/459/459 456/456/456
f 435/435/435 438/438/438 460/460/460
f 454/454/454 461/461/461 453/453/453
f 459/459/459 461/461/461 454/454/454
f 453/453/453 461/461/461 458/458/458
f 462/462/462 459/459/459 460/460/460
f 459/459/459 462/462/462 461/461/461
f 438/438/438 463/463/463 460/460/460
f 463/463/463 462/462/462 460/460/460
f 461/461/461 464/464/464 458/458/458
f 462/462/462 464/464/464 461/461/461
f 458/458/458 465/465/465 457/457/457
f 458/458/458 464/464/464 465/465/465
f 466/466/466 463/463/463 438/438/438
f 466/466/466 438/438/438 442/442/442
f 467/467/467 462/462/462 463/463/463
f 462/462/462 467/467/467 464/464/464
f 466/466/466 467/467/467 463/463/463
f 468/468/468 466/466/466 442/442/442
f 467/467/467 466/466/466 468/468/468
f 468/468/468 442/442/442 445/445/445
f 469/469/469 445/445/445 457/457/457
f 465/465/465 469/469/469 457/457/457
f 469/469/469 468/468/468 445/445/445
f 467/467/467 470/470/470 464/464/464
f 464/464/464 470/470/470 465/465/465
f 467/467/467 468/468/468 470/470/470
f 465/465/465 470/470/470 469/469/469
f 468/468/468 469/469/469 470/470/470
f 471/471/471 404/404/404 387/387/387
f 398/398/398 471/471/471 387/387/387
f 472/472/472 404/404/404 471/471/471
f 471/471/471 398/398/398 473/473/473
f 474/474/474 472/472/472 471/471/471
f 471/471/471 473/473/473 474/474/474
f 472/472/472 474/474/474 475/475/475
f 473/473/473 476/476/476 474/474/474
f 476/476/476 475/475/475 474/474/474
f 472/472/472 477/477/477 404/404/404
f 478/478/478 472/472/472 475/475/475
f 472/472/472 478/478/478 477/477/477
f 477/477/477 479/479/479 404/404/404
f 479/479/479 403/403/403 404/404/404
f 398/398/398 480/480/480 473/473/473
f 481/481/481 476/476/476 473/473/473
f 480/480/480 481/481/481 473/473/473
f 482/482/482 398/398/398 403/403/403
f 482/482/482 480/480/480 398/398/398
f 479/479/479 483/483/483 403/403/403
f 483/483/483 482/482/482 403/403/403
f 484/484/484 479/479/479 477/477/477
f 483/483/483 479/479/479 484/484/484
f 482/482/482 485/485/485 480/480/480
f 485/485/485 481/481/481 480/480/480
f 482/482/482 483/483/483 486/486/486
f 486/486/486 483/483/483 484/484/484
f 485/485/485 482/482/482 486/486/486
f 478/478/478 487/487/487 477/477/477
f 487/487/487 484/484/484 477/477/477
f 476/476/476 481/481/481 488/488/488
f 476/476/476 488/488/488 475/475/475
f 478/478/478 489/489/489 487/487/487
f 490/490/490 484/484/484 487/487/487
f 489/489/489 490/490/490 487/487/487
f 489/489/489 478/478/478 491/491/491
f 478/478/478 475/475/475 491/491/491
f 484/484/484 492/492/492 486/486/486
f 492/492/492 484/484/484 490/490/490
f 490/490/490 489/489/489 493/493/493
f 493/493/493 489/489/489 491/491/491
f 494/494/494 492/492/492 490/490/490
f 494/494/494 490/490/490 493/493/493
f 475/475/475 495/495/495 491/491/491
f 496/496/496 493/493/493 491/491/491
f 496/496/496 491/491/491 495/495/495
f 497/497/497 494/494/494 493/493/493
f 497/497/497 493/493/493 496/496/496
f 498/498/498 492/492/492 494/494/494
f 497/497/497 498/498/498 494/494/494
f 492/492/492 499/499/499 486/486/486
f 499/499/499 492/492/492 498/498/498
f 500/500/500 495/495/495 475/475/475
f 488/488/488 500/500/500 475/475/475
f 501/501/501 496/496/496 495/495/495
f 501/501/501 495/495/495 500/500/500
f 502/502/502 498/498/498 497/497/497
f 498/498/498 502/502/502 499/499/499
f 499/499/499 503/503/503 486/486/486
f 502/502/502 503/503/503 499/499/499
f 485/485/485 486/486/486 503/503/503
f 504/504/504 497/497/497 496/496/496
f 504/504/504 502/502/502 497/497/497
f 504/504/504 496/496/496 501/501/501
f 502/502/502 505/505/505 503/503/503
f 505/505/505 502/502/502 504/504/504
f 506/506/506 485/485/485 503/503/503
f 505/505/505 506/506/506 503/503/503
f 507/507/507 504/504/504 501/501/501
f 507/507/507 505/505/505 504/504/504
f 508/508/508 501/501/501 500/500/500
f 507/507/507 501/501/501 508/508/508
f 506/506/506 509/509/509 485/485/485
f 485/485/485 509/509/509 481/481/481
f 505/505/505 510/510/510 506/506/506
f 510/510/510 505/505/505 507/507/507
f 510/510/510 509/509/509 506/506/506
f 509/509/509 511/511/511 481/481/481
f 509/509/509 510/510/510 511/511/511
f 481/481/481 511/511/511 488/488/488
f 488/488/488 512/512/512 500/500/500
f 512/512/512 508/508/508 500/500/500
f 511/511/511 512/512/512 488/488/488
f 513/513/513 510/510/510 507/507/507
f 513/513/513 507/507/507 508/508/508
f 513/513/513 508/508/508 512/512/512
f 511/511/511 510/510/510 513/513/513
f 512/512/512 511/511/511 513/513/513
