g FX_CH0331_Glove
v 0.051109012 0.54868853 -0.36144584
v 0.40738043 0.55446935 -0.29995427
v 0.36347353 0.99248916 -0.4037864
v 0.36347353 0.99248916 -0.4037864
v 0.5170713 0.9926717 -0.045241546
v 0.578586 1.0883356 -0.0662777
v 0.7830989 1.3552268 -0.03935669
v 0.53115535 1.327257 -0.51838726
v 0.81329435 1.7014803 -0.4790654
v 0.40738043 0.55446935 -0.29995427
v 0.56236464 0.5557444 -0.042527523
v 0.5170713 0.9926717 -0.045241546
v -0.29293707 0.96933866 0.2916024
v -0.30822262 1.083788 0.26871574
v -0.05879577 1.0929053 0.41994956
v 0.5170713 0.9926717 -0.045241546
v 0.44413388 0.98983884 0.12897263
v 0.47670642 1.0958154 0.10646047
v -0.44699118 0.9724651 -0.06419023
v -0.4283023 0.5365835 0.055207223
v -0.29478815 0.5411039 -0.21432967
v 0.36347353 0.99248916 -0.4037864
v 0.3657599 1.1091316 -0.4226364
v 0.044056386 1.0990268 -0.24364321
v 0.578586 1.0883356 -0.0662777
v 0.47670642 1.0958154 0.10646047
v 0.5615366 1.3857486 0.17339627
v -0.29687423 1.0883219 -0.10328417
v 0.044056386 1.0990268 -0.24364321
v 0.03217342 1.3020283 -0.2451537
v -0.44568557 1.0872548 -0.08457955
v -0.29687423 1.0883219 -0.10328417
v -0.35577467 1.3179284 -0.068969496
v -0.05879577 1.0929053 0.41994956
v -0.30822262 1.083788 0.26871574
v -0.3746341 1.415475 0.37644678
v 0.15792105 1.0975543 0.3499699
v 0.10404833 1.4190785 0.46757197
v 0.35414955 1.4068784 0.35416365
v -0.6439394 1.6319346 -0.019875929
v -0.3828225 1.5795732 -0.09841994
v -0.3982793 1.8443255 -0.12921283
v -0.3982793 1.8443255 -0.12921283
v -0.64242095 1.8931946 -0.050781522
v -0.3897374 2.1469874 -0.16427547
v -0.0048434706 1.5888617 -0.25752804
v -0.034252096 1.8748142 -0.26931784
v -0.3982793 1.8443255 -0.12921283
v -0.0048434706 1.5888617 -0.25752804
v -0.3828225 1.5795732 -0.09841994
v -0.35577467 1.3179284 -0.068969496
v 0.6959038 1.9377062 -0.090982825
v 0.48608875 1.8702912 -0.51688737
v 0.6696962 1.9343306 -0.5586422
v -0.0048434706 1.5888617 -0.25752804
v 0.52112293 1.6002477 -0.64675856
v 0.48608875 1.8702912 -0.51688737
v 0.559877 1.6717222 0.14625679
v 0.5311215 1.9770192 0.12301313
v 0.6959038 1.9377062 -0.090982825
v -0.034252096 1.8748142 -0.26931784
v 0.48608875 1.8702912 -0.51688737
v 0.46395883 2.2034934 -0.22112583
v 0.6959038 1.9377062 -0.090982825
v 0.5807899 2.279623 -0.041966386
v 0.46395883 2.2034934 -0.22112583
v -0.3666547 1.9827877 0.28952745
v -0.5312924 1.9378333 0.13198663
v -0.5079031 2.2647164 0.11252419
v -0.034252096 1.8748142 -0.26931784
v -0.03254249 2.1692302 -0.26514038
v -0.3897374 2.1469874 -0.16427547
v -0.3491531 2.3110356 0.19038394
v -0.5079031 2.2647164 0.11252419
v -0.45564857 2.6349316 0.048861675
v 0.46395883 2.2034934 -0.22112583
v 0.5807899 2.279623 -0.041966386
v 0.51886916 2.714139 -0.090597644
v 0.3593891 2.741528 -0.23632541
v 0.51886916 2.714139 -0.090597644
v 0.4567813 3.0817254 -0.15675485
v -0.2961917 2.6571748 0.105497666
v -0.45564857 2.6349316 0.048861675
v -0.4189436 2.9209828 -0.06487572
v -0.019098075 2.6943045 -0.26394472
v -0.053469718 2.9586406 -0.28555706
v -0.37352303 2.86925 -0.25315535
v 0.41027102 2.724787 0.036134858
v 0.41045687 3.110778 -0.04838883
v 0.4567813 3.0817254 -0.15675485
v -0.3926102 2.6205623 -0.24733673
v -0.37352303 2.86925 -0.25315535
v -0.47292534 2.880198 -0.1900521
v -0.3088774 2.9590085 0.05913112
v -0.4189436 2.9209828 -0.06487572
v -0.19063494 3.0461774 -0.18366393
v -0.053469718 2.9586406 -0.28555706
v -0.031185823 3.126238 -0.27863652
v -0.116096616 3.0972307 -0.22786096
v -0.3088774 2.9590085 0.05913112
v -0.15787612 3.0693479 -0.1473461
v -0.13488948 3.1487198 -0.04228652
v -0.37352303 2.86925 -0.25315535
v -0.116096616 3.0972307 -0.22786096
v -0.22339374 3.0230064 -0.2199818
v 0.21466652 3.0595129 -0.27901277
v 0.4567813 3.0817254 -0.15675485
v 0.21723531 3.2012594 -0.21133636
v -0.026820693 3.192604 0.12950791
v -0.089018896 3.1857834 -0.037005533
v -0.010993794 3.1965106 -0.124533415
v 0.48608875 1.8702912 -0.51688737
v 0.52112293 1.6002477 -0.64675856
v 0.75027925 1.8029838 -0.6241551
v 0.7830989 1.3552268 -0.03935669
v 0.9199155 1.7199523 -0.24604376
v 0.81329435 1.7014803 -0.4790654
v 0.76703674 1.6531429 -0.05609807
v 0.8897592 1.8525872 -0.18158561
v 0.9199155 1.7199523 -0.24604376
v 0.9750888 2.055431 -0.639234
v 1.0946654 2.1888635 -0.5731532
v 1.0405076 2.224563 -0.54998213
v 0.81810355 2.0012946 -0.18266094
v 0.6696962 1.9343306 -0.5586422
v 0.91089535 2.138681 -0.5647696
v 0.8897592 1.8525872 -0.18158561
v 1.0802926 2.1106489 -0.3129399
v 1.1416105 2.0256267 -0.35816142
v 0.9199155 1.7199523 -0.24604376
v 1.1416105 2.0256267 -0.35816142
v 1.0716671 1.99226 -0.5493268
v -0.4283023 0.5365835 0.055207223
v -0.5337076 -0.96463484 -0.0011566186
v -0.35865462 -0.969249 -0.20126316
v 0.4659243 -0.97780406 -0.27930287
v 0.64399624 -0.975604 -0.030189743
v 0.56236464 0.5557444 -0.042527523
v 0.048706062 -0.9755512 -0.3738179
v 0.4659243 -0.97780406 -0.27930287
v 0.40738043 0.55446935 -0.29995427
v 1.0802926 2.1106489 -0.3129399
v 1.1346002 2.2158282 -0.46161082
v 1.1755426 2.1628726 -0.46816626
v 0.061276563 3.178126 -0.24213426
v -0.116096616 3.0972307 -0.22786096
v -0.031185823 3.126238 -0.27863652
v -0.116096616 3.0972307 -0.22786096
v 0.061276563 3.178126 -0.24213426
v -0.010993794 3.1965106 -0.124533415
v -0.010993794 3.1965106 -0.124533415
v -0.15787612 3.0693479 -0.1473461
v -0.116096616 3.0972307 -0.22786096
v 1.0802926 2.1106489 -0.3129399
v 0.98467153 2.1779873 -0.3338631
v 1.0767666 2.2449079 -0.45509902
v 1.1403233 2.1424196 -0.5497213
v 1.1755426 2.1628726 -0.46816626
v 1.1346002 2.2158282 -0.46161082
v 0.81810355 2.0012946 -0.18266094
v 0.98467153 2.1779873 -0.3338631
v 1.0802926 2.1106489 -0.3129399
v 0.9750888 2.055431 -0.639234
v 1.0716671 1.99226 -0.5493268
v 1.1403233 2.1424196 -0.5497213
v 0.52112293 1.6002477 -0.64675856
v 0.53115535 1.327257 -0.51838726
v 0.81329435 1.7014803 -0.4790654
v 0.75027925 1.8029838 -0.6241551
v 0.81329435 1.7014803 -0.4790654
v 1.0716671 1.99226 -0.5493268
v 0.53115535 1.327257 -0.51838726
v 0.52112293 1.6002477 -0.64675856
v -0.0048434706 1.5888617 -0.25752804
v -0.35577467 1.3179284 -0.068969496
v 0.03217342 1.3020283 -0.2451537
v -0.0048434706 1.5888617 -0.25752804
v 0.48608875 1.8702912 -0.51688737
v -0.034252096 1.8748142 -0.26931784
v -0.3746341 1.415475 0.37644678
v -0.47357208 1.3938023 0.14136207
v -0.51964676 1.659704 0.16145355
v -0.5715369 1.3717806 -0.09469548
v -0.35577467 1.3179284 -0.068969496
v -0.3828225 1.5795732 -0.09841994
v -0.3746341 1.415475 0.37644678
v -0.38245136 1.6886141 0.34159344
v -0.1657947 1.707996 0.45219383
v -0.15058528 1.4337908 0.56337464
v -0.1657947 1.707996 0.45219383
v 0.08567222 1.7079823 0.41239917
v -0.026820693 3.192604 0.12950791
v -0.2203695 3.1016543 0.14983204
v -0.13488948 3.1487198 -0.04228652
v -0.012716244 2.7511072 0.22152562
v -0.24112415 2.7113914 0.2567242
v -0.2203695 3.1016543 0.14983204
v 0.033446513 2.3637657 0.29257628
v -0.22795632 2.3488266 0.3077799
v -0.24112415 2.7113914 0.2567242
v -0.1657947 1.707996 0.45219383
v -0.1783942 2.00973 0.37630856
v 0.063335665 2.01629 0.35951218
v -0.22795632 2.3488266 0.3077799
v 0.033446513 2.3637657 0.29257628
v 0.063335665 2.01629 0.35951218
v 0.00759756 0.9778829 0.44533065
v -0.05879577 1.0929053 0.41994956
v 0.15792105 1.0975543 0.3499699
v 0.35414955 1.4068784 0.35416365
v 0.33371904 1.6954411 0.3070623
v 0.559877 1.6717222 0.14625679
v 0.3089517 2.0044353 0.26890188
v 0.5311215 1.9770192 0.12301313
v 0.46445554 2.3289118 0.100631066
v 0.33371904 1.6954411 0.3070623
v 0.559877 1.6717222 0.14625679
v 0.2089222 3.1788015 0.030557575
v -0.010993794 3.1965106 -0.124533415
v 0.1737319 3.2115624 -0.14272732
v 0.35750252 1.102394 0.27943215
v 0.35414955 1.4068784 0.35416365
v 0.5615366 1.3857486 0.17339627
v -0.5256328 2.6163127 -0.08504926
v -0.47292534 2.880198 -0.1900521
v -0.4189436 2.9209828 -0.06487572
v -0.5312924 1.9378333 0.13198663
v -0.64242095 1.8931946 -0.050781522
v -0.5907615 2.2150733 -0.03813262
v -0.51964676 1.659704 0.16145355
v -0.6439394 1.6319346 -0.019875929
v -0.64242095 1.8931946 -0.050781522
v -0.29293707 0.96933866 0.2916024
v -0.27003604 0.5363733 0.31058952
v -0.34916916 0.5364784 0.18289836
v -0.44699118 0.9724651 -0.06419023
v -0.44568557 1.0872548 -0.08457955
v -0.37695408 1.0855215 0.09206809
v -0.36996412 0.9709019 0.11370609
v -0.4283023 0.5365835 0.055207223
v -0.4430463 -0.95665836 0.19406897
v -0.5337076 -0.96463484 -0.0011566186
v -0.35238498 -0.94868195 0.38929453
v -0.34916916 0.5364784 0.18289836
v -0.29293707 0.96933866 0.2916024
v -0.36996412 0.9709019 0.11370609
v -0.37695408 1.0855215 0.09206809
v -0.30822262 1.083788 0.26871574
v -0.44699118 0.9724651 -0.06419023
v -0.36996412 0.9709019 0.11370609
v -0.30822262 1.083788 0.26871574
v -0.29293707 0.96933866 0.2916024
v 0.051109012 0.54868853 -0.36144584
v 0.36347353 0.99248916 -0.4037864
v 0.0523594 0.98295575 -0.2240136
v 0.36347353 0.99248916 -0.4037864
v 0.578586 1.0883356 -0.0662777
v 0.3657599 1.1091316 -0.4226364
v 0.40738043 0.55446935 -0.29995427
v 0.5170713 0.9926717 -0.045241546
v 0.36347353 0.99248916 -0.4037864
v -0.29293707 0.96933866 0.2916024
v -0.05879577 1.0929053 0.41994956
v 0.00759756 0.9778829 0.44533065
v 0.19550279 0.9824664 0.37461832
v 0.35750252 1.102394 0.27943215
v 0.36695656 0.9867855 0.30340418
v 0.5170713 0.9926717 -0.045241546
v 0.47670642 1.0958154 0.10646047
v 0.578586 1.0883356 -0.0662777
v -0.44699118 0.9724651 -0.06419023
v -0.29478815 0.5411039 -0.21432967
v -0.27880213 0.9733068 -0.08316773
v 0.36347353 0.99248916 -0.4037864
v 0.044056386 1.0990268 -0.24364321
v 0.0523594 0.98295575 -0.2240136
v 0.578586 1.0883356 -0.0662777
v 0.5615366 1.3857486 0.17339627
v 0.7830989 1.3552268 -0.03935669
v -0.29687423 1.0883219 -0.10328417
v 0.03217342 1.3020283 -0.2451537
v -0.35577467 1.3179284 -0.068969496
v -0.30822262 1.083788 0.26871574
v -0.47357208 1.3938023 0.14136207
v -0.3746341 1.415475 0.37644678
v 0.578586 1.0883356 -0.0662777
v 0.53115535 1.327257 -0.51838726
v 0.3657599 1.1091316 -0.4226364
v -0.44568557 1.0872548 -0.08457955
v -0.35577467 1.3179284 -0.068969496
v -0.5715369 1.3717806 -0.09469548
v -0.05879577 1.0929053 0.41994956
v -0.3746341 1.415475 0.37644678
v -0.15058528 1.4337908 0.56337464
v 0.15792105 1.0975543 0.3499699
v 0.35414955 1.4068784 0.35416365
v 0.35750252 1.102394 0.27943215
v 0.6959038 1.9377062 -0.090982825
v 0.6696962 1.9343306 -0.5586422
v 0.81810355 2.0012946 -0.18266094
v 0.08567222 1.7079823 0.41239917
v 0.3089517 2.0044353 0.26890188
v 0.33371904 1.6954411 0.3070623
v 0.10404833 1.4190785 0.46757197
v 0.35414955 1.4068784 0.35416365
v 0.08567222 1.7079823 0.41239917
v 0.33371904 1.6954411 0.3070623
v -0.15058528 1.4337908 0.56337464
v -0.38245136 1.6886141 0.34159344
v -0.5312924 1.9378333 0.13198663
v -0.3666547 1.9827877 0.28952745
v 0.559877 1.6717222 0.14625679
v 0.6959038 1.9377062 -0.090982825
v 0.76703674 1.6531429 -0.05609807
v -0.3666547 1.9827877 0.28952745
v -0.22795632 2.3488266 0.3077799
v -0.1783942 2.00973 0.37630856
v -0.64242095 1.8931946 -0.050781522
v -0.3897374 2.1469874 -0.16427547
v -0.5907615 2.2150733 -0.03813262
v 0.6959038 1.9377062 -0.090982825
v 0.46395883 2.2034934 -0.22112583
v 0.48608875 1.8702912 -0.51688737
v -0.3666547 1.9827877 0.28952745
v -0.5079031 2.2647164 0.11252419
v -0.3491531 2.3110356 0.19038394
v -0.3491531 2.3110356 0.19038394
v -0.45564857 2.6349316 0.048861675
v -0.2961917 2.6571748 0.105497666
v -0.03254249 2.1692302 -0.26514038
v -0.3926102 2.6205623 -0.24733673
v -0.3897374 2.1469874 -0.16427547
v -0.3897374 2.1469874 -0.16427547
v -0.5256328 2.6163127 -0.08504926
v -0.5907615 2.2150733 -0.03813262
v 0.46395883 2.2034934 -0.22112583
v 0.51886916 2.714139 -0.090597644
v 0.3593891 2.741528 -0.23632541
v 0.3593891 2.741528 -0.23632541
v 0.4567813 3.0817254 -0.15675485
v 0.21466652 3.0595129 -0.27901277
v -0.2961917 2.6571748 0.105497666
v -0.4189436 2.9209828 -0.06487572
v -0.3088774 2.9590085 0.05913112
v -0.24112415 2.7113914 0.2567242
v -0.3088774 2.9590085 0.05913112
v -0.2203695 3.1016543 0.14983204
v -0.053469718 2.9586406 -0.28555706
v -0.116096616 3.0972307 -0.22786096
v -0.37352303 2.86925 -0.25315535
v 0.21466652 3.0595129 -0.27901277
v -0.031185823 3.126238 -0.27863652
v -0.053469718 2.9586406 -0.28555706
v 0.41045687 3.110778 -0.04838883
v 0.21723531 3.2012594 -0.21133636
v 0.4567813 3.0817254 -0.15675485
v -0.3088774 2.9590085 0.05913112
v -0.13488948 3.1487198 -0.04228652
v -0.2203695 3.1016543 0.14983204
v -0.37352303 2.86925 -0.25315535
v -0.22339374 3.0230064 -0.2199818
v -0.47292534 2.880198 -0.1900521
v -0.026820693 3.192604 0.12950791
v -0.010993794 3.1965106 -0.124533415
v 0.2089222 3.1788015 0.030557575
v 0.6696962 1.9343306 -0.5586422
v 0.9750888 2.055431 -0.639234
v 0.91089535 2.138681 -0.5647696
v 0.76703674 1.6531429 -0.05609807
v 0.9199155 1.7199523 -0.24604376
v 0.7830989 1.3552268 -0.03935669
v 0.9750888 2.055431 -0.639234
v 1.0405076 2.224563 -0.54998213
v 0.91089535 2.138681 -0.5647696
v 0.81810355 2.0012946 -0.18266094
v 0.91089535 2.138681 -0.5647696
v 0.98467153 2.1779873 -0.3338631
v 0.8897592 1.8525872 -0.18158561
v 1.1416105 2.0256267 -0.35816142
v 0.9199155 1.7199523 -0.24604376
v 0.9199155 1.7199523 -0.24604376
v 1.0716671 1.99226 -0.5493268
v 0.81329435 1.7014803 -0.4790654
v -0.4283023 0.5365835 0.055207223
v -0.35865462 -0.969249 -0.20126316
v -0.29478815 0.5411039 -0.21432967
v 0.4659243 -0.97780406 -0.27930287
v 0.56236464 0.5557444 -0.042527523
v 0.40738043 0.55446935 -0.29995427
v 0.048706062 -0.9755512 -0.3738179
v 0.40738043 0.55446935 -0.29995427
v 0.051109012 0.54868853 -0.36144584
v 1.0802926 2.1106489 -0.3129399
v 1.1755426 2.1628726 -0.46816626
v 1.1416105 2.0256267 -0.35816142
v 1.0802926 2.1106489 -0.3129399
v 1.0767666 2.2449079 -0.45509902
v 1.1346002 2.2158282 -0.46161082
v 1.1403233 2.1424196 -0.5497213
v 1.1346002 2.2158282 -0.46161082
v 1.0946654 2.1888635 -0.5731532
v 0.81810355 2.0012946 -0.18266094
v 1.0802926 2.1106489 -0.3129399
v 0.8897592 1.8525872 -0.18158561
v 0.9750888 2.055431 -0.639234
v 1.1403233 2.1424196 -0.5497213
v 1.0946654 2.1888635 -0.5731532
v 0.52112293 1.6002477 -0.64675856
v 0.81329435 1.7014803 -0.4790654
v 0.75027925 1.8029838 -0.6241551
v 0.75027925 1.8029838 -0.6241551
v 1.0716671 1.99226 -0.5493268
v 0.9750888 2.055431 -0.639234
v 0.53115535 1.327257 -0.51838726
v -0.0048434706 1.5888617 -0.25752804
v 0.03217342 1.3020283 -0.2451537
v -0.5715369 1.3717806 -0.09469548
v -0.3828225 1.5795732 -0.09841994
v -0.6439394 1.6319346 -0.019875929
v -0.3746341 1.415475 0.37644678
v -0.1657947 1.707996 0.45219383
v -0.15058528 1.4337908 0.56337464
v -0.026820693 3.192604 0.12950791
v -0.13488948 3.1487198 -0.04228652
v -0.089018896 3.1857834 -0.037005533
v -0.012716244 2.7511072 0.22152562
v -0.2203695 3.1016543 0.14983204
v -0.026820693 3.192604 0.12950791
v 0.033446513 2.3637657 0.29257628
v -0.24112415 2.7113914 0.2567242
v -0.012716244 2.7511072 0.22152562
v -0.1657947 1.707996 0.45219383
v 0.063335665 2.01629 0.35951218
v 0.08567222 1.7079823 0.41239917
v 0.35414955 1.4068784 0.35416365
v 0.559877 1.6717222 0.14625679
v 0.5615366 1.3857486 0.17339627
v 0.35750252 1.102394 0.27943215
v 0.5615366 1.3857486 0.17339627
v 0.47670642 1.0958154 0.10646047
v 0.44413388 0.98983884 0.12897263
v 0.35750252 1.102394 0.27943215
v 0.47670642 1.0958154 0.10646047
v -0.47357208 1.3938023 0.14136207
v -0.6439394 1.6319346 -0.019875929
v -0.51964676 1.659704 0.16145355
v -0.35238498 -0.94868195 0.38929453
v -0.34916916 0.5364784 0.18289836
v -0.27003604 0.5363733 0.31058952
v -0.36996412 0.9709019 0.11370609
v -0.4283023 0.5365835 0.055207223
v -0.4430463 -0.95665836 0.19406897
v -0.5256328 2.6163127 -0.08504926
v -0.4189436 2.9209828 -0.06487572
v -0.45564857 2.6349316 0.048861675
v -0.5312924 1.9378333 0.13198663
v -0.5907615 2.2150733 -0.03813262
v -0.5079031 2.2647164 0.11252419
v -0.51964676 1.659704 0.16145355
v -0.64242095 1.8931946 -0.050781522
v -0.5312924 1.9378333 0.13198663
v 0.4906042 0.55401504 0.14476347
v 0.41493717 0.5521915 0.33227652
v 0.36695656 0.9867855 0.30340418
v 0.44413388 0.98983884 0.12897263
v 0.35750252 1.102394 0.27943215
v 0.5170713 0.9926717 -0.045241546
v 0.44413388 0.98983884 0.12897263
v 0.56236464 0.5557444 -0.042527523
v 0.64399624 -0.975604 -0.030189743
v 0.5588397 -0.96857435 0.19319898
v 0.4906042 0.55401504 0.14476347
v 0.41493717 0.5521915 0.33227652
v 0.47368512 -0.9615515 0.41658783
v -0.27880213 0.9733068 -0.08316773
v 0.0523594 0.98295575 -0.2240136
v 0.044056386 1.0990268 -0.24364321
v -0.29687423 1.0883219 -0.10328417
v 0.19550279 0.9824664 0.37461832
v 0.15792105 1.0975543 0.3499699
v 0.35750252 1.102394 0.27943215
v 0.00759756 0.9778829 0.44533065
v 0.00759756 0.9778829 0.44533065
v 0.0626608 0.54421794 0.479486
v -0.27003604 0.5363733 0.31058952
v -0.29293707 0.96933866 0.2916024
v -0.44699118 0.9724651 -0.06419023
v -0.27880213 0.9733068 -0.08316773
v -0.29687423 1.0883219 -0.10328417
v -0.44568557 1.0872548 -0.08457955
v -0.29478815 0.5411039 -0.21432967
v 0.051109012 0.54868853 -0.36144584
v 0.0523594 0.98295575 -0.2240136
v -0.27880213 0.9733068 -0.08316773
v -0.30822262 1.083788 0.26871574
v -0.37695408 1.0855215 0.09206809
v -0.47357208 1.3938023 0.14136207
v -0.44568557 1.0872548 -0.08457955
v 0.3657599 1.1091316 -0.4226364
v 0.53115535 1.327257 -0.51838726
v 0.03217342 1.3020283 -0.2451537
v 0.044056386 1.0990268 -0.24364321
v -0.1657947 1.707996 0.45219383
v -0.38245136 1.6886141 0.34159344
v -0.3666547 1.9827877 0.28952745
v -0.1783942 2.00973 0.37630856
v 0.08567222 1.7079823 0.41239917
v 0.063335665 2.01629 0.35951218
v 0.3089517 2.0044353 0.26890188
v 0.2642423 2.358055 0.21338035
v 0.033446513 2.3637657 0.29257628
v 0.22710092 2.7506955 0.13705947
v -0.012716244 2.7511072 0.22152562
v -0.026820693 3.192604 0.12950791
v -0.38245136 1.6886141 0.34159344
v -0.51964676 1.659704 0.16145355
v -0.5312924 1.9378333 0.13198663
v -0.3746341 1.415475 0.37644678
v -0.3666547 1.9827877 0.28952745
v -0.3491531 2.3110356 0.19038394
v -0.22795632 2.3488266 0.3077799
v -0.2961917 2.6571748 0.105497666
v -0.03254249 2.1692302 -0.26514038
v -0.019098075 2.6943045 -0.26394472
v -0.3926102 2.6205623 -0.24733673
v -0.37352303 2.86925 -0.25315535
v 0.46395883 2.2034934 -0.22112583
v 0.3593891 2.741528 -0.23632541
v -0.019098075 2.6943045 -0.26394472
v -0.03254249 2.1692302 -0.26514038
v -0.034252096 1.8748142 -0.26931784
v 0.46445554 2.3289118 0.100631066
v 0.41027102 2.724787 0.036134858
v 0.51886916 2.714139 -0.090597644
v 0.4567813 3.0817254 -0.15675485
v -0.3897374 2.1469874 -0.16427547
v -0.3926102 2.6205623 -0.24733673
v -0.5256328 2.6163127 -0.08504926
v -0.47292534 2.880198 -0.1900521
v -0.019098075 2.6943045 -0.26394472
v 0.3593891 2.741528 -0.23632541
v 0.21466652 3.0595129 -0.27901277
v -0.053469718 2.9586406 -0.28555706
v -0.24112415 2.7113914 0.2567242
v -0.2961917 2.6571748 0.105497666
v -0.3088774 2.9590085 0.05913112
v -0.22795632 2.3488266 0.3077799
v 0.21466652 3.0595129 -0.27901277
v 0.061276563 3.178126 -0.24213426
v -0.031185823 3.126238 -0.27863652
v 0.21723531 3.2012594 -0.21133636
v 0.41045687 3.110778 -0.04838883
v 0.1737319 3.2115624 -0.14272732
v 0.21723531 3.2012594 -0.21133636
v 0.2089222 3.1788015 0.030557575
v 0.6696962 1.9343306 -0.5586422
v 0.75027925 1.8029838 -0.6241551
v 0.9750888 2.055431 -0.639234
v 0.48608875 1.8702912 -0.51688737
v -0.29478815 0.5411039 -0.21432967
v -0.35865462 -0.969249 -0.20126316
v 0.048706062 -0.9755512 -0.3738179
v 0.051109012 0.54868853 -0.36144584
v 0.05706721 -0.9466595 0.5912022
v -0.35238498 -0.94868195 0.38929453
v -0.27003604 0.5363733 0.31058952
v 0.0626608 0.54421794 0.479486
v 0.26537535 -0.95410293 0.503895
v 0.05706721 -0.9466595 0.5912022
v 0.0626608 0.54421794 0.479486
v 0.23594244 0.54822737 0.4060397
v 0.41493717 0.5521915 0.33227652
v 0.47368512 -0.9615515 0.41658783
v 0.36695656 0.9867855 0.30340418
v 0.19550279 0.9824664 0.37461832
v 0.00759756 0.9778829 0.44533065
v 1.1346002 2.2158282 -0.46161082
v 1.0767666 2.2449079 -0.45509902
v 1.0405076 2.224563 -0.54998213
v 1.0946654 2.1888635 -0.5731532
v 0.98467153 2.1779873 -0.3338631
v 0.91089535 2.138681 -0.5647696
v 1.0405076 2.224563 -0.54998213
v 1.0767666 2.2449079 -0.45509902
v 1.0716671 1.99226 -0.5493268
v 1.1416105 2.0256267 -0.35816142
v 1.1755426 2.1628726 -0.46816626
v 1.1403233 2.1424196 -0.5497213
v 0.1737319 3.2115624 -0.14272732
v -0.010993794 3.1965106 -0.124533415
v 0.061276563 3.178126 -0.24213426
v 0.21723531 3.2012594 -0.21133636
v -0.13488948 3.1487198 -0.04228652
v -0.15787612 3.0693479 -0.1473461
v -0.010993794 3.1965106 -0.124533415
v -0.089018896 3.1857834 -0.037005533
v 0.6959038 1.9377062 -0.090982825
v 0.81810355 2.0012946 -0.18266094
v 0.8897592 1.8525872 -0.18158561
v 0.76703674 1.6531429 -0.05609807
v 0.5615366 1.3857486 0.17339627
v 0.559877 1.6717222 0.14625679
v 0.76703674 1.6531429 -0.05609807
v 0.7830989 1.3552268 -0.03935669
v -0.05879577 1.0929053 0.41994956
v -0.15058528 1.4337908 0.56337464
v 0.10404833 1.4190785 0.46757197
v 0.15792105 1.0975543 0.3499699
v 0.22710092 2.7506955 0.13705947
v 0.2089222 3.1788015 0.030557575
v 0.41045687 3.110778 -0.04838883
v -0.026820693 3.192604 0.12950791
v 0.3089517 2.0044353 0.26890188
v 0.2642423 2.358055 0.21338035
v 0.46445554 2.3289118 0.100631066
v 0.41027102 2.724787 0.036134858
v 0.22710092 2.7506955 0.13705947
v 0.41045687 3.110778 -0.04838883
v -0.47357208 1.3938023 0.14136207
v -0.5715369 1.3717806 -0.09469548
v -0.6439394 1.6319346 -0.019875929
v -0.44568557 1.0872548 -0.08457955
v -0.4189436 2.9209828 -0.06487572
v -0.47292534 2.880198 -0.1900521
v -0.22339374 3.0230064 -0.2199818
v -0.19063494 3.0461774 -0.18366393
v -0.5079031 2.2647164 0.11252419
v -0.5907615 2.2150733 -0.03813262
v -0.5256328 2.6163127 -0.08504926
v -0.45564857 2.6349316 0.048861675
v 0.5311215 1.9770192 0.12301313
v 0.5807899 2.279623 -0.041966386
v 0.6959038 1.9377062 -0.090982825
v 0.46445554 2.3289118 0.100631066
v 0.51886916 2.714139 -0.090597644
v -0.3088774 2.9590085 0.05913112
v -0.19063494 3.0461774 -0.18366393
v -0.15787612 3.0693479 -0.1473461
v -0.116096616 3.0972307 -0.22786096
v -0.22339374 3.0230064 -0.2199818
v 0.0711308 -0.96271557 -0.053649385
v -0.5337076 -0.96463484 -0.0011566186
v -0.4430463 -0.95665836 0.19406897
v -0.35865462 -0.969249 -0.20126316
v -0.35238498 -0.94868195 0.38929453
v 0.048706062 -0.9755512 -0.3738179
v 0.05706721 -0.9466595 0.5912022
v 0.4659243 -0.97780406 -0.27930287
v 0.26537535 -0.95410293 0.503895
v 0.64399624 -0.975604 -0.030189743
v 0.47368512 -0.9615515 0.41658783
v 0.5588397 -0.96857435 0.19319898
vt 0.48822817 0.40116653
vt 0.5673179 0.39995
vt 0.558473 0.50038195
vt 0.558473 0.50038195
vt 0.5894587 0.48850006
vt 0.60341114 0.5102835
vt 0.6488901 0.56821537
vt 0.5970424 0.57801545
vt 0.65976304 0.6591998
vt 0.5673179 0.39995
vt 0.5995614 0.39161116
vt 0.5894587 0.48850006
vt 0.4051756 0.47343975
vt 0.4019721 0.49954805
vt 0.4563291 0.496285
vt 0.5894587 0.48850006
vt 0.5715164 0.48228195
vt 0.57901096 0.50643647
vt 0.37406203 0.485965
vt 0.37712207 0.3855326
vt 0.40950328 0.39515516
vt 0.558473 0.50038195
vt 0.5591608 0.5268199
vt 0.4855471 0.5191761
vt 0.60341114 0.5102835
vt 0.57901096 0.50643647
vt 0.5973525 0.56832665
vt 0.4079961 0.51268786
vt 0.4855471 0.5191761
vt 0.4829041 0.5641874
vt 0.374545 0.51204437
vt 0.4079961 0.51268786
vt 0.3945037 0.5624838
vt 0.4563291 0.496285
vt 0.4019721 0.49954805
vt 0.38611212 0.56955725
vt 0.5054451 0.4993036
vt 0.49229643 0.56672305
vt 0.5492845 0.567384
vt 0.329607 0.6307974
vt 0.38873157 0.6214125
vt 0.38556388 0.6810572
vt 0.38556388 0.6810572
vt 0.33023617 0.6896493
vt 0.3878025 0.7492019
vt 0.47474274 0.62814885
vt 0.46827716 0.69188577
vt 0.38556388 0.6810572
vt 0.47474274 0.62814885
vt 0.38873157 0.6214125
vt 0.3945037 0.5624838
vt 0.6298762 0.6989854
vt 0.58695096 0.698259
vt 0.6283988 0.7135502
vt 0.47474274 0.62814885
vt 0.5960021 0.6426641
vt 0.58695096 0.698259
vt 0.5972358 0.6325317
vt 0.5910236 0.7009249
vt 0.6298762 0.6989854
vt 0.46827716 0.69188577
vt 0.58695096 0.698259
vt 0.57923055 0.7624009
vt 0.6298762 0.6989854
vt 0.6036761 0.7732442
vt 0.57923055 0.7624009
vt 0.38460717 0.69801694
vt 0.34582362 0.6934565
vt 0.35369578 0.76954305
vt 0.46827716 0.69188577
vt 0.46862027 0.7569324
vt 0.3878025 0.7492019
vt 0.38260964 0.77235246
vt 0.35369578 0.76954305
vt 0.37798816 0.8445496
vt 0.57923055 0.7624009
vt 0.6036761 0.7732442
vt 0.59565127 0.8711719
vt 0.5639335 0.8821646
vt 0.59565127 0.8711719
vt 0.58899105 0.92762524
vt 0.4076058 0.8460831
vt 0.37798816 0.8445496
vt 0.3921718 0.89512885
vt 0.4636649 0.8636819
vt 0.45657274 0.9149465
vt 0.3961869 0.893014
vt 0.57579726 0.8694883
vt 0.57737917 0.93058115
vt 0.58899105 0.92762524
vt 0.39229536 0.8501278
vt 0.3961869 0.893014
vt 0.36952507 0.8922872
vt 0.41422936 0.9000602
vt 0.3921718 0.89512885
vt 0.43445802 0.9251848
vt 0.45657274 0.9149465
vt 0.47290793 0.9492377
vt 0.4572875 0.9414498
vt 0.41422936 0.9000602
vt 0.4398385 0.93063694
vt 0.44599736 0.94126457
vt 0.3961869 0.893014
vt 0.4572875 0.9414498
vt 0.43487856 0.9234199
vt 0.5283955 0.9278927
vt 0.58899105 0.92762524
vt 0.52797955 0.9567738
vt 0.47064707 0.95049745
vt 0.46301714 0.9539101
vt 0.48108688 0.9586585
vt 0.58695096 0.698259
vt 0.5960021 0.6426641
vt 0.647032 0.686499
vt 0.6488901 0.56821537
vt 0.68142074 0.6555319
vt 0.65976304 0.6591998
vt 0.64545536 0.6347445
vt 0.67407346 0.68283373
vt 0.68142074 0.6555319
vt 0.697443 0.74257696
vt 0.7235623 0.76979744
vt 0.7112348 0.7770188
vt 0.6580605 0.71589166
vt 0.6283988 0.7135502
vt 0.68239087 0.7586645
vt 0.67407346 0.68283373
vt 0.7179097 0.744
vt 0.7320448 0.7265688
vt 0.68142074 0.6555319
vt 0.7320448 0.7265688
vt 0.71819633 0.7255215
vt 0.37712207 0.3855326
vt 0.35408062 0.05513965
vt 0.39509967 0.06041496
vt 0.5802154 0.059941072
vt 0.6176994 0.052047063
vt 0.5995614 0.39161116
vt 0.4878069 0.06409858
vt 0.5802154 0.059941072
vt 0.5673179 0.39995
vt 0.7179097 0.744
vt 0.73144674 0.77206933
vt 0.7406634 0.76050276
vt 0.50733346 0.9571085
vt 0.4572875 0.9414498
vt 0.47290793 0.9492377
vt 0.4572875 0.9414498
vt 0.50733346 0.9571085
vt 0.48108688 0.9586585
vt 0.48108688 0.9586585
vt 0.4398385 0.93063694
vt 0.4572875 0.9414498
vt 0.7179097 0.744
vt 0.69672394 0.7597235
vt 0.7184535 0.7783742
vt 0.7335523 0.7586866
vt 0.7406634 0.76050276
vt 0.73144674 0.77206933
vt 0.6580605 0.71589166
vt 0.69672394 0.7597235
vt 0.7179097 0.744
vt 0.697443 0.74257696
vt 0.71819633 0.7255215
vt 0.7335523 0.7586866
vt 0.5960021 0.6426641
vt 0.5970424 0.57801545
vt 0.65976304 0.6591998
vt 0.647032 0.686499
vt 0.65976304 0.6591998
vt 0.71819633 0.7255215
vt 0.5970424 0.57801545
vt 0.5960021 0.6426641
vt 0.47474274 0.62814885
vt 0.3945037 0.5624838
vt 0.4829041 0.5641874
vt 0.47474274 0.62814885
vt 0.58695096 0.698259
vt 0.46827716 0.69188577
vt 0.38611212 0.56955725
vt 0.3661918 0.57257336
vt 0.3557007 0.63085234
vt 0.34649816 0.5755427
vt 0.3945037 0.5624838
vt 0.38873157 0.6214125
vt 0.38611212 0.56955725
vt 0.38469076 0.631181
vt 0.43210086 0.6315628
vt 0.4344599 0.56719965
vt 0.43210086 0.6315628
vt 0.48870435 0.63251543
vt 0.47064707 0.95049745
vt 0.4417113 0.9188388
vt 0.44599736 0.94126457
vt 0.4661694 0.8629233
vt 0.4266101 0.85432196
vt 0.4417113 0.9188388
vt 0.4781492 0.7816952
vt 0.4275507 0.77730435
vt 0.4266101 0.85432196
vt 0.43210086 0.6315628
vt 0.4299947 0.70086455
vt 0.4842054 0.7025346
vt 0.4275507 0.77730435
vt 0.4781492 0.7816952
vt 0.4842054 0.7025346
vt 0.4709375 0.46989846
vt 0.4563291 0.496285
vt 0.5054451 0.4993036
vt 0.5492845 0.567384
vt 0.5451574 0.63284004
vt 0.5972358 0.6325317
vt 0.53997684 0.7025336
vt 0.5910236 0.7009249
vt 0.57632613 0.77965826
vt 0.5451574 0.63284004
vt 0.5972358 0.6325317
vt 0.5184024 0.94475704
vt 0.48108688 0.9586585
vt 0.5094768 0.95784426
vt 0.55073464 0.502406
vt 0.5492845 0.567384
vt 0.5973525 0.56832665
vt 0.3641494 0.84651643
vt 0.36952507 0.8922872
vt 0.3921718 0.89512885
vt 0.34582362 0.6934565
vt 0.33023617 0.6896493
vt 0.3436334 0.7635813
vt 0.3557007 0.63085234
vt 0.329607 0.6307974
vt 0.33023617 0.6896493
vt 0.4051756 0.47343975
vt 0.41011855 0.37692717
vt 0.39362028 0.38122985
vt 0.37406203 0.485965
vt 0.374545 0.51204437
vt 0.38825855 0.5057962
vt 0.38961878 0.47970244
vt 0.37712207 0.3855326
vt 0.37252375 0.050404448
vt 0.35408062 0.05513965
vt 0.3909669 0.045669157
vt 0.39362028 0.38122985
vt 0.4051756 0.47343975
vt 0.38961878 0.47970244
vt 0.38825855 0.5057962
vt 0.4019721 0.49954805
vt 0.37406203 0.485965
vt 0.38961878 0.47970244
vt 0.4019721 0.49954805
vt 0.4051756 0.47343975
vt 0.48822817 0.40116653
vt 0.558473 0.50038195
vt 0.48721978 0.4928248
vt 0.558473 0.50038195
vt 0.60341114 0.5102835
vt 0.5591608 0.5268199
vt 0.5673179 0.39995
vt 0.5894587 0.48850006
vt 0.558473 0.50038195
vt 0.4051756 0.47343975
vt 0.4563291 0.496285
vt 0.4709375 0.46989846
vt 0.51361775 0.47296584
vt 0.55073464 0.502406
vt 0.552624 0.47601363
vt 0.5894587 0.48850006
vt 0.57901096 0.50643647
vt 0.60341114 0.5102835
vt 0.37406203 0.485965
vt 0.40950328 0.39515516
vt 0.41184866 0.486541
vt 0.558473 0.50038195
vt 0.4855471 0.5191761
vt 0.48721978 0.4928248
vt 0.60341114 0.5102835
vt 0.5973525 0.56832665
vt 0.6488901 0.56821537
vt 0.4079961 0.51268786
vt 0.4829041 0.5641874
vt 0.3945037 0.5624838
vt 0.4019721 0.49954805
vt 0.3661918 0.57257336
vt 0.38611212 0.56955725
vt 0.60341114 0.5102835
vt 0.5970424 0.57801545
vt 0.5591608 0.5268199
vt 0.374545 0.51204437
vt 0.3945037 0.5624838
vt 0.34649816 0.5755427
vt 0.4563291 0.496285
vt 0.38611212 0.56955725
vt 0.4344599 0.56719965
vt 0.5054451 0.4993036
vt 0.5492845 0.567384
vt 0.55073464 0.502406
vt 0.6298762 0.6989854
vt 0.6283988 0.7135502
vt 0.6580605 0.71589166
vt 0.48870435 0.63251543
vt 0.53997684 0.7025336
vt 0.5451574 0.63284004
vt 0.49229643 0.56672305
vt 0.5492845 0.567384
vt 0.48870435 0.63251543
vt 0.5451574 0.63284004
vt 0.4344599 0.56719965
vt 0.38469076 0.631181
vt 0.34582362 0.6934565
vt 0.38460717 0.69801694
vt 0.5972358 0.6325317
vt 0.6298762 0.6989854
vt 0.64545536 0.6347445
vt 0.38460717 0.69801694
vt 0.4275507 0.77730435
vt 0.4299947 0.70086455
vt 0.33023617 0.6896493
vt 0.3878025 0.7492019
vt 0.3436334 0.7635813
vt 0.6298762 0.6989854
vt 0.57923055 0.7624009
vt 0.58695096 0.698259
vt 0.38460717 0.69801694
vt 0.35369578 0.76954305
vt 0.38260964 0.77235246
vt 0.38260964 0.77235246
vt 0.37798816 0.8445496
vt 0.4076058 0.8460831
vt 0.46862027 0.7569324
vt 0.39229536 0.8501278
vt 0.3878025 0.7492019
vt 0.3878025 0.7492019
vt 0.3641494 0.84651643
vt 0.3436334 0.7635813
vt 0.57923055 0.7624009
vt 0.59565127 0.8711719
vt 0.5639335 0.8821646
vt 0.5639335 0.8821646
vt 0.58899105 0.92762524
vt 0.5283955 0.9278927
vt 0.4076058 0.8460831
vt 0.3921718 0.89512885
vt 0.41422936 0.9000602
vt 0.4266101 0.85432196
vt 0.41422936 0.9000602
vt 0.4417113 0.9188388
vt 0.45657274 0.9149465
vt 0.4572875 0.9414498
vt 0.3961869 0.893014
vt 0.5283955 0.9278927
vt 0.47290793 0.9492377
vt 0.45657274 0.9149465
vt 0.57737917 0.93058115
vt 0.52797955 0.9567738
vt 0.58899105 0.92762524
vt 0.41422936 0.9000602
vt 0.44599736 0.94126457
vt 0.4417113 0.9188388
vt 0.3961869 0.893014
vt 0.43487856 0.9234199
vt 0.36952507 0.8922872
vt 0.47064707 0.95049745
vt 0.48108688 0.9586585
vt 0.5184024 0.94475704
vt 0.6283988 0.7135502
vt 0.697443 0.74257696
vt 0.68239087 0.7586645
vt 0.64545536 0.6347445
vt 0.68142074 0.6555319
vt 0.6488901 0.56821537
vt 0.697443 0.74257696
vt 0.7112348 0.7770188
vt 0.68239087 0.7586645
vt 0.6580605 0.71589166
vt 0.68239087 0.7586645
vt 0.69672394 0.7597235
vt 0.67407346 0.68283373
vt 0.7320448 0.7265688
vt 0.68142074 0.6555319
vt 0.68142074 0.6555319
vt 0.71819633 0.7255215
vt 0.65976304 0.6591998
vt 0.37712207 0.3855326
vt 0.39509967 0.06041496
vt 0.40950328 0.39515516
vt 0.5802154 0.059941072
vt 0.5995614 0.39161116
vt 0.5673179 0.39995
vt 0.4878069 0.06409858
vt 0.5673179 0.39995
vt 0.48822817 0.40116653
vt 0.7179097 0.744
vt 0.7406634 0.76050276
vt 0.7320448 0.7265688
vt 0.7179097 0.744
vt 0.7184535 0.7783742
vt 0.73144674 0.77206933
vt 0.7335523 0.7586866
vt 0.73144674 0.77206933
vt 0.7235623 0.76979744
vt 0.6580605 0.71589166
vt 0.7179097 0.744
vt 0.67407346 0.68283373
vt 0.697443 0.74257696
vt 0.7335523 0.7586866
vt 0.7235623 0.76979744
vt 0.5960021 0.6426641
vt 0.65976304 0.6591998
vt 0.647032 0.686499
vt 0.647032 0.686499
vt 0.71819633 0.7255215
vt 0.697443 0.74257696
vt 0.5970424 0.57801545
vt 0.47474274 0.62814885
vt 0.4829041 0.5641874
vt 0.34649816 0.5755427
vt 0.38873157 0.6214125
vt 0.329607 0.6307974
vt 0.38611212 0.56955725
vt 0.43210086 0.6315628
vt 0.4344599 0.56719965
vt 0.47064707 0.95049745
vt 0.44599736 0.94126457
vt 0.46301714 0.9539101
vt 0.4661694 0.8629233
vt 0.4417113 0.9188388
vt 0.47064707 0.95049745
vt 0.4781492 0.7816952
vt 0.4266101 0.85432196
vt 0.4661694 0.8629233
vt 0.43210086 0.6315628
vt 0.4842054 0.7025346
vt 0.48870435 0.63251543
vt 0.5492845 0.567384
vt 0.5972358 0.6325317
vt 0.5973525 0.56832665
vt 0.55073464 0.502406
vt 0.5973525 0.56832665
vt 0.57901096 0.50643647
vt 0.5715164 0.48228195
vt 0.55073464 0.502406
vt 0.57901096 0.50643647
vt 0.3661918 0.57257336
vt 0.329607 0.6307974
vt 0.3557007 0.63085234
vt 0.3909669 0.045669157
vt 0.39362028 0.38122985
vt 0.41011855 0.37692717
vt 0.38961878 0.47970244
vt 0.37712207 0.3855326
vt 0.37252375 0.050404448
vt 0.3641494 0.84651643
vt 0.3921718 0.89512885
vt 0.37798816 0.8445496
vt 0.34582362 0.6934565
vt 0.3436334 0.7635813
vt 0.35369578 0.76954305
vt 0.3557007 0.63085234
vt 0.33023617 0.6896493
vt 0.34582362 0.6934565
vt 0.5817597 0.38520858
vt 0.5630824 0.37878323
vt 0.552624 0.47601363
vt 0.5715164 0.48228195
vt 0.55073464 0.502406
vt 0.5894587 0.48850006
vt 0.5715164 0.48228195
vt 0.5995614 0.39161116
vt 0.6176994 0.052047063
vt 0.59656394 0.046423007
vt 0.5817597 0.38520858
vt 0.5630824 0.37878323
vt 0.5754289 0.04079737
vt 0.41184866 0.486541
vt 0.48721978 0.4928248
vt 0.4855471 0.5191761
vt 0.4079961 0.51268786
vt 0.51361775 0.47296584
vt 0.5054451 0.4993036
vt 0.55073464 0.502406
vt 0.4709375 0.46989846
vt 0.4709375 0.46989846
vt 0.4829301 0.37269142
vt 0.41011855 0.37692717
vt 0.4051756 0.47343975
vt 0.37406203 0.485965
vt 0.41184866 0.486541
vt 0.4079961 0.51268786
vt 0.374545 0.51204437
vt 0.40950328 0.39515516
vt 0.48822817 0.40116653
vt 0.48721978 0.4928248
vt 0.41184866 0.486541
vt 0.4019721 0.49954805
vt 0.38825855 0.5057962
vt 0.3661918 0.57257336
vt 0.374545 0.51204437
vt 0.5591608 0.5268199
vt 0.5970424 0.57801545
vt 0.4829041 0.5641874
vt 0.4855471 0.5191761
vt 0.43210086 0.6315628
vt 0.38469076 0.631181
vt 0.38460717 0.69801694
vt 0.4299947 0.70086455
vt 0.48870435 0.63251543
vt 0.4842054 0.7025346
vt 0.53997684 0.7025336
vt 0.53049976 0.78270185
vt 0.4781492 0.7816952
vt 0.5191757 0.8706966
vt 0.4661694 0.8629233
vt 0.47064707 0.95049745
vt 0.38469076 0.631181
vt 0.3557007 0.63085234
vt 0.34582362 0.6934565
vt 0.38611212 0.56955725
vt 0.38460717 0.69801694
vt 0.38260964 0.77235246
vt 0.4275507 0.77730435
vt 0.4076058 0.8460831
vt 0.46862027 0.7569324
vt 0.4636649 0.8636819
vt 0.39229536 0.8501278
vt 0.3961869 0.893014
vt 0.57923055 0.7624009
vt 0.5639335 0.8821646
vt 0.4636649 0.8636819
vt 0.46862027 0.7569324
vt 0.46827716 0.69188577
vt 0.57632613 0.77965826
vt 0.57579726 0.8694883
vt 0.59565127 0.8711719
vt 0.58899105 0.92762524
vt 0.3878025 0.7492019
vt 0.39229536 0.8501278
vt 0.3641494 0.84651643
vt 0.36952507 0.8922872
vt 0.4636649 0.8636819
vt 0.5639335 0.8821646
vt 0.5283955 0.9278927
vt 0.45657274 0.9149465
vt 0.4266101 0.85432196
vt 0.4076058 0.8460831
vt 0.41422936 0.9000602
vt 0.4275507 0.77730435
vt 0.5283955 0.9278927
vt 0.50733346 0.9571085
vt 0.47290793 0.9492377
vt 0.52797955 0.9567738
vt 0.57737917 0.93058115
vt 0.5094768 0.95784426
vt 0.52797955 0.9567738
vt 0.5184024 0.94475704
vt 0.6283988 0.7135502
vt 0.647032 0.686499
vt 0.697443 0.74257696
vt 0.58695096 0.698259
vt 0.40950328 0.39515516
vt 0.39509967 0.06041496
vt 0.4878069 0.06409858
vt 0.48822817 0.40116653
vt 0.48063233 0.038960982
vt 0.3909669 0.045669157
vt 0.41011855 0.37692717
vt 0.4829301 0.37269142
vt 0.52803046 0.039879728
vt 0.48063233 0.038960982
vt 0.4829301 0.37269142
vt 0.522366 0.3757411
vt 0.5630824 0.37878323
vt 0.5754289 0.04079737
vt 0.552624 0.47601363
vt 0.51361775 0.47296584
vt 0.4709375 0.46989846
vt 0.73144674 0.77206933
vt 0.7184535 0.7783742
vt 0.7112348 0.7770188
vt 0.7235623 0.76979744
vt 0.69672394 0.7597235
vt 0.68239087 0.7586645
vt 0.7112348 0.7770188
vt 0.7184535 0.7783742
vt 0.71819633 0.7255215
vt 0.7320448 0.7265688
vt 0.7406634 0.76050276
vt 0.7335523 0.7586866
vt 0.5094768 0.95784426
vt 0.48108688 0.9586585
vt 0.50733346 0.9571085
vt 0.52797955 0.9567738
vt 0.44599736 0.94126457
vt 0.4398385 0.93063694
vt 0.48108688 0.9586585
vt 0.46301714 0.9539101
vt 0.6298762 0.6989854
vt 0.6580605 0.71589166
vt 0.67407346 0.68283373
vt 0.64545536 0.6347445
vt 0.5973525 0.56832665
vt 0.5972358 0.6325317
vt 0.64545536 0.6347445
vt 0.6488901 0.56821537
vt 0.4563291 0.496285
vt 0.4344599 0.56719965
vt 0.49229643 0.56672305
vt 0.5054451 0.4993036
vt 0.5191757 0.8706966
vt 0.5184024 0.94475704
vt 0.57737917 0.93058115
vt 0.47064707 0.95049745
vt 0.53997684 0.7025336
vt 0.53049976 0.78270185
vt 0.57632613 0.77965826
vt 0.57579726 0.8694883
vt 0.5191757 0.8706966
vt 0.57737917 0.93058115
vt 0.3661918 0.57257336
vt 0.34649816 0.5755427
vt 0.329607 0.6307974
vt 0.374545 0.51204437
vt 0.3921718 0.89512885
vt 0.36952507 0.8922872
vt 0.43487856 0.9234199
vt 0.43445802 0.9251848
vt 0.35369578 0.76954305
vt 0.3436334 0.7635813
vt 0.3641494 0.84651643
vt 0.37798816 0.8445496
vt 0.5910236 0.7009249
vt 0.6036761 0.7732442
vt 0.6298762 0.6989854
vt 0.57632613 0.77965826
vt 0.59565127 0.8711719
vt 0.41422936 0.9000602
vt 0.43445802 0.9251848
vt 0.4398385 0.93063694
vt 0.4572875 0.9414498
vt 0.43487856 0.9234199
vt 0.4898207 0.05645128
vt 0.35408062 0.05513965
vt 0.37252375 0.050404448
vt 0.39509967 0.06041496
vt 0.3909669 0.045669157
vt 0.4878069 0.06409858
vt 0.48063233 0.038960982
vt 0.5802154 0.059941072
vt 0.52803046 0.039879728
vt 0.6176994 0.052047063
vt 0.5754289 0.04079737
vt 0.59656394 0.046423007
vn 0.16957311 -0.21119092 -0.9626231
vn 0.16957311 -0.21119092 -0.9626231
vn 0.16957311 -0.21119092 -0.9626231
vn 0.76103663 -0.5609978 -0.32573694
vn 0.76103663 -0.5609978 -0.32573694
vn 0.76103663 -0.5609978 -0.32573694
vn 0.7561347 -0.5424914 -0.3660103
vn 0.7561347 -0.5424914 -0.3660103
vn 0.76043797 -0.53457326 -0.36873513
vn 0.85340947 0.085273094 -0.5142186
vn 0.85340947 0.085273094 -0.5142186
vn 0.85340947 0.085273094 -0.5142186
vn -0.5185244 0.10054988 0.84913015
vn -0.5185244 0.10054988 0.84913015
vn -0.5185244 0.10054988 0.84913015
vn 0.90522826 -0.19840622 0.37576166
vn 0.90522826 -0.19840622 0.37576166
vn 0.90522826 -0.19840622 0.37576166
vn -0.88369817 -0.15852337 -0.4403952
vn -0.88369817 -0.15852337 -0.4403952
vn -0.88369817 -0.15852337 -0.4403952
vn -0.47887522 -0.13089778 -0.86806935
vn -0.47887522 -0.13089778 -0.86806935
vn -0.47887522 -0.13089778 -0.86806935
vn 0.80118454 -0.34697506 0.48755676
vn 0.80118454 -0.34697506 0.48755676
vn 0.80118454 -0.34697506 0.48755676
vn -0.37975085 -0.02910907 -0.92463076
vn -0.37975085 -0.02910907 -0.92463076
vn -0.37975085 -0.02910907 -0.92463076
vn -0.124694616 0.11529147 -0.985474
vn -0.124694616 0.11529147 -0.985474
vn -0.124694616 0.11529147 -0.985474
vn -0.47485515 -0.35642764 0.80465645
vn -0.47485515 -0.35642764 0.80465645
vn -0.47485515 -0.35642764 0.80465645
vn 0.38846287 -0.2584242 0.88448495
vn 0.38846287 -0.2584242 0.88448495
vn 0.38846287 -0.2584242 0.88448495
vn -0.30908173 -0.12765704 -0.9424288
vn -0.30908173 -0.12765704 -0.9424288
vn -0.30908173 -0.12765704 -0.9424288
vn -0.3527277 -0.07473283 -0.93273693
vn -0.3224058 -0.099949315 -0.94131005
vn -0.3224058 -0.099949315 -0.94131005
vn -0.3527277 -0.07473283 -0.93273693
vn -0.3527277 -0.07473283 -0.93273693
vn -0.38205412 -0.1287421 -0.9151285
vn -0.38205412 -0.1287421 -0.9151285
vn -0.38205412 -0.1287421 -0.9151285
vn -0.38105726 -0.1422201 -0.91354734
vn -0.32697096 0.9449644 0.011502556
vn -0.32697096 0.9449644 0.011502556
vn -0.32697096 0.9449644 0.011502556
vn -0.5727139 0.29375872 -0.7653134
vn -0.5727139 0.29375872 -0.7653134
vn -0.5727139 0.29375872 -0.7653134
vn 0.79712814 0.12013219 0.59173906
vn 0.79712814 0.12013219 0.59173906
vn 0.79712814 0.12013219 0.59173906
vn -0.33512756 0.6129047 -0.71556777
vn -0.33512756 0.6129047 -0.71556777
vn -0.33512756 0.6129047 -0.71556777
vn 0.72041273 0.3299924 -0.6100087
vn 0.72041273 0.3299924 -0.6100087
vn 0.72041273 0.3299924 -0.6100087
vn -0.7014505 0.09226832 0.7067205
vn -0.7014505 0.09226832 0.7067205
vn -0.7014505 0.09226832 0.7067205
vn -0.2726007 0.015232829 -0.9620067
vn -0.2726007 0.015232829 -0.9620067
vn -0.2726007 0.015232829 -0.9620067
vn -0.47977266 0.21403733 0.8508855
vn -0.47977266 0.21403733 0.8508855
vn -0.47977266 0.21403733 0.8508855
vn 0.8255669 0.054788534 -0.56163824
vn 0.8255669 0.054788534 -0.56163824
vn 0.8255669 0.054788534 -0.56163824
vn 0.6726025 -0.019530375 -0.7397462
vn 0.6726025 -0.019530375 -0.7397462
vn 0.6726025 -0.019530375 -0.7397462
vn -0.35613176 0.38435495 0.85172844
vn -0.35613176 0.38435495 0.85172844
vn -0.35613176 0.38435495 0.85172844
vn -0.07512692 -0.0909584 -0.99301684
vn -0.07512692 -0.0909584 -0.99301684
vn -0.07512692 -0.0909584 -0.99301684
vn 0.9241562 0.08129203 0.37326518
vn 0.9241562 0.08129203 0.37326518
vn 0.9241562 0.08129203 0.37326518
vn -0.53416353 0.02122456 -0.84511465
vn -0.53416353 0.02122456 -0.84511465
vn -0.53416353 0.02122456 -0.84511465
vn -0.4331932 0.8945397 0.11019228
vn -0.4331932 0.8945397 0.11019228
vn -0.4331932 0.8945397 0.11019228
vn -0.5367431 0.10593072 -0.8370696
vn -0.5367431 0.10593072 -0.8370696
vn -0.5367431 0.10593072 -0.8370696
vn -0.77694595 0.57229096 -0.26237005
vn -0.77694595 0.57229096 -0.26237005
vn -0.77694595 0.57229096 -0.26237005
vn -0.45688552 0.5897776 -0.66589636
vn -0.45688552 0.5897776 -0.66589636
vn -0.45688552 0.5897776 -0.66589636
vn 0.3858215 0.39179465 -0.8352477
vn 0.3858215 0.39179465 -0.8352477
vn 0.3858215 0.39179465 -0.8352477
vn -0.12818573 0.9917236 0.007263325
vn -0.12818573 0.9917236 0.007263325
vn -0.12818573 0.9917236 0.007263325
vn -0.25893208 0.3911403 -0.88315535
vn -0.25893208 0.3911403 -0.88315535
vn -0.25893208 0.3911403 -0.88315535
vn 0.80680454 -0.48984563 -0.33032978
vn 0.80680454 -0.48984563 -0.33032978
vn 0.80680454 -0.48984563 -0.33032978
vn 0.79290605 -0.11090604 0.59916604
vn 0.79290605 -0.11090604 0.59916604
vn 0.79290605 -0.11090604 0.59916604
vn -0.055706 0.48275515 -0.87398183
vn -0.055706 0.48275515 -0.87398183
vn -0.055706 0.48275515 -0.87398183
vn -0.64020294 0.75916827 0.11748908
vn -0.64020294 0.75916827 0.11748908
vn -0.64020294 0.75916827 0.11748908
vn 0.58057386 -0.014282733 0.8140823
vn 0.58057386 -0.014282733 0.8140823
vn 0.58057386 -0.014282733 0.8140823
vn 0.7662792 -0.6189658 -0.17232975
vn 0.7662792 -0.6189658 -0.17232975
vn 0.7662792 -0.6189658 -0.17232975
vn -0.7495149 0.07731033 -0.6574576
vn -0.7495149 0.07731033 -0.6574576
vn -0.7495149 0.07731033 -0.6574576
vn 0.8127574 0.038642116 -0.5813195
vn 0.8127574 0.038642116 -0.5813195
vn 0.8127574 0.038642116 -0.5813195
vn 0.22091141 -0.0047040763 -0.97528255
vn 0.22091141 -0.0047040763 -0.97528255
vn 0.22091141 -0.0047040763 -0.97528255
vn 0.6817439 0.45630285 0.57185054
vn 0.6817439 0.45630285 0.57185054
vn 0.6817439 0.45630285 0.57185054
vn -0.4199215 0.8861478 -0.19598006
vn -0.4199215 0.8861478 -0.19598006
vn -0.4199215 0.8861478 -0.19598006
vn -0.40887192 0.8292953 -0.38091084
vn -0.40887192 0.8292953 -0.38091084
vn -0.40887192 0.8292953 -0.38091084
vn -0.64636815 0.75958765 -0.07235278
vn -0.64636815 0.75958765 -0.07235278
vn -0.64636815 0.75958765 -0.07235278
vn 0.34368664 0.68697274 0.64027184
vn 0.34368664 0.68697274 0.64027184
vn 0.34368664 0.68697274 0.64027184
vn 0.6828162 0.582507 -0.44096226
vn 0.6828162 0.582507 -0.44096226
vn 0.6828162 0.582507 -0.44096226
vn 0.19087067 0.5281324 0.8274326
vn 0.19087067 0.5281324 0.8274326
vn 0.19087067 0.5281324 0.8274326
vn 0.5619282 -0.25898978 -0.7855959
vn 0.5619282 -0.25898978 -0.7855959
vn 0.5619282 -0.25898978 -0.7855959
vn 0.5538202 -0.33756554 -0.76113915
vn 0.5538202 -0.33756554 -0.76113915
vn 0.5538202 -0.33756554 -0.76113915
vn 0.49725452 -0.59452045 -0.6318886
vn 0.49725452 -0.59452045 -0.6318886
vn 0.49725452 -0.59452045 -0.6318886
vn -0.5467822 -0.37266463 -0.74976677
vn -0.5467822 -0.37266463 -0.74976677
vn -0.5467822 -0.37266463 -0.74976677
vn -0.4148673 -0.092589736 -0.9051587
vn -0.4148673 -0.092589736 -0.9051587
vn -0.4148673 -0.092589736 -0.9051587
vn -0.42879075 -0.08119566 -0.8997476
vn -0.42879075 -0.08119566 -0.8997476
vn -0.89942 -0.18574451 0.3956547
vn -0.89942 -0.18574451 0.3956547
vn -0.89942 -0.18574451 0.3956547
vn 0.09266167 -0.10190711 -0.9904689
vn 0.09266167 -0.10190711 -0.9904689
vn 0.09266167 -0.10190711 -0.9904689
vn -0.45945972 0.09947381 0.88261074
vn -0.45945972 0.09947381 0.88261074
vn -0.45945972 0.09947381 0.88261074
vn 0.14468494 0.37868097 0.9141482
vn 0.14468494 0.37868097 0.9141482
vn 0.14468494 0.37868097 0.9141482
vn -0.42210665 0.9059038 0.03412012
vn -0.42210665 0.9059038 0.03412012
vn -0.42210665 0.9059038 0.03412012
vn 0.10324927 0.25764477 0.9607074
vn 0.10324927 0.25764477 0.9607074
vn 0.10324927 0.25764477 0.9607074
vn 0.049448438 0.14103268 0.9887693
vn 0.049448438 0.14103268 0.9887693
vn 0.049448438 0.14103268 0.9887693
vn 0.06054905 0.24583165 0.96741956
vn 0.0452035 0.20422822 0.977879
vn 0.06054905 0.24583165 0.96741956
vn 0.0452035 0.20422822 0.977879
vn 0.0452035 0.20422822 0.977879
vn 0.06276047 0.19398668 0.9789944
vn 0.27993715 0.35813302 0.89071655
vn 0.27993715 0.35813302 0.89071655
vn 0.27993715 0.35813302 0.89071655
vn 0.5827969 0.17093647 0.79443604
vn 0.5827969 0.17093647 0.79443604
vn 0.5827969 0.17093647 0.79443604
vn 0.55553514 0.14562985 0.8186407
vn 0.55553514 0.14562985 0.8186407
vn 0.55555004 0.15718141 0.81649137
vn 0.5836206 0.1161579 0.8036755
vn 0.5836206 0.1161579 0.8036755
vn -0.060305983 0.9784985 0.19724073
vn -0.060305983 0.9784985 0.19724073
vn -0.060305983 0.9784985 0.19724073
vn 0.6363402 -0.17725812 0.75076675
vn 0.6363402 -0.17725812 0.75076675
vn 0.6363402 -0.17725812 0.75076675
vn -0.9079198 0.29844865 0.29429585
vn -0.9079198 0.29844865 0.29429585
vn -0.9079198 0.29844865 0.29429585
vn -0.86101586 0.11875416 0.49451903
vn -0.86101586 0.11875416 0.49451903
vn -0.86101586 0.11875416 0.49451903
vn -0.827781 0.070651874 0.556585
vn -0.827781 0.070651874 0.556585
vn -0.827781 0.070651874 0.556585
vn -0.8498133 -0.021854816 0.52663046
vn -0.8498133 -0.021854816 0.52663046
vn -0.8498133 -0.021854816 0.52663046
vn -0.929075 0.074907586 0.3622271
vn -0.929075 0.074907586 0.3622271
vn -0.929075 0.074907586 0.3622271
vn -0.91523075 0.069476634 0.39689502
vn -0.9066763 0.04792553 0.4190956
vn -0.9066763 0.04792553 0.4190956
vn -0.9066763 0.04792553 0.4190956
vn -0.90626794 0.0601095 0.4184081
vn -0.90626794 0.0601095 0.4184081
vn -0.9174366 0.01938117 0.39740977
vn -0.9318404 0.011640223 0.36268148
vn -0.9318404 0.011640223 0.36268148
vn -0.9318404 0.011640223 0.36268148
vn -0.9174431 0.019074135 0.39740965
vn -0.9169545 -0.043146916 0.396652
vn -0.9169545 -0.043146916 0.396652
vn -0.9169545 -0.043146916 0.396652
vn -0.48855555 0.26453948 -0.83146393
vn -0.48855555 0.26453948 -0.83146393
vn -0.48855555 0.26453948 -0.83146393
vn 0.8516779 -0.099835075 -0.51446855
vn 0.8516779 -0.099835075 -0.51446855
vn 0.8516779 -0.099835075 -0.51446855
vn 0.9192043 -0.0012043039 -0.39377925
vn 0.9192043 -0.0012043039 -0.39377925
vn 0.9192043 -0.0012043039 -0.39377925
vn -0.45295522 -0.06525509 0.889142
vn -0.45295522 -0.06525509 0.889142
vn -0.45295522 -0.06525509 0.889142
vn 0.36971748 0.21754208 0.9033185
vn 0.36971748 0.21754208 0.9033185
vn 0.36971748 0.21754208 0.9033185
vn 0.7825697 -0.3979323 0.47878438
vn 0.7825697 -0.3979323 0.47878438
vn 0.7825697 -0.3979323 0.47878438
vn -0.108668484 0.29235387 -0.950116
vn -0.108668484 0.29235387 -0.950116
vn -0.108668484 0.29235387 -0.950116
vn -0.48807487 -0.17936921 -0.8541718
vn -0.48807487 -0.17936921 -0.8541718
vn -0.48807487 -0.17936921 -0.8541718
vn 0.56375325 -0.49842453 0.65860116
vn 0.56375325 -0.49842453 0.65860116
vn 0.56375325 -0.49842453 0.65860116
vn -0.41227913 0.030321 -0.9105529
vn -0.41227913 0.030321 -0.9105529
vn -0.41227913 0.030321 -0.9105529
vn -0.8685051 -0.3016472 0.39332902
vn -0.8685051 -0.3016472 0.39332902
vn -0.8685051 -0.3016472 0.39332902
vn 0.62867767 -0.65838164 -0.41388178
vn 0.62867767 -0.65838164 -0.41388178
vn 0.62867767 -0.65838164 -0.41388178
vn 0.123088494 0.01916768 -0.9922106
vn 0.123088494 0.01916768 -0.9922106
vn 0.123088494 0.01916768 -0.9922106
vn -0.55187774 -0.44526836 0.7051007
vn -0.55187774 -0.44526836 0.7051007
vn -0.55187774 -0.44526836 0.7051007
vn 0.32971576 -0.22160661 0.91770256
vn 0.32971576 -0.22160661 0.91770256
vn 0.32971576 -0.22160661 0.91770256
vn -0.45039228 0.8926329 0.018796723
vn -0.45039228 0.8926329 0.018796723
vn -0.45039228 0.8926329 0.018796723
vn 0.3929703 0.14366718 0.90825886
vn 0.3929703 0.14366718 0.90825886
vn 0.3929703 0.14366718 0.90825886
vn 0.39165682 0.19657153 0.89886844
vn 0.4136667 0.17511971 0.8934276
vn 0.39165682 0.19657153 0.89886844
vn 0.39165682 0.19657153 0.89886844
vn 0.3551861 0.19709973 0.9137804
vn -0.7049168 0.16014887 0.6909738
vn -0.7049168 0.16014887 0.6909738
vn -0.7049168 0.16014887 0.6909738
vn 0.6872442 0.25517038 0.680135
vn 0.6872442 0.25517038 0.680135
vn 0.6872442 0.25517038 0.680135
vn -0.4295901 0.11813672 0.8952631
vn -0.4295901 0.11813672 0.8952631
vn -0.4295901 0.11813672 0.8952631
vn -0.5000686 0.11399255 -0.85845035
vn -0.5000686 0.11399255 -0.85845035
vn -0.5000686 0.11399255 -0.85845035
vn 0.77011436 0.45131296 -0.45082185
vn 0.77011436 0.45131296 -0.45082185
vn 0.77011436 0.45131296 -0.45082185
vn -0.48697913 0.27622864 0.8285826
vn -0.48697913 0.27622864 0.8285826
vn -0.48697913 0.27622864 0.8285826
vn -0.35558957 0.27357757 0.8937065
vn -0.35558957 0.27357757 0.8937065
vn -0.35558957 0.27357757 0.8937065
vn -0.25814494 -0.16841859 -0.95131296
vn -0.25814494 -0.16841859 -0.95131296
vn -0.25814494 -0.16841859 -0.95131296
vn -0.53441465 -0.012075756 -0.84513617
vn -0.53441465 -0.012075756 -0.84513617
vn -0.53441465 -0.012075756 -0.84513617
vn 0.6807278 0.11185131 -0.72394675
vn 0.6807278 0.11185131 -0.72394675
vn 0.6807278 0.11185131 -0.72394675
vn 0.4432397 0.08189626 -0.8926543
vn 0.4432397 0.08189626 -0.8926543
vn 0.4432397 0.08189626 -0.8926543
vn -0.7564385 0.068136215 0.6505062
vn -0.7564385 0.068136215 0.6505062
vn -0.7564385 0.068136215 0.6505062
vn -0.8336209 0.1867111 0.51982224
vn -0.8336209 0.1867111 0.51982224
vn -0.8336209 0.1867111 0.51982224
vn -0.1804493 0.30741698 -0.93430877
vn -0.1804493 0.30741698 -0.93430877
vn -0.1804493 0.30741698 -0.93430877
vn 0.009331542 0.040017243 -0.9991554
vn 0.009331542 0.040017243 -0.9991554
vn 0.009331542 0.040017243 -0.9991554
vn 0.45414138 0.8898216 -0.044420164
vn 0.45414138 0.8898216 -0.044420164
vn 0.45414138 0.8898216 -0.044420164
vn -0.7726249 0.60390764 -0.19582202
vn -0.7726249 0.60390764 -0.19582202
vn -0.7726249 0.60390764 -0.19582202
vn -0.40307572 0.5511883 -0.7305624
vn -0.40307572 0.5511883 -0.7305624
vn -0.40307572 0.5511883 -0.7305624
vn 0.06658509 0.9975904 0.019488802
vn 0.06658509 0.9975904 0.019488802
vn 0.06658509 0.9975904 0.019488802
vn -0.3862301 0.43142903 -0.81528854
vn -0.3862301 0.43142903 -0.81528854
vn -0.3862301 0.43142903 -0.81528854
vn 0.763258 0.0771982 0.64146537
vn 0.763258 0.0771982 0.64146537
vn 0.763258 0.0771982 0.64146537
vn -0.2566568 0.5268582 -0.81027627
vn -0.2566568 0.5268582 -0.81027627
vn -0.2566568 0.5268582 -0.81027627
vn -0.6826268 0.7245975 0.094758146
vn -0.6826268 0.7245975 0.094758146
vn -0.6826268 0.7245975 0.094758146
vn 0.65267944 -0.2059378 0.72910845
vn 0.65267944 -0.2059378 0.72910845
vn 0.65267944 -0.2059378 0.72910845
vn 0.6891911 -0.67563576 -0.26178625
vn 0.6891911 -0.67563576 -0.26178625
vn 0.6891911 -0.67563576 -0.26178625
vn -0.8957965 0.034045584 -0.4431586
vn -0.8957965 0.034045584 -0.4431586
vn -0.8957965 0.034045584 -0.4431586
vn 0.85637546 0.025769137 -0.5157102
vn 0.85637546 0.025769137 -0.5157102
vn 0.85637546 0.025769137 -0.5157102
vn 0.16995588 0.0077306293 -0.98542136
vn 0.16995588 0.0077306293 -0.98542136
vn 0.16995588 0.0077306293 -0.98542136
vn 0.78094935 0.2615393 0.5671996
vn 0.78094935 0.2615393 0.5671996
vn 0.78094935 0.2615393 0.5671996
vn 0.4065339 0.669242 0.6219689
vn 0.4065339 0.669242 0.6219689
vn 0.4065339 0.669242 0.6219689
vn 0.74672574 0.5340674 -0.39645004
vn 0.74672574 0.5340674 -0.39645004
vn 0.74672574 0.5340674 -0.39645004
vn 0.37364364 0.18661334 0.9086065
vn 0.37364364 0.18661334 0.9086065
vn 0.37364364 0.18661334 0.9086065
vn 0.46960944 0.01631145 -0.8827236
vn 0.46960944 0.01631145 -0.8827236
vn 0.46960944 0.01631145 -0.8827236
vn 0.55058736 -0.552577 -0.62570935
vn 0.55058736 -0.552577 -0.62570935
vn 0.55058736 -0.552577 -0.62570935
vn 0.44102126 -0.43947947 -0.7825331
vn 0.44102126 -0.43947947 -0.7825331
vn 0.44102126 -0.43947947 -0.7825331
vn -0.47408083 -0.09892663 -0.8749061
vn -0.47408083 -0.09892663 -0.8749061
vn -0.47408083 -0.09892663 -0.8749061
vn -0.24408531 0.2046847 -0.94790643
vn -0.24408531 0.2046847 -0.94790643
vn -0.24408531 0.2046847 -0.94790643
vn -0.63088727 0.26122972 0.7305753
vn -0.63088727 0.26122972 0.7305753
vn -0.63088727 0.26122972 0.7305753
vn -0.62934923 0.74976856 0.20436883
vn -0.62934923 0.74976856 0.20436883
vn -0.62934923 0.74976856 0.20436883
vn 0.006817071 0.20424151 0.9788968
vn 0.006817071 0.20424151 0.9788968
vn 0.006817071 0.20424151 0.9788968
vn 0.11665263 0.19262247 0.97431445
vn 0.11665263 0.19262247 0.97431445
vn 0.11665263 0.19262247 0.97431445
vn 0.1538221 0.17787352 0.9719567
vn 0.1538221 0.17787352 0.9719567
vn 0.1538221 0.17787352 0.9719567
vn 0.6595492 0.074807815 0.74792963
vn 0.6595492 0.074807815 0.74792963
vn 0.6595492 0.074807815 0.74792963
vn 0.76544213 -0.3488032 0.5407724
vn 0.76544213 -0.3488032 0.5407724
vn 0.76544213 -0.3488032 0.5407724
vn 0.81410223 -0.12999022 0.56598604
vn 0.81410223 -0.12999022 0.56598604
vn 0.81410223 -0.12999022 0.56598604
vn -0.79790515 -0.18168664 0.5747499
vn -0.79790515 -0.18168664 0.5747499
vn -0.79790515 -0.18168664 0.5747499
vn -0.84759647 0.07484253 0.5253368
vn -0.8491995 0.043177012 0.52630407
vn -0.84759647 0.07484253 0.5253368
vn -0.8491995 0.043177012 0.52630407
vn -0.8491995 0.043177012 0.52630407
vn -0.84859115 0.05728769 0.52593833
vn -0.86702865 0.27615458 0.41472876
vn -0.86702865 0.27615458 0.41472876
vn -0.86702865 0.27615458 0.41472876
vn -0.8849198 0.090519585 0.4568623
vn -0.8849198 0.090519585 0.4568623
vn -0.8849198 0.090519585 0.4568623
vn -0.8563338 0.01882129 0.5160797
vn -0.8563338 0.01882129 0.5160797
vn -0.8563338 0.01882129 0.5160797
vn 0.9194973 0.12624748 0.37227172
vn 0.9194973 0.12624748 0.37227172
vn 0.9194973 0.12624748 0.37227172
vn 0.90211046 0.15710527 0.40188897
vn 0.90211046 0.15710527 0.40188897
vn 0.92895687 0.09851524 0.35683867
vn 0.9160077 0.111631475 0.38531575
vn 0.933665 0.05262513 0.35426036
vn 0.933665 0.05262513 0.35426036
vn 0.9335329 0.05595244 0.35409826
vn 0.92584056 0.053393267 0.37412348
vn 0.9335329 0.05595244 0.35409826
vn 0.9335329 0.05595244 0.35409826
vn -0.38048437 -0.18060362 -0.9069807
vn -0.38048437 -0.18060362 -0.9069807
vn -0.38048437 -0.18060362 -0.9069807
vn -0.36591932 -0.21583097 -0.9052735
vn 0.31199697 0.2952843 0.9030311
vn 0.31199697 0.2952843 0.9030311
vn 0.31199697 0.2952843 0.9030311
vn 0.32964244 0.29940674 0.89537233
vn -0.45287046 0.012711451 0.89148563
vn -0.45287046 0.012711451 0.89148563
vn -0.45287046 0.012711451 0.89148563
vn -0.4556823 0.014927965 0.89001733
vn -0.1091979 -0.18788102 -0.9761027
vn -0.1091979 -0.18788102 -0.9761027
vn -0.1091979 -0.18788102 -0.9761027
vn -0.121632 -0.17224622 -0.97751576
vn -0.38092822 0.27996907 -0.8811986
vn -0.38092822 0.27996907 -0.8811986
vn -0.38092822 0.27996907 -0.8811986
vn -0.3825119 0.28123713 -0.8801081
vn -0.8807271 -0.33030418 0.33943897
vn -0.8807271 -0.33030418 0.33943897
vn -0.8807271 -0.33030418 0.33943897
vn -0.8807271 -0.33030376 0.33943945
vn -0.47933346 -0.021680104 -0.877365
vn -0.47933346 -0.021680104 -0.877365
vn -0.47933346 -0.021680104 -0.877365
vn -0.48506793 -0.034895726 -0.87377995
vn -0.45998737 0.17864154 0.86976933
vn -0.45998737 0.17864154 0.86976933
vn -0.45998737 0.17864154 0.86976933
vn -0.43371332 0.20269349 0.87795675
vn 0.3480285 0.18293858 0.91946155
vn 0.3480285 0.18293858 0.91946155
vn 0.3480285 0.18293858 0.91946155
vn 0.32217404 0.20571862 0.92405826
vn 0.32217404 0.20571862 0.92405826
vn 0.3252609 0.20797433 0.92247057
vn 0.3252609 0.20797433 0.92247057
vn 0.3256092 0.2028764 0.9234825
vn -0.7975271 0.030441076 0.60251474
vn -0.7975271 0.030441076 0.60251474
vn -0.7975271 0.030441076 0.60251474
vn -0.79853237 0.05365105 0.5995562
vn -0.71304464 0.23728639 0.65974426
vn -0.71304464 0.23728639 0.65974426
vn -0.71304464 0.23728639 0.65974426
vn -0.7121106 0.26808387 0.64886785
vn -0.045095928 0.0034294098 -0.9989768
vn -0.045095928 0.0034294098 -0.9989768
vn -0.045095928 0.0034294098 -0.9989768
vn -0.04041671 -0.020271542 -0.9989773
vn 0.07447222 -0.0136950575 -0.997129
vn 0.07447222 -0.0136950575 -0.997129
vn 0.07447222 -0.0136950575 -0.997129
vn 0.08736189 0.013626235 -0.9960834
vn 0.08736189 0.013626235 -0.9960834
vn 0.7516601 0.2050132 0.62687856
vn 0.7516601 0.2050132 0.62687856
vn 0.7516601 0.2050132 0.62687856
vn 0.7473312 0.23788856 0.6204072
vn -0.76674044 -0.11541084 -0.63149786
vn -0.76674044 -0.11541084 -0.63149786
vn -0.76674044 -0.11541084 -0.63149786
vn -0.7683945 -0.098163754 -0.6324032
vn 0.08421562 -0.09483074 -0.9919248
vn 0.08421562 -0.09483074 -0.9919248
vn 0.08421562 -0.09483074 -0.9919248
vn 0.052373227 -0.074610256 -0.9958365
vn -0.94099075 0.012404972 0.33820498
vn -0.94099075 0.012404972 0.33820498
vn -0.94099075 0.012404972 0.33820498
vn -0.94109243 0.013401098 0.33788368
vn 0.11450657 0.42696673 -0.89698815
vn 0.11450657 0.42696673 -0.89698815
vn 0.11450657 0.42696673 -0.89698815
vn 0.11395883 0.42636883 -0.8973421
vn 0.3600066 0.92871374 0.08880338
vn 0.3600066 0.92871374 0.08880338
vn 0.3600066 0.92871374 0.08880338
vn 0.35432243 0.9293503 0.10374739
vn -0.33739966 0.24619013 -0.90859884
vn -0.33739966 0.24619013 -0.90859884
vn -0.33739966 0.24619013 -0.90859884
vn -0.3022137 0.2704983 -0.91405547
vn -0.38991627 0.008521717 -0.9208108
vn -0.38991627 0.008521717 -0.9208108
vn -0.38991627 0.008521717 -0.9208108
vn -0.39152557 0.00808581 -0.9201317
vn -0.44140944 0.071879566 0.8944221
vn -0.44140944 0.071879566 0.8944221
vn -0.44140944 0.071879566 0.8944221
vn -0.45289144 0.06831063 0.8889449
vn 0.38771537 0.06743206 0.91930926
vn 0.38771537 0.06743206 0.91930926
vn 0.38619253 0.10229932 0.91672796
vn 0.38619253 0.10229932 0.91672796
vn 0.38770866 0.066254765 0.9193978
vn 0.38770866 0.066254765 0.9193978
vn 0.37704834 0.10277932 0.9204733
vn 0.38619253 0.10229932 0.91672796
vn 0.34726205 0.11737028 0.9303942
vn 0.39316115 0.8566867 -0.33393416
vn 0.39316115 0.8566867 -0.33393416
vn 0.39316115 0.8566867 -0.33393416
vn 0.4067369 0.84398437 -0.3496505
vn -0.5548338 0.8311913 0.035782736
vn -0.5548338 0.8311913 0.035782736
vn -0.5548338 0.8311913 0.035782736
vn -0.5569879 0.82978594 0.034924593
vn 0.8753822 -0.41507062 -0.24783534
vn 0.8753822 -0.41507062 -0.24783534
vn 0.8753822 -0.41507062 -0.24783534
vn 0.87360847 -0.40016025 -0.27691138
vn -0.1002138 0.97178864 -0.21350382
vn -0.1002138 0.97178864 -0.21350382
vn -0.1002138 0.97178864 -0.21350382
vn -0.10252375 0.9720963 -0.21099196
vn -0.5557124 0.71729434 -0.42032424
vn -0.5557124 0.71729434 -0.42032424
vn -0.5557124 0.71729434 -0.42032424
vn -0.54820293 0.7352617 -0.39857712
vn 0.49681458 0.24541278 0.8324349
vn 0.49681458 0.24541278 0.8324349
vn 0.49681458 0.24541278 0.8324349
vn 0.49215874 0.22607993 0.8406353
vn 0.70024776 0.07147402 0.71031296
vn 0.70024776 0.07147402 0.71031296
vn 0.70024776 0.07147402 0.71031296
vn 0.6960753 0.077638574 0.7137586
vn 0.32193357 -0.29220957 0.90054005
vn 0.32193357 -0.29220957 0.90054005
vn 0.32193357 -0.29220957 0.90054005
vn 0.30022362 -0.28289083 0.9109548
vn 0.42239797 0.2356728 0.87523615
vn 0.42239797 0.2356728 0.87523615
vn 0.42239797 0.2356728 0.87523615
vn 0.3877206 0.23800282 0.8905209
vn 0.50267416 0.19575962 0.84201944
vn 0.49444342 0.21068855 0.84328884
vn 0.50267416 0.19575962 0.84201944
vn 0.49444342 0.21068855 0.84328884
vn 0.49444342 0.21068855 0.84328884
vn 0.49420953 0.18573382 0.8492702
vn -0.8536432 -0.3488187 0.38680592
vn -0.8536432 -0.3488187 0.38680592
vn -0.8536432 -0.3488187 0.38680592
vn -0.8486742 -0.36166364 0.38594234
vn -0.50151473 0.8627178 -0.06481453
vn -0.50151473 0.8627178 -0.06481453
vn -0.50151473 0.8627178 -0.06481453
vn -0.51215285 0.85483396 -0.08341686
vn -0.88520694 0.19316965 0.42319527
vn -0.88520694 0.19316965 0.42319527
vn -0.88520694 0.19316965 0.42319527
vn -0.8796906 0.19847736 0.43214718
vn 0.79185367 0.18699485 0.5813783
vn 0.79185367 0.18699485 0.5813783
vn 0.794798 0.18471383 0.5780804
vn 0.79185367 0.18699485 0.5813783
vn 0.79172313 0.17822035 0.5843048
vn -0.5831027 0.812362 0.0076814746
vn -0.5694094 0.82198304 -0.010808495
vn -0.5694094 0.82198304 -0.010808495
vn -0.5694094 0.82198304 -0.010808495
vn -0.5694096 0.8219828 -0.010812367
vn -0.0147011755 -0.9990476 0.041081518
vn 0.00645384 -0.99926335 0.037830397
vn 0.00645384 -0.99926335 0.037830397
vn 0.0055974964 -0.9995938 0.027945371
vn -0.0072582313 -0.99966776 0.02473228
vn -0.0147011755 -0.9990476 0.041081518
vn -0.02551416 -0.99937844 0.024326928
vn -0.0147011755 -0.9990476 0.041081518
vn -0.02551416 -0.99937844 0.024326928
vn -0.02353508 -0.99939394 0.025649749
vn -0.02339587 -0.99947304 0.0225028
vn -0.02339587 -0.99947304 0.0225028
g FX_CH0331_Glove_0
f 3/3/3 2/2/2 1/1/1
f 6/6/6 5/5/5 4/4/4
f 8/8/8 7/7/7 6/6/6
f 8/8/8 9/9/9 7/7/7
f 12/12/12 11/11/11 10/10/10
f 15/15/15 14/14/14 13/13/13
f 18/18/18 17/17/17 16/16/16
f 21/21/21 20/20/20 19/19/19
f 24/24/24 23/23/23 22/22/22
f 27/27/27 26/26/26 25/25/25
f 30/30/30 29/29/29 28/28/28
f 33/33/33 32/32/32 31/31/31
f 36/36/36 35/35/35 34/34/34
f 39/39/39 38/38/38 37/37/37
f 42/42/42 41/41/41 40/40/40
f 44/44/44 43/43/43 40/40/40
f 45/45/45 43/43/43 44/44/44
f 43/43/43 47/47/47 46/46/46
f 48/48/48 45/45/45 47/47/47
f 50/50/50 48/48/48 49/49/49
f 50/50/50 49/49/49 51/51/51
f 54/54/54 53/53/53 52/52/52
f 57/57/57 56/56/56 55/55/55
f 60/60/60 59/59/59 58/58/58
f 63/63/63 62/62/62 61/61/61
f 66/66/66 65/65/65 64/64/64
f 69/69/69 68/68/68 67/67/67
f 72/72/72 71/71/71 70/70/70
f 75/75/75 74/74/74 73/73/73
f 78/78/78 77/77/77 76/76/76
f 81/81/81 80/80/80 79/79/79
f 84/84/84 83/83/83 82/82/82
f 87/87/87 86/86/86 85/85/85
f 90/90/90 89/89/89 88/88/88
f 93/93/93 92/92/92 91/91/91
f 96/96/96 95/95/95 94/94/94
f 99/99/99 98/98/98 97/97/97
f 102/102/102 101/101/101 100/100/100
f 105/105/105 104/104/104 103/103/103
f 108/108/108 107/107/107 106/106/106
f 111/111/111 110/110/110 109/109/109
f 114/114/114 113/113/113 112/112/112
f 117/117/117 116/116/116 115/115/115
f 120/120/120 119/119/119 118/118/118
f 123/123/123 122/122/122 121/121/121
f 126/126/126 125/125/125 124/124/124
f 129/129/129 128/128/128 127/127/127
f 132/132/132 131/131/131 130/130/130
f 135/135/135 134/134/134 133/133/133
f 138/138/138 137/137/137 136/136/136
f 141/141/141 140/140/140 139/139/139
f 144/144/144 143/143/143 142/142/142
f 147/147/147 146/146/146 145/145/145
f 150/150/150 149/149/149 148/148/148
f 153/153/153 152/152/152 151/151/151
f 156/156/156 155/155/155 154/154/154
f 159/159/159 158/158/158 157/157/157
f 162/162/162 161/161/161 160/160/160
f 165/165/165 164/164/164 163/163/163
f 168/168/168 167/167/167 166/166/166
f 171/171/171 170/170/170 169/169/169
f 174/174/174 173/173/173 172/172/172
f 177/177/177 176/176/176 175/175/175
f 179/179/179 178/178/178 177/177/177
f 182/182/182 181/181/181 180/180/180
f 185/185/185 184/184/184 183/183/183
f 188/188/188 187/187/187 186/186/186
f 191/191/191 190/190/190 189/189/189
f 194/194/194 193/193/193 192/192/192
f 197/197/197 196/196/196 195/195/195
f 200/200/200 199/199/199 198/198/198
f 203/203/203 202/202/202 201/201/201
f 205/205/205 204/204/204 202/202/202
f 206/206/206 205/205/205 202/202/202
f 209/209/209 208/208/208 207/207/207
f 212/212/212 211/211/211 210/210/210
f 214/214/214 213/213/213 211/211/211
f 214/214/214 215/215/215 213/213/213
f 217/217/217 214/214/214 216/216/216
f 220/220/220 219/219/219 218/218/218
f 223/223/223 222/222/222 221/221/221
f 226/226/226 225/225/225 224/224/224
f 229/229/229 228/228/228 227/227/227
f 232/232/232 231/231/231 230/230/230
f 235/235/235 234/234/234 233/233/233
f 238/238/238 237/237/237 236/236/236
f 236/236/236 240/240/240 239/239/239
f 240/240/240 242/242/242 241/241/241
f 244/244/244 241/241/241 243/243/243
f 246/246/246 244/244/244 245/245/245
f 248/248/248 247/247/247 246/246/246
f 246/246/246 247/247/247 249/249/249
f 252/252/252 251/251/251 250/250/250
f 255/255/255 254/254/254 253/253/253
f 258/258/258 257/257/257 256/256/256
f 261/261/261 260/260/260 259/259/259
f 264/264/264 263/263/263 262/262/262
f 267/267/267 266/266/266 265/265/265
f 270/270/270 269/269/269 268/268/268
f 273/273/273 272/272/272 271/271/271
f 276/276/276 275/275/275 274/274/274
f 279/279/279 278/278/278 277/277/277
f 282/282/282 281/281/281 280/280/280
f 285/285/285 284/284/284 283/283/283
f 288/288/288 287/287/287 286/286/286
f 291/291/291 290/290/290 289/289/289
f 294/294/294 293/293/293 292/292/292
f 297/297/297 296/296/296 295/295/295
f 300/300/300 299/299/299 298/298/298
f 303/303/303 302/302/302 301/301/301
f 305/305/305 303/303/303 304/304/304
f 307/307/307 306/306/306 304/304/304
f 304/304/304 306/306/306 308/308/308
f 311/311/311 310/310/310 309/309/309
f 314/314/314 313/313/313 312/312/312
f 317/317/317 316/316/316 315/315/315
f 320/320/320 319/319/319 318/318/318
f 323/323/323 322/322/322 321/321/321
f 326/326/326 325/325/325 324/324/324
f 329/329/329 328/328/328 327/327/327
f 332/332/332 331/331/331 330/330/330
f 335/335/335 334/334/334 333/333/333
f 338/338/338 337/337/337 336/336/336
f 341/341/341 340/340/340 339/339/339
f 344/344/344 343/343/343 342/342/342
f 347/347/347 346/346/346 345/345/345
f 350/350/350 349/349/349 348/348/348
f 353/353/353 352/352/352 351/351/351
f 356/356/356 355/355/355 354/354/354
f 359/359/359 358/358/358 357/357/357
f 362/362/362 361/361/361 360/360/360
f 365/365/365 364/364/364 363/363/363
f 368/368/368 367/367/367 366/366/366
f 371/371/371 370/370/370 369/369/369
f 374/374/374 373/373/373 372/372/372
f 377/377/377 376/376/376 375/375/375
f 380/380/380 379/379/379 378/378/378
f 383/383/383 382/382/382 381/381/381
f 386/386/386 385/385/385 384/384/384
f 389/389/389 388/388/388 387/387/387
f 392/392/392 391/391/391 390/390/390
f 395/395/395 394/394/394 393/393/393
f 398/398/398 397/397/397 396/396/396
f 401/401/401 400/400/400 399/399/399
f 404/404/404 403/403/403 402/402/402
f 407/407/407 406/406/406 405/405/405
f 410/410/410 409/409/409 408/408/408
f 413/413/413 412/412/412 411/411/411
f 416/416/416 415/415/415 414/414/414
f 419/419/419 418/418/418 417/417/417
f 422/422/422 421/421/421 420/420/420
f 425/425/425 424/424/424 423/423/423
f 428/428/428 427/427/427 426/426/426
f 431/431/431 430/430/430 429/429/429
f 434/434/434 433/433/433 432/432/432
f 437/437/437 436/436/436 435/435/435
f 440/440/440 439/439/439 438/438/438
f 443/443/443 442/442/442 441/441/441
f 446/446/446 445/445/445 444/444/444
f 449/449/449 448/448/448 447/447/447
f 451/451/451 448/448/448 450/450/450
f 448/448/448 451/451/451 452/452/452
f 455/455/455 454/454/454 453/453/453
f 458/458/458 457/457/457 456/456/456
f 461/461/461 460/460/460 459/459/459
f 464/464/464 463/463/463 462/462/462
f 465/465/465 464/464/464 462/462/462
f 466/466/466 464/464/464 465/465/465
f 468/468/468 462/462/462 467/467/467
f 462/462/462 469/469/469 467/467/467
f 471/471/471 470/470/470 469/469/469
f 472/472/472 471/471/471 469/469/469
f 472/472/472 473/473/473 471/471/471
f 473/473/473 474/474/474 471/471/471
f 477/477/477 476/476/476 475/475/475
f 478/478/478 477/477/477 475/475/475
f 481/481/481 480/480/480 479/479/479
f 479/479/479 480/480/480 482/482/482
f 485/485/485 484/484/484 483/483/483
f 486/486/486 485/485/485 483/483/483
f 489/489/489 488/488/488 487/487/487
f 490/490/490 489/489/489 487/487/487
f 493/493/493 492/492/492 491/491/491
f 494/494/494 493/493/493 491/491/491
f 497/497/497 496/496/496 495/495/495
f 496/496/496 497/497/497 498/498/498
f 501/501/501 500/500/500 499/499/499
f 502/502/502 501/501/501 499/499/499
f 505/505/505 504/504/504 503/503/503
f 506/506/506 505/505/505 503/503/503
f 509/509/509 508/508/508 507/507/507
f 509/509/509 510/510/510 508/508/508
f 510/510/510 511/511/511 508/508/508
f 510/510/510 512/512/512 511/511/511
f 512/512/512 513/513/513 511/511/511
f 514/514/514 513/513/513 512/512/512
f 517/517/517 516/516/516 515/515/515
f 515/515/515 516/516/516 518/518/518
f 521/521/521 520/520/520 519/519/519
f 522/522/522 520/520/520 521/521/521
f 525/525/525 524/524/524 523/523/523
f 525/525/525 526/526/526 524/524/524
f 529/529/529 528/528/528 527/527/527
f 530/530/530 529/529/529 527/527/527
f 530/530/530 527/527/527 531/531/531
f 534/534/534 533/533/533 532/532/532
f 534/534/534 535/535/535 533/533/533
f 538/538/538 537/537/537 536/536/536
f 538/538/538 539/539/539 537/537/537
f 542/542/542 541/541/541 540/540/540
f 543/543/543 542/542/542 540/540/540
f 546/546/546 545/545/545 544/544/544
f 544/544/544 545/545/545 547/547/547
f 550/550/550 549/549/549 548/548/548
f 549/549/549 551/551/551 548/548/548
f 554/554/554 553/553/553 552/552/552
f 552/552/552 553/553/553 555/555/555
f 558/558/558 557/557/557 556/556/556
f 556/556/556 557/557/557 559/559/559
f 562/562/562 561/561/561 560/560/560
f 563/563/563 562/562/562 560/560/560
f 566/566/566 565/565/565 564/564/564
f 567/567/567 566/566/566 564/564/564
f 570/570/570 569/569/569 568/568/568
f 571/571/571 570/570/570 568/568/568
f 571/571/571 568/568/568 572/572/572
f 568/568/568 573/573/573 572/572/572
f 571/571/571 572/572/572 574/574/574
f 575/575/575 571/571/571 574/574/574
f 570/570/570 571/571/571 575/575/575
f 576/576/576 570/570/570 575/575/575
f 579/579/579 578/578/578 577/577/577
f 580/580/580 579/579/579 577/577/577
f 583/583/583 582/582/582 581/581/581
f 584/584/584 583/583/583 581/581/581
f 587/587/587 586/586/586 585/585/585
f 588/588/588 587/587/587 585/585/585
f 591/591/591 590/590/590 589/589/589
f 592/592/592 591/591/591 589/589/589
f 595/595/595 594/594/594 593/593/593
f 596/596/596 595/595/595 593/593/593
f 599/599/599 598/598/598 597/597/597
f 600/600/600 599/599/599 597/597/597
f 603/603/603 602/602/602 601/601/601
f 604/604/604 603/603/603 601/601/601
f 607/607/607 606/606/606 605/605/605
f 608/608/608 607/607/607 605/605/605
f 611/611/611 610/610/610 609/609/609
f 610/610/610 612/612/612 609/609/609
f 615/615/615 614/614/614 613/613/613
f 615/615/615 616/616/616 614/614/614
f 616/616/616 617/617/617 614/614/614
f 616/616/616 618/618/618 617/617/617
f 621/621/621 620/620/620 619/619/619
f 619/619/619 620/620/620 622/622/622
f 625/625/625 624/624/624 623/623/623
f 626/626/626 625/625/625 623/623/623
f 629/629/629 628/628/628 627/627/627
f 630/630/630 629/629/629 627/627/627
f 633/633/633 632/632/632 631/631/631
f 632/632/632 634/634/634 631/631/631
f 632/632/632 635/635/635 634/634/634
f 638/638/638 637/637/637 636/636/636
f 637/637/637 638/638/638 639/639/639
f 640/640/640 637/637/637 639/639/639
f 643/643/643 642/642/642 641/641/641
f 642/642/642 644/644/644 641/641/641
f 645/645/645 643/643/643 641/641/641
f 644/644/644 646/646/646 641/641/641
f 647/647/647 645/645/645 641/641/641
f 646/646/646 648/648/648 641/641/641
f 649/649/649 647/647/647 641/641/641
f 648/648/648 650/650/650 641/641/641
f 651/651/651 649/649/649 641/641/641
f 650/650/650 652/652/652 641/641/641
f 652/652/652 651/651/651 641/641/641
