g FX_MESH_EN0021_barrier_ice_02
v -0.44950628 2.7649784 1.6291118
v -0.4567685 2.757987 1.6291118
v -0.45748627 2.7584884 1.6179206
v 1.0185585 1.5863422 1.2061882
v -0.57624674 1.5948373 0.94956565
v -0.5516205 1.5863425 1.2061882
v 1.0221295 2.4073222 1.1689763
v 1.0185585 1.5863422 1.2061882
v 1.0185585 2.4304254 1.2061882
v 0.23346907 1.6405429 2.6954162
v -0.42460775 1.6466467 1.9664805
v -0.40964055 1.6405426 2.6954155
v 0.8915458 1.6466464 1.966481
v 0.8770415 1.6407318 2.604486
v 0.92370653 1.6372033 1.6291115
v 0.9451737 1.6456555 1.29442
v -0.4782356 1.6456552 1.29442
v -0.4567685 1.6372027 1.6291113
v 0.92370653 2.6957407 1.6291116
v 0.94517356 2.4884832 1.29442
v 0.9451737 1.6456555 1.29442
v 0.92370653 1.6372033 1.6291115
v -0.4567685 2.757987 1.6291118
v -0.4567685 1.6372027 1.6291113
v -0.4782356 1.6456552 1.29442
v -0.4782356 2.560328 1.2944199
v -0.45748627 2.7584884 1.6179206
v 0.9451737 1.6456555 1.29442
v 1.0185585 1.5863422 1.2061882
v -0.5516205 1.5863425 1.2061882
v -0.4782356 1.6456552 1.29442
v 0.94517356 2.4884832 1.29442
v 1.0185585 2.4304254 1.2061882
v 1.0185585 1.5863422 1.2061882
v 0.9451737 1.6456555 1.29442
v -0.5516205 1.5863425 1.2061882
v -0.5516205 2.509688 1.2061882
v -0.4782356 2.560328 1.2944199
v -0.4782356 1.6456552 1.29442
v 0.8397831 1.7143799 1.6748056
v 0.92370653 1.6372033 1.6291115
v -0.4567685 1.6372027 1.6291113
v -0.37284493 1.7143799 1.6748052
v 0.8397831 1.7143799 1.6748056
v 0.8397829 2.7281268 1.6748055
v 0.92370653 2.6957407 1.6291116
v 0.92370653 1.6372033 1.6291115
v -0.4567685 1.6372027 1.6291113
v -0.4567685 2.757987 1.6291118
v -0.37284505 2.682237 1.6748056
v -0.37284493 1.7143799 1.6748052
v 0.8303859 1.7099566 1.8965087
v 0.8397831 1.7143799 1.6748056
v -0.37284493 1.7143799 1.6748052
v -0.3634479 1.7099576 1.8965089
v 0.83043426 2.8643806 1.8952267
v 0.8397829 2.7281268 1.6748055
v 0.8397831 1.7143799 1.6748056
v 0.8303859 1.7099566 1.8965087
v -0.22836316 2.8562589 1.795411
v 0.36305058 2.887961 1.8952006
v -0.22511172 2.8879614 1.8952007
v -0.28670406 2.9133582 1.9702635
v 0.7758753 2.9133592 1.9702635
v -0.3634479 1.7099576 1.8965089
v -0.37284493 1.7143799 1.6748052
v -0.37284505 2.682237 1.6748056
v -0.3634913 2.7526417 1.8953547
v 0.8915458 1.6466464 1.966481
v 0.8303859 1.7099566 1.8965087
v -0.3634479 1.7099576 1.8965089
v -0.42460775 1.6466467 1.9664805
v 0.8915458 1.6466464 1.966481
v 0.8910951 2.9073124 1.969893
v 0.83043426 2.8643806 1.8952267
v 0.8303859 1.7099566 1.8965087
v -0.3634479 1.7099576 1.8965089
v -0.3634913 2.7526417 1.8953547
v -0.424479 2.778169 1.9698596
v -0.42460775 1.6466467 1.9664805
v 1.0221295 2.4073222 1.1689763
v -0.57929313 2.3334806 0.91782093
v -0.57624674 1.5948373 0.94956565
v 1.0185585 1.5863422 1.2061882
v 0.8915458 1.6466464 1.966481
v 0.8770415 1.6407318 2.604486
v 0.8765061 2.2798092 2.7312043
v 0.8910951 2.9073124 1.969893
v 0.8913229 2.9100084 1.9742883
v 0.8768761 2.83875 2.6291993
v -0.40956795 2.2798085 2.7312036
v -0.424479 2.778169 1.9698596
v -0.40961552 2.731413 2.7047906
v -0.42460775 1.6466467 1.9664805
v -0.40964055 1.6405426 2.6954155
v 0.8768761 2.83875 2.6291993
v 0.884264 2.912572 1.9778711
v 0.8913229 2.9100084 1.9742883
v 0.23346901 2.840771 2.671497
v 0.7758753 2.9133592 1.9702635
v -0.28670406 2.9133582 1.9702635
v -0.2750963 2.866278 2.6912096
v -0.44950628 2.7649784 1.6291118
v -0.26748872 2.7839608 1.6748055
v -0.37284505 2.682237 1.6748056
v -0.4567685 2.757987 1.6291118
v -0.37284505 2.682237 1.6748056
v -0.26748872 2.7839608 1.6748055
v -0.22836316 2.8562589 1.795411
v -0.3634913 2.7526417 1.8953547
v -0.22511172 2.8879614 1.8952007
v -0.28670406 2.9133582 1.9702635
v -0.424479 2.778169 1.9698596
v -0.3634913 2.7526417 1.8953547
v -0.22511172 2.8879614 1.8952007
v -0.2750963 2.866278 2.6912096
v -0.40961552 2.731413 2.7047906
v -0.424479 2.778169 1.9698596
v -0.28670406 2.9133582 1.9702635
v -0.5516205 1.5863425 1.2061882
v -0.57624674 1.5948373 0.94956565
v -0.57929313 2.3334806 0.91782093
v -0.5516205 2.509688 1.2061882
v -0.5516205 2.509688 1.2061882
v -0.57929313 2.3334806 0.91782093
v 1.0221295 2.4073222 1.1689763
v 1.0185585 2.4304254 1.2061882
v -0.4782356 2.560328 1.2944199
v 0.94517356 2.4884832 1.29442
v -0.45748627 2.7584884 1.6179206
v 0.92370653 2.6957407 1.6291116
v -0.44950628 2.7649784 1.6291118
v 0.8397829 2.7281268 1.6748055
v -0.26748872 2.7839608 1.6748055
v -0.22836316 2.8562589 1.795411
v 0.83043426 2.8643806 1.8952267
v 0.36305058 2.887961 1.8952006
v 0.7758753 2.9133592 1.9702635
v 0.8910951 2.9073124 1.969893
v 0.8913229 2.9100084 1.9742883
v 0.884264 2.912572 1.9778711
v 0.23346901 2.840771 2.671497
v -0.19373155 2.8226244 2.7118413
v -0.2750963 2.866278 2.6912096
v -0.40961552 2.731413 2.7047906
v 0.23346901 2.7968206 2.6952796
v 0.8768761 2.83875 2.6291993
v 0.83480793 2.7949097 2.6513598
v 0.8765061 2.2798092 2.7312043
v 0.23346901 2.2800546 2.7313561
v 0.83454823 2.2800238 2.755158
v 0.8770415 1.6407318 2.604486
v 0.83490866 1.6828741 2.6303728
v 0.23346907 1.6405429 2.6954162
v 0.23346907 1.6826972 2.7221172
v -0.40964055 1.6405426 2.6954155
v -0.3676324 2.6335473 2.731977
v -0.40956795 2.2798085 2.7312036
v -0.36761022 2.2800238 2.755158
v -0.3676442 1.6827283 2.721303
vt 0.3882253 0.48601854
vt 0.3867282 0.48601854
vt 0.38658023 0.48371148
vt 0.6908645 0.3988335
vt 0.36209792 0.34593117
vt 0.36717463 0.3988335
vt 0.5431231 0.39116234
vt 0.37387937 0.3988335
vt 0.54788584 0.3988335
vt 0.52901953 0.7058355
vt 0.39335808 0.55556655
vt 0.39644355 0.70583534
vt 0.664681 0.55556667
vt 0.661691 0.68709034
vt 0.6713109 0.48601848
vt 0.6757363 0.41702235
vt 0.38230282 0.41702235
vt 0.3867282 0.48601842
vt 0.60258013 0.4860185
vt 0.5598543 0.41702235
vt 0.38610673 0.41702235
vt 0.38436437 0.48601848
vt 0.6154121 0.48601854
vt 0.38436422 0.48601842
vt 0.38610667 0.41702235
vt 0.574665 0.41702235
vt 0.6155155 0.48371148
vt 0.6757363 0.41702235
vt 0.6908645 0.3988335
vt 0.36717463 0.3988335
vt 0.38230282 0.41702235
vt 0.5598543 0.41702235
vt 0.54788584 0.3988335
vt 0.37387937 0.3988335
vt 0.38610673 0.41702235
vt 0.3738795 0.3988335
vt 0.5642256 0.3988335
vt 0.574665 0.41702235
vt 0.38610667 0.41702235
vt 0.65401024 0.4553372
vt 0.6713109 0.43942738
vt 0.3867282 0.43942726
vt 0.4040289 0.4553372
vt 0.65401024 0.4553372
vt 0.6540102 0.6643195
vt 0.6713109 0.65764314
vt 0.6713109 0.43942738
vt 0.3867282 0.43942726
vt 0.3867282 0.6704751
vt 0.4040289 0.65485936
vt 0.4040289 0.4553372
vt 0.652073 0.541142
vt 0.65401024 0.49543825
vt 0.4040289 0.49543816
vt 0.4059661 0.541142
vt 0.63734496 0.5408777
vt 0.60925645 0.49543822
vt 0.40027416 0.49543825
vt 0.39936233 0.541142
vt 0.43381357 0.52030087
vt 0.5557326 0.54087234
vt 0.43448386 0.54087234
vt 0.4217867 0.5563464
vt 0.6408357 0.5563464
vt 0.3993625 0.541142
vt 0.40027416 0.49543816
vt 0.59979635 0.49543825
vt 0.6143102 0.5409041
vt 0.664681 0.55556667
vt 0.652073 0.541142
vt 0.4059661 0.541142
vt 0.39335808 0.55556655
vt 0.386311 0.55556667
vt 0.6461953 0.55627
vt 0.63734496 0.5408777
vt 0.39936233 0.541142
vt 0.3993625 0.541142
vt 0.6143102 0.5409041
vt 0.6195726 0.55626315
vt 0.38631108 0.55556655
vt 0.6916007 0.59818614
vt 0.36146992 0.5829638
vt 0.36209792 0.4306937
vt 0.6908645 0.42894244
vt 0.386311 0.55556667
vt 0.38509172 0.68709034
vt 0.5168365 0.71321315
vt 0.6461953 0.55627
vt 0.6467511 0.5571761
vt 0.63206124 0.692185
vt 0.51683635 0.713213
vt 0.6195726 0.55626315
vt 0.6099339 0.707768
vt 0.38631108 0.55556655
vt 0.38505274 0.70583534
vt 0.6616569 0.692185
vt 0.66317993 0.55791473
vt 0.66463506 0.5571761
vt 0.52901953 0.7009046
vt 0.6408357 0.5563464
vt 0.4217867 0.5563464
vt 0.4241796 0.7049683
vt 0.3882253 0.6719164
vt 0.42574793 0.6758296
vt 0.4040289 0.65485936
vt 0.3867282 0.6704751
vt 0.4040289 0.49543825
vt 0.42574793 0.49543822
vt 0.43381357 0.52030087
vt 0.40595716 0.5409041
vt 0.43448386 0.54087234
vt 0.4217867 0.7025047
vt 0.39338464 0.6746356
vt 0.40595716 0.6693732
vt 0.43448386 0.69726914
vt 0.4241796 0.7049683
vt 0.3964487 0.707768
vt 0.39338464 0.55626315
vt 0.4217867 0.5563464
vt 0.3738795 0.3988335
vt 0.37563068 0.34593117
vt 0.5279008 0.33938706
vt 0.5642256 0.3988335
vt 0.36717463 0.3988335
vt 0.36146992 0.33938706
vt 0.6916007 0.39116234
vt 0.6908645 0.3988335
vt 0.38230282 0.41702235
vt 0.6757363 0.41702235
vt 0.38658023 0.48371148
vt 0.6713109 0.4860185
vt 0.3882253 0.48601854
vt 0.6540102 0.49543822
vt 0.42574793 0.49543822
vt 0.43381357 0.52030087
vt 0.652083 0.5408777
vt 0.5557326 0.54087234
vt 0.6408357 0.5563464
vt 0.6645881 0.55627
vt 0.66463506 0.5571761
vt 0.66317993 0.55791473
vt 0.52901953 0.68754095
vt 0.44095284 0.68380004
vt 0.4241796 0.69279915
vt 0.3964487 0.6649969
vt 0.52901953 0.6784806
vt 0.6616569 0.6871243
vt 0.6529846 0.6780867
vt 0.6615806 0.57189953
vt 0.52901953 0.57195014
vt 0.6529311 0.57194376
vt 0.661691 0.4401548
vt 0.65300536 0.44884235
vt 0.52901953 0.4401158
vt 0.52901953 0.44880587
vt 0.39644355 0.44011575
vt 0.40510347 0.6448221
vt 0.3964585 0.5718994
vt 0.40510803 0.57194376
vt 0.40510103 0.44881228
vn -0.6915118 0.71829903 0.076537296
vn -0.6915118 0.71829903 0.076537296
vn -0.6915118 0.71829903 0.076537296
vn -0 -0.99945253 -0.033084672
vn -0 -0.99945253 -0.033084672
vn -0 -0.99945253 -0.033084672
vn 0.9954269 0 0.09552658
vn 0.9954269 0 0.09552658
vn 0.9954269 0 0.09552658
vn -0.00023650698 -0.99996316 -0.008586737
vn -0 -0.99996495 -0.008373377
vn -0 -0.99996495 -0.008373377
vn -0.00046865287 -0.99996126 -0.008796211
vn -0.0010194585 -0.99995637 -0.009293222
vn -0 -0.99968123 -0.025246479
vn -0 -0.99968123 -0.025246479
vn -0 -0.99968123 -0.025246479
vn -0 -0.99968123 -0.025246479
vn 0.9979494 0 0.06400841
vn 0.9979494 0 0.06400841
vn 0.9979494 0 0.06400841
vn 0.9979494 0 0.06400841
vn -0.9979494 0 0.06400837
vn -0.9979494 0 0.06400837
vn -0.9979494 0 0.06400837
vn -0.9979494 0 0.06400837
vn -0.9979494 0 0.06400837
vn -0 -0.82990885 0.557899
vn -0 -0.82990885 0.557899
vn -0 -0.82990885 0.557899
vn -0 -0.82990885 0.557899
vn 0.76882803 0 0.6394556
vn 0.76882803 0 0.6394556
vn 0.76882803 0 0.6394556
vn 0.76882803 0 0.6394556
vn -0.7688277 0 0.63945603
vn -0.7688277 0 0.63945603
vn -0.7688277 0 0.63945603
vn -0.7688277 0 0.63945603
vn -0 -0.5094676 0.8604898
vn -0 -0.5094676 0.8604898
vn -0 -0.5094676 0.8604898
vn -0 -0.5094676 0.8604898
vn 0.47818887 0 0.87825704
vn 0.47818887 0 0.87825704
vn 0.47818887 0 0.87825704
vn 0.47818887 0 0.87825704
vn -0.47818667 0 0.8782582
vn -0.47818667 0 0.8782582
vn -0.47818667 0 0.8782582
vn -0.47818667 0 0.8782582
vn -0 -0.9998011 -0.019945547
vn -0 -0.9998011 -0.019945547
vn -0 -0.9998011 -0.019945547
vn -0 -0.9998011 -0.019945547
vn 0.99910235 0 0.042360466
vn 0.99910235 0 0.042360466
vn 0.99910235 0 0.042360466
vn 0.99910235 0 0.042360466
vn -0 0.9530602 -0.30278093
vn -0 0.9475819 -0.3195131
vn -0 0.9497167 -0.3131108
vn -0 0.9472475 -0.32050297
vn -0 0.9472475 -0.32050297
vn -0.9991025 0 0.042359907
vn -0.9991025 0 0.042359907
vn -0.9991025 0 0.042359907
vn -0.9991025 0 0.042359907
vn -0 -0.74152166 -0.670929
vn -0 -0.74152166 -0.670929
vn -0 -0.74152166 -0.670929
vn -0 -0.74152166 -0.670929
vn 0.7649077 0.00069557683 -0.6441396
vn 0.7649077 0.00069557683 -0.6441396
vn 0.7649077 0.00069557683 -0.6441396
vn 0.7649077 0.00069557683 -0.6441396
vn -0.76374036 0.0006905756 -0.6455231
vn -0.76374036 0.0006905756 -0.6455231
vn -0.76374036 0.0006905756 -0.6455231
vn -0.76374036 0.0006905756 -0.6455231
vn 0.15762137 -0.043671258 -0.9865335
vn 0.15762137 -0.043671258 -0.9865335
vn 0.15762137 -0.043671258 -0.9865335
vn 0.15762137 -0.043671258 -0.9865335
vn 0.99979454 -0.0010472039 0.02024282
vn 0.99979454 -0.0010472039 0.02024282
vn 0.9997838 8.009476E-05 0.020792646
vn 0.99979454 -0.0010472039 0.02024282
vn 0.9997845 0 0.020758407
vn 0.99974257 0.0034309882 0.022426818
vn -0.9998 -3.4528017E-05 0.019998394
vn -0.99980384 0.00033936911 0.019803504
vn -0.99980384 0.00033936911 0.019803504
vn -0.9997975 -0.00027095646 0.02012163
vn -0.99978894 -0.0010351957 0.020519968
vn 0.014956898 0.9935081 0.11277447
vn 0.0111670075 0.99383646 0.11029204
vn 0.014956898 0.9935081 0.11277447
vn 0.019989928 0.99543566 0.09331834
vn -0 0.99468505 0.10296455
vn 0.020942489 0.99593925 0.0875584
vn 0.05247168 0.9965545 0.06423361
vn -0.26081645 0.270181 0.92681015
vn -0.26081645 0.270181 0.92681015
vn -0.26081645 0.270181 0.92681015
vn -0.26081645 0.270181 0.92681015
vn -0.6833016 0.70278317 -0.19797659
vn -0.6833016 0.70278317 -0.19797659
vn -0.6833016 0.70278317 -0.19797659
vn -0.6833016 0.70278317 -0.19797659
vn -0.6833016 0.70278317 -0.19797659
vn -0.54173064 0.5536218 -0.63247985
vn -0.54173064 0.5536218 -0.63247985
vn -0.54173064 0.5536218 -0.63247985
vn -0.54173064 0.5536218 -0.63247985
vn -0.70154375 0.7102185 0.058531996
vn -0.70154375 0.7102185 0.058531996
vn -0.70154375 0.7102185 0.058531996
vn -0.70154375 0.7102185 0.058531996
vn -0.99542713 0 0.09552427
vn -0.99542713 0 0.09552427
vn -0.99542713 0 0.09552427
vn -0.99542713 0 0.09552427
vn 0.04291813 0.8506561 -0.5239679
vn 0.04291813 0.8506561 -0.5239679
vn 0.04291813 0.8506561 -0.5239679
vn 0.04291813 0.8506561 -0.5239679
vn 0.04291813 0.8506561 -0.5239679
vn 0.04291813 0.8506561 -0.5239679
vn 0.04291813 0.8506561 -0.5239679
vn 0.04291813 0.8506561 -0.5239679
vn 0.04291813 0.8506561 -0.5239679
vn 0.04291813 0.8506561 -0.5239679
vn 0.04291813 0.8506561 -0.5239679
vn 0.04291813 0.8506561 -0.5239679
vn 0.04291813 0.8506561 -0.5239679
vn 0.04291813 0.8506561 -0.5239679
vn 0.04291813 0.8506561 -0.5239679
vn 0.04291813 0.8506561 -0.5239679
vn 0.04291813 0.8506561 -0.5239679
vn 0.04291813 0.8506561 -0.5239679
vn 0.062152628 0.46740186 0.88185745
vn 0.014200516 0.28806013 0.957507
vn -0.08483944 0.28186786 0.95569485
vn -0.19071227 0.1907284 0.96293896
vn 0.04622343 0.28564343 0.95722055
vn 0.23019731 0.31983858 0.91908234
vn 0.18680196 0.2678392 0.945181
vn 0.42524177 -0.0046450594 0.90506786
vn 0.033441253 0.013805389 0.99934536
vn 0.22880395 0.0046379133 0.9734615
vn 0.28470093 -0.33888608 0.8967171
vn 0.23223098 -0.28265932 0.9306839
vn 0.06517591 -0.5042159 0.8611147
vn 0.05097522 -0.294209 0.95438075
vn -0.25700676 -0.31246042 0.9145032
vn -0.21836548 0.09243752 0.9714792
vn -0.48286328 0.0024823374 0.87569225
vn -0.23225383 0.009674483 0.97260714
vn -0.19115835 -0.23744889 0.95240563
g FX_MESH_EN0021_barrier_ice_02_0
f 3/3/3 2/2/2 1/1/1
f 6/6/6 5/5/5 4/4/4
f 9/9/9 8/8/8 7/7/7
f 12/12/12 11/11/11 10/10/10
f 11/11/11 13/13/13 10/10/10
f 14/14/14 10/10/10 13/13/13
f 17/17/17 16/16/16 15/15/15
f 18/18/18 17/17/17 15/15/15
f 21/21/21 20/20/20 19/19/19
f 22/22/22 21/21/21 19/19/19
f 25/25/25 24/24/24 23/23/23
f 23/23/23 26/26/26 25/25/25
f 23/23/23 27/27/27 26/26/26
f 30/30/30 29/29/29 28/28/28
f 31/31/31 30/30/30 28/28/28
f 34/34/34 33/33/33 32/32/32
f 35/35/35 34/34/34 32/32/32
f 38/38/38 37/37/37 36/36/36
f 39/39/39 38/38/38 36/36/36
f 42/42/42 41/41/41 40/40/40
f 43/43/43 42/42/42 40/40/40
f 46/46/46 45/45/45 44/44/44
f 47/47/47 46/46/46 44/44/44
f 50/50/50 49/49/49 48/48/48
f 51/51/51 50/50/50 48/48/48
f 54/54/54 53/53/53 52/52/52
f 55/55/55 54/54/54 52/52/52
f 58/58/58 57/57/57 56/56/56
f 59/59/59 58/58/58 56/56/56
f 62/62/62 61/61/61 60/60/60
f 61/61/61 62/62/62 63/63/63
f 64/64/64 61/61/61 63/63/63
f 67/67/67 66/66/66 65/65/65
f 68/68/68 67/67/67 65/65/65
f 71/71/71 70/70/70 69/69/69
f 72/72/72 71/71/71 69/69/69
f 75/75/75 74/74/74 73/73/73
f 76/76/76 75/75/75 73/73/73
f 79/79/79 78/78/78 77/77/77
f 80/80/80 79/79/79 77/77/77
f 83/83/83 82/82/82 81/81/81
f 84/84/84 83/83/83 81/81/81
f 87/87/87 86/86/86 85/85/85
f 85/85/85 88/88/88 87/87/87
f 88/88/88 89/89/89 87/87/87
f 87/87/87 89/89/89 90/90/90
f 93/93/93 92/92/92 91/91/91
f 92/92/92 94/94/94 91/91/91
f 95/95/95 91/91/91 94/94/94
f 98/98/98 97/97/97 96/96/96
f 97/97/97 99/99/99 96/96/96
f 97/97/97 100/100/100 99/99/99
f 100/100/100 101/101/101 99/99/99
f 99/99/99 101/101/101 102/102/102
f 105/105/105 104/104/104 103/103/103
f 106/106/106 105/105/105 103/103/103
f 109/109/109 108/108/108 107/107/107
f 107/107/107 110/110/110 109/109/109
f 110/110/110 111/111/111 109/109/109
f 114/114/114 113/113/113 112/112/112
f 115/115/115 114/114/114 112/112/112
f 118/118/118 117/117/117 116/116/116
f 119/119/119 118/118/118 116/116/116
f 122/122/122 121/121/121 120/120/120
f 123/123/123 122/122/122 120/120/120
f 126/126/126 125/125/125 124/124/124
f 124/124/124 127/127/127 126/126/126
f 124/124/124 128/128/128 127/127/127
f 128/128/128 129/129/129 127/127/127
f 128/128/128 130/130/130 129/129/129
f 130/130/130 131/131/131 129/129/129
f 130/130/130 132/132/132 131/131/131
f 132/132/132 133/133/133 131/131/131
f 132/132/132 134/134/134 133/133/133
f 134/134/134 135/135/135 133/133/133
f 135/135/135 136/136/136 133/133/133
f 135/135/135 137/137/137 136/136/136
f 137/137/137 138/138/138 136/136/136
f 138/138/138 139/139/139 136/136/136
f 138/138/138 140/140/140 139/139/139
f 138/138/138 141/141/141 140/140/140
f 144/144/144 143/143/143 142/142/142
f 144/144/144 145/145/145 143/143/143
f 143/143/143 146/146/146 142/142/142
f 142/142/142 146/146/146 147/147/147
f 146/146/146 148/148/148 147/147/147
f 147/147/147 148/148/148 149/149/149
f 146/146/146 150/150/150 148/148/148
f 150/150/150 146/146/146 143/143/143
f 148/148/148 151/151/151 149/149/149
f 150/150/150 151/151/151 148/148/148
f 149/149/149 151/151/151 152/152/152
f 151/151/151 153/153/153 152/152/152
f 151/151/151 150/150/150 153/153/153
f 152/152/152 153/153/153 154/154/154
f 153/153/153 155/155/155 154/154/154
f 150/150/150 155/155/155 153/153/153
f 154/154/154 155/155/155 156/156/156
f 145/145/145 157/157/157 143/143/143
f 157/157/157 145/145/145 158/158/158
f 143/143/143 159/159/159 150/150/150
f 143/143/143 157/157/157 159/159/159
f 150/150/150 159/159/159 155/155/155
f 159/159/159 157/157/157 158/158/158
f 155/155/155 160/160/160 156/156/156
f 156/156/156 160/160/160 158/158/158
f 159/159/159 160/160/160 155/155/155
f 160/160/160 159/159/159 158/158/158
