g FX_MESH_EN0021_barrier_ice_10
v -0.36371922 0.015271902 0.9131231
v -0.4568323 -0.7641104 -0.084704876
v 0.8059272 -0.612433 -0.084704876
v 0.80555403 -0.60876524 -0.07988238
v -0.2401066 0.07509053 0.9715367
v -0.23650928 0.13580406 1.0498376
v 0.80555403 -0.60876524 -0.07988238
v 0.7400696 0.037975073 0.7720811
v -0.22889729 0.26398575 1.2155223
v -0.23650928 0.13580406 1.0498376
v 0.8059272 -1.5092378 -0.084704876
v 0.8059272 -0.612433 -0.084704876
v -0.4568323 -0.7641104 -0.084704876
v -0.4568323 -1.5092378 -0.084704876
v 0.60001314 -1.3917296 2.3749166
v -0.0746835 -1.3917296 2.3749251
v -0.07442029 -0.21244729 2.4062054
v 0.59969926 -0.21239376 2.4063005
v 0.5997798 0.091884136 2.398255
v -0.07452227 0.24451482 2.3940823
v 0.8059272 -1.5092378 -0.084704876
v -0.4568323 -1.5092378 -0.084704876
v -0.36371922 -1.4580922 0.91312283
v 0.7287195 -1.4580989 0.91296476
v -0.24010663 -1.4557737 0.971536
v 0.6927193 -1.4342542 1.6526022
v -0.20881678 -1.4342538 1.652602
v 0.64521194 -1.4330167 1.7051044
v -0.11777584 -1.4330167 1.7051044
v 0.6314582 -1.4228969 2.33296
v -0.10604279 -1.4228969 2.3329597
v 0.8059272 -0.612433 -0.084704876
v 0.8059272 -1.5092378 -0.084704876
v 0.7287195 -1.4580989 0.91296476
v 0.72658235 0.0434376 0.94862753
v 0.80555403 -0.60876524 -0.07988238
v 0.7400696 0.037975073 0.7720811
v 0.6927192 0.060697556 1.652602
v 0.6927193 -1.4342542 1.6526022
v -0.4568323 -1.5092378 -0.084704876
v -0.4568323 -0.7641104 -0.084704876
v -0.36371922 0.015271902 0.9131231
v -0.36371922 -1.4580922 0.91312283
v 0.6314565 0.08385849 2.3330889
v 0.645212 0.07219684 1.7051045
v 0.64521194 -1.4330167 1.7051044
v 0.6314582 -1.4228969 2.33296
v 0.60763353 0.08997357 2.3880281
v 0.59969926 -0.21239376 2.4063005
v 0.5997798 0.091884136 2.398255
v 0.60001314 -1.3917296 2.3749166
v -0.11776064 0.24540663 1.7056746
v -0.10604279 -1.4228969 2.3329597
v -0.11777584 -1.4330167 1.7051044
v -0.10604279 0.250862 2.3329597
v -0.07442029 -0.21244729 2.4062054
v -0.0746835 -1.3917296 2.3749251
v -0.08642642 0.24700749 2.3783963
v -0.07452227 0.24451482 2.3940823
v 0.645212 0.07219684 1.7051045
v 0.6927192 0.060697556 1.652602
v 0.6927193 -1.4342542 1.6526022
v 0.64521194 -1.4330167 1.7051044
v -0.20881678 0.26533866 1.6526022
v -0.11776064 0.24540663 1.7056746
v -0.11777584 -1.4330167 1.7051044
v -0.20881678 -1.4342538 1.652602
v -0.20881678 -1.4342538 1.652602
v -0.24010663 -1.4557737 0.971536
v -0.2401066 0.07509053 0.9715367
v -0.20881678 0.26533866 1.6526022
v -0.23650928 0.13580406 1.0498376
v -0.22889729 0.26398575 1.2155223
v -0.36371922 0.015271902 0.9131231
v -0.2401066 0.07509053 0.9715367
v -0.24010663 -1.4557737 0.971536
v -0.36371922 -1.4580922 0.91312283
v -0.10604279 -1.4228969 2.3329597
v -0.0746835 -1.3917296 2.3749251
v 0.60001314 -1.3917296 2.3749166
v 0.6314582 -1.4228969 2.33296
v -0.22889729 0.26398575 1.2155223
v 0.7400696 0.037975073 0.7720811
v 0.72658235 0.0434376 0.94862753
v 0.6927192 0.060697556 1.652602
v -0.20881678 0.26533866 1.6526022
v 0.645212 0.07219684 1.7051045
v -0.11776064 0.24540663 1.7056746
v 0.6314565 0.08385849 2.3330889
v -0.10604279 0.250862 2.3329597
v -0.08642642 0.24700749 2.3783963
v 0.60763353 0.08997357 2.3880281
v -0.07452227 0.24451482 2.3940823
v 0.5997798 0.091884136 2.398255
vt 0.39622998 0.43447018
vt 0.3770349 0.2287696
vt 0.63735074 0.2287696
vt 0.6372738 0.22976369
vt 0.42171255 0.4465121
vt 0.42245412 0.4626537
vt 0.6372738 0.22976369
vt 0.6237743 0.4053946
vt 0.42402333 0.49680933
vt 0.42245412 0.4626537
vt 0.63735074 0.40573072
vt 0.63735074 0.59060556
vt 0.3770349 0.5593375
vt 0.3770349 0.40573072
vt 0.59490186 0.42995483
vt 0.45581424 0.42995483
vt 0.4558685 0.67306197
vt 0.5948372 0.67307305
vt 0.59485376 0.73579943
vt 0.4558475 0.767264
vt 0.63735074 0.2287696
vt 0.3770349 0.2287696
vt 0.39622998 0.43447018
vt 0.6214345 0.43443757
vt 0.42171255 0.44651192
vt 0.61401314 0.58691263
vt 0.42816287 0.5869126
vt 0.60421956 0.5977359
vt 0.44693083 0.5977359
vt 0.6013842 0.7271673
vt 0.44934958 0.72716725
vt 0.53554255 0.2287696
vt 0.35066772 0.2287696
vt 0.36120987 0.43443757
vt 0.67074925 0.4417894
vt 0.53629863 0.22976369
vt 0.66962314 0.4053946
vt 0.67430735 0.5869126
vt 0.36612546 0.58691263
vt 0.35066772 0.2287696
vt 0.5042745 0.2287696
vt 0.6649429 0.43447018
vt 0.36121124 0.43447018
vt 0.6790819 0.7271939
vt 0.6766779 0.59773594
vt 0.36638057 0.5977359
vt 0.36846673 0.7271673
vt 0.6803425 0.73851955
vt 0.61801 0.7422864
vt 0.6807364 0.7406278
vt 0.37489182 0.7358166
vt 0.7123848 0.5978535
vt 0.36846673 0.72716725
vt 0.36638057 0.5977359
vt 0.71350944 0.72716725
vt 0.61799896 0.7422667
vt 0.37489182 0.7358184
vt 0.71271485 0.73653394
vt 0.71220094 0.7397676
vt 0.6766779 0.59773594
vt 0.67430735 0.5869126
vt 0.36612546 0.58691263
vt 0.36638057 0.5977359
vt 0.42816287 0.7715568
vt 0.44693395 0.7674479
vt 0.44693083 0.42144358
vt 0.42816287 0.42118853
vt 0.36612552 0.5869126
vt 0.3616892 0.44651192
vt 0.6772744 0.4465121
vt 0.7164938 0.58691263
vt 0.6897904 0.4626537
vt 0.71621484 0.49680933
vt 0.39622998 0.7200059
vt 0.42171255 0.7323374
vt 0.42171255 0.41675222
vt 0.39622998 0.4162743
vt 0.44934958 0.72716725
vt 0.45581424 0.7358184
vt 0.59490186 0.7358166
vt 0.6013842 0.7271673
vt 0.42402333 0.49680933
vt 0.6237743 0.4053946
vt 0.6209939 0.4417894
vt 0.6140131 0.5869126
vt 0.42816287 0.58691263
vt 0.60421956 0.59773594
vt 0.44693395 0.5978535
vt 0.60138386 0.7271939
vt 0.44934958 0.72716725
vt 0.45339346 0.73653394
vt 0.5964728 0.73851955
vt 0.4558475 0.7397676
vt 0.59485376 0.7406278
vn -0.09474893 0.78881437 -0.6072844
vn -0.09474893 0.78881437 -0.6072844
vn -0.09474893 0.78881437 -0.6072844
vn -0.09474893 0.78881437 -0.6072844
vn -0.09474893 0.78881437 -0.6072844
vn -0.09474893 0.78881437 -0.6072844
vn -0.09341752 0.78954643 -0.6065389
vn -0.09341752 0.78954643 -0.6065389
vn -0.09341752 0.78954643 -0.6065389
vn -0.09341752 0.78954643 -0.6065389
vn -0 0 -1
vn -0 0 -1
vn -0 0 -1
vn -0 0 -1
vn -6.2929714E-05 -0.026558846 0.99964726
vn -6.2929714E-05 -0.026558846 0.99964726
vn -0.000115032715 -3.8259368E-05 1
vn -0.00011503794 -3.559473E-05 1
vn -0.00016706003 0.02648503 0.99964917
vn -0.00016706003 0.02648503 0.99964917
vn -0 -0.9986889 0.051190328
vn -0 -0.9986889 0.051190328
vn -0 -0.99880993 0.048770737
vn -0.00011190196 -0.999114 0.0420844
vn -9.153701E-05 -0.9993243 0.036753118
vn -0.00016058987 -0.99957734 0.029070081
vn -0.00018388646 -0.99955374 0.029870922
vn -0 -0.99978846 0.020567203
vn -0 -0.99978393 0.020787612
vn -0 -0.9998702 0.016115943
vn -0 -0.9998702 0.016115943
vn 0.99703825 -0.00021564141 0.07690704
vn 0.99703825 -0.00021564141 0.07690704
vn 0.9979997 -4.6547073E-05 0.06321813
vn 0.99806625 -3.3464057E-05 0.06215854
vn 0.99703825 -0.00021564141 0.07690704
vn 0.99703825 -0.00021564141 0.07690704
vn 0.9988312 0.0001371505 0.04833434
vn 0.9988312 0.0001371505 0.04833434
vn -0.9956743 0 0.09291211
vn -0.9956743 0 0.09291211
vn -0.9956743 0 0.09291211
vn -0.9956743 0 0.09291211
vn 0.97527134 -1.7610724E-05 0.2210113
vn 0.9997602 0 0.02189978
vn 0.9997602 0 0.02189978
vn 0.96567374 -0.0061820936 0.2596846
vn 0.8600316 0.008262947 0.51017386
vn 0.9147909 -3.3424636E-05 0.40392753
vn 0.79444784 0.01584304 0.6071258
vn 0.79437983 -0.015947541 0.60721195
vn -0.99982554 0 0.018680621
vn -0.9663384 -0.006161966 0.25720036
vn -0.99982554 0 0.018680621
vn -0.9783068 0 0.20716125
vn -0.9154353 0 0.40246508
vn -0.79524994 -0.015898505 0.6060733
vn -0.8696889 0.007146799 0.49354842
vn -0.7952674 0.01590088 0.6060502
vn 0.74149907 0 0.6709539
vn 0.74149907 0 0.6709539
vn 0.74149907 0 0.6709539
vn 0.74149907 0 0.6709539
vn -0.5015822 -0.00014385526 0.86511
vn -0.5015822 -0.00014385526 0.86511
vn -0.5015822 -0.00014385526 0.86511
vn -0.5015822 -0.00014385526 0.86511
vn -0.99894637 0 0.045894045
vn -0.99894637 0 0.045894045
vn -0.99894637 0 0.045894045
vn -0.99894637 0 0.045894045
vn -0.99894637 0 0.045894045
vn -0.99894637 0 0.045894045
vn -0.42725036 0 0.9041334
vn -0.42725036 0 0.9041334
vn -0.42725036 0 0.9041334
vn -0.42725036 0 0.9041334
vn -0 -0.80277807 0.59627795
vn -0 -0.80277807 0.59627795
vn -0 -0.80277807 0.59627795
vn -0 -0.80277807 0.59627795
vn 0.22123736 0.975132 -0.013102142
vn 0.22123736 0.975132 -0.013102142
vn 0.22123736 0.975132 -0.013102142
vn 0.22123736 0.975132 -0.013102142
vn 0.22123736 0.975132 -0.013102142
vn 0.22123736 0.975132 -0.013102142
vn 0.22123736 0.975132 -0.013102142
vn 0.22123736 0.975132 -0.013102142
vn 0.22123736 0.975132 -0.013102142
vn 0.22123736 0.975132 -0.013102142
vn 0.22123736 0.975132 -0.013102142
vn 0.22123736 0.975132 -0.013102142
vn 0.22123736 0.975132 -0.013102142
g FX_MESH_EN0021_barrier_ice_10_0
f 3/3/3 2/2/2 1/1/1
f 1/1/1 4/4/4 3/3/3
f 1/1/1 5/5/5 4/4/4
f 5/5/5 6/6/6 4/4/4
f 9/9/9 8/8/8 7/7/7
f 10/10/10 9/9/9 7/7/7
f 13/13/13 12/12/12 11/11/11
f 14/14/14 13/13/13 11/11/11
f 17/17/17 16/16/16 15/15/15
f 18/18/18 17/17/17 15/15/15
f 18/18/18 19/19/19 17/17/17
f 19/19/19 20/20/20 17/17/17
f 23/23/23 22/22/22 21/21/21
f 24/24/24 23/23/23 21/21/21
f 25/25/25 23/23/23 24/24/24
f 25/25/25 24/24/24 26/26/26
f 27/27/27 25/25/25 26/26/26
f 27/27/27 26/26/26 28/28/28
f 29/29/29 27/27/27 28/28/28
f 29/29/29 28/28/28 30/30/30
f 31/31/31 29/29/29 30/30/30
f 34/34/34 33/33/33 32/32/32
f 32/32/32 35/35/35 34/34/34
f 32/32/32 36/36/36 35/35/35
f 36/36/36 37/37/37 35/35/35
f 34/34/34 35/35/35 38/38/38
f 39/39/39 34/34/34 38/38/38
f 42/42/42 41/41/41 40/40/40
f 43/43/43 42/42/42 40/40/40
f 46/46/46 45/45/45 44/44/44
f 47/47/47 46/46/46 44/44/44
f 47/47/47 44/44/44 48/48/48
f 49/49/49 47/47/47 48/48/48
f 48/48/48 50/50/50 49/49/49
f 49/49/49 51/51/51 47/47/47
f 54/54/54 53/53/53 52/52/52
f 53/53/53 55/55/55 52/52/52
f 55/55/55 53/53/53 56/56/56
f 57/57/57 56/56/56 53/53/53
f 58/58/58 55/55/55 56/56/56
f 58/58/58 56/56/56 59/59/59
f 62/62/62 61/61/61 60/60/60
f 63/63/63 62/62/62 60/60/60
f 66/66/66 65/65/65 64/64/64
f 67/67/67 66/66/66 64/64/64
f 70/70/70 69/69/69 68/68/68
f 68/68/68 71/71/71 70/70/70
f 71/71/71 72/72/72 70/70/70
f 71/71/71 73/73/73 72/72/72
f 76/76/76 75/75/75 74/74/74
f 77/77/77 76/76/76 74/74/74
f 80/80/80 79/79/79 78/78/78
f 81/81/81 80/80/80 78/78/78
f 84/84/84 83/83/83 82/82/82
f 82/82/82 85/85/85 84/84/84
f 82/82/82 86/86/86 85/85/85
f 86/86/86 87/87/87 85/85/85
f 86/86/86 88/88/88 87/87/87
f 88/88/88 89/89/89 87/87/87
f 88/88/88 90/90/90 89/89/89
f 90/90/90 91/91/91 89/89/89
f 91/91/91 92/92/92 89/89/89
f 91/91/91 93/93/93 92/92/92
f 93/93/93 94/94/94 92/92/92
