g FX_MESH_EN0021_barrier_ice_08
v 0.7759415 -2.021613 1.2010195
v 0.77202547 -1.2482605 1.2659887
v -0.010406256 -1.2454195 1.1943111
v 0.71646774 -2.3549821 2.1877148
v 0.6970266 -2.3525414 2.2297237
v 0.7139357 -2.3525414 2.2297237
v -0.3433589 -1.3284392 2.2297237
v -0.35160807 -1.2826998 2.1348972
v -0.3447297 -1.2864583 2.2297237
v 0.7759415 -2.021613 1.2010195
v -0.010406256 -1.2454195 1.1943111
v -0.051849365 -1.249939 1.3083397
v 0.71646774 -2.3549821 2.1877148
v -0.35160807 -1.2826998 2.1348972
v -0.3433589 -1.3284392 2.2297237
v 0.6970266 -2.3525414 2.2297237
v 0.59994805 -2.2865582 2.3040361
v -0.33962277 -1.3335043 2.2332194
v -0.23616898 -1.4634548 2.3040366
v 0.49505976 -2.2837963 2.5571163
v -0.23485857 -1.5103966 2.4191153
v 0.35900146 -2.1712837 2.611178
v 0.43811715 -2.2443776 2.5990758
v 0.35900146 -2.1712837 2.611178
v -0.23485857 -1.5103966 2.4191153
v -0.2332871 -1.566335 2.5571163
v -0.19382817 -1.6217552 2.5990758
v 0.10543096 -1.9367216 2.6500142
v 0.7759415 -2.021613 1.2010195
v 0.71646774 -2.3549821 2.1877148
v 0.7139357 -2.3525414 2.2297237
v 0.7139357 -1.2864583 2.229724
v 0.77202547 -1.2482605 1.2659887
v -0.051849365 -1.249939 1.3083397
v -0.010406256 -1.2454195 1.1943111
v 0.77202547 -1.2482605 1.2659887
v 0.7139357 -1.2864583 2.229724
v -0.35160807 -1.2826998 2.1348972
v -0.3447297 -1.2864583 2.2297237
v 0.59994805 -2.2865582 2.3040361
v 0.49505976 -2.2837963 2.5571163
v 0.6465856 -2.2837963 2.5571163
v 0.6491364 -2.2865582 2.3040361
v 0.6465856 -1.3823307 2.5571163
v 0.6491362 -1.3840858 2.3040366
v 0.6491364 -2.2865582 2.3040361
v 0.6465856 -2.2837963 2.5571163
v -0.2332871 -1.3823308 2.5571163
v -0.23616898 -1.3840857 2.3040366
v 0.6491362 -1.3840858 2.3040366
v 0.6465856 -1.3823307 2.5571163
v -0.2332871 -1.3823308 2.5571163
v -0.2332871 -1.566335 2.5571163
v -0.23485857 -1.5103966 2.4191153
v -0.23616898 -1.4634548 2.3040366
v -0.23616898 -1.3840857 2.3040366
v 0.6491364 -2.2865582 2.3040361
v 0.7139357 -2.3525414 2.2297237
v 0.6970266 -2.3525414 2.2297237
v 0.59994805 -2.2865582 2.3040361
v 0.7139357 -2.3525414 2.2297237
v 0.6491364 -2.2865582 2.3040361
v 0.6491362 -1.3840858 2.3040366
v 0.7139357 -1.2864583 2.229724
v 0.7139357 -1.2864583 2.229724
v 0.6491362 -1.3840858 2.3040366
v -0.23616898 -1.3840857 2.3040366
v -0.3447297 -1.2864583 2.2297237
v -0.3447297 -1.2864583 2.2297237
v -0.23616898 -1.3840857 2.3040366
v -0.23616898 -1.4634548 2.3040366
v -0.33962277 -1.3335043 2.2332194
v -0.3433589 -1.3284392 2.2297237
v 0.60715675 -2.2443776 2.5990758
v 0.6465856 -2.2837963 2.5571163
v 0.49505976 -2.2837963 2.5571163
v 0.43811715 -2.2443776 2.5990758
v 0.6465856 -2.2837963 2.5571163
v 0.60715675 -2.2443776 2.5990758
v 0.6071568 -1.4213406 2.5990758
v 0.6465856 -1.3823307 2.5571163
v 0.6465856 -1.3823307 2.5571163
v 0.6071568 -1.4213406 2.5990758
v -0.19382817 -1.4213406 2.5990758
v -0.2332871 -1.3823308 2.5571163
v -0.19382817 -1.6217552 2.5990758
v -0.2332871 -1.566335 2.5571163
v -0.2332871 -1.3823308 2.5571163
v -0.19382817 -1.4213406 2.5990758
v 0.10543096 -1.9367216 2.6500142
v -0.19382817 -1.6217552 2.5990758
v -0.19382817 -1.4213406 2.5990758
v 0.20668104 -1.8326305 2.6672485
v 0.35900146 -2.1712837 2.611178
v 0.6071568 -1.4213406 2.5990758
v 0.43811715 -2.2443776 2.5990758
v 0.60715675 -2.2443776 2.5990758
vt 0.6164057 0.5099335
vt 0.61559844 0.6693588
vt 0.4543014 0.66994447
vt 0.6041453 0.5417373
vt 0.60013753 0.55039734
vt 0.60362333 0.55039734
vt 0.59776706 0.55039734
vt 0.60719615 0.530849
vt 0.60642135 0.55039734
vt 0.6164057 0.33833164
vt 0.4543014 0.3369487
vt 0.44575796 0.3604555
vt 0.6041453 0.5417373
vt 0.38396317 0.530849
vt 0.38566375 0.55039734
vt 0.60013753 0.55039734
vt 0.580125 0.56571674
vt 0.38643393 0.551118
vt 0.40776077 0.56571686
vt 0.5585024 0.6178888
vt 0.4080309 0.5894401
vt 0.53045416 0.6290335
vt 0.5467638 0.6265387
vt 0.53045416 0.6290335
vt 0.4080309 0.5894401
vt 0.40835485 0.6178888
vt 0.41648924 0.6265387
vt 0.47818103 0.63703954
vt 0.4548704 0.33833164
vt 0.38614687 0.5417373
vt 0.38665003 0.55039734
vt 0.60642135 0.5503974
vt 0.6142958 0.35172492
vt 0.44575796 0.3604555
vt 0.4543014 0.3369487
vt 0.61559844 0.35172492
vt 0.60362333 0.5503974
vt 0.38396317 0.530849
vt 0.38538116 0.55039734
vt 0.580125 0.56571674
vt 0.5585024 0.6178888
vt 0.5897392 0.6178888
vt 0.59026504 0.56571674
vt 0.5866574 0.6178888
vt 0.5862956 0.56571686
vt 0.40025237 0.56571674
vt 0.40082172 0.6178888
vt 0.40835485 0.6178888
vt 0.40776077 0.56571686
vt 0.590265 0.56571686
vt 0.5897392 0.6178888
vt 0.5866574 0.6178888
vt 0.54872525 0.6178888
vt 0.56025684 0.5894401
vt 0.56993383 0.56571686
vt 0.58629566 0.56571686
vt 0.59026504 0.56571674
vt 0.60362333 0.55039734
vt 0.60013753 0.55039734
vt 0.580125 0.56571674
vt 0.38665003 0.55039734
vt 0.40025237 0.56571674
vt 0.5862956 0.56571686
vt 0.60642135 0.5503974
vt 0.60362333 0.6614844
vt 0.590265 0.6413587
vt 0.40776077 0.6413587
vt 0.38538116 0.6614844
vt 0.38538116 0.6614844
vt 0.40776077 0.6413587
vt 0.40776077 0.62499684
vt 0.38643393 0.6517859
vt 0.38566375 0.65283006
vt 0.58161104 0.6265387
vt 0.5897392 0.6178888
vt 0.5585024 0.6178888
vt 0.5467638 0.6265387
vt 0.40082172 0.6178888
vt 0.40894783 0.6265387
vt 0.5786156 0.6265387
vt 0.5866574 0.6178888
vt 0.5897392 0.6178888
vt 0.58161104 0.6265387
vt 0.41648924 0.6265387
vt 0.40835485 0.6178888
vt 0.5373004 0.6265387
vt 0.54872525 0.6178888
vt 0.5866574 0.6178888
vt 0.5786156 0.6265387
vt 0.47818103 0.52743363
vt 0.41648924 0.5923635
vt 0.41648924 0.6336786
vt 0.49905357 0.5488919
vt 0.53045416 0.47907904
vt 0.58161104 0.6336786
vt 0.5467638 0.46401086
vt 0.58161104 0.46401086
vn 0.0912073 0.08382459 -0.9922977
vn 0.0912073 0.08382459 -0.9922977
vn 0.0912073 0.08382459 -0.9922977
vn -0 -0.99831665 0.05799984
vn -0 -0.99831665 0.05799984
vn -0 -0.99831665 0.05799984
vn -0.9969432 -0.03255373 0.07102504
vn -0.9969432 -0.03255373 0.07102504
vn -0.9969432 -0.03255373 0.07102504
vn -0.67493564 -0.68582517 -0.27222377
vn -0.67493564 -0.68582517 -0.27222377
vn -0.67493564 -0.68582517 -0.27222377
vn -0.67493564 -0.68582517 -0.27222377
vn -0.67493564 -0.68582517 -0.27222377
vn -0.67493564 -0.68582517 -0.27222377
vn -0.67493564 -0.68582517 -0.27222377
vn -0.67493564 -0.68582517 -0.27222377
vn -0.67493564 -0.68582517 -0.27222377
vn -0.67493564 -0.68582517 -0.27222377
vn -0.67493564 -0.68582517 -0.27222377
vn -0.67493564 -0.68582517 -0.27222377
vn -0.67493564 -0.68582517 -0.27222377
vn -0.67493564 -0.68582517 -0.27222377
vn -0.67576414 -0.68577677 -0.27028334
vn -0.67576414 -0.68577677 -0.27028334
vn -0.67576414 -0.68577677 -0.27028334
vn -0.67576414 -0.68577677 -0.27028334
vn -0.67576414 -0.68577677 -0.27028334
vn 0.9981883 0 0.060166445
vn 0.9981883 0 0.060166445
vn 0.9981883 0 0.060166445
vn 0.9981883 0 0.060166445
vn 0.9981883 0 0.060166445
vn -0 0.9992155 0.039604068
vn -0 0.9992155 0.039604068
vn -0 0.9992155 0.039604068
vn -0 0.9992155 0.039604068
vn -0 0.9992155 0.039604068
vn -0 0.9992155 0.039604068
vn -0 -0.9999405 0.010913091
vn -0 -0.9999405 0.010913091
vn -0 -0.9999405 0.010913091
vn -0 -0.9999405 0.010913091
vn 0.9999492 0 0.010078213
vn 0.9999492 0 0.010078213
vn 0.9999492 0 0.010078213
vn 0.9999492 0 0.010078213
vn -0 0.99997604 -0.0069346866
vn -0 0.99997604 -0.0069346866
vn -0 0.99997604 -0.0069346866
vn -0 0.99997604 -0.0069346866
vn -0.99993515 0 0.011386557
vn -0.99993515 0 0.011386557
vn -0.99993515 0 0.011386557
vn -0.99993515 0 0.011386557
vn -0.99993515 0 0.011386557
vn -0 -0.7477725 0.66395503
vn -0 -0.7477725 0.66395503
vn -0 -0.7477725 0.66395503
vn -0 -0.7477725 0.66395503
vn 0.75370204 0 0.65721625
vn 0.75370204 0 0.65721625
vn 0.75370204 0 0.65721625
vn 0.75370204 0 0.65721625
vn -0 0.6056819 0.7957069
vn -0 0.6056819 0.7957069
vn -0 0.6056819 0.7957069
vn -0 0.6056819 0.7957069
vn -0.56676954 -0.00030523838 0.8238764
vn -0.56676954 -0.00030523838 0.8238764
vn -0.56676954 -0.00030523838 0.8238764
vn -0.56676954 -0.00030523838 0.8238764
vn -0.56676954 -0.00030523838 0.8238764
vn -0 -0.72883004 0.68469465
vn -0 -0.72883004 0.68469465
vn -0 -0.72883004 0.68469465
vn -0 -0.72883004 0.68469465
vn 0.7287429 0 0.6847875
vn 0.7287429 0 0.6847875
vn 0.7287429 0 0.6847875
vn 0.7287429 0 0.6847875
vn -0 0.73238 0.68089616
vn -0 0.73238 0.68089616
vn -0 0.73238 0.68089616
vn -0 0.73238 0.68089616
vn -0.72847927 0 0.68506783
vn -0.72847927 0 0.68506783
vn -0.72847927 0 0.68506783
vn -0.72847927 0 0.68506783
vn -0.084113054 -0.082596816 0.99302703
vn -0.16780108 0 0.9858209
vn -0.08308596 0.08368835 0.99302214
vn -0 7.27565E-05 1
vn -0 -0.16334541 0.9865689
vn 0.08308833 0.083692715 0.99302155
vn -0 -0.16334541 0.9865689
vn 0.083029754 -0.08365849 0.9930294
g FX_MESH_EN0021_barrier_ice_08_0
f 3/3/3 2/2/2 1/1/1
f 6/6/6 5/5/5 4/4/4
f 9/9/9 8/8/8 7/7/7
f 12/12/12 11/11/11 10/10/10
f 10/10/10 13/13/13 12/12/12
f 13/13/13 14/14/14 12/12/12
f 13/13/13 15/15/15 14/14/14
f 13/13/13 16/16/16 15/15/15
f 16/16/16 17/17/17 15/15/15
f 17/17/17 18/18/18 15/15/15
f 17/17/17 19/19/19 18/18/18
f 17/17/17 20/20/20 19/19/19
f 20/20/20 21/21/21 19/19/19
f 20/20/20 22/22/22 21/21/21
f 20/20/20 23/23/23 22/22/22
f 26/26/26 25/25/25 24/24/24
f 24/24/24 27/27/27 26/26/26
f 24/24/24 28/28/28 27/27/27
f 31/31/31 30/30/30 29/29/29
f 29/29/29 32/32/32 31/31/31
f 29/29/29 33/33/33 32/32/32
f 36/36/36 35/35/35 34/34/34
f 34/34/34 37/37/37 36/36/36
f 34/34/34 38/38/38 37/37/37
f 38/38/38 39/39/39 37/37/37
f 42/42/42 41/41/41 40/40/40
f 43/43/43 42/42/42 40/40/40
f 46/46/46 45/45/45 44/44/44
f 47/47/47 46/46/46 44/44/44
f 50/50/50 49/49/49 48/48/48
f 51/51/51 50/50/50 48/48/48
f 54/54/54 53/53/53 52/52/52
f 52/52/52 55/55/55 54/54/54
f 52/52/52 56/56/56 55/55/55
f 59/59/59 58/58/58 57/57/57
f 60/60/60 59/59/59 57/57/57
f 63/63/63 62/62/62 61/61/61
f 64/64/64 63/63/63 61/61/61
f 67/67/67 66/66/66 65/65/65
f 68/68/68 67/67/67 65/65/65
f 71/71/71 70/70/70 69/69/69
f 69/69/69 72/72/72 71/71/71
f 69/69/69 73/73/73 72/72/72
f 76/76/76 75/75/75 74/74/74
f 77/77/77 76/76/76 74/74/74
f 80/80/80 79/79/79 78/78/78
f 81/81/81 80/80/80 78/78/78
f 84/84/84 83/83/83 82/82/82
f 85/85/85 84/84/84 82/82/82
f 88/88/88 87/87/87 86/86/86
f 89/89/89 88/88/88 86/86/86
f 92/92/92 91/91/91 90/90/90
f 93/93/93 92/92/92 90/90/90
f 93/93/93 90/90/90 94/94/94
f 93/93/93 95/95/95 92/92/92
f 93/93/93 94/94/94 96/96/96
f 97/97/97 95/95/95 93/93/93
f 96/96/96 97/97/97 93/93/93
