g FX_MESH_EN0021_barrier_ice_07
v -0.35181305 -1.2825879 2.132071
v -0.012013465 -1.2454071 1.1939969
v 0.77596587 -2.0239072 1.2006154
v 0.7167677 -2.3552713 2.1827383
v -0.35055143 -1.2895154 2.1464167
v -0.34331772 -1.3296988 2.2297237
v 0.7122175 -2.354699 2.192591
v 0.6950348 -2.3525417 2.2297237
v -0.3394693 -1.3349185 2.2333245
v 0.59804964 -2.2865584 2.3040361
v -0.23616898 -1.4647579 2.3040366
v 0.49306118 -2.2837965 2.5571165
v -0.23491734 -1.5097098 2.4139512
v 0.3609792 -2.174943 2.610572
v 0.436105 -2.2443779 2.5990758
v -0.2332871 -1.5687507 2.5571165
v -0.23491734 -1.5097098 2.4139512
v 0.3609792 -2.174943 2.610572
v -0.19382817 -1.6244113 2.5990758
v 0.10418558 -1.938002 2.6498022
v -0.012013465 -1.2454071 1.1939969
v -0.040835768 -1.2448436 1.1797769
v 0.7862813 -2.3760111 1.0294769
v 0.77596587 -2.0239072 1.2006154
v 0.7876733 -2.423612 1.0063827
v -0.43642938 -2.4603572 0.37389016
v -0.30991858 -2.352542 2.2297237
v 0.7167677 -2.3552713 2.1827383
v 0.7122175 -2.354699 2.192591
v 0.6950348 -2.3525417 2.2297237
v 0.77596587 -2.0239072 1.2006154
v 0.7862813 -2.3760111 1.0294769
v 0.7876733 -2.423612 1.0063827
v 0.7167677 -2.3552713 2.1827383
v -0.35181305 -1.2825879 2.132071
v -0.43495762 -1.2371563 0.98582506
v -0.040835768 -1.2448436 1.1797769
v -0.012013465 -1.2454071 1.1939969
v -0.30991858 -2.352542 2.2297237
v -0.43642938 -2.4603572 0.37389016
v -0.43495762 -1.2371563 0.98582506
v -0.34331772 -1.3296988 2.2297237
v -0.35055143 -1.2895154 2.1464167
v -0.35181305 -1.2825879 2.132071
v -0.2332871 -2.2837965 2.5571165
v 0.49306118 -2.2837965 2.5571165
v 0.59804964 -2.2865584 2.3040361
v -0.23616898 -2.2865584 2.3040366
v -0.2332871 -2.2837965 2.5571165
v -0.23616898 -2.2865584 2.3040366
v -0.23616898 -1.4647579 2.3040366
v -0.2332871 -1.5687507 2.5571165
v -0.23491734 -1.5097098 2.4139512
v -0.23616898 -2.2865584 2.3040366
v 0.59804964 -2.2865584 2.3040361
v 0.6950348 -2.3525417 2.2297237
v -0.30991858 -2.352542 2.2297237
v -0.3394693 -1.3349185 2.2333245
v -0.23616898 -1.4647579 2.3040366
v -0.23616898 -2.2865584 2.3040366
v -0.30991858 -2.352542 2.2297237
v -0.34331772 -1.3296988 2.2297237
v -0.19382823 -2.2443779 2.5990758
v 0.436105 -2.2443779 2.5990758
v 0.49306118 -2.2837965 2.5571165
v -0.2332871 -2.2837965 2.5571165
v -0.2332871 -1.5687507 2.5571165
v -0.19382817 -1.6244113 2.5990758
v -0.19382823 -2.2443779 2.5990758
v -0.2332871 -2.2837965 2.5571165
v 0.10418558 -1.938002 2.6498022
v 0.3609792 -2.174943 2.610572
v 0.436105 -2.2443779 2.5990758
v -0.19382823 -2.2443779 2.5990758
v -0.19382817 -1.6244113 2.5990758
v -0.43642938 -2.4603572 0.37389016
v 0.7876733 -2.423612 1.0063827
v 0.7862813 -2.3760111 1.0294769
v -0.040835768 -1.2448436 1.1797769
v -0.43495762 -1.2371563 0.98582506
vt 0.42908683 0.5882119
vt 0.49913597 0.39482945
vt 0.6615767 0.3961938
vt 0.64937305 0.5986569
vt 0.42934692 0.59116924
vt 0.43083814 0.6083429
vt 0.64843506 0.600688
vt 0.6448928 0.6083429
vt 0.43163148 0.60908514
vt 0.6248995 0.62366223
vt 0.45292667 0.62366235
vt 0.6032563 0.67583436
vt 0.4531847 0.64632106
vt 0.5760278 0.6868542
vt 0.5915149 0.6844842
vt 0.45352077 0.67583436
vt 0.4531847 0.64632106
vt 0.5760278 0.6868542
vt 0.46165517 0.6844842
vt 0.5230902 0.69494134
vt 0.49913597 0.71661943
vt 0.4931943 0.7167356
vt 0.66370314 0.48354724
vt 0.6615767 0.5561329
vt 0.6639901 0.35615307
vt 0.41164333 0.22576576
vt 0.4377233 0.6083429
vt 0.64937305 0.5986569
vt 0.64843506 0.600688
vt 0.6448928 0.6083429
vt 0.50106984 0.3961938
vt 0.4284842 0.36091393
vt 0.41867134 0.35615307
vt 0.43275967 0.5986569
vt 0.42908683 0.5882119
vt 0.4119467 0.35191518
vt 0.4931943 0.39189798
vt 0.49913597 0.39482945
vt 0.43332234 0.6083429
vt 0.4110964 0.22576576
vt 0.6632573 0.35191518
vt 0.6441798 0.6083429
vt 0.65246356 0.59116924
vt 0.6538916 0.5882119
vt 0.45352077 0.67583436
vt 0.6032563 0.67583436
vt 0.6248995 0.62366223
vt 0.45292667 0.62366235
vt 0.4474941 0.67583436
vt 0.44692475 0.62366235
vt 0.6163376 0.62366235
vt 0.59489965 0.67583436
vt 0.60707086 0.64632106
vt 0.45292667 0.62366235
vt 0.6248995 0.62366223
vt 0.6448928 0.6083429
vt 0.4377233 0.6083429
vt 0.43163148 0.6981668
vt 0.45292667 0.6714006
vt 0.45292667 0.5019878
vt 0.4377233 0.48838538
vt 0.43083814 0.69924283
vt 0.46165514 0.6844842
vt 0.5915149 0.6844842
vt 0.6032563 0.67583436
vt 0.45352077 0.67583436
vt 0.59489965 0.67583436
vt 0.5834253 0.6844842
vt 0.4556202 0.6844842
vt 0.4474941 0.67583436
vt 0.5230902 0.5738421
vt 0.5760278 0.5249971
vt 0.5915149 0.51068324
vt 0.46165514 0.51068324
vt 0.46165517 0.63848835
vt 0.41164333 0.46615943
vt 0.6639901 0.47373438
vt 0.66370314 0.48354724
vt 0.4931943 0.7167356
vt 0.4119467 0.7183203
vn 0.6752496 0.68558383 0.272053
vn 0.6752496 0.68558383 0.272053
vn 0.6752496 0.68558383 0.272053
vn 0.6752496 0.68558383 0.272053
vn 0.6752496 0.68558383 0.272053
vn 0.6752496 0.68558383 0.272053
vn 0.6752496 0.68558383 0.272053
vn 0.6752496 0.68558383 0.272053
vn 0.6752496 0.68558383 0.272053
vn 0.6752496 0.68558383 0.272053
vn 0.6752496 0.68558383 0.272053
vn 0.6752496 0.68558383 0.272053
vn 0.6752496 0.68558383 0.272053
vn 0.6752496 0.68558383 0.272053
vn 0.6752496 0.68558383 0.272053
vn 0.6743431 0.6853219 0.27494612
vn 0.6743431 0.6853219 0.27494612
vn 0.6743431 0.6853219 0.27494612
vn 0.6743431 0.6853219 0.27494612
vn 0.6743431 0.6853219 0.27494612
vn 0.41028827 0.4083516 -0.81542164
vn 0.41028827 0.4083516 -0.81542164
vn 0.41028827 0.4083516 -0.81542164
vn 0.41028827 0.4083516 -0.81542164
vn -0 -0.99831676 0.057997644
vn -0 -0.99831676 0.057997644
vn -0 -0.99831676 0.057997644
vn -0 -0.99831676 0.057997644
vn -0 -0.99831676 0.057997644
vn -0 -0.99831676 0.057997644
vn 0.9981883 0 0.06016641
vn 0.9981883 0 0.06016641
vn 0.9981883 0 0.06016641
vn 0.9981883 0 0.06016641
vn -0 0.9992155 0.039604187
vn -0 0.9992155 0.039604187
vn -0 0.9992155 0.039604187
vn -0 0.9992155 0.039604187
vn -0.99696654 -0.033321407 0.07033802
vn -0.99696654 -0.033321407 0.07033802
vn -0.99696654 -0.033321407 0.07033802
vn -0.99696654 -0.033321407 0.07033802
vn -0.99696654 -0.033321407 0.07033802
vn -0.99696654 -0.033321407 0.07033802
vn -0 -0.9999405 0.010912046
vn -0 -0.9999405 0.010912046
vn -0 -0.9999405 0.010912046
vn -0 -0.9999405 0.010912046
vn -0.99993515 0 0.011386513
vn -0.99993515 0 0.011386513
vn -0.99993515 0 0.011386513
vn -0.99993515 0 0.011386513
vn -0.99993515 0 0.011386513
vn -0 -0.7477696 0.6639583
vn -0 -0.7477696 0.6639583
vn -0 -0.7477696 0.6639583
vn -0 -0.7477696 0.6639583
vn -0.6377607 -0.012003193 0.7701411
vn -0.6377607 -0.012003193 0.7701411
vn -0.6377607 -0.012003193 0.7701411
vn -0.6377607 -0.012003193 0.7701411
vn -0.6377607 -0.012003193 0.7701411
vn -0 -0.728827 0.6846979
vn -0 -0.728827 0.6846979
vn -0 -0.728827 0.6846979
vn -0 -0.728827 0.6846979
vn -0.7284791 0 0.6850681
vn -0.7284791 0 0.6850681
vn -0.7284791 0 0.6850681
vn -0.7284791 0 0.6850681
vn -0.084805116 -0.0819239 0.9930239
vn -0 -0.16334562 0.9865689
vn -0 -0.16334562 0.9865689
vn -0.083027236 -0.08365427 0.99303
vn -0.16780172 0 0.9858208
vn 0.4094704 0.40781462 -0.8161012
vn 0.4094704 0.40781462 -0.8161012
vn 0.4094704 0.40781462 -0.8161012
vn 0.4094704 0.40781462 -0.8161012
vn 0.4094704 0.40781462 -0.8161012
g FX_MESH_EN0021_barrier_ice_07_0
f 3/3/3 2/2/2 1/1/1
f 1/1/1 4/4/4 3/3/3
f 1/1/1 5/5/5 4/4/4
f 5/5/5 6/6/6 4/4/4
f 6/6/6 7/7/7 4/4/4
f 6/6/6 8/8/8 7/7/7
f 6/6/6 9/9/9 8/8/8
f 9/9/9 10/10/10 8/8/8
f 9/9/9 11/11/11 10/10/10
f 11/11/11 12/12/12 10/10/10
f 11/11/11 13/13/13 12/12/12
f 13/13/13 14/14/14 12/12/12
f 14/14/14 15/15/15 12/12/12
f 18/18/18 17/17/17 16/16/16
f 16/16/16 19/19/19 18/18/18
f 19/19/19 20/20/20 18/18/18
f 23/23/23 22/22/22 21/21/21
f 24/24/24 23/23/23 21/21/21
f 27/27/27 26/26/26 25/25/25
f 25/25/25 28/28/28 27/27/27
f 28/28/28 29/29/29 27/27/27
f 29/29/29 30/30/30 27/27/27
f 33/33/33 32/32/32 31/31/31
f 34/34/34 33/33/33 31/31/31
f 37/37/37 36/36/36 35/35/35
f 38/38/38 37/37/37 35/35/35
f 41/41/41 40/40/40 39/39/39
f 39/39/39 42/42/42 41/41/41
f 42/42/42 43/43/43 41/41/41
f 43/43/43 44/44/44 41/41/41
f 47/47/47 46/46/46 45/45/45
f 48/48/48 47/47/47 45/45/45
f 51/51/51 50/50/50 49/49/49
f 49/49/49 52/52/52 51/51/51
f 52/52/52 53/53/53 51/51/51
f 56/56/56 55/55/55 54/54/54
f 57/57/57 56/56/56 54/54/54
f 60/60/60 59/59/59 58/58/58
f 58/58/58 61/61/61 60/60/60
f 58/58/58 62/62/62 61/61/61
f 65/65/65 64/64/64 63/63/63
f 66/66/66 65/65/65 63/63/63
f 69/69/69 68/68/68 67/67/67
f 70/70/70 69/69/69 67/67/67
f 73/73/73 72/72/72 71/71/71
f 74/74/74 73/73/73 71/71/71
f 74/74/74 71/71/71 75/75/75
f 78/78/78 77/77/77 76/76/76
f 76/76/76 79/79/79 78/78/78
f 76/76/76 80/80/80 79/79/79
