g FX_MESH_EN0021_barrier_ice_11
v 0.80592704 1.8048412 -0.084704876
v 0.80592716 -0.6102294 -0.084704876
v 0.74018645 0.039570093 0.7705604
v 0.7379308 1.0188894 0.80509925
v 0.73500407 1.760149 0.83175254
v -0.36371922 1.7561823 0.9131239
v -0.24010655 1.7539766 0.9715381
v -0.24010658 1.0146599 0.9715372
v -0.24010661 0.07759702 0.9715367
v -0.36371928 0.017915368 0.9131231
v 0.74018645 0.039570093 0.7705604
v 0.80592716 -0.6102294 -0.084704876
v -0.4568323 -0.7613112 -0.084704876
v -0.36371928 0.017915368 0.9131231
v -0.24010661 0.07759702 0.9715367
v -0.2289716 0.26550162 1.2139053
v -0.36371922 1.7561823 0.9131239
v -0.4568323 1.8048404 -0.084704876
v 0.80592704 1.8048412 -0.084704876
v 0.73500407 1.760149 0.83175254
v 0.5541402 1.7561874 0.9129916
v -0.24010655 1.7539766 0.9715381
v 0.5270647 1.7557281 0.9251577
v -0.2266776 1.7451898 1.263922
v -0.4568323 1.8048404 -0.084704876
v -0.4568323 -0.7613112 -0.084704876
v 0.80592716 -0.6102294 -0.084704876
v 0.80592704 1.8048412 -0.084704876
v -0.24010655 1.7539766 0.9715381
v -0.2266776 1.7451898 1.263922
v -0.22781563 1.0106019 1.2391436
v -0.24010658 1.0146599 0.9715372
v -0.2289716 0.26550162 1.2139053
v -0.24010661 0.07759702 0.9715367
v 0.7379308 1.0188894 0.80509925
v 0.74018645 0.039570093 0.7705604
v -0.2289716 0.26550162 1.2139053
v 0.73500407 1.760149 0.83175254
v 0.5541402 1.7561874 0.9129916
v 0.5270647 1.7557281 0.9251577
v -0.22781563 1.0106019 1.2391436
v -0.2266776 1.7451898 1.263922
v -0.36371928 0.017915368 0.9131231
v -0.4568323 -0.7613112 -0.084704876
v -0.4568323 1.8048404 -0.084704876
v -0.36371922 1.7561823 0.9131239
vt 0.6759024 0.40187532
vt 0.17803949 0.40187532
vt 0.3119946 0.57818687
vt 0.5138797 0.585307
vt 0.6666892 0.59080154
vt 0.4297461 0.72093457
vt 0.45522866 0.72047985
vt 0.45522866 0.5680709
vt 0.45522863 0.37489688
vt 0.4297461 0.3625936
vt 0.6573145 0.57818687
vt 0.67086685 0.40187532
vt 0.41055098 0.40187532
vt 0.4297461 0.6075759
vt 0.45522863 0.6196178
vt 0.4575241 0.6695817
vt 0.4297461 0.6075761
vt 0.41055098 0.40187532
vt 0.6708668 0.40187532
vt 0.6562461 0.59080154
vt 0.61896133 0.60754883
vt 0.45522866 0.6196181
vt 0.6133798 0.6100568
vt 0.45799702 0.67989254
vt 0.41055098 0.7309653
vt 0.41055098 0.20195729
vt 0.67086685 0.23310262
vt 0.6708668 0.7309655
vt 0.6654168 0.6196181
vt 0.6636054 0.67989254
vt 0.51217127 0.67478454
vt 0.5130078 0.6196179
vt 0.35857004 0.6695817
vt 0.31983382 0.6196178
vt 0.6568495 0.5689428
vt 0.6573145 0.36705768
vt 0.4575241 0.4136331
vt 0.6562461 0.7217523
vt 0.61896133 0.7209356
vt 0.6133798 0.72084093
vt 0.45776242 0.56723434
vt 0.45799702 0.71866846
vt 0.30753058 0.6075759
vt 0.14689428 0.40187532
vt 0.6759023 0.40187532
vt 0.6658715 0.6075761
vn 0.99706537 0.00012327524 0.07655526
vn 0.99706537 0.00012327524 0.07655526
vn 0.99706537 0.00012327524 0.07655526
vn 0.99706537 0.00012327524 0.07655526
vn 0.99706537 0.00012327524 0.07655526
vn -0.42725185 0 0.90413266
vn -0.42725185 0 0.90413266
vn -0.42725185 0 0.90413266
vn -0.42725185 0 0.90413266
vn -0.42725185 0 0.90413266
vn 0.09412676 -0.78902197 0.6071116
vn 0.09412676 -0.78902197 0.6071116
vn 0.09412676 -0.78902197 0.6071116
vn 0.09412676 -0.78902197 0.6071116
vn 0.09412676 -0.78902197 0.6071116
vn 0.09412676 -0.78902197 0.6071116
vn -0 0.99892265 0.046404358
vn -0 0.99881303 0.048707407
vn -0 0.99881303 0.048707407
vn -0 0.99881303 0.048707407
vn -0 0.9988839 0.04723194
vn -0.00017454459 0.9993925 0.034852803
vn -5.3770837E-05 0.99932086 0.036847178
vn -0.00046476728 0.999548 0.03005964
vn -0 0 -1
vn -0 0 -1
vn -0 0 -1
vn -0 0 -1
vn -0.99894696 0 0.045880828
vn -0.99894696 0 0.045880828
vn -0.99894685 0 0.045884296
vn -0.99894685 0 0.045884304
vn -0.9989466 0 0.045887835
vn -0.9989466 0 0.045887835
vn 0.40993434 -0.031307288 0.91157764
vn 0.40993434 -0.031307288 0.91157764
vn 0.40993434 -0.031307288 0.91157764
vn 0.40993434 -0.031307288 0.91157764
vn 0.40993434 -0.031307288 0.91157764
vn 0.40993434 -0.031307288 0.91157764
vn 0.40993434 -0.031307288 0.91157764
vn 0.40993434 -0.031307288 0.91157764
vn -0.9956743 0 0.092912026
vn -0.9956743 0 0.092912026
vn -0.9956743 0 0.092912026
vn -0.9956743 0 0.092912026
g FX_MESH_EN0021_barrier_ice_11_0
f 3/3/3 2/2/2 1/1/1
f 1/1/1 4/4/4 3/3/3
f 1/1/1 5/5/5 4/4/4
f 8/8/8 7/7/7 6/6/6
f 6/6/6 9/9/9 8/8/8
f 6/6/6 10/10/10 9/9/9
f 13/13/13 12/12/12 11/11/11
f 11/11/11 14/14/14 13/13/13
f 11/11/11 15/15/15 14/14/14
f 11/11/11 16/16/16 15/15/15
f 19/19/19 18/18/18 17/17/17
f 17/17/17 20/20/20 19/19/19
f 17/17/17 21/21/21 20/20/20
f 17/17/17 22/22/22 21/21/21
f 22/22/22 23/23/23 21/21/21
f 23/23/23 22/22/22 24/24/24
f 27/27/27 26/26/26 25/25/25
f 28/28/28 27/27/27 25/25/25
f 31/31/31 30/30/30 29/29/29
f 32/32/32 31/31/31 29/29/29
f 33/33/33 31/31/31 32/32/32
f 34/34/34 33/33/33 32/32/32
f 37/37/37 36/36/36 35/35/35
f 35/35/35 38/38/38 37/37/37
f 38/38/38 39/39/39 37/37/37
f 39/39/39 40/40/40 37/37/37
f 40/40/40 41/41/41 37/37/37
f 40/40/40 42/42/42 41/41/41
f 45/45/45 44/44/44 43/43/43
f 46/46/46 45/45/45 43/43/43
