g FX_MESH_EN0021_barrier_ice_06
v -0.16507128 -2.647734 0.7915969
v -0.08731902 -2.6427534 0.80598116
v -0.08942258 -2.656135 0.7915969
v 0.40556931 -2.2402449 -0.087165534
v 0.094765544 -2.8550696 -0.087165534
v -0.06929192 -2.7773135 0.5404283
v -0.04389161 -2.7085116 0.5693758
v -0.033564746 -2.6794772 0.5828014
v -0.08942258 -2.656135 0.7915969
v -0.08731902 -2.6427534 0.80598116
v -0.009161651 -2.4788759 0.8204405
v 0.3171152 -2.2158177 0.22391602
v 0.3171152 -2.2158177 0.22391602
v -0.009161651 -2.4788759 0.8204405
v 0.13739514 -2.1707313 0.84755385
v 0.21481824 -2.187637 0.5828014
v 0.15385455 -2.174115 0.7915968
v -0.5036719 -2.8064635 -0.087165534
v 0.094765544 -2.8550696 -0.087165534
v 0.40556931 -2.2402449 -0.087165534
v -0.5036719 -2.2402449 -0.087165534
v -0.17638308 -2.6639662 0.5828014
v -0.43614984 -2.190548 0.5404283
v -0.17638311 -2.187637 0.5828014
v -0.43614984 -2.745183 0.5404283
v -0.06929192 -2.7773135 0.5404283
v -0.04389161 -2.7085116 0.5693758
v -0.033564746 -2.6794772 0.5828014
v -0.06929192 -2.7773135 0.5404283
v 0.094765544 -2.8550696 -0.087165534
v -0.5036719 -2.8064635 -0.087165534
v -0.43614984 -2.745183 0.5404283
v -0.43614984 -2.190548 0.5404283
v -0.5036719 -2.2402449 -0.087165534
v 0.40556931 -2.2402449 -0.087165534
v 0.3171152 -2.2158177 0.22391602
v 0.21481824 -2.187637 0.5828014
v -0.17638311 -2.187637 0.5828014
v -0.16507122 -2.174115 0.7915969
v 0.15385455 -2.174115 0.7915968
v 0.13739514 -2.1707313 0.84755385
v -0.5036719 -2.8064635 -0.087165534
v -0.5036719 -2.2402449 -0.087165534
v -0.43614984 -2.190548 0.5404283
v -0.43614984 -2.745183 0.5404283
v -0.17638308 -2.6639662 0.5828014
v -0.17638311 -2.187637 0.5828014
v -0.16507122 -2.174115 0.7915969
v -0.16507128 -2.647734 0.7915969
v -0.08942258 -2.656135 0.7915969
v -0.033564746 -2.6794772 0.5828014
v -0.17638308 -2.6639662 0.5828014
v -0.16507128 -2.647734 0.7915969
v -0.16507122 -2.174115 0.7915969
v 0.13739514 -2.1707313 0.84755385
v -0.009161651 -2.4788759 0.8204405
v -0.08731902 -2.6427534 0.80598116
v -0.16507128 -2.647734 0.7915969
vt 0.502907 0.6243565
vt 0.5189355 0.6273218
vt 0.5185019 0.6243565
vt 0.56144637 0.443201
vt 0.43470123 0.443201
vt 0.45073056 0.57257843
vt 0.46491393 0.5785459
vt 0.47089934 0.5813136
vt 0.4757113 0.6243565
vt 0.4784699 0.6273218
vt 0.512253 0.63030255
vt 0.566482 0.50732994
vt 0.566482 0.50732994
vt 0.512253 0.63030255
vt 0.5757765 0.6358919
vt 0.5722914 0.5813136
vt 0.57507896 0.62435645
vt 0.43310505 0.49978435
vt 0.556472 0.48976427
vt 0.62054366 0.61650944
vt 0.43310505 0.61650944
vt 0.5005751 0.5291599
vt 0.4470246 0.62675434
vt 0.50057507 0.62735444
vt 0.4470246 0.5124172
vt 0.5226518 0.5057936
vt 0.527888 0.519977
vt 0.5300169 0.52596235
vt 0.5226518 0.57257843
vt 0.556472 0.443201
vt 0.43310505 0.443201
vt 0.4470246 0.57257843
vt 0.4470246 0.57257843
vt 0.43310505 0.443201
vt 0.62054366 0.443201
vt 0.602309 0.50732994
vt 0.5812206 0.5813136
vt 0.50057507 0.5813136
vt 0.50290704 0.6243565
vt 0.56865305 0.62435645
vt 0.56526 0.6358919
vt 0.4447213 0.443201
vt 0.56144637 0.443201
vt 0.57169133 0.57257843
vt 0.4573542 0.57257843
vt 0.4740969 0.5813136
vt 0.5722914 0.5813136
vt 0.57507896 0.6243565
vt 0.47744316 0.6243565
vt 0.5185019 0.6243565
vt 0.5300169 0.5813136
vt 0.5005751 0.5813136
vt 0.502907 0.6243565
vt 0.50290704 0.630142
vt 0.56526 0.6308395
vt 0.53504753 0.56731606
vt 0.5189355 0.5335329
vt 0.502907 0.5325062
vn -0.0803926 -0.72389865 0.68520635
vn -0.0803926 -0.72389865 0.68520635
vn -0.0803926 -0.72389865 0.68520635
vn 0.8573204 -0.43338913 0.27780485
vn 0.8573204 -0.43338913 0.27780485
vn 0.8573204 -0.43338913 0.27780485
vn 0.8573204 -0.43338913 0.27780485
vn 0.8573204 -0.43338913 0.27780485
vn 0.8573204 -0.43338913 0.27780485
vn 0.8573204 -0.43338913 0.27780485
vn 0.8573204 -0.43338913 0.27780485
vn 0.8573204 -0.43338913 0.27780485
vn 0.8576265 -0.43239337 0.27841085
vn 0.8576265 -0.43239337 0.27841085
vn 0.8576265 -0.43239337 0.27841085
vn 0.8576265 -0.43239337 0.27841085
vn 0.8576265 -0.43239337 0.27841085
vn -0 0 -1
vn -0 0 -1
vn -0 0 -1
vn -0 0 -1
vn -0.087652944 -0.22901008 0.9694696
vn -0.16099218 0 0.98695564
vn -0.16099218 0 0.98695564
vn -0.13156985 -0.095456995 0.9867003
vn -0.033957142 -0.37963945 0.92451113
vn -0.033957142 -0.37963945 0.92451113
vn -0.033957142 -0.37963945 0.92451113
vn -0.08290138 -0.9911773 0.10341658
vn -0.08290138 -0.9911773 0.10341658
vn -0.08290138 -0.9911773 0.10341658
vn -0.08290138 -0.9911773 0.10341658
vn 0.00026954044 0.99692094 -0.07841285
vn 0.00026954044 0.99692094 -0.07841285
vn 0.00026954044 0.99692094 -0.07841285
vn 0.00026954044 0.99692094 -0.07841285
vn 0.00015886729 0.99734986 -0.072754286
vn 0.00017861655 0.99727565 -0.07376418
vn -0 0.9979373 -0.06419505
vn -0 0.9980211 -0.06287919
vn -0 0.99817693 -0.0603556
vn -0.9942621 0 0.10697141
vn -0.9942621 0 0.10697141
vn -0.9942621 0 0.10697141
vn -0.9942621 0 0.10697141
vn -0.99853575 0 0.05409734
vn -0.99853575 0 0.05409734
vn -0.99853575 0 0.05409734
vn -0.99853575 0 0.05409734
vn -0.10843531 -0.9906893 0.082318865
vn -0.10843531 -0.9906893 0.082318865
vn -0.10843531 -0.9906893 0.082318865
vn -0.10843531 -0.9906893 0.082318865
vn -0.18191545 0 0.98331416
vn -0.18191545 0 0.98331416
vn -0.18191545 0 0.98331416
vn -0.18191545 0 0.98331416
vn -0.18191545 0 0.98331416
g FX_MESH_EN0021_barrier_ice_06_0
f 3/3/3 2/2/2 1/1/1
f 6/6/6 5/5/5 4/4/4
f 4/4/4 7/7/7 6/6/6
f 4/4/4 8/8/8 7/7/7
f 4/4/4 9/9/9 8/8/8
f 4/4/4 10/10/10 9/9/9
f 4/4/4 11/11/11 10/10/10
f 4/4/4 12/12/12 11/11/11
f 15/15/15 14/14/14 13/13/13
f 13/13/13 16/16/16 15/15/15
f 16/16/16 17/17/17 15/15/15
f 20/20/20 19/19/19 18/18/18
f 21/21/21 20/20/20 18/18/18
f 24/24/24 23/23/23 22/22/22
f 23/23/23 25/25/25 22/22/22
f 22/22/22 25/25/25 26/26/26
f 22/22/22 26/26/26 27/27/27
f 27/27/27 28/28/28 22/22/22
f 31/31/31 30/30/30 29/29/29
f 32/32/32 31/31/31 29/29/29
f 35/35/35 34/34/34 33/33/33
f 33/33/33 36/36/36 35/35/35
f 33/33/33 37/37/37 36/36/36
f 33/33/33 38/38/38 37/37/37
f 38/38/38 39/39/39 37/37/37
f 39/39/39 40/40/40 37/37/37
f 40/40/40 39/39/39 41/41/41
f 44/44/44 43/43/43 42/42/42
f 45/45/45 44/44/44 42/42/42
f 48/48/48 47/47/47 46/46/46
f 49/49/49 48/48/48 46/46/46
f 52/52/52 51/51/51 50/50/50
f 53/53/53 52/52/52 50/50/50
f 56/56/56 55/55/55 54/54/54
f 54/54/54 57/57/57 56/56/56
f 54/54/54 58/58/58 57/57/57
