g FX_MESH_EN0021_barrier_ice_12
v -0.228852 0.26623654 1.2165091
v 0.74004686 0.040299177 0.77239084
v 0.7377726 1.0188367 0.80716914
v 0.7348206 1.7600334 0.8341239
v 0.5591242 1.7561876 0.91299087
v 0.5328021 1.7557412 0.9248108
v -0.22658703 1.7451305 1.2658947
v -0.22771427 1.0101967 1.2412717
v 0.72657907 0.045708537 0.9486814
v 0.7377726 1.0188367 0.80716914
v 0.74004686 0.040299177 0.77239084
v 0.72519994 1.0146571 0.97169477
v 0.6927192 0.06290412 1.652602
v 0.7348206 1.7600334 0.8341239
v 0.69271916 1.0033901 1.6526017
v 0.7287191 1.7561885 0.91296643
v 0.69268894 1.733484 1.6534295
v 0.5591242 1.7561876 0.91299087
v 0.7348206 1.7600334 0.8341239
v 0.7287191 1.7561885 0.91296643
v 0.5328021 1.7557412 0.9248108
v 0.69268894 1.733484 1.6534295
v -0.22658703 1.7451305 1.2658947
v -0.20878777 1.7334843 1.6534295
v -0.11773181 1.7322905 1.7067597
v 0.64516026 1.7322901 1.7067595
v -0.10603833 1.721996 2.3333735
v 0.6314529 1.7219963 2.3333738
v -0.069940686 1.6873084 2.4050257
v 0.5952343 1.6873084 2.4050257
v 0.645212 1.0027692 1.7051044
v 0.64521194 0.07438624 1.7051044
v 0.6314565 0.08599651 2.3330889
v 0.6314554 0.99780864 2.3331668
v 0.60769 0.09212673 2.387898
v 0.5997803 0.09405947 2.3981974
v 0.6000112 0.96681684 2.3751206
v 0.6314529 1.7219963 2.3333738
v 0.64516026 1.7322901 1.7067595
v 0.5952343 1.6873084 2.4050257
v 0.59523433 1.0331299 2.4050255
v 0.72657907 0.045708537 0.9486814
v 0.74004686 0.040299177 0.77239084
v -0.228852 0.26623654 1.2165091
v 0.6927192 0.06290412 1.652602
v -0.20881674 0.26746273 1.652602
v 0.64521194 0.07438624 1.7051044
v -0.11776066 0.24748516 1.7056751
v 0.6314565 0.08599651 2.3330889
v -0.1060428 0.253222 2.3329597
v -0.08648896 0.24940062 2.3782513
v 0.60769 0.09212673 2.387898
v -0.07452279 0.24690056 2.394019
v 0.5997803 0.09405947 2.3981974
v 0.69271916 1.0033901 1.6526017
v 0.6927192 0.06290412 1.652602
v 0.64521194 0.07438624 1.7051044
v 0.645212 1.0027692 1.7051044
v 0.64516026 1.7322901 1.7067595
v 0.69268894 1.733484 1.6534295
v -0.117753804 1.0032283 1.7059319
v -0.20878777 1.7334843 1.6534295
v -0.11773181 1.7322905 1.7067597
v -0.20881674 1.0033906 1.6526022
v -0.11776066 0.24748516 1.7056751
v -0.20881674 0.26746273 1.652602
v -0.20881674 1.0033906 1.6526022
v -0.22658703 1.7451305 1.2658947
v -0.20878777 1.7334843 1.6534295
v -0.22771427 1.0101967 1.2412717
v -0.20881674 0.26746273 1.652602
v -0.228852 0.26623654 1.2165091
v -0.069940686 1.0331297 2.4050257
v -0.10603833 1.721996 2.3333735
v -0.069940686 1.6873084 2.4050257
v -0.1060428 0.9976936 2.3329597
v -0.117753804 1.0032283 1.7059319
v -0.11773181 1.7322905 1.7067597
v -0.1060428 0.253222 2.3329597
v -0.11776066 0.24748516 1.7056751
v -0.08648896 0.24940062 2.3782513
v -0.07468343 0.9667109 2.3749225
v -0.07452279 0.24690056 2.394019
v -0.1060428 0.9976936 2.3329597
v -0.069940686 1.0331297 2.4050257
v 0.59523433 1.0331299 2.4050255
v 0.6314554 0.99780864 2.3331668
v 0.6314554 0.99780864 2.3331668
v 0.6000112 0.96681684 2.3751206
v -0.07468343 0.9667109 2.3749225
v -0.1060428 0.9976936 2.3329597
v 0.5997803 0.09405947 2.3981974
v -0.07452279 0.24690056 2.394019
v -0.07468343 0.9667109 2.3749225
v 0.6000112 0.96681684 2.3751206
v -0.069940686 1.0331297 2.4050257
v 0.2625852 1.3597713 2.4976811
v 0.59523433 1.0331299 2.4050255
v -0.069940686 1.6873084 2.4050257
v 0.5952343 1.6873084 2.4050257
vt 0.4486843 0.47106016
vt 0.5644544 0.44406378
vt 0.56418264 0.5609855
vt 0.5638299 0.6495483
vt 0.5428366 0.6490888
vt 0.53969145 0.64903545
vt 0.44895494 0.6477676
vt 0.44882023 0.55995315
vt 0.38964707 0.46158898
vt 0.5059225 0.4446802
vt 0.38900074 0.4405247
vt 0.50542307 0.46433875
vt 0.39170173 0.5456978
vt 0.5944853 0.44790092
vt 0.5040768 0.54569775
vt 0.59402585 0.45732152
vt 0.59131294 0.54579663
vt 0.5428366 0.45732445
vt 0.5638299 0.44790092
vt 0.5631009 0.45732152
vt 0.53969145 0.45873678
vt 0.55879575 0.54579663
vt 0.44895494 0.49949157
vt 0.4510817 0.54579663
vt 0.46196163 0.55216885
vt 0.55311674 0.55216885
vt 0.46335885 0.62704057
vt 0.55147886 0.6270406
vt 0.46767202 0.63560206
vt 0.54715127 0.63560206
vt 0.50400263 0.5519711
vt 0.39307368 0.5519711
vt 0.39446095 0.6270066
vt 0.5034099 0.6270159
vt 0.39519343 0.63355553
vt 0.39542434 0.6347861
vt 0.49970683 0.6320288
vt 0.58994037 0.6270406
vt 0.5911703 0.55216885
vt 0.58579564 0.63560206
vt 0.5076303 0.635602
vt 0.5628452 0.46158898
vt 0.5644544 0.4405247
vt 0.4486843 0.49359068
vt 0.5587993 0.5456978
vt 0.45107824 0.5456978
vt 0.5531229 0.5519711
vt 0.4619582 0.55203927
vt 0.5514793 0.6270066
vt 0.4633583 0.62699115
vt 0.46569473 0.6324029
vt 0.54863954 0.63355553
vt 0.46712452 0.6342869
vt 0.54769444 0.6347861
vt 0.5040768 0.54569775
vt 0.39170173 0.5456978
vt 0.39307368 0.5519711
vt 0.50400263 0.5519711
vt 0.5911703 0.55216885
vt 0.59131294 0.54579663
vt 0.461959 0.55912054
vt 0.4510817 0.646376
vt 0.46196163 0.6462334
vt 0.45107824 0.5591399
vt 0.4619582 0.46881965
vt 0.45107824 0.47120667
vt 0.50407684 0.5456978
vt 0.5927046 0.49949157
vt 0.591313 0.54579663
vt 0.5048901 0.4965495
vt 0.41614366 0.5456978
vt 0.41599715 0.49359068
vt 0.5076303 0.63560206
vt 0.5899403 0.62704057
vt 0.58579564 0.63560206
vt 0.50339615 0.62699115
vt 0.50405747 0.55206996
vt 0.5911704 0.55216885
vt 0.41444206 0.62699115
vt 0.4137566 0.55203927
vt 0.4139855 0.6324029
vt 0.49969417 0.6320051
vt 0.41368675 0.6342869
vt 0.4633583 0.62699115
vt 0.46767202 0.63560206
vt 0.54715127 0.635602
vt 0.55147916 0.6270159
vt 0.55147916 0.6270159
vt 0.54772204 0.6320288
vt 0.46710533 0.6320051
vt 0.4633583 0.62699115
vt 0.54769444 0.45048738
vt 0.46712452 0.4687498
vt 0.46710533 0.55475724
vt 0.54772204 0.5547699
vt 0.46767202 0.56269336
vt 0.50740427 0.6017225
vt 0.54715127 0.56269336
vt 0.46767202 0.64085865
vt 0.54715127 0.64085865
vn -0.41015136 0.0312845 -0.9114807
vn -0.41015136 0.0312845 -0.9114807
vn -0.41015136 0.0312845 -0.9114807
vn -0.41015136 0.0312845 -0.9114807
vn -0.41015136 0.0312845 -0.9114807
vn -0.41015136 0.0312845 -0.9114807
vn -0.41015136 0.0312845 -0.9114807
vn -0.41015136 0.0312845 -0.9114807
vn 0.9980459 -0.00013152832 0.062485173
vn 0.9970797 0.00042870324 0.07636568
vn 0.99709356 -0.00039030588 0.07618546
vn 0.99809355 0.00010672796 0.061719716
vn 0.9988545 0.00014469218 0.047849845
vn 0.9970651 0.0012589887 0.076548345
vn 0.99884784 -0.00016161602 0.047990203
vn 0.99798715 0.00045756783 0.06341506
vn 0.99884087 -0.0004742031 0.048133444
vn -0 0.9992305 0.039220322
vn -0 0.99881315 0.048706807
vn -8.3699284E-05 0.99919707 0.040065862
vn -0.00016196609 0.99951124 0.03126069
vn -0.00012024244 0.9996172 0.02766608
vn -0.00018302599 0.99953735 0.03041617
vn -0.0001377527 0.9995957 0.028433096
vn -0 0.9997967 0.020162392
vn -0 0.99980026 0.019984825
vn -0 0.9805031 0.19650346
vn -0 0.98056877 0.19617558
vn -0 0.9000737 0.43573752
vn -0 0.9000737 0.43573752
vn 0.9997603 0 0.02189122
vn 0.9997602 0 0.021898398
vn 0.97849095 -1.6263426E-05 0.2062896
vn 0.97214913 0.0029803186 0.23434396
vn 0.86475396 0.0076531805 0.5021375
vn 0.79444695 0.015842976 0.6071269
vn 0.79444695 0.015842976 0.6071269
vn 0.97807693 -2.3192351E-05 0.20824377
vn 0.99976057 0 0.0218841
vn 0.8927173 -6.607513E-05 0.45061722
vn 0.8927173 -6.607513E-05 0.45061722
vn -0.22126147 -0.97512674 0.013079722
vn -0.22126147 -0.97512674 0.013079722
vn -0.22126147 -0.97512674 0.013079722
vn -0.22126147 -0.97512674 0.013079722
vn -0.22126147 -0.97512674 0.013079722
vn -0.22126147 -0.97512674 0.013079722
vn -0.22126147 -0.97512674 0.013079722
vn -0.22126147 -0.97512674 0.013079722
vn -0.22126147 -0.97512674 0.013079722
vn -0.22126147 -0.97512674 0.013079722
vn -0.22126147 -0.97512674 0.013079722
vn -0.22126147 -0.97512674 0.013079722
vn -0.22126147 -0.97512674 0.013079722
vn 0.741501 0 0.67095184
vn 0.741501 0 0.67095184
vn 0.741501 0 0.67095184
vn 0.741501 0 0.67095184
vn 0.74404925 -0.001094756 0.66812384
vn 0.74404925 -0.001094756 0.66812384
vn -0.5053743 -0.0009611267 0.8628997
vn -0.5053743 -0.0009611267 0.8628997
vn -0.5053743 -0.0009611267 0.8628997
vn -0.5053743 -0.0009611267 0.8628997
vn -0.504472 -0.00014645641 0.863428
vn -0.504472 -0.00014645641 0.863428
vn -0.9989465 0 0.045890883
vn -0.9989466 0 0.045887545
vn -0.9989466 0 0.045887545
vn -0.9989465 0 0.045890886
vn -0.99894637 0 0.045894165
vn -0.99894637 0 0.045894165
vn -0.89357847 -0.00013188674 0.44890708
vn -0.978625 -5.610563E-05 0.20565265
vn -0.89357847 -0.00013188674 0.44890708
vn -0.9727596 0.0029762706 0.2317974
vn -0.9998258 0 0.01867076
vn -0.9998258 0 0.01867076
vn -0.9764895 0 0.21556488
vn -0.9998258 0 0.01867076
vn -0.85657465 0.008845187 0.5159472
vn -0.7952644 0.015901055 0.6060543
vn -0.7952644 0.015901055 0.6060543
vn -0 -0.8974122 0.44119313
vn -0 -0.8974122 0.44119313
vn -0 -0.8974122 0.44119313
vn -0 -0.8974122 0.44119313
vn -0.00029642365 0.8044094 0.5940753
vn -0.00029642365 0.8044094 0.5940753
vn -0.00029642365 0.8044094 0.5940753
vn -0.00029642365 0.8044094 0.5940753
vn -0.0002462802 0.026471954 0.9996495
vn -0.0002462802 0.026471954 0.9996495
vn -0.0002462802 0.026471954 0.9996495
vn -0.0002462802 0.026471954 0.9996495
vn -0.13819611 -0.13753198 0.98080933
vn -3.9047292E-05 -0.00029842745 1
vn 0.13817887 -0.13750038 0.9808162
vn -0.13796589 0.13740382 0.98085964
vn 0.1379482 0.13737199 0.98086655
g FX_MESH_EN0021_barrier_ice_12_0
f 3/3/3 2/2/2 1/1/1
f 1/1/1 4/4/4 3/3/3
f 1/1/1 5/5/5 4/4/4
f 1/1/1 6/6/6 5/5/5
f 1/1/1 7/7/7 6/6/6
f 1/1/1 8/8/8 7/7/7
f 11/11/11 10/10/10 9/9/9
f 10/10/10 12/12/12 9/9/9
f 13/13/13 9/9/9 12/12/12
f 12/12/12 10/10/10 14/14/14
f 15/15/15 13/13/13 12/12/12
f 16/16/16 12/12/12 14/14/14
f 15/15/15 12/12/12 17/17/17
f 12/12/12 16/16/16 17/17/17
f 20/20/20 19/19/19 18/18/18
f 20/20/20 18/18/18 21/21/21
f 22/22/22 20/20/20 21/21/21
f 21/21/21 23/23/23 22/22/22
f 23/23/23 24/24/24 22/22/22
f 22/22/22 24/24/24 25/25/25
f 26/26/26 22/22/22 25/25/25
f 26/26/26 25/25/25 27/27/27
f 28/28/28 26/26/26 27/27/27
f 28/28/28 27/27/27 29/29/29
f 30/30/30 28/28/28 29/29/29
f 33/33/33 32/32/32 31/31/31
f 34/34/34 33/33/33 31/31/31
f 33/33/33 34/34/34 35/35/35
f 36/36/36 35/35/35 34/34/34
f 37/37/37 36/36/36 34/34/34
f 34/34/34 31/31/31 38/38/38
f 31/31/31 39/39/39 38/38/38
f 34/34/34 38/38/38 40/40/40
f 41/41/41 34/34/34 40/40/40
f 44/44/44 43/43/43 42/42/42
f 42/42/42 45/45/45 44/44/44
f 45/45/45 46/46/46 44/44/44
f 45/45/45 47/47/47 46/46/46
f 47/47/47 48/48/48 46/46/46
f 47/47/47 49/49/49 48/48/48
f 49/49/49 50/50/50 48/48/48
f 49/49/49 51/51/51 50/50/50
f 49/49/49 52/52/52 51/51/51
f 52/52/52 53/53/53 51/51/51
f 52/52/52 54/54/54 53/53/53
f 57/57/57 56/56/56 55/55/55
f 58/58/58 57/57/57 55/55/55
f 58/58/58 55/55/55 59/59/59
f 55/55/55 60/60/60 59/59/59
f 63/63/63 62/62/62 61/61/61
f 62/62/62 64/64/64 61/61/61
f 61/61/61 64/64/64 65/65/65
f 64/64/64 66/66/66 65/65/65
f 69/69/69 68/68/68 67/67/67
f 68/68/68 70/70/70 67/67/67
f 67/67/67 70/70/70 71/71/71
f 70/70/70 72/72/72 71/71/71
f 75/75/75 74/74/74 73/73/73
f 74/74/74 76/76/76 73/73/73
f 76/76/76 74/74/74 77/77/77
f 74/74/74 78/78/78 77/77/77
f 79/79/79 76/76/76 77/77/77
f 77/77/77 80/80/80 79/79/79
f 76/76/76 79/79/79 81/81/81
f 82/82/82 76/76/76 81/81/81
f 83/83/83 82/82/82 81/81/81
f 86/86/86 85/85/85 84/84/84
f 87/87/87 86/86/86 84/84/84
f 90/90/90 89/89/89 88/88/88
f 91/91/91 90/90/90 88/88/88
f 94/94/94 93/93/93 92/92/92
f 95/95/95 94/94/94 92/92/92
f 98/98/98 97/97/97 96/96/96
f 96/96/96 97/97/97 99/99/99
f 100/100/100 97/97/97 98/98/98
f 99/99/99 97/97/97 100/100/100
