g FX_MESH_EN0021_barrier_ice_05
v 0.7740369 -2.566517 1.1752937
v 0.83345723 -2.5359135 1.5148795
v 0.85215473 -2.552013 1.1752937
v 0.5084903 -2.2402446 -0.087165534
v 0.56975037 -2.8405077 -0.087165534
v 0.988904 -2.8064632 -0.087165534
v 0.988904 -2.2402446 -0.087165534
v 0.988904 -2.2402446 -0.087165534
v 0.988904 -2.8064632 -0.087165534
v 0.919706 -2.745183 0.5404283
v 0.9156533 -2.663966 0.5828014
v 0.9156533 -2.1876369 0.5828014
v 0.896825 -2.6477337 0.7915969
v 0.896825 -2.1741147 0.79159665
v 0.89130205 -2.170148 0.8571956
v 0.8913022 -2.625021 0.8571956
v 0.87118506 -2.1556997 1.1182159
v 0.87118506 -2.6077874 1.1182158
v 0.85215455 -2.1632423 1.1752937
v 0.85215473 -2.552013 1.1752937
v 0.83345723 -2.5359135 1.5148795
v 0.8305469 -2.4108741 1.5677354
v 0.83119595 -2.3523939 1.6033652
v 0.8293816 -2.1464155 1.7066069
v 0.6264752 -2.1876369 0.5828014
v 0.5084903 -2.2402446 -0.087165534
v 0.988904 -2.2402446 -0.087165534
v 0.9156533 -2.1876369 0.5828014
v 0.66358066 -2.1741147 0.7915967
v 0.896825 -2.1741147 0.79159665
v 0.89130205 -2.170148 0.8571956
v 0.67526686 -2.170148 0.8571957
v 0.87118506 -2.1556997 1.1182159
v 0.7219018 -2.1556997 1.1182159
v 0.85215455 -2.1632423 1.1752937
v 0.7331822 -2.1632423 1.1752937
v 0.8293816 -2.1464155 1.7066069
v 0.8913022 -2.625021 0.8571956
v 0.7695327 -2.6252706 1.1182158
v 0.87118506 -2.6077874 1.1182158
v 0.72434694 -2.6530292 0.8571956
v 0.7195749 -2.665713 0.8242198
v 0.7138128 -2.6680582 0.7915969
v 0.896825 -2.6477337 0.7915969
v 0.6776224 -2.689818 0.5828014
v 0.9156533 -2.663966 0.5828014
v 0.56975037 -2.8405077 -0.087165534
v 0.6776411 -2.7663836 0.5404283
v 0.919706 -2.745183 0.5404283
v 0.988904 -2.8064632 -0.087165534
v 0.85215473 -2.552013 1.1752937
v 0.87118506 -2.6077874 1.1182158
v 0.7695327 -2.6252706 1.1182158
v 0.7740369 -2.566517 1.1752937
v 0.7728438 -2.5802367 1.1611971
v 0.6776224 -2.689818 0.5828014
v 0.9156533 -2.663966 0.5828014
v 0.6779208 -2.7355502 0.5590535
v 0.6776411 -2.7663836 0.5404283
v 0.919706 -2.745183 0.5404283
v 0.6776411 -2.7663836 0.5404283
v 0.56975037 -2.8405077 -0.087165534
v 0.5084903 -2.2402446 -0.087165534
v 0.6779208 -2.7355502 0.5590535
v 0.6776224 -2.689818 0.5828014
v 0.7138128 -2.6680582 0.7915969
v 0.7195749 -2.665713 0.8242198
v 0.72434694 -2.6530292 0.8571956
v 0.7695327 -2.6252706 1.1182158
v 0.7728438 -2.5802367 1.1611971
v 0.7740369 -2.566517 1.1752937
v 0.83345723 -2.5359135 1.5148795
v 0.8305469 -2.4108741 1.5677354
v 0.83119595 -2.3523939 1.6033652
v 0.8293816 -2.1464155 1.7066069
v 0.6264752 -2.1876369 0.5828014
v 0.7331822 -2.1632423 1.1752937
v 0.66358066 -2.1741147 0.7915967
v 0.67526686 -2.170148 0.8571957
v 0.7219018 -2.1556997 1.1182159
vt 0.5061394 0.63728446
vt 0.5183888 0.7072895
vt 0.52224326 0.63728446
vt 0.4513974 0.60813385
vt 0.46402606 0.4843906
vt 0.55043393 0.49140882
vt 0.55043393 0.60813385
vt 0.55307084 0.37703055
vt 0.4363458 0.37703055
vt 0.4489786 0.506408
vt 0.46572137 0.51514316
vt 0.56391585 0.51514316
vt 0.46906763 0.558186
vt 0.56670344 0.55818594
vt 0.56752115 0.57170904
vt 0.47374982 0.57170904
vt 0.57049966 0.62551796
vt 0.4773025 0.62551796
vt 0.56894475 0.63728446
vt 0.48880032 0.63728446
vt 0.4921192 0.7072895
vt 0.5178958 0.7181857
vt 0.52995145 0.7255307
vt 0.57241356 0.74681383
vt 0.47571978 0.51514316
vt 0.4513974 0.37703055
vt 0.55043393 0.37703055
vt 0.5353334 0.51514316
vt 0.48336902 0.55818594
vt 0.531452 0.55818594
vt 0.53031343 0.57170904
vt 0.48577812 0.57170904
vt 0.5261663 0.62551796
vt 0.49539182 0.62551796
vt 0.5222432 0.63728446
vt 0.49771726 0.63728446
vt 0.5175486 0.74681383
vt 0.53031343 0.57170904
vt 0.5052108 0.62551796
vt 0.5261663 0.62551796
vt 0.4958959 0.57170904
vt 0.49491215 0.5649111
vt 0.4937243 0.558186
vt 0.531452 0.558186
vt 0.4862637 0.51514316
vt 0.5353334 0.51514316
vt 0.46402606 0.37703055
vt 0.48626757 0.506408
vt 0.5361689 0.506408
vt 0.55043393 0.37703055
vt 0.52224326 0.54386336
vt 0.5261663 0.53236556
vt 0.5052108 0.5287614
vt 0.5061394 0.5408733
vt 0.5058934 0.53804505
vt 0.4862637 0.51545507
vt 0.5353334 0.5207844
vt 0.48632523 0.50602746
vt 0.48626757 0.49967116
vt 0.5361689 0.5040417
vt 0.44460812 0.506408
vt 0.42932755 0.37703055
vt 0.55307084 0.37703055
vt 0.4509644 0.5102475
vt 0.46039203 0.51514316
vt 0.46487778 0.558186
vt 0.4653612 0.5649111
vt 0.46797597 0.57170904
vt 0.47369835 0.62551796
vt 0.48298204 0.6343785
vt 0.48581028 0.63728446
vt 0.4921192 0.7072895
vt 0.5178958 0.7181857
vt 0.52995145 0.7255307
vt 0.57241356 0.74681383
vt 0.56391585 0.51514316
vt 0.56894475 0.63728446
vt 0.56670344 0.55818594
vt 0.56752115 0.57170904
vt 0.57049966 0.62551796
vn 0.18225843 -0.9816217 0.056575015
vn 0.18225843 -0.9816217 0.056575015
vn 0.18225843 -0.9816217 0.056575015
vn -0 0 -1
vn -0 0 -1
vn -0 0 -1
vn -0 0 -1
vn 0.99406403 -0.0005172617 0.108795874
vn 0.99406403 -0.0005172617 0.108795874
vn 0.99406403 -0.0005172617 0.108795874
vn 0.9947872 -0.0003312239 0.10197167
vn 0.9950997 -0.00024688314 0.09887651
vn 0.9961844 0 0.087273106
vn 0.9962314 0 0.086736046
vn 0.99677557 0 0.0802399
vn 0.9967319 0 0.08078114
vn 0.9807601 0 0.19521712
vn 0.98743236 0 0.15804242
vn 0.9820724 -0.0033619164 0.18847436
vn 0.97696567 -0.0018111691 0.213389
vn 0.99863017 -0.004527904 0.052126884
vn 0.99863017 -0.004527904 0.052126884
vn 0.99883527 -0.008941634 0.04741624
vn 0.9989825 -0.012866294 0.04322556
vn -0 0.997389 -0.07221614
vn -0 0.9969312 -0.078282095
vn -0 0.9969312 -0.078282095
vn -0 0.997413 -0.07188492
vn -0 0.99803036 -0.0627328
vn -0 0.998038 -0.06261166
vn -0 0.9983198 -0.057944007
vn -0 0.9983108 -0.058099877
vn -0 0.999681 0.025255794
vn -0 0.99963653 0.026958317
vn -0 0.9982882 0.058485113
vn -0 0.99823004 0.059472084
vn -0 0.99949884 -0.03165459
vn 0.15655598 -0.97197986 0.17534359
vn 0.16649012 -0.983053 0.07673101
vn 0.16649012 -0.983053 0.07673101
vn 0.15559496 -0.9705237 0.18404864
vn 0.14574707 -0.95265245 0.2668542
vn 0.12559494 -0.97800964 0.16650218
vn 0.127029 -0.97661066 0.17347962
vn 0.108617805 -0.9903923 0.08558814
vn 0.108617805 -0.9903923 0.08558814
vn 0.082805775 -0.9910862 0.10436154
vn 0.082805775 -0.9910862 0.10436154
vn 0.082805775 -0.9910862 0.10436154
vn 0.082805775 -0.9910862 0.10436154
vn 0.12017728 -0.6928312 0.7110149
vn 0.12017728 -0.6928312 0.7110149
vn 0.12017728 -0.6928312 0.7110149
vn 0.12017728 -0.6928312 0.7110149
vn 0.12017728 -0.6928312 0.7110149
vn 0.049027905 -0.47167203 0.88041
vn 0.049027905 -0.47167203 0.88041
vn 0.049027905 -0.47167203 0.88041
vn 0.049027905 -0.47167203 0.88041
vn 0.049027905 -0.47167203 0.88041
vn -0.9785937 -0.09952594 0.18013601
vn -0.9785937 -0.09952594 0.18013601
vn -0.9785937 -0.09952594 0.18013601
vn -0.9785937 -0.09952594 0.18013601
vn -0.9785937 -0.09952594 0.18013601
vn -0.9785937 -0.09952594 0.18013601
vn -0.9785937 -0.09952594 0.18013601
vn -0.9785937 -0.09952594 0.18013601
vn -0.9785937 -0.09952594 0.18013601
vn -0.9785937 -0.09952594 0.18013601
vn -0.9785937 -0.09952594 0.18013601
vn -0.9785937 -0.09952594 0.18013601
vn -0.9785937 -0.09952594 0.18013601
vn -0.9785937 -0.09952594 0.18013601
vn -0.9785937 -0.09952594 0.18013601
vn -0.9785937 -0.09952594 0.18013601
vn -0.9785937 -0.09952594 0.18013601
vn -0.9785937 -0.09952594 0.18013601
vn -0.9785937 -0.09952594 0.18013601
vn -0.9785937 -0.09952594 0.18013601
g FX_MESH_EN0021_barrier_ice_05_0
f 3/3/3 2/2/2 1/1/1
f 6/6/6 5/5/5 4/4/4
f 7/7/7 6/6/6 4/4/4
f 10/10/10 9/9/9 8/8/8
f 8/8/8 11/11/11 10/10/10
f 8/8/8 12/12/12 11/11/11
f 13/13/13 11/11/11 12/12/12
f 14/14/14 13/13/13 12/12/12
f 13/13/13 14/14/14 15/15/15
f 16/16/16 13/13/13 15/15/15
f 16/16/16 15/15/15 17/17/17
f 18/18/18 16/16/16 17/17/17
f 17/17/17 19/19/19 18/18/18
f 19/19/19 20/20/20 18/18/18
f 21/21/21 20/20/20 19/19/19
f 19/19/19 22/22/22 21/21/21
f 19/19/19 23/23/23 22/22/22
f 24/24/24 23/23/23 19/19/19
f 27/27/27 26/26/26 25/25/25
f 28/28/28 27/27/27 25/25/25
f 28/28/28 25/25/25 29/29/29
f 30/30/30 28/28/28 29/29/29
f 30/30/30 29/29/29 31/31/31
f 29/29/29 32/32/32 31/31/31
f 31/31/31 32/32/32 33/33/33
f 32/32/32 34/34/34 33/33/33
f 33/33/33 34/34/34 35/35/35
f 34/34/34 36/36/36 35/35/35
f 36/36/36 37/37/37 35/35/35
f 40/40/40 39/39/39 38/38/38
f 39/39/39 41/41/41 38/38/38
f 38/38/38 41/41/41 42/42/42
f 38/38/38 42/42/42 43/43/43
f 43/43/43 44/44/44 38/38/38
f 44/44/44 43/43/43 45/45/45
f 46/46/46 44/44/44 45/45/45
f 49/49/49 48/48/48 47/47/47
f 50/50/50 49/49/49 47/47/47
f 53/53/53 52/52/52 51/51/51
f 51/51/51 54/54/54 53/53/53
f 54/54/54 55/55/55 53/53/53
f 58/58/58 57/57/57 56/56/56
f 57/57/57 58/58/58 59/59/59
f 59/59/59 60/60/60 57/57/57
f 63/63/63 62/62/62 61/61/61
f 61/61/61 64/64/64 63/63/63
f 64/64/64 65/65/65 63/63/63
f 65/65/65 66/66/66 63/63/63
f 66/66/66 67/67/67 63/63/63
f 67/67/67 68/68/68 63/63/63
f 68/68/68 69/69/69 63/63/63
f 69/69/69 70/70/70 63/63/63
f 70/70/70 71/71/71 63/63/63
f 71/71/71 72/72/72 63/63/63
f 72/72/72 73/73/73 63/63/63
f 73/73/73 74/74/74 63/63/63
f 74/74/74 75/75/75 63/63/63
f 75/75/75 76/76/76 63/63/63
f 75/75/75 77/77/77 76/76/76
f 77/77/77 78/78/78 76/76/76
f 77/77/77 79/79/79 78/78/78
f 79/79/79 77/77/77 80/80/80
