g FX_MESH_EN0021_barrier_ice_09
v 0.78357375 -2.4238186 1.0028311
v -0.43661392 -2.4605143 0.37118354
v -0.4351473 -1.2663292 0.96890914
v 0.77217615 -1.2481613 1.2634888
v 0.7760733 -2.0227282 1.1988337
v -0.009962499 -1.2453249 1.1919214
v 0.7772235 -2.0623214 1.1797504
v 0.78357375 -2.4238186 1.0028311
v -0.4351473 -1.2663292 0.96890914
v -0.4281019 -1.2372007 0.986951
v -0.4351263 -1.237064 0.9834999
v 0.7772235 -2.0623214 1.1797504
v -0.4281019 -1.2372007 0.986951
v -0.009962499 -1.2453249 1.1919214
v 0.7760733 -2.0227282 1.1988337
v -0.46786475 -2.4871469 -0.08724564
v 0.8535924 -2.4871469 -0.08724564
v 0.85359263 -1.1946248 -0.08724564
v -0.5127944 -1.1946248 -0.08724564
v -0.43661392 -2.4605143 0.37118354
v 0.78357375 -2.4238186 1.0028311
v 0.8535924 -2.4871469 -0.08724564
v -0.46786475 -2.4871469 -0.08724564
v 0.85359263 -1.1946248 -0.08724564
v 0.8535924 -2.4871469 -0.08724564
v 0.78357375 -2.4238186 1.0028311
v 0.7772235 -2.0623214 1.1797504
v 0.7760733 -2.0227282 1.1988337
v 0.77217615 -1.2481613 1.2634888
v -0.4351263 -1.237064 0.9834999
v -0.5127944 -1.1946248 -0.08724564
v 0.85359263 -1.1946248 -0.08724564
v 0.77217615 -1.2481613 1.2634888
v -0.4281019 -1.2372007 0.986951
v -0.009962499 -1.2453249 1.1919214
v -0.43661392 -2.4605143 0.37118354
v -0.46786475 -2.4871469 -0.08724564
v -0.5127944 -1.1946248 -0.08724564
v -0.4351473 -1.2663292 0.96890914
v -0.4351263 -1.237064 0.9834999
vt 0.64045113 0.43687287
vt 0.38891143 0.42930812
vt 0.38921377 0.67548746
vt 0.6381016 0.6792328
vt 0.638905 0.519557
vt 0.47686493 0.6798175
vt 0.6391421 0.511395
vt 0.64045113 0.43687287
vt 0.38921377 0.67548746
vt 0.39066616 0.68149227
vt 0.3892181 0.68152046
vt 0.6391421 0.511395
vt 0.39066616 0.68149227
vt 0.47686493 0.6798175
vt 0.638905 0.519557
vt 0.38246912 0.42381787
vt 0.6548854 0.42381787
vt 0.6548855 0.69026923
vt 0.3732069 0.69026923
vt 0.38891143 0.50297654
vt 0.64045113 0.6331897
vt 0.6548854 0.40847212
vt 0.38246912 0.40847212
vt 0.63520616 0.40847212
vt 0.3687548 0.40847212
vt 0.38180983 0.6331897
vt 0.4563319 0.66966134
vt 0.464494 0.6735953
vt 0.6241697 0.68692386
vt 0.3892181 0.6292046
vt 0.3732069 0.40847212
vt 0.6548855 0.40847212
vt 0.6381016 0.68692386
vt 0.39066616 0.629916
vt 0.47686493 0.67217034
vt 0.3742451 0.50297654
vt 0.3687548 0.40847212
vt 0.63520616 0.40847212
vt 0.62042445 0.62619674
vt 0.6264574 0.6292046
vn -0.41004747 -0.4078307 0.8158034
vn -0.41004747 -0.4078307 0.8158034
vn -0.41004747 -0.4078307 0.8158034
vn -0.09110437 -0.08329252 0.99235195
vn -0.09110437 -0.08329252 0.99235195
vn -0.09110437 -0.08329252 0.99235195
vn -0.40917906 -0.4068904 0.8167084
vn -0.40917906 -0.4068904 0.8167084
vn -0.40917906 -0.4068904 0.8167084
vn -0.40917906 -0.4068904 0.8167084
vn -0.40917906 -0.4068904 0.8167084
vn -0.408617 -0.40588528 0.8174897
vn -0.408617 -0.40588528 0.8174897
vn -0.408617 -0.40588528 0.8174897
vn -0.408617 -0.40588528 0.8174897
vn -0 0 -1
vn -0 0 -1
vn -0 0 -1
vn -0 0 -1
vn -0 -0.99831676 0.05799747
vn -0 -0.99831676 0.05799747
vn -0 -0.99831676 0.05799747
vn -0 -0.99831676 0.05799747
vn 0.9981516 -0.0017392619 0.06074732
vn 0.9981516 -0.0017392619 0.06074732
vn 0.9981516 -0.0017392619 0.06074732
vn 0.9981516 -0.0017392619 0.06074732
vn 0.9981516 -0.0017392619 0.06074732
vn 0.9981516 -0.0017392619 0.06074732
vn -0 0.9992155 0.039604034
vn -0 0.9992155 0.039604034
vn -0 0.9992155 0.039604034
vn -0 0.9992155 0.039604034
vn -0 0.9992155 0.039604034
vn -0 0.9992155 0.039604034
vn -0.9969068 -0.034410913 0.070658006
vn -0.9969068 -0.034410913 0.070658006
vn -0.9969068 -0.034410913 0.070658006
vn -0.9969068 -0.034410913 0.070658006
vn -0.9969068 -0.034410913 0.070658006
g FX_MESH_EN0021_barrier_ice_09_0
f 3/3/3 2/2/2 1/1/1
f 6/6/6 5/5/5 4/4/4
f 9/9/9 8/8/8 7/7/7
f 7/7/7 10/10/10 9/9/9
f 10/10/10 11/11/11 9/9/9
f 14/14/14 13/13/13 12/12/12
f 15/15/15 14/14/14 12/12/12
f 18/18/18 17/17/17 16/16/16
f 19/19/19 18/18/18 16/16/16
f 22/22/22 21/21/21 20/20/20
f 23/23/23 22/22/22 20/20/20
f 26/26/26 25/25/25 24/24/24
f 24/24/24 27/27/27 26/26/26
f 24/24/24 28/28/28 27/27/27
f 24/24/24 29/29/29 28/28/28
f 32/32/32 31/31/31 30/30/30
f 30/30/30 33/33/33 32/32/32
f 30/30/30 34/34/34 33/33/33
f 34/34/34 35/35/35 33/33/33
f 38/38/38 37/37/37 36/36/36
f 36/36/36 39/39/39 38/38/38
f 39/39/39 40/40/40 38/38/38
