g FX_MESH_EN0021_barrier_ice_04
v 0.7199844 -2.1557 1.1182158
v 0.6734571 -2.170148 0.8571956
v 0.73124605 -2.1632426 1.1752936
v 0.66179806 -2.1741147 0.79159665
v 0.6247796 -2.1876369 0.58280134
v 0.8289694 -2.146111 1.7162234
v 0.50684375 -2.2402446 -0.087165594
v 0.8308401 -2.355605 1.6106321
v 0.83018744 -2.414994 1.5742643
v 0.8330097 -2.5355282 1.5230064
v 0.7722251 -2.5668535 1.1752937
v 0.77098346 -2.5808988 1.1608664
v 0.76763296 -2.6255975 1.1182158
v 0.7223648 -2.6533618 0.8571956
v 0.717623 -2.665911 0.824579
v 0.7117884 -2.668283 0.7915969
v 0.6755324 -2.6900449 0.58280134
v 0.675766 -2.7354643 0.5592195
v 0.6754402 -2.7665763 0.5404283
v 0.5673405 -2.8407035 -0.087165594
v 0.24261609 -2.8670783 -0.087165594
v 0.5673405 -2.8407035 -0.087165594
v 0.50684375 -2.2402446 -0.087165594
v 0.4074933 -2.2402446 -0.087165594
v 0.09693667 -2.8552458 -0.087165594
v 0.09693667 -2.8552458 -0.087165594
v -0.0673607 -2.7774825 0.5404283
v 0.24177822 -2.8045578 0.5404283
v 0.24261609 -2.8670783 -0.087165594
v 0.5673405 -2.8407035 -0.087165594
v 0.6754402 -2.7665763 0.5404283
v 0.23102233 -2.1913557 0.53300685
v 0.4074933 -2.2402446 -0.087165594
v 0.50684375 -2.2402446 -0.087165594
v 0.6247796 -2.1876369 0.58280134
v 0.21675059 -2.1876369 0.58280134
v 0.15586084 -2.1741147 0.7915968
v 0.66179806 -2.1741147 0.79159665
v 0.6734571 -2.170148 0.8571956
v 0.13931653 -2.1707096 0.8479093
v 0.1895127 -2.1701481 0.85719573
v 0.1908569 -2.1557 1.1182158
v 0.7199844 -2.1557 1.1182158
v 0.22272626 -2.1632426 1.1752934
v 0.73124605 -2.1632426 1.1752936
v 0.22357923 -2.1269443 2.3214135
v 0.8289694 -2.146111 1.7162234
v 0.80302995 -2.1269443 2.3214138
v 0.7657614 -2.1628375 2.360576
v 0.7657616 -2.472717 2.3605766
v 0.26016942 -2.472717 2.3605766
v 0.26016936 -2.1628375 2.3605764
v -0.031716526 -2.679678 0.58280134
v -0.08765197 -2.6563315 0.7915968
v 0.36587688 -2.7066987 0.7915969
v 0.36963505 -2.723268 0.58280134
v 0.6755324 -2.6900449 0.58280134
v 0.7117884 -2.668283 0.7915969
v 0.717623 -2.665911 0.824579
v 0.54040736 -2.683887 0.8571956
v 0.7223648 -2.6533618 0.8571956
v 0.76763296 -2.6255975 1.1182158
v 0.5310212 -2.6662927 1.1182159
v 0.1908569 -2.6077874 1.1182159
v 0.1895127 -2.625021 0.8571956
v -0.08551103 -2.6426375 0.8063156
v 0.13931653 -2.1707096 0.8479093
v 0.1895127 -2.1701481 0.85719573
v 0.1895127 -2.625021 0.8571956
v 0.1908569 -2.6077874 1.1182159
v 0.1895127 -2.625021 0.8571956
v 0.1895127 -2.1701481 0.85719573
v 0.1908569 -2.1557 1.1182158
v 0.22272635 -2.552013 1.1752937
v 0.22272626 -2.1632426 1.1752934
v 0.22327414 -2.524845 1.7483538
v 0.22357917 -2.5097148 2.3214138
v 0.22357923 -2.1269443 2.3214135
v -0.0673607 -2.7774825 0.5404283
v 0.09693667 -2.8552458 -0.087165594
v 0.4074933 -2.2402446 -0.087165594
v -0.04215908 -2.709094 0.56920016
v -0.031716526 -2.679678 0.58280134
v -0.08765197 -2.6563315 0.7915968
v -0.08551103 -2.6426375 0.8063156
v 0.13931653 -2.1707096 0.8479093
v 0.23102233 -2.1913557 0.53300685
v 0.21675059 -2.1876369 0.58280134
v 0.15586084 -2.1741147 0.7915968
v 0.8330097 -2.5355282 1.5230064
v 0.7722251 -2.5668535 1.1752937
v 0.53744054 -2.6104465 1.1752936
v 0.8206022 -2.524845 1.7483538
v 0.22327414 -2.524845 1.7483538
v 0.22272635 -2.552013 1.1752937
v 0.81006855 -2.5430684 2.034884
v 0.80303013 -2.5097148 2.3214142
v 0.22357917 -2.5097148 2.3214138
v 0.83018744 -2.414994 1.5742643
v 0.8330097 -2.5355282 1.5230064
v 0.8206022 -2.524845 1.7483538
v 0.8308401 -2.355605 1.6106321
v 0.81006855 -2.5430684 2.034884
v 0.80303013 -2.5097148 2.3214142
v 0.80302995 -2.1269443 2.3214138
v 0.8289694 -2.146111 1.7162234
v 0.5310212 -2.6662927 1.1182159
v 0.1908569 -2.6077874 1.1182159
v 0.22272635 -2.552013 1.1752937
v 0.53744054 -2.6104465 1.1752936
v 0.24177822 -2.8045578 0.5404283
v -0.0673607 -2.7774825 0.5404283
v -0.04215908 -2.709094 0.56920016
v -0.031716526 -2.679678 0.58280134
v 0.36963505 -2.723268 0.58280134
v 0.6754402 -2.7665763 0.5404283
v 0.6755324 -2.6900449 0.58280134
v 0.675766 -2.7354643 0.5592195
v 0.80302995 -2.1269443 2.3214138
v 0.7657614 -2.1628375 2.360576
v 0.26016936 -2.1628375 2.3605764
v 0.22357923 -2.1269443 2.3214135
v 0.22357923 -2.1269443 2.3214135
v 0.26016936 -2.1628375 2.3605764
v 0.26016942 -2.472717 2.3605766
v 0.22357917 -2.5097148 2.3214138
v 0.22357917 -2.5097148 2.3214138
v 0.26016942 -2.472717 2.3605766
v 0.7657616 -2.472717 2.3605766
v 0.80303013 -2.5097148 2.3214142
v 0.80303013 -2.5097148 2.3214142
v 0.7657616 -2.472717 2.3605766
v 0.7657614 -2.1628375 2.360576
v 0.80302995 -2.1269443 2.3214138
v 0.1895127 -2.625021 0.8571956
v 0.54040736 -2.683887 0.8571956
v 0.36587688 -2.7066987 0.7915969
v -0.08765197 -2.6563315 0.7915968
v -0.08551103 -2.6426375 0.8063156
v 0.53744054 -2.6104465 1.1752936
v 0.7722251 -2.5668535 1.1752937
v 0.77098346 -2.5808988 1.1608664
v 0.76763296 -2.6255975 1.1182158
v 0.5310212 -2.6662927 1.1182159
vt 0.5803903 0.55468607
vt 0.57741183 0.50087714
vt 0.57883537 0.56645256
vt 0.5765941 0.48735404
vt 0.5738065 0.44431123
vt 0.582367 0.6779644
vt 0.5629615 0.30619866
vt 0.53918016 0.6561969
vt 0.5269372 0.6486997
vt 0.50208926 0.638133
vt 0.4956316 0.56645256
vt 0.49273622 0.5634784
vt 0.48352164 0.55468607
vt 0.47779807 0.50087714
vt 0.47521108 0.49415332
vt 0.4747221 0.4873541
vt 0.4702359 0.44431123
vt 0.46087277 0.43944985
vt 0.45445907 0.43557608
vt 0.43917787 0.30619866
vt 0.474393 0.4888038
vt 0.54133445 0.4942409
vt 0.52886313 0.6180245
vt 0.5083822 0.6180245
vt 0.44436145 0.49124303
vt 0.44436145 0.30619866
vt 0.41049182 0.43557608
vt 0.4742203 0.43557608
vt 0.474393 0.30619866
vt 0.54133445 0.30619866
vt 0.563619 0.43557608
vt 0.47200298 0.43404615
vt 0.5083822 0.30619866
vt 0.52886313 0.30619866
vt 0.5531754 0.44431123
vt 0.4690609 0.44431123
vt 0.45650858 0.48735407
vt 0.5608067 0.48735404
vt 0.5632102 0.50087714
vt 0.453098 0.49896282
vt 0.46344584 0.5008772
vt 0.46372294 0.55468607
vt 0.5728017 0.55468607
vt 0.47029278 0.5664525
vt 0.5751233 0.56645256
vt 0.4704686 0.80272335
vt 0.59526885 0.6779644
vt 0.5899215 0.8027234
vt 0.5822386 0.6339819
vt 0.5822386 0.5701007
vt 0.4780116 0.5701007
vt 0.4780116 0.6339819
vt 0.4178398 0.44431123
vt 0.40630877 0.48735407
vt 0.49980304 0.4873541
vt 0.50057775 0.44431123
vt 0.56363803 0.44431123
vt 0.57111216 0.4873541
vt 0.5723149 0.49415332
vt 0.5357822 0.50087714
vt 0.57329243 0.50087714
vt 0.5826244 0.55468607
vt 0.5338473 0.55468607
vt 0.46372294 0.55468607
vt 0.46344584 0.50087714
vt 0.40675014 0.5350719
vt 0.453098 0.6323591
vt 0.46344584 0.63247484
vt 0.46344584 0.53870356
vt 0.48719317 0.55468607
vt 0.4836405 0.50087714
vt 0.5774118 0.5008772
vt 0.5803903 0.55468607
vt 0.498691 0.56645256
vt 0.57883537 0.5664525
vt 0.5042916 0.684588
vt 0.50741065 0.8027234
vt 0.5863182 0.80272335
vt 0.45221078 0.43557608
vt 0.43618 0.30619866
vt 0.5629615 0.30619866
vt 0.46630895 0.44150737
vt 0.47237304 0.44431123
vt 0.47718588 0.48735407
vt 0.48000887 0.49038833
vt 0.5772961 0.49896282
vt 0.5730399 0.43404615
vt 0.5738065 0.44431123
vt 0.5765941 0.48735407
vt 0.5961017 0.638133
vt 0.5835711 0.56645256
vt 0.5351706 0.56645256
vt 0.59354395 0.684588
vt 0.4704057 0.684588
vt 0.47029278 0.56645256
vt 0.59137243 0.74365574
vt 0.5899215 0.80272347
vt 0.47046858 0.8027234
vt 0.5269372 0.6486997
vt 0.50208926 0.638133
vt 0.5042916 0.684588
vt 0.53918016 0.6561969
vt 0.5005349 0.74365574
vt 0.50741065 0.80272347
vt 0.5863182 0.8027234
vt 0.582367 0.6779644
vt 0.5338473 0.5301954
vt 0.46372294 0.54225624
vt 0.47029278 0.553754
vt 0.5351706 0.541708
vt 0.4742203 0.5016923
vt 0.41049182 0.5072738
vt 0.41568708 0.52137196
vt 0.4178398 0.5274361
vt 0.50057775 0.51845
vt 0.563619 0.5095221
vt 0.56363803 0.52529895
vt 0.5636862 0.5159358
vt 0.5899215 0.8027234
vt 0.5822386 0.8107966
vt 0.4780116 0.8107967
vt 0.4704686 0.80272335
vt 0.5863182 0.80272335
vt 0.5789189 0.8107967
vt 0.51503766 0.8107968
vt 0.50741065 0.8027234
vt 0.47046858 0.8027234
vt 0.4780116 0.8107968
vt 0.5822386 0.8107968
vt 0.5899215 0.80272347
vt 0.50741065 0.80272347
vt 0.51503766 0.8107968
vt 0.5789189 0.8107966
vt 0.5863182 0.8027234
vt 0.46344584 0.50087714
vt 0.5357822 0.50087714
vt 0.49980304 0.4873541
vt 0.40630877 0.48735407
vt 0.40675014 0.49038833
vt 0.5351706 0.56645256
vt 0.5835711 0.56645256
vt 0.5833151 0.5634784
vt 0.5826244 0.55468607
vt 0.5338473 0.55468607
vn 0.9786557 0.09897332 -0.18010381
vn 0.9786557 0.09897332 -0.18010381
vn 0.9786557 0.09897332 -0.18010381
vn 0.9786557 0.09897332 -0.18010381
vn 0.9786557 0.09897332 -0.18010381
vn 0.9786557 0.09897332 -0.18010381
vn 0.9786557 0.09897332 -0.18010381
vn 0.9786557 0.09897332 -0.18010381
vn 0.9786557 0.09897332 -0.18010381
vn 0.9786557 0.09897332 -0.18010381
vn 0.9786557 0.09897332 -0.18010381
vn 0.9786557 0.09897332 -0.18010381
vn 0.9786557 0.09897332 -0.18010381
vn 0.9786557 0.09897332 -0.18010381
vn 0.9786557 0.09897332 -0.18010381
vn 0.9786557 0.09897332 -0.18010381
vn 0.9786557 0.09897332 -0.18010381
vn 0.9786557 0.09897332 -0.18010381
vn 0.9786557 0.09897332 -0.18010381
vn 0.9786557 0.09897332 -0.18010381
vn -0 0 -1
vn -0 0 -1
vn -0 0 -1
vn -0 0 -1
vn -0 0 -1
vn -0.08481022 -0.9914021 0.099644326
vn -0.08481022 -0.9914021 0.099644326
vn -0.00041452813 -0.994932 0.10054908
vn -0.0002718283 -0.994932 0.10054999
vn 0.08412553 -0.9913502 0.100736015
vn 0.08412553 -0.9913502 0.100736015
vn 0.00037567387 0.99693954 -0.07817592
vn 0.00037567387 0.99693954 -0.07817592
vn 0.00037567387 0.99693954 -0.07817592
vn 0.00016698944 0.9975011 -0.070651054
vn 0.00015430483 0.9975333 -0.07019354
vn -0 0.99806947 -0.06210878
vn -0 0.99806017 -0.062256426
vn -0 0.9983438 -0.05752953
vn -0 0.9981766 -0.06036189
vn -0 0.9982816 -0.058598854
vn -0 0.9998011 0.019943936
vn -0 0.9988003 0.048969116
vn -0 0.9981274 0.06116881
vn -0 0.9991942 0.040138163
vn -0 0.99949884 -0.03165452
vn -0 0.99949884 -0.03165452
vn -0 0.99949884 -0.03165452
vn -0 0 1
vn -0 0 1
vn -0 0 1
vn -0 0 1
vn -0.108906284 -0.9908963 0.079145916
vn -0.108906284 -0.9908963 0.079145916
vn 0.011064791 -0.9964366 0.083616085
vn 0.0012350198 -0.99668854 0.08130444
vn 0.10887779 -0.99062926 0.08245817
vn 0.11466976 -0.9889164 0.094314106
vn 0.1192478 -0.98743385 0.1037029
vn 0.058818646 -0.99456114 0.08595634
vn 0.14622314 -0.98541415 0.08704958
vn 0.16728216 -0.98313373 0.07392349
vn -0.0036985315 -0.9975854 0.06935118
vn -0.16711137 -0.9839188 0.06306762
vn -0.16711137 -0.9839188 0.06306762
vn -0.1819158 0 0.98331404
vn -0.1819158 0 0.98331404
vn -0.1819158 0 0.98331404
vn -0.1819158 0 0.98331404
vn -0.9842255 0 0.17691815
vn -0.99998677 0 0.005149744
vn -0.99998677 0 0.005149744
vn -0.9684088 0 0.2493679
vn -0.95340294 -6.553382E-05 0.3017
vn -0.96598613 -7.980146E-05 0.25859407
vn -0.99999976 -0.00015859379 0.0007500145
vn -0.99999976 -0.00015859379 0.0007500145
vn -0.99999976 -0.00015859379 0.0007500145
vn -0.8574291 0.43297747 -0.27811107
vn -0.8574291 0.43297747 -0.27811107
vn -0.8574291 0.43297747 -0.27811107
vn -0.8574291 0.43297747 -0.27811107
vn -0.8574291 0.43297747 -0.27811107
vn -0.8574291 0.43297747 -0.27811107
vn -0.8574291 0.43297747 -0.27811107
vn -0.8574291 0.43297747 -0.27811107
vn -0.8574291 0.43297747 -0.27811107
vn -0.8574291 0.43297747 -0.27811107
vn -0.8574291 0.43297747 -0.27811107
vn 0.18226 -0.98162144 0.056573316
vn 0.18226 -0.98162144 0.056573316
vn 0.023995977 -0.9953002 0.0938175
vn 0.0075124134 -0.99979955 0.018560607
vn -0.042281654 -0.9968225 0.06750784
vn -0.06352624 -0.9915298 0.11328367
vn -0.018643467 -0.99975055 0.012299057
vn -0.0293677 -0.9979954 0.05605978
vn -0.0293677 -0.9979954 0.05605978
vn 0.9989134 -0.02234931 0.040897034
vn 0.9989134 -0.02234931 0.040897034
vn 0.9989134 -0.02234931 0.040897034
vn 0.9990675 -0.016447728 0.039920222
vn 0.99917233 -0.011320573 0.03907051
vn 0.9991978 -0.009831497 0.038823538
vn 0.9991978 -0.009831497 0.038823538
vn 0.9991978 -0.009831497 0.038823538
vn -0.00464724 -0.70246977 0.71169835
vn -0.12296828 -0.68864256 0.714598
vn -0.12296828 -0.68864256 0.714598
vn 0.008185198 -0.70336986 0.7107769
vn -0.024793176 -0.41724402 0.90845627
vn -0.040678836 -0.39730123 0.91678613
vn -0.040678836 -0.39730123 0.91678613
vn -0.040678836 -0.39730123 0.91678613
vn 0.027702268 -0.48085865 0.87636036
vn 0.046463892 -0.5027418 0.8631871
vn 0.046463892 -0.5027418 0.8631871
vn 0.046463892 -0.5027418 0.8631871
vn -0 0.7372102 0.67566353
vn -0 0.7372102 0.67566353
vn -0 0.7372102 0.67566353
vn -0 0.7372102 0.67566353
vn -0.7307031 0 0.68269527
vn -0.7307031 0 0.68269527
vn -0.7307031 0 0.68269527
vn -0.7307031 0 0.68269527
vn -0 -0.7269145 0.68672794
vn -0 -0.7269145 0.68672794
vn -0 -0.7269145 0.68672794
vn -0 -0.7269145 0.68672794
vn 0.7244041 0 0.6893757
vn 0.7244041 0 0.6893757
vn 0.7244041 0 0.6893757
vn 0.7244041 0 0.6893757
vn -0.0999153 -0.74523276 0.6592763
vn -0.0999153 -0.74523276 0.6592763
vn -0.0999153 -0.74523276 0.6592763
vn -0.0999153 -0.74523276 0.6592763
vn -0.0999153 -0.74523276 0.6592763
vn 0.008185198 -0.70336986 0.7107769
vn 0.12748268 -0.70611817 0.6965238
vn 0.12748268 -0.70611817 0.6965238
vn 0.12748268 -0.70611817 0.6965238
vn -0.00464724 -0.70246977 0.71169835
g FX_MESH_EN0021_barrier_ice_04_0
f 3/3/3 2/2/2 1/1/1
f 4/4/4 2/2/2 3/3/3
f 5/5/5 4/4/4 3/3/3
f 5/5/5 3/3/3 6/6/6
f 7/7/7 5/5/5 6/6/6
f 7/7/7 6/6/6 8/8/8
f 7/7/7 8/8/8 9/9/9
f 7/7/7 9/9/9 10/10/10
f 7/7/7 10/10/10 11/11/11
f 7/7/7 11/11/11 12/12/12
f 7/7/7 12/12/12 13/13/13
f 7/7/7 13/13/13 14/14/14
f 7/7/7 14/14/14 15/15/15
f 7/7/7 15/15/15 16/16/16
f 7/7/7 16/16/16 17/17/17
f 7/7/7 17/17/17 18/18/18
f 7/7/7 18/18/18 19/19/19
f 19/19/19 20/20/20 7/7/7
f 23/23/23 22/22/22 21/21/21
f 21/21/21 24/24/24 23/23/23
f 21/21/21 25/25/25 24/24/24
f 28/28/28 27/27/27 26/26/26
f 29/29/29 28/28/28 26/26/26
f 29/29/29 30/30/30 28/28/28
f 30/30/30 31/31/31 28/28/28
f 34/34/34 33/33/33 32/32/32
f 32/32/32 35/35/35 34/34/34
f 32/32/32 36/36/36 35/35/35
f 36/36/36 37/37/37 35/35/35
f 37/37/37 38/38/38 35/35/35
f 39/39/39 38/38/38 37/37/37
f 37/37/37 40/40/40 39/39/39
f 40/40/40 41/41/41 39/39/39
f 41/41/41 42/42/42 39/39/39
f 42/42/42 43/43/43 39/39/39
f 43/43/43 42/42/42 44/44/44
f 45/45/45 43/43/43 44/44/44
f 45/45/45 44/44/44 46/46/46
f 46/46/46 47/47/47 45/45/45
f 46/46/46 48/48/48 47/47/47
f 51/51/51 50/50/50 49/49/49
f 52/52/52 51/51/51 49/49/49
f 55/55/55 54/54/54 53/53/53
f 56/56/56 55/55/55 53/53/53
f 56/56/56 57/57/57 55/55/55
f 57/57/57 58/58/58 55/55/55
f 55/55/55 58/58/58 59/59/59
f 59/59/59 60/60/60 55/55/55
f 59/59/59 61/61/61 60/60/60
f 60/60/60 61/61/61 62/62/62
f 63/63/63 60/60/60 62/62/62
f 60/60/60 63/63/63 64/64/64
f 65/65/65 60/60/60 64/64/64
f 68/68/68 67/67/67 66/66/66
f 69/69/69 68/68/68 66/66/66
f 72/72/72 71/71/71 70/70/70
f 73/73/73 72/72/72 70/70/70
f 70/70/70 74/74/74 73/73/73
f 74/74/74 75/75/75 73/73/73
f 75/75/75 74/74/74 76/76/76
f 76/76/76 77/77/77 75/75/75
f 77/77/77 78/78/78 75/75/75
f 81/81/81 80/80/80 79/79/79
f 79/79/79 82/82/82 81/81/81
f 82/82/82 83/83/83 81/81/81
f 83/83/83 84/84/84 81/81/81
f 84/84/84 85/85/85 81/81/81
f 85/85/85 86/86/86 81/81/81
f 86/86/86 87/87/87 81/81/81
f 86/86/86 88/88/88 87/87/87
f 86/86/86 89/89/89 88/88/88
f 92/92/92 91/91/91 90/90/90
f 93/93/93 92/92/92 90/90/90
f 92/92/92 93/93/93 94/94/94
f 95/95/95 92/92/92 94/94/94
f 94/94/94 93/93/93 96/96/96
f 94/94/94 96/96/96 97/97/97
f 98/98/98 94/94/94 97/97/97
f 101/101/101 100/100/100 99/99/99
f 101/101/101 99/99/99 102/102/102
f 102/102/102 103/103/103 101/101/101
f 104/104/104 103/103/103 102/102/102
f 102/102/102 105/105/105 104/104/104
f 102/102/102 106/106/106 105/105/105
f 109/109/109 108/108/108 107/107/107
f 110/110/110 109/109/109 107/107/107
f 113/113/113 112/112/112 111/111/111
f 114/114/114 113/113/113 111/111/111
f 111/111/111 115/115/115 114/114/114
f 115/115/115 111/111/111 116/116/116
f 117/117/117 115/115/115 116/116/116
f 116/116/116 118/118/118 117/117/117
f 121/121/121 120/120/120 119/119/119
f 122/122/122 121/121/121 119/119/119
f 125/125/125 124/124/124 123/123/123
f 126/126/126 125/125/125 123/123/123
f 129/129/129 128/128/128 127/127/127
f 130/130/130 129/129/129 127/127/127
f 133/133/133 132/132/132 131/131/131
f 134/134/134 133/133/133 131/131/131
f 137/137/137 136/136/136 135/135/135
f 135/135/135 138/138/138 137/137/137
f 135/135/135 139/139/139 138/138/138
f 142/142/142 141/141/141 140/140/140
f 140/140/140 143/143/143 142/142/142
f 140/140/140 144/144/144 143/143/143
