g FX_MESH_EN0021_barrier_ice_03
v -0.59413004 2.3247364 0.76321006
v -0.70512176 2.2777226 -0.08443725
v 1.1720599 2.3499792 -0.08443725
v 1.0610683 2.3882253 0.7632101
v -0.5794612 2.3329754 0.91606855
v 1.0222942 2.4069984 1.1672614
v 1.1720598 1.6392927 -0.08443725
v 1.1720599 2.3499792 -0.08443725
v -0.70512176 2.2777226 -0.08443725
v -0.70512176 1.6392931 -0.08443725
v 1.1720598 1.6392927 -0.08443725
v -0.70512176 1.6392931 -0.08443725
v -0.59413004 1.6010063 0.76321006
v 1.0610685 1.6010063 0.7632102
v -0.576434 1.594902 0.9476147
v 1.0190332 1.5865061 1.2012417
v 1.0610685 1.6010063 0.7632102
v 1.1720599 2.3499792 -0.08443725
v 1.1720598 1.6392927 -0.08443725
v 1.0610683 2.3882253 0.7632101
v 1.0190332 1.5865061 1.2012417
v 1.0222942 2.4069984 1.1672614
v -0.70512176 1.6392931 -0.08443725
v -0.70512176 2.2777226 -0.08443725
v -0.59413004 2.3247364 0.76321006
v -0.59413004 1.6010063 0.76321006
v -0.576434 1.594902 0.9476147
v -0.5794612 2.3329754 0.91606855
v 1.0190332 1.5865061 1.2012417
v -0.576434 1.594902 0.9476147
v -0.5794612 2.3329754 0.91606855
v 1.0222942 2.4069984 1.1672614
vt 0.34493494 0.6056341
vt 0.32205415 0.43089294
vt 0.7090322 0.43089294
vt 0.68615144 0.6056341
vt 0.34795886 0.63714564
vt 0.6781582 0.6889286
vt 0.7090321 0.508423
vt 0.7090322 0.6549298
vt 0.32205415 0.64003426
vt 0.32205415 0.508423
vt 0.7090321 0.43089294
vt 0.32205415 0.43089294
vt 0.34493494 0.6056341
vt 0.68615144 0.6056341
vt 0.34858292 0.6436488
vt 0.67748594 0.69593364
vt 0.4454672 0.6056341
vt 0.5998668 0.43089294
vt 0.4533599 0.43089294
vt 0.6077512 0.6056341
vt 0.44247803 0.69593364
vt 0.6116212 0.6889286
vt 0.45335996 0.43089294
vt 0.5849712 0.43089294
vt 0.594663 0.6056341
vt 0.4454672 0.6056341
vt 0.44420883 0.6436488
vt 0.59636146 0.63714564
vt 0.67748594 0.49754107
vt 0.34858292 0.49927187
vt 0.34795886 0.6514245
vt 0.6781582 0.6666842
vn -0.038334403 0.9980051 -0.05016202
vn -0.038334403 0.9980051 -0.05016202
vn -0.038334403 0.9980051 -0.05016202
vn -0.038334403 0.9980051 -0.05016202
vn -0.038334403 0.9980051 -0.05016202
vn -0.038334403 0.9980051 -0.05016202
vn -0 0 -1
vn -0 0 -1
vn -0 0 -1
vn -0 0 -1
vn -0 -0.9989814 -0.04512209
vn -0 -0.9989814 -0.04512209
vn -0 -0.99921834 -0.039531786
vn -0 -0.99921834 -0.039531782
vn -0 -0.99945253 -0.033084996
vn -0 -0.99945253 -0.033084996
vn 0.9936778 0 0.11226989
vn 0.991536 0 0.12983228
vn 0.991536 0 0.12983228
vn 0.99368566 0 0.11219951
vn 0.995427 0 0.09552497
vn 0.995427 0 0.09552497
vn -0.9915359 0 0.12983261
vn -0.9915359 0 0.12983261
vn -0.99369663 0 0.11210272
vn -0.9936778 0 0.11226977
vn -0.99542713 0 0.0955244
vn -0.99542713 0 0.0955244
vn -0.156658 0.04151055 0.9867802
vn -0.156658 0.04151055 0.9867802
vn -0.156658 0.04151055 0.9867802
vn -0.156658 0.04151055 0.9867802
g FX_MESH_EN0021_barrier_ice_03_0
f 3/3/3 2/2/2 1/1/1
f 1/1/1 4/4/4 3/3/3
f 1/1/1 5/5/5 4/4/4
f 5/5/5 6/6/6 4/4/4
f 9/9/9 8/8/8 7/7/7
f 10/10/10 9/9/9 7/7/7
f 13/13/13 12/12/12 11/11/11
f 14/14/14 13/13/13 11/11/11
f 13/13/13 14/14/14 15/15/15
f 14/14/14 16/16/16 15/15/15
f 19/19/19 18/18/18 17/17/17
f 18/18/18 20/20/20 17/17/17
f 17/17/17 20/20/20 21/21/21
f 20/20/20 22/22/22 21/21/21
f 25/25/25 24/24/24 23/23/23
f 26/26/26 25/25/25 23/23/23
f 26/26/26 27/27/27 25/25/25
f 27/27/27 28/28/28 25/25/25
f 31/31/31 30/30/30 29/29/29
f 32/32/32 31/31/31 29/29/29
