g FX_MESH_EN0021_barrier_ice_01
v -0.4782356 2.772982 1.2944199
v -0.45767474 2.7586203 1.6149836
v -0.4782356 2.562104 1.2944199
v 0.8304352 2.887961 1.8952006
v 0.8304343 2.8662572 1.8952247
v 0.8914022 2.9093747 1.9702517
v 0.8865272 2.9128218 1.975459
v 0.8117237 2.9133596 1.9702636
v 0.8914022 2.9093747 1.9702517
v -0.23229277 2.8179433 1.6748055
v -0.22857201 2.8542225 1.7890007
v -0.26565695 2.7857294 1.6748056
v 1.0610683 2.3898706 0.7632102
v 1.1720599 2.3512359 -0.08443725
v 1.1255641 2.3494475 -0.08443725
v -0.5902399 2.3284066 0.80374897
v 1.0222878 2.4088335 1.1673274
v -0.5794091 2.3345358 0.91661286
v 1.1255641 2.3494475 -0.08443725
v -0.70512176 2.279869 -0.08443725
v -0.59413016 2.3262427 0.7632101
v -0.5902399 2.3284066 0.80374897
v 0.39540905 2.8879611 1.8952006
v -0.56623316 2.4183543 1.0539143
v -0.5516205 2.511457 1.2061882
v -0.4782356 2.562104 1.2944199
v -0.26565695 2.7857294 1.6748056
v -0.22857201 2.8542225 1.7890007
v -0.45767474 2.7586203 1.6149836
v -0.44759834 2.7668152 1.6291118
v 1.0222878 2.4088335 1.1673274
v -0.5794091 2.3345358 0.91661286
v -0.56623316 2.4183543 1.0539143
v 0.39540905 2.8879611 1.8952006
v 1.0185585 2.4329293 1.2061882
v 0.94517356 2.490878 1.29442
v 0.92370653 2.6978722 1.6291118
v 0.8397829 2.7301753 1.6748055
v 0.8304343 2.8662572 1.8952247
v 0.8117237 2.9133596 1.9702636
v 0.8914022 2.9093747 1.9702517
v 0.8865272 2.9128218 1.975459
v 1.1720599 2.3512359 -0.08443725
v 1.17206 3.1156044 -0.08443725
v -0.5296241 3.115604 -0.08443725
v 1.1255641 2.3494475 -0.08443725
v -0.70512176 2.279869 -0.08443725
v -0.70512176 2.9735842 -0.08443725
v 1.1720599 2.3512359 -0.08443725
v 1.061068 3.0383418 0.7632101
v 1.17206 3.1156044 -0.08443725
v 1.0610683 2.3898706 0.7632102
v 1.0222878 2.4088335 1.1673274
v 1.0185585 2.4329293 1.2061882
v 1.0185585 3.008751 1.2061882
v -0.5350841 3.2393947 -0.03440869
v 1.0880812 3.2393942 -0.03440869
v 1.0011363 3.1705513 0.6846696
v -0.45689428 3.1705525 0.6846696
v -0.59413016 2.3262427 0.7632101
v -0.70512176 2.279869 -0.08443725
v -0.70512176 2.9735842 -0.08443725
v -0.59413016 2.9000723 0.7632101
v -0.5902399 2.3284066 0.80374897
v -0.5794091 2.3345358 0.91661286
v -0.56623316 2.4183543 1.0539143
v -0.5516205 2.511457 1.2061882
v -0.5516205 2.8719168 1.2061882
v 0.9451735 2.909573 1.2944201
v 0.94517356 2.490878 1.29442
v 0.92370653 2.6978722 1.6291118
v 0.92370653 2.8937874 1.6291118
v -0.31570518 2.8937874 1.6291119
v -0.33278525 2.909573 1.2944202
v 0.9451735 2.909573 1.2944201
v 0.92370653 2.8937874 1.6291118
v 1.0185585 3.008751 1.2061882
v 1.0185585 2.4329293 1.2061882
v 0.94517356 2.490878 1.29442
v 0.9451735 2.909573 1.2944201
v -0.33278525 2.909573 1.2944202
v 1.0185585 3.008751 1.2061882
v 0.9451735 2.909573 1.2944201
v -0.40482438 3.008751 1.2061882
v -0.5516205 2.8719168 1.2061882
v -0.4782356 2.772982 1.2944199
v -0.4782356 2.562104 1.2944199
v -0.5516205 2.511457 1.2061882
v -0.5516205 2.8719168 1.2061882
v -0.4782356 2.772982 1.2944199
v 0.92370653 2.6978722 1.6291118
v 0.8397829 2.7301753 1.6748055
v 0.8397829 2.8179433 1.6748055
v 0.92370653 2.8937874 1.6291118
v -0.23229277 2.8179433 1.6748055
v 0.92370653 2.8937874 1.6291118
v 0.8397829 2.8179433 1.6748055
v -0.31570518 2.8937874 1.6291119
v -0.26565695 2.7857294 1.6748056
v -0.44759834 2.7668152 1.6291118
v 0.8397829 2.8179433 1.6748055
v 0.8397829 2.7301753 1.6748055
v 0.8304343 2.8662572 1.8952247
v 0.8304352 2.887961 1.8952006
v -0.22857201 2.8542225 1.7890007
v -0.23229277 2.8179433 1.6748055
v 0.8397829 2.8179433 1.6748055
v 0.8304352 2.887961 1.8952006
v 0.39540905 2.8879611 1.8952006
v 0.8117237 2.9133596 1.9702636
v 0.8914022 2.9093747 1.9702517
v -0.43938553 3.0383418 0.76321036
v -0.40482438 3.008751 1.2061882
v -0.5516205 2.8719168 1.2061882
v -0.59413016 2.9000723 0.7632101
v -0.45767474 2.7586203 1.6149836
v -0.4782356 2.772982 1.2944199
v -0.33278525 2.909573 1.2944202
v -0.31570518 2.8937874 1.6291119
v -0.44759834 2.7668152 1.6291118
v -0.40482438 3.008751 1.2061882
v -0.43938553 3.0383418 0.76321036
v 1.061068 3.0383418 0.7632101
v 1.0185585 3.008751 1.2061882
v -0.5350841 3.2393947 -0.03440869
v -0.45689428 3.1705525 0.6846696
v -0.5721724 3.068395 0.6846694
v -0.6634184 3.13488 -0.03440869
v -0.5296241 3.115604 -0.08443725
v -0.5350841 3.2393947 -0.03440869
v -0.6634184 3.13488 -0.03440869
v -0.70512176 2.9735842 -0.08443725
v -0.70512176 2.9735842 -0.08443725
v -0.6634184 3.13488 -0.03440869
v -0.5721724 3.068395 0.6846694
v -0.59413016 2.9000723 0.7632101
v -0.59413016 2.9000723 0.7632101
v -0.5721724 3.068395 0.6846694
v -0.45689428 3.1705525 0.6846696
v -0.43938553 3.0383418 0.76321036
v -0.43938553 3.0383418 0.76321036
v -0.45689428 3.1705525 0.6846696
v 1.0011363 3.1705513 0.6846696
v 1.061068 3.0383418 0.7632101
v 1.061068 3.0383418 0.7632101
v 1.0011363 3.1705513 0.6846696
v 1.0880812 3.2393942 -0.03440869
v 1.17206 3.1156044 -0.08443725
v 1.17206 3.1156044 -0.08443725
v 1.0880812 3.2393942 -0.03440869
v -0.5350841 3.2393947 -0.03440869
v -0.5296241 3.115604 -0.08443725
vt 0.50078565 0.6186357
vt 0.49782506 0.6847194
vt 0.45731354 0.6186357
vt 0.5244884 0.7424857
vt 0.5200142 0.7424907
vt 0.5289028 0.7579574
vt 0.66208893 0.7590309
vt 0.6466683 0.75795984
vt 0.6630939 0.7579574
vt 0.431446 0.6970516
vt 0.432213 0.7205928
vt 0.424568 0.69705164
vt 0.6980703 0.5091277
vt 0.720951 0.33438653
vt 0.711366 0.33438653
vt 0.35765576 0.51748466
vt 0.69007576 0.59243584
vt 0.3598885 0.5407514
vt 0.711366 0.33438653
vt 0.33397305 0.33438653
vt 0.35685378 0.5091277
vt 0.35765576 0.51748466
vt 0.56084573 0.7424857
vt 0.36260468 0.5690559
vt 0.3656171 0.6004469
vt 0.38074523 0.6186357
vt 0.424568 0.69705164
vt 0.432213 0.7205928
vt 0.38498384 0.6847194
vt 0.3870611 0.6876319
vt 0.69007576 0.59243584
vt 0.3598885 0.5407514
vt 0.36260468 0.5690559
vt 0.56084573 0.7424857
vt 0.689307 0.6004469
vt 0.6741788 0.6186358
vt 0.6697534 0.6876319
vt 0.65245265 0.6970516
vt 0.6505255 0.7424907
vt 0.6466683 0.75795984
vt 0.6630939 0.7579574
vt 0.66208893 0.7590309
vt 0.720951 0.46890646
vt 0.7209511 0.6264798
vt 0.37015158 0.6264797
vt 0.711366 0.46853778
vt 0.33397305 0.4541943
vt 0.33397305 0.59720254
vt 0.41384342 0.33438653
vt 0.5554892 0.5091277
vt 0.5714168 0.33438653
vt 0.42180791 0.5091277
vt 0.4257171 0.59243584
vt 0.4306844 0.6004469
vt 0.5493891 0.6004469
vt 0.369026 0.34469986
vt 0.703639 0.34469986
vt 0.68571544 0.49293667
vt 0.38514474 0.49293667
vt 0.4086911 0.5091277
vt 0.39913127 0.33438653
vt 0.54213953 0.33438653
vt 0.52698517 0.5091277
vt 0.4091372 0.51748466
vt 0.41040075 0.5407514
vt 0.42767978 0.5690559
vt 0.44687274 0.6004469
vt 0.5211809 0.6004469
vt 0.5289437 0.6186358
vt 0.44263044 0.6186358
vt 0.48530194 0.6876319
vt 0.52568954 0.6876319
vt 0.41425064 0.68763196
vt 0.41072962 0.6186358
vt 0.6741788 0.6186358
vt 0.6697534 0.6876319
vt 0.5493891 0.6004469
vt 0.4306844 0.6004469
vt 0.44263044 0.6186358
vt 0.5289437 0.6186358
vt 0.41072962 0.5840068
vt 0.689307 0.60445213
vt 0.6741788 0.5840068
vt 0.39587885 0.60445213
vt 0.3656171 0.576244
vt 0.38074523 0.5558487
vt 0.45731354 0.6186357
vt 0.44687274 0.6004469
vt 0.5211809 0.6004469
vt 0.50078565 0.6186357
vt 0.6697534 0.540365
vt 0.65245265 0.5470242
vt 0.65245265 0.5651175
vt 0.6697534 0.5807526
vt 0.431446 0.5651175
vt 0.6697534 0.5807526
vt 0.65245265 0.5651175
vt 0.41425064 0.5807526
vt 0.424568 0.55847657
vt 0.3870611 0.55457747
vt 0.5100544 0.6970516
vt 0.49196118 0.6970516
vt 0.5200142 0.7424907
vt 0.5244884 0.7424857
vt 0.432213 0.7205928
vt 0.431446 0.6970516
vt 0.65245265 0.6970516
vt 0.6505257 0.7424857
vt 0.56084573 0.7424857
vt 0.6466683 0.75795984
vt 0.6630939 0.7579574
vt 0.38875413 0.50912774
vt 0.39587885 0.6004469
vt 0.3656171 0.6004469
vt 0.35685378 0.5091277
vt 0.38498384 0.6847194
vt 0.38074523 0.6186357
vt 0.41072962 0.6186358
vt 0.41425064 0.68763196
vt 0.3870611 0.6876319
vt 0.39587885 0.6004469
vt 0.38875413 0.50912774
vt 0.6980702 0.5091277
vt 0.689307 0.6004469
vt 0.369026 0.34469986
vt 0.38514474 0.49293667
vt 0.36138034 0.49293664
vt 0.34257013 0.34469986
vt 0.37015158 0.6264797
vt 0.369026 0.65199894
vt 0.34257013 0.63045347
vt 0.33397305 0.59720254
vt 0.54213953 0.33438653
vt 0.5753904 0.34469986
vt 0.5616846 0.49293664
vt 0.52698517 0.5091277
vt 0.35685378 0.5820482
vt 0.36138034 0.6167476
vt 0.38514474 0.63780725
vt 0.38875413 0.61055225
vt 0.38875413 0.61055225
vt 0.38514474 0.63780725
vt 0.68571544 0.637807
vt 0.6980702 0.61055225
vt 0.5554892 0.5091277
vt 0.582744 0.49293667
vt 0.5969358 0.34469986
vt 0.5714168 0.33438653
vt 0.7209511 0.6264798
vt 0.703639 0.6519989
vt 0.369026 0.65199894
vt 0.37015158 0.6264797
vn -0.9979494 0 0.06400805
vn -0.9979494 0 0.06400805
vn -0.9979494 0 0.06400805
vn 0.77627516 -0.0007241174 -0.63039386
vn 0.77627516 -0.0007241174 -0.63039386
vn 0.77627516 -0.0007241174 -0.63039386
vn 0.0424798 0.8509772 -0.52348197
vn 0.0424798 0.8509772 -0.52348197
vn 0.0424798 0.8509772 -0.52348197
vn -0.6803239 0.70461535 -0.20168422
vn -0.6803239 0.70461535 -0.20168422
vn -0.6803239 0.70461535 -0.20168422
vn 0.038386516 -0.9979855 0.05051316
vn 0.038386516 -0.9979855 0.05051316
vn 0.038386516 -0.9979855 0.05051316
vn 0.038386516 -0.9979855 0.05051316
vn 0.038386516 -0.9979855 0.05051316
vn 0.038386516 -0.9979855 0.05051316
vn 0.03793249 -0.9980469 0.04963487
vn 0.03793249 -0.9980469 0.04963487
vn 0.03793249 -0.9980469 0.04963487
vn 0.03793249 -0.9980469 0.04963487
vn -0.04322429 -0.8505175 0.52416766
vn -0.04322429 -0.8505175 0.52416766
vn -0.04322429 -0.8505175 0.52416766
vn -0.04322429 -0.8505175 0.52416766
vn -0.04322429 -0.8505175 0.52416766
vn -0.04322429 -0.8505175 0.52416766
vn -0.04322429 -0.8505175 0.52416766
vn -0.04322429 -0.8505175 0.52416766
vn -0.042480007 -0.85093594 0.523549
vn -0.042480007 -0.85093594 0.523549
vn -0.042480007 -0.85093594 0.523549
vn -0.042480007 -0.85093594 0.523549
vn -0.042480007 -0.85093594 0.523549
vn -0.042480007 -0.85093594 0.523549
vn -0.042480007 -0.85093594 0.523549
vn -0.042480007 -0.85093594 0.523549
vn -0.042480007 -0.85093594 0.523549
vn -0.042480007 -0.85093594 0.523549
vn -0.042480007 -0.85093594 0.523549
vn -0.042480007 -0.85093594 0.523549
vn -0 0 -1
vn -0 0 -1
vn -0 0 -1
vn -0 0 -1
vn -0 0 -1
vn -0 0 -1
vn 0.9915359 0 0.12983263
vn 0.993533 0 0.11354328
vn 0.9915359 0 0.12983263
vn 0.9935726 0 0.11319674
vn 0.99542713 0 0.09552454
vn 0.99542713 0 0.09552454
vn 0.99542713 0 0.09552454
vn -0 0.9954484 0.09530166
vn -0 0.9954484 0.09530166
vn -0 0.9954484 0.09530166
vn -0 0.9954484 0.09530166
vn -0.99356306 0 0.11328048
vn -0.9915359 0 0.1298325
vn -0.9915359 0 0.1298325
vn -0.9935377 0 0.113502495
vn -0.99542713 0 0.09552451
vn -0.99542713 0 0.09552451
vn -0.99542713 0 0.09552451
vn -0.99542713 0 0.09552451
vn -0.99542713 0 0.09552451
vn 0.9979494 0 0.06400807
vn 0.9979494 0 0.06400807
vn 0.9979494 0 0.06400807
vn 0.9979494 0 0.06400807
vn -0 0.9988896 0.047113337
vn -0 0.9988896 0.047113337
vn -0 0.9988896 0.047113337
vn -0 0.9988896 0.047113337
vn 0.7688273 0 0.6394564
vn 0.7688273 0 0.6394564
vn 0.7688273 0 0.6394564
vn 0.7688273 0 0.6394564
vn -0.18410519 0.57466775 0.7974098
vn -0 0.6646753 0.74713236
vn -0 0.6646753 0.74713236
vn -0.23797563 0.5425425 0.80561477
vn -0.40034524 0.42790207 0.81032306
vn -0.40034524 0.42790207 0.81032306
vn -0.7688271 0 0.6394567
vn -0.7688271 0 0.6394567
vn -0.7688271 0 0.6394567
vn -0.7688271 0 0.6394567
vn 0.47818464 0 0.87825936
vn 0.47818464 0 0.87825936
vn 0.47818464 0 0.87825936
vn 0.47818464 0 0.87825936
vn -0.104418404 0.42637342 0.8985001
vn -0 0.51605004 0.8565584
vn -0 0.51605004 0.8565584
vn -0.17668037 0.3579058 0.9168901
vn -0.2609769 0.27092883 0.9265466
vn -0.2609769 0.27092883 0.9265466
vn 0.9991019 0 0.04237407
vn 0.9991019 0 0.04237407
vn 0.9991019 0 0.04237407
vn 0.9991019 0 0.04237407
vn -0 0.95306027 -0.3027804
vn -0 0.95306027 -0.3027804
vn -0 0.95306027 -0.3027804
vn 0.0042594685 0.95002675 -0.3121396
vn 0.00043754978 0.95275396 -0.3037428
vn 0.0073309736 0.94777095 -0.31886733
vn 0.0073309736 0.94777095 -0.31886733
vn -0.6701704 0.73457307 0.10617855
vn -0.6701704 0.73457307 0.10617855
vn -0.6701704 0.73457307 0.10617855
vn -0.6701704 0.73457307 0.10617855
vn -0.6871849 0.72282517 0.07280579
vn -0.6871849 0.72282517 0.07280579
vn -0.6871849 0.72282517 0.07280579
vn -0.6871849 0.72282517 0.07280579
vn -0.6871849 0.72282517 0.07280579
vn -0 0.9977763 0.066650875
vn -0 0.9977763 0.066650875
vn -0 0.9977763 0.066650875
vn -0 0.9977763 0.066650875
vn -0.63995606 0.7543406 0.14637813
vn -0.63995606 0.7543406 0.14637813
vn -0.63995606 0.7543406 0.14637813
vn -0.63995606 0.7543406 0.14637813
vn -0.28356534 0.34946945 -0.8930071
vn -0.28356534 0.34946945 -0.8930071
vn -0.28356534 0.34946945 -0.8930071
vn -0.28356534 0.34946945 -0.8930071
vn -0.9693935 0.19959147 0.14296688
vn -0.9693935 0.19959147 0.14296688
vn -0.9693935 0.19959147 0.14296688
vn -0.9693935 0.19959147 0.14296688
vn -0.3846869 0.4320391 0.815695
vn -0.3846869 0.4320391 0.815695
vn -0.3846869 0.4320391 0.815695
vn -0.3846869 0.4320391 0.815695
vn -0 0.5107367 0.8597372
vn -0 0.5107367 0.8597372
vn -0 0.5107367 0.8597372
vn -0 0.5107367 0.8597372
vn 0.8538379 0.49716437 0.15423536
vn 0.8538379 0.49716437 0.15423536
vn 0.8538379 0.49716437 0.15423536
vn 0.8538379 0.49716437 0.15423536
vn -0 0.37469715 -0.92714727
vn -0 0.37469715 -0.92714727
vn -0 0.37469715 -0.92714727
vn -0 0.37469715 -0.92714727
g FX_MESH_EN0021_barrier_ice_01_0
f 3/3/3 2/2/2 1/1/1
f 6/6/6 5/5/5 4/4/4
f 9/9/9 8/8/8 7/7/7
f 12/12/12 11/11/11 10/10/10
f 15/15/15 14/14/14 13/13/13
f 13/13/13 16/16/16 15/15/15
f 13/13/13 17/17/17 16/16/16
f 17/17/17 18/18/18 16/16/16
f 21/21/21 20/20/20 19/19/19
f 22/22/22 21/21/21 19/19/19
f 25/25/25 24/24/24 23/23/23
f 23/23/23 26/26/26 25/25/25
f 23/23/23 27/27/27 26/26/26
f 23/23/23 28/28/28 27/27/27
f 27/27/27 29/29/29 26/26/26
f 27/27/27 30/30/30 29/29/29
f 33/33/33 32/32/32 31/31/31
f 31/31/31 34/34/34 33/33/33
f 31/31/31 35/35/35 34/34/34
f 35/35/35 36/36/36 34/34/34
f 36/36/36 37/37/37 34/34/34
f 37/37/37 38/38/38 34/34/34
f 38/38/38 39/39/39 34/34/34
f 39/39/39 40/40/40 34/34/34
f 39/39/39 41/41/41 40/40/40
f 41/41/41 42/42/42 40/40/40
f 45/45/45 44/44/44 43/43/43
f 43/43/43 46/46/46 45/45/45
f 46/46/46 47/47/47 45/45/45
f 47/47/47 48/48/48 45/45/45
f 51/51/51 50/50/50 49/49/49
f 50/50/50 52/52/52 49/49/49
f 53/53/53 52/52/52 50/50/50
f 50/50/50 54/54/54 53/53/53
f 50/50/50 55/55/55 54/54/54
f 58/58/58 57/57/57 56/56/56
f 59/59/59 58/58/58 56/56/56
f 62/62/62 61/61/61 60/60/60
f 63/63/63 62/62/62 60/60/60
f 63/63/63 60/60/60 64/64/64
f 64/64/64 65/65/65 63/63/63
f 65/65/65 66/66/66 63/63/63
f 66/66/66 67/67/67 63/63/63
f 67/67/67 68/68/68 63/63/63
f 71/71/71 70/70/70 69/69/69
f 72/72/72 71/71/71 69/69/69
f 75/75/75 74/74/74 73/73/73
f 76/76/76 75/75/75 73/73/73
f 79/79/79 78/78/78 77/77/77
f 80/80/80 79/79/79 77/77/77
f 83/83/83 82/82/82 81/81/81
f 82/82/82 84/84/84 81/81/81
f 84/84/84 85/85/85 81/81/81
f 85/85/85 86/86/86 81/81/81
f 89/89/89 88/88/88 87/87/87
f 90/90/90 89/89/89 87/87/87
f 93/93/93 92/92/92 91/91/91
f 94/94/94 93/93/93 91/91/91
f 97/97/97 96/96/96 95/95/95
f 96/96/96 98/98/98 95/95/95
f 95/95/95 98/98/98 99/99/99
f 98/98/98 100/100/100 99/99/99
f 103/103/103 102/102/102 101/101/101
f 104/104/104 103/103/103 101/101/101
f 107/107/107 106/106/106 105/105/105
f 105/105/105 108/108/108 107/107/107
f 105/105/105 109/109/109 108/108/108
f 108/108/108 109/109/109 110/110/110
f 111/111/111 108/108/108 110/110/110
f 114/114/114 113/113/113 112/112/112
f 115/115/115 114/114/114 112/112/112
f 118/118/118 117/117/117 116/116/116
f 116/116/116 119/119/119 118/118/118
f 116/116/116 120/120/120 119/119/119
f 123/123/123 122/122/122 121/121/121
f 124/124/124 123/123/123 121/121/121
f 127/127/127 126/126/126 125/125/125
f 128/128/128 127/127/127 125/125/125
f 131/131/131 130/130/130 129/129/129
f 132/132/132 131/131/131 129/129/129
f 135/135/135 134/134/134 133/133/133
f 136/136/136 135/135/135 133/133/133
f 139/139/139 138/138/138 137/137/137
f 140/140/140 139/139/139 137/137/137
f 143/143/143 142/142/142 141/141/141
f 144/144/144 143/143/143 141/141/141
f 147/147/147 146/146/146 145/145/145
f 148/148/148 147/147/147 145/145/145
f 151/151/151 150/150/150 149/149/149
f 152/152/152 151/151/151 149/149/149
