g FX_MESH_EN0021_barrier_Gun
v 2.7694747 -1.3640716 1.0213772
v -8.960633E-07 0.00040807636 3.148757E-07
v 2.7648985 1.0271478 1.021377
v -8.960633E-07 0.00040807636 3.148757E-07
v 2.7648985 1.0271478 1.0657991
v 2.7635605 1.7259951 1.0657991
v -8.960633E-07 0.00040807636 3.148757E-07
v -8.960633E-07 0.00040807636 3.148757E-07
v 2.7635605 1.7259951 1.4038352
v -8.960633E-07 0.00040807636 3.148757E-07
v 2.7614677 2.8196955 1.4038352
v -8.960633E-07 0.00040807636 3.148757E-07
v 2.7614677 2.8196955 0.73958147
v -8.960633E-07 0.00040807636 3.148757E-07
v 2.7615173 2.793732 0.7395817
v -8.960633E-07 0.00040807636 3.148757E-07
v 2.7615173 2.793732 0.42783654
v -8.960633E-07 0.00040807636 3.148757E-07
v 2.7614677 2.8196955 0.42783654
v -8.960633E-07 0.00040807636 3.148757E-07
v 2.7614677 2.8196955 0.058359265
v -8.960633E-07 0.00040807636 3.148757E-07
v 2.761329 2.8922079 0.058359265
v -8.960633E-07 0.00040807636 3.148757E-07
v 2.761329 2.8922071 -1.2720594
v 2.7718585 -2.689167 -1.272059
v -8.960633E-07 0.00040807636 3.148757E-07
v 2.7718585 -2.6891665 -0.6763684
v -8.960633E-07 0.00040807636 3.148757E-07
v 2.771663 -2.5760117 -0.6763684
v -8.960633E-07 0.00040807636 3.148757E-07
v 2.771663 -2.5760117 -0.4282905
v -8.960633E-07 0.00040807636 3.148757E-07
v 2.7712557 -2.5450184 -0.4038564
v -8.960633E-07 0.00040807636 3.148757E-07
v 2.7712557 -2.5450184 0.2640487
v -8.960633E-07 0.00040807636 3.148757E-07
v 2.7711809 -2.534409 0.23081839
v -8.960633E-07 0.00040807636 3.148757E-07
v 2.7711809 -2.5344086 0.74840915
v -8.960633E-07 0.00040807636 3.148757E-07
v 2.7710917 -2.482203 0.75720537
v -8.960633E-07 0.00040807636 3.148757E-07
v 2.7710917 -2.4822023 1.3029989
v -8.960633E-07 0.00040807636 3.148757E-07
v 2.769563 -1.4100127 1.3029989
v -8.960633E-07 0.00040807636 3.148757E-07
v 2.769563 -1.4100127 1.0670661
v -8.960633E-07 0.00040807636 3.148757E-07
v 2.7694747 -1.3640716 1.0670661
v -8.960633E-07 0.00040807636 3.148757E-07
v 2.7694747 -1.3640716 1.0213772
v 2.769511 -1.383035 1.0213772
v -8.960633E-07 0.00040807636 3.148757E-07
v 2.7694747 -1.3640716 1.0213772
vt 0.35925922 0.9999999
vt 0.35925922 0.0010010898
vt 0.56820846 0.9999999
vt 0.5682086 0.0010010898
vt 0.5720471 0.9999999
vt 0.63311374 0.9999999
vt 0.57204735 0.0010010898
vt 0.63311374 0.0010010898
vt 0.6623244 0.9999999
vt 0.6623244 0.0010010898
vt 0.7578939 0.9999999
vt 0.75789404 0.0010010898
vt 0.81529427 0.9999999
vt 0.81529427 0.0010011494
vt 0.81756294 0.9999999
vt 0.8175628 0.0010010898
vt 0.84450173 0.9999999
vt 0.84450173 0.0010011494
vt 0.8467705 0.9999999
vt 0.8467704 0.0010010898
vt 0.87869835 0.9999999
vt 0.8786982 0.0010010898
vt 0.88503444 0.9999999
vt 0.88503444 0.0010010302
vt 1 0.9999999
vt 0.001995325 1
vt -2.9802322E-08 0.0010010898
vt 0.053498805 1
vt 0.05150327 0.0010011047
vt 0.062428117 1
vt 0.060432523 0.0010010898
vt 0.08387691 1
vt 0.081881374 0.0010011047
vt 0.102469 1
vt 0.10047349 0.0010010898
vt 0.16021615 0.9999999
vt 0.1582205 0.0010010749
vt 0.16361892 0.9999999
vt 0.16162333 0.0010010898
vt 0.20836982 0.9999999
vt 0.20637426 0.0010010898
vt 0.21245931 0.9999999
vt 0.21046379 0.0010011047
vt 0.25964862 0.9999999
vt 0.2576531 0.0010010898
vt 0.32944947 0.9999999
vt 0.32745394 0.0010010898
vt 0.34982574 0.9999999
vt 0.3478302 0.00100106
vt 0.35384002 0.9999999
vt 0.35184452 0.0010011196
vt 0.3577859 0.9999999
vt 0.3574613 0.0010010898
vt 0.359457 0.9999999
vt 0.35580418 0.0010010898
g FX_MESH_EN0021_barrier_Gun_0
f 3/3/3 2/2/2 1/1/1
f 5/5/5 4/4/4 3/3/3
f 7/7/7 5/5/5 6/6/6
f 9/9/9 8/8/8 6/6/6
f 11/11/11 10/10/10 9/9/9
f 13/13/13 12/12/12 11/11/11
f 15/15/15 14/14/14 13/13/13
f 17/17/17 16/16/16 15/15/15
f 19/19/19 18/18/18 17/17/17
f 21/21/21 20/20/20 19/19/19
f 23/23/23 22/22/22 21/21/21
f 25/25/25 24/24/24 23/23/23
f 28/28/28 27/27/27 26/26/26
f 30/30/30 29/29/29 28/28/28
f 32/32/32 31/31/31 30/30/30
f 34/34/34 33/33/33 32/32/32
f 36/36/36 35/35/35 34/34/34
f 38/38/38 37/37/37 36/36/36
f 40/40/40 39/39/39 38/38/38
f 42/42/42 41/41/41 40/40/40
f 44/44/44 43/43/43 42/42/42
f 46/46/46 45/45/45 44/44/44
f 48/48/48 47/47/47 46/46/46
f 50/50/50 49/49/49 48/48/48
f 52/52/52 51/51/51 50/50/50
f 55/55/55 54/54/54 53/53/53
