g sb_CH0331_bg_propbox_01
v 2.722337 -48.255238 0
v 2.0571423 -48.255238 0
v 2.0571427 -51.255238 0
v 2.722337 -51.255238 0
v 2.722337 -48.255238 3
v 2.722337 -51.255238 3
v 2.0571427 -51.255238 3
v 2.0571423 -48.255238 3
v 2.722337 -48.255238 0
v 2.722337 -48.255238 3
v 2.0571423 -48.255238 3
v 2.0571423 -48.255238 0
v 2.0571423 -48.255238 0
v 2.0571423 -48.255238 3
v 2.0571427 -51.255238 3
v 2.0571427 -51.255238 0
v 2.0571427 -51.255238 0
v 2.0571427 -51.255238 3
v 2.722337 -51.255238 3
v 2.722337 -51.255238 0
v 2.722337 -51.255238 0
v 2.722337 -51.255238 3
v 2.722337 -48.255238 3
v 2.722337 -48.255238 0
v 1.9090832 -50.37702 0
v 1.2438889 -50.37702 0
v 1.2438893 -53.37702 0
v 1.9090838 -53.37702 0
v 1.9090832 -50.37702 3
v 1.9090838 -53.37702 3
v 1.2438893 -53.37702 3
v 1.2438889 -50.37702 3
v 1.9090832 -50.37702 0
v 1.9090832 -50.37702 3
v 1.2438889 -50.37702 3
v 1.2438889 -50.37702 0
v 1.2438889 -50.37702 0
v 1.2438889 -50.37702 3
v 1.2438893 -53.37702 3
v 1.2438893 -53.37702 0
v 1.2438893 -53.37702 0
v 1.2438893 -53.37702 3
v 1.9090838 -53.37702 3
v 1.9090838 -53.37702 0
v 1.9090838 -53.37702 0
v 1.9090838 -53.37702 3
v 1.9090832 -50.37702 3
v 1.9090832 -50.37702 0
v 2.7338836 -48.24369 -0.011546936
v 2.0455954 -48.24369 -0.011546936
v 2.045596 -51.266785 -0.011546936
v 2.7338843 -51.266785 -0.011546936
v 2.7338836 -48.24369 3.0115469
v 2.7338843 -51.266785 3.0115469
v 2.045596 -51.266785 3.0115469
v 2.0455954 -48.24369 3.0115469
v 2.7338836 -48.24369 -0.011546936
v 2.7338836 -48.24369 3.0115469
v 2.0455954 -48.24369 3.0115469
v 2.0455954 -48.24369 -0.011546936
v 2.0455954 -48.24369 -0.011546936
v 2.0455954 -48.24369 3.0115469
v 2.045596 -51.266785 3.0115469
v 2.045596 -51.266785 -0.011546936
v 2.045596 -51.266785 -0.011546936
v 2.045596 -51.266785 3.0115469
v 2.7338843 -51.266785 3.0115469
v 2.7338843 -51.266785 -0.011546936
v 2.7338843 -51.266785 -0.011546936
v 2.7338843 -51.266785 3.0115469
v 2.7338836 -48.24369 3.0115469
v 2.7338836 -48.24369 -0.011546936
v 1.9206301 -50.36547 -0.011546936
v 1.2323419 -50.36547 -0.011546936
v 1.2323424 -53.38857 -0.011546936
v 1.9206308 -53.38857 -0.011546936
v 1.9206301 -50.36547 3.0115469
v 1.9206308 -53.38857 3.0115469
v 1.2323424 -53.38857 3.0115469
v 1.2323419 -50.36547 3.0115469
v 1.9206301 -50.36547 -0.011546936
v 1.9206301 -50.36547 3.0115469
v 1.2323419 -50.36547 3.0115469
v 1.2323419 -50.36547 -0.011546936
v 1.2323419 -50.36547 -0.011546936
v 1.2323419 -50.36547 3.0115469
v 1.2323424 -53.38857 3.0115469
v 1.2323424 -53.38857 -0.011546936
v 1.2323424 -53.38857 -0.011546936
v 1.2323424 -53.38857 3.0115469
v 1.9206308 -53.38857 3.0115469
v 1.9206308 -53.38857 -0.011546936
v 1.9206308 -53.38857 -0.011546936
v 1.9206308 -53.38857 3.0115469
v 1.9206301 -50.36547 3.0115469
v 1.9206301 -50.36547 -0.011546936
v 2.7350383 -48.24254 -0.012701721
v 2.7350383 -48.24254 3.0127017
v 2.0444405 -48.24254 3.0127017
v 2.0444405 -48.24254 -0.012701721
v 2.0444405 -48.24254 -0.012701721
v 2.0444405 -48.24254 3.0127017
v 2.044441 -51.267937 3.0127017
v 2.044441 -51.267937 -0.012701721
v 2.044441 -51.267937 -0.012701721
v 2.044441 -51.267937 3.0127017
v 2.735039 -51.267937 3.0127017
v 2.735039 -51.267937 -0.012701721
v 2.735039 -51.267937 -0.012701721
v 2.735039 -51.267937 3.0127017
v 2.7350383 -48.24254 3.0127017
v 2.7350383 -48.24254 -0.012701721
v 1.9217846 -50.36432 -0.012701721
v 1.9217846 -50.36432 3.0127017
v 1.2311871 -50.36432 3.0127017
v 1.2311871 -50.36432 -0.012701721
v 1.2311871 -50.36432 -0.012701721
v 1.2311871 -50.36432 3.0127017
v 1.2311876 -53.38972 3.0127017
v 1.2311876 -53.38972 -0.012701721
v 1.2311876 -53.38972 -0.012701721
v 1.2311876 -53.38972 3.0127017
v 1.9217856 -53.38972 3.0127017
v 1.9217856 -53.38972 -0.012701721
v 1.9217856 -53.38972 -0.012701721
v 1.9217856 -53.38972 3.0127017
v 1.9217846 -50.36432 3.0127017
v 1.9217846 -50.36432 -0.012701721
vt 0.42694756 0.037158787
vt 0.42694756 0.004431635
vt 0.4281361 0.004431635
vt 0.4281361 0.037158787
vt 0.4069711 0.004431635
vt 0.4081596 0.004431635
vt 0.4081596 0.037158787
vt 0.4069711 0.037158787
vt 0.42694756 0.004431635
vt 0.40688726 0.004431635
vt 0.40688726 0.037158787
vt 0.42694756 0.037158787
vt 0.42694756 0.004431635
vt 0.40688726 0.004431635
vt 0.40688726 0.037158787
vt 0.42694756 0.037158787
vt 0.42694756 0.004431635
vt 0.40688726 0.004431635
vt 0.40688726 0.037158787
vt 0.42694756 0.037158787
vt 0.42694756 0.004431635
vt 0.40688726 0.004431635
vt 0.40688726 0.037158787
vt 0.42694756 0.037158787
vt 0.42694756 0.037158787
vt 0.42694756 0.004431635
vt 0.4281361 0.004431635
vt 0.4281361 0.037158787
vt 0.4069711 0.004431635
vt 0.4081596 0.004431635
vt 0.4081596 0.037158787
vt 0.4069711 0.037158787
vt 0.42694756 0.004431635
vt 0.40688726 0.004431635
vt 0.40688726 0.037158787
vt 0.42694756 0.037158787
vt 0.42694756 0.004431635
vt 0.40688726 0.004431635
vt 0.40688726 0.037158787
vt 0.42694756 0.037158787
vt 0.42694756 0.004431635
vt 0.40688726 0.004431635
vt 0.40688726 0.037158787
vt 0.42694756 0.037158787
vt 0.42694756 0.004431635
vt 0.40688726 0.004431635
vt 0.40688726 0.037158787
vt 0.42694756 0.037158787
vt 0.017594133 0.9867263
vt 0.017594133 0.014377989
vt 0.985535 0.014377989
vt 0.985535 0.9867263
vt 0.017594133 0.014377989
vt 0.985535 0.014377989
vt 0.985535 0.9867263
vt 0.017594133 0.9867263
vt 0.985535 0.014377989
vt 0.017594133 0.014377989
vt 0.017594133 0.9867263
vt 0.985535 0.9867263
vt 0.985535 0.014377989
vt 0.017594133 0.014377989
vt 0.017594133 0.9867263
vt 0.985535 0.9867263
vt 0.985535 0.014377989
vt 0.017594133 0.014377989
vt 0.017594133 0.9867263
vt 0.985535 0.9867263
vt 0.985535 0.014377989
vt 0.017594133 0.014377989
vt 0.017594133 0.9867263
vt 0.985535 0.9867263
vt 0.017594133 0.9867263
vt 0.017594133 0.014377989
vt 0.985535 0.014377989
vt 0.985535 0.9867263
vt 0.017594133 0.014377989
vt 0.985535 0.014377989
vt 0.985535 0.9867263
vt 0.017594133 0.9867263
vt 0.985535 0.014377989
vt 0.017594133 0.014377989
vt 0.017594133 0.9867263
vt 0.985535 0.9867263
vt 0.985535 0.014377989
vt 0.017594133 0.014377989
vt 0.017594133 0.9867263
vt 0.985535 0.9867263
vt 0.985535 0.014377989
vt 0.017594133 0.014377989
vt 0.017594133 0.9867263
vt 0.985535 0.9867263
vt 0.985535 0.014377989
vt 0.017594133 0.014377989
vt 0.017594133 0.9867263
vt 0.985535 0.9867263
vt 0.9450248 0.785031
vt 0.9450248 0.34441394
vt 0.9480944 0.344414
vt 0.9480944 0.7850311
vt 0.9450248 0.785031
vt 0.9450248 0.34441394
vt 0.9480944 0.344414
vt 0.9480944 0.7850311
vt 0.9450248 0.785031
vt 0.9450248 0.34441394
vt 0.9480944 0.344414
vt 0.9480944 0.7850311
vt 0.9450248 0.785031
vt 0.9450248 0.34441394
vt 0.9480944 0.344414
vt 0.9480944 0.7850311
vt 0.9450248 0.785031
vt 0.9450248 0.34441394
vt 0.9480944 0.344414
vt 0.9480944 0.7850311
vt 0.9450248 0.785031
vt 0.9450248 0.34441394
vt 0.9480944 0.344414
vt 0.9480944 0.7850311
vt 0.9450248 0.785031
vt 0.9450248 0.34441394
vt 0.9480944 0.344414
vt 0.9480944 0.7850311
vt 0.9450248 0.785031
vt 0.9450248 0.34441394
vt 0.9480944 0.344414
vt 0.9480944 0.7850311
vn -0 0 -1
vn -0 0 -1
vn -0 0 -1
vn -0 0 -1
vn -0 0 1
vn -0 0 1
vn -0 0 1
vn -0 0 1
vn -0 1 0
vn -0 1 0
vn -0 1 0
vn -0 1 0
vn -1 -1.5258789E-07 0
vn -1 -1.5258789E-07 0
vn -1 -1.5258789E-07 0
vn -1 -1.5258789E-07 0
vn -0 -1 0
vn -0 -1 0
vn -0 -1 0
vn -0 -1 0
vn 1 0 0
vn 1 0 0
vn 1 0 0
vn 1 0 0
vn -0 0 -1
vn -0 0 -1
vn -0 0 -1
vn -0 0 -1
vn -0 0 1
vn -0 0 1
vn -0 0 1
vn -0 0 1
vn -0 1 0
vn -0 1 0
vn -0 1 0
vn -0 1 0
vn -1 -1.5258789E-07 0
vn -1 -1.5258789E-07 0
vn -1 -1.5258789E-07 0
vn -1 -1.5258789E-07 0
vn -0 -1 0
vn -0 -1 0
vn -0 -1 0
vn -0 -1 0
vn 1 2.0345053E-07 0
vn 1 2.0345053E-07 0
vn 1 2.0345053E-07 0
vn 1 2.0345053E-07 0
vn -0 0 -1
vn -0 0 -1
vn -0 0 -1
vn -0 0 -1
vn -0 0 1
vn -0 0 1
vn -0 0 1
vn -0 0 1
vn -0 1 0
vn -0 1 0
vn -0 1 0
vn -0 1 0
vn -1 -1.5142214E-07 0
vn -1 -1.5142214E-07 0
vn -1 -1.5142214E-07 0
vn -1 -1.5142214E-07 0
vn -0 -1 0
vn -0 -1 0
vn -0 -1 0
vn -0 -1 0
vn 1 2.018962E-07 0
vn 1 2.018962E-07 0
vn 1 2.018962E-07 0
vn 1 2.018962E-07 0
vn -0 0 -1
vn -0 0 -1
vn -0 0 -1
vn -0 0 -1
vn -0 0 1
vn -0 0 1
vn -0 0 1
vn -0 0 1
vn -0 1 0
vn -0 1 0
vn -0 1 0
vn -0 1 0
vn -1 -1.5142214E-07 0
vn -1 -1.5142214E-07 0
vn -1 -1.5142214E-07 0
vn -1 -1.5142214E-07 0
vn -0 -1 0
vn -0 -1 0
vn -0 -1 0
vn -0 -1 0
vn 1 2.018962E-07 0
vn 1 2.018962E-07 0
vn 1 2.018962E-07 0
vn 1 2.018962E-07 0
vn -0 1 0
vn -0 1 0
vn -0 1 0
vn -0 1 0
vn -1 -1.513068E-07 0
vn -1 -1.513068E-07 0
vn -1 -1.513068E-07 0
vn -1 -1.513068E-07 0
vn -0 -1 0
vn -0 -1 0
vn -0 -1 0
vn -0 -1 0
vn 1 2.0174238E-07 0
vn 1 2.0174238E-07 0
vn 1 2.0174238E-07 0
vn 1 2.0174238E-07 0
vn -0 1 0
vn -0 1 0
vn -0 1 0
vn -0 1 0
vn -1 -1.513068E-07 0
vn -1 -1.513068E-07 0
vn -1 -1.513068E-07 0
vn -1 -1.513068E-07 0
vn -0 -1 0
vn -0 -1 0
vn -0 -1 0
vn -0 -1 0
vn 1 3.026136E-07 0
vn 1 3.026136E-07 0
vn 1 3.026136E-07 0
vn 1 3.026136E-07 0
g sb_CH0331_bg_propbox_01_0
f 3/3/3 2/2/2 1/1/1
f 4/4/4 3/3/3 1/1/1
f 7/7/7 6/6/6 5/5/5
f 8/8/8 7/7/7 5/5/5
f 11/11/11 10/10/10 9/9/9
f 12/12/12 11/11/11 9/9/9
f 15/15/15 14/14/14 13/13/13
f 16/16/16 15/15/15 13/13/13
f 19/19/19 18/18/18 17/17/17
f 20/20/20 19/19/19 17/17/17
f 23/23/23 22/22/22 21/21/21
f 24/24/24 23/23/23 21/21/21
f 27/27/27 26/26/26 25/25/25
f 28/28/28 27/27/27 25/25/25
f 31/31/31 30/30/30 29/29/29
f 32/32/32 31/31/31 29/29/29
f 35/35/35 34/34/34 33/33/33
f 36/36/36 35/35/35 33/33/33
f 39/39/39 38/38/38 37/37/37
f 40/40/40 39/39/39 37/37/37
f 43/43/43 42/42/42 41/41/41
f 44/44/44 43/43/43 41/41/41
f 47/47/47 46/46/46 45/45/45
f 48/48/48 47/47/47 45/45/45
g sb_CH0331_bg_propbox_01_1
f 51/51/51 50/50/50 49/49/49
f 52/52/52 51/51/51 49/49/49
f 55/55/55 54/54/54 53/53/53
f 56/56/56 55/55/55 53/53/53
f 59/59/59 58/58/58 57/57/57
f 60/60/60 59/59/59 57/57/57
f 63/63/63 62/62/62 61/61/61
f 64/64/64 63/63/63 61/61/61
f 67/67/67 66/66/66 65/65/65
f 68/68/68 67/67/67 65/65/65
f 71/71/71 70/70/70 69/69/69
f 72/72/72 71/71/71 69/69/69
f 75/75/75 74/74/74 73/73/73
f 76/76/76 75/75/75 73/73/73
f 79/79/79 78/78/78 77/77/77
f 80/80/80 79/79/79 77/77/77
f 83/83/83 82/82/82 81/81/81
f 84/84/84 83/83/83 81/81/81
f 87/87/87 86/86/86 85/85/85
f 88/88/88 87/87/87 85/85/85
f 91/91/91 90/90/90 89/89/89
f 92/92/92 91/91/91 89/89/89
f 95/95/95 94/94/94 93/93/93
f 96/96/96 95/95/95 93/93/93
g sb_CH0331_bg_propbox_01_2
f 99/99/99 98/98/98 97/97/97
f 100/100/100 99/99/99 97/97/97
f 103/103/103 102/102/102 101/101/101
f 104/104/104 103/103/103 101/101/101
f 107/107/107 106/106/106 105/105/105
f 108/108/108 107/107/107 105/105/105
f 111/111/111 110/110/110 109/109/109
f 112/112/112 111/111/111 109/109/109
f 115/115/115 114/114/114 113/113/113
f 116/116/116 115/115/115 113/113/113
f 119/119/119 118/118/118 117/117/117
f 120/120/120 119/119/119 117/117/117
f 123/123/123 122/122/122 121/121/121
f 124/124/124 123/123/123 121/121/121
f 127/127/127 126/126/126 125/125/125
f 128/128/128 127/127/127 125/125/125
