g sb_CH0331_bg_box_01_top
v 55.568558 0 80.78551
v 55.568554 0 9.864621
v 53.675095 14.382199 9.864621
v 53.675102 14.382202 80.78551
v 55.568554 0 112.13307
v 53.675095 14.382202 112.13307
v 53.675102 14.382202 80.78551
v 53.675095 14.382199 9.864621
v 48.12378 27.784277 9.864621
v 48.123783 27.784279 80.78551
v 53.675095 14.382202 112.13307
v 48.12378 27.784275 112.13307
v 48.123783 27.784279 80.78551
v 48.12378 27.784277 9.864621
v 39.292904 39.292904 9.864621
v 39.292904 39.292904 80.78551
v 48.12378 27.784275 112.13307
v 39.2929 39.2929 112.13307
v 39.292904 39.292904 80.78551
v 39.292904 39.292904 9.864621
v 27.784277 48.12378 9.864621
v 27.784277 48.123783 80.78551
v 39.2929 39.2929 112.13307
v 27.784277 48.12378 112.13307
v 27.784277 48.123783 80.78551
v 27.784277 48.12378 9.864621
v 14.382202 53.675095 9.864621
v 14.382203 53.675102 80.78551
v 27.784277 48.12378 112.13307
v 14.382203 53.675102 112.13307
v 14.382203 53.675102 80.78551
v 14.382202 53.675095 9.864621
v -0 55.568554 9.864621
v -0 55.568558 80.78551
v 14.382203 53.675102 112.13307
v -0 55.568554 112.13307
v 14.382173 -53.675106 80.78551
v 14.382172 -53.675102 9.864621
v 27.78425 -48.123795 9.864621
v 27.78425 -48.123802 80.78551
v 14.382173 -53.675102 112.13307
v 27.78425 -48.123795 112.13307
v 27.78425 -48.123802 80.78551
v 27.78425 -48.123795 9.864621
v 39.29288 -39.292927 9.864621
v 39.29288 -39.29293 80.78551
v 27.78425 -48.123795 112.13307
v 39.29288 -39.292927 112.13307
v 39.29288 -39.29293 80.78551
v 39.29288 -39.292927 9.864621
v 48.123764 -27.784311 9.864621
v 48.123768 -27.784311 80.78551
v 39.29288 -39.292927 112.13307
v 48.123768 -27.784311 112.13307
v 48.123768 -27.784311 80.78551
v 48.123764 -27.784311 9.864621
v 53.675087 -14.382238 9.864621
v 53.67509 -14.382239 80.78551
v 48.123768 -27.784311 112.13307
v 53.675087 -14.382238 112.13307
v 53.67509 -14.382239 80.78551
v 53.675087 -14.382238 9.864621
v 55.568554 0 9.864621
v 55.568558 0 80.78551
v 53.675087 -14.382238 112.13307
v 55.568554 0 112.13307
v -0 -55.568554 80.78551
v 14.382173 -53.675102 112.13307
v -0 -55.56855 112.13307
v 14.382173 -53.675106 80.78551
v -0 -55.56855 9.864621
v 14.382172 -53.675102 9.864621
v -55.568558 0 80.78551
v -53.675095 14.382199 9.864621
v -55.568554 0 9.864621
v -53.675102 14.382202 80.78551
v -55.568554 0 112.13307
v -53.675095 14.382202 112.13307
v -53.675102 14.382202 80.78551
v -48.12378 27.784277 9.864621
v -53.675095 14.382199 9.864621
v -48.123783 27.784279 80.78551
v -53.675095 14.382202 112.13307
v -48.12378 27.784275 112.13307
v -48.123783 27.784279 80.78551
v -39.292904 39.292904 9.864621
v -48.12378 27.784277 9.864621
v -39.292904 39.292904 80.78551
v -48.12378 27.784275 112.13307
v -39.2929 39.2929 112.13307
v -39.292904 39.292904 80.78551
v -27.784277 48.12378 9.864621
v -39.292904 39.292904 9.864621
v -27.784277 48.123783 80.78551
v -39.2929 39.2929 112.13307
v -27.784277 48.12378 112.13307
v -27.784277 48.123783 80.78551
v -14.382202 53.675095 9.864621
v -27.784277 48.12378 9.864621
v -14.382203 53.675102 80.78551
v -27.784277 48.12378 112.13307
v -14.382203 53.675102 112.13307
v -14.382203 53.675102 80.78551
v -0 55.568554 9.864621
v -14.382202 53.675095 9.864621
v -0 55.568558 80.78551
v -14.382203 53.675102 112.13307
v -0 55.568554 112.13307
v -14.382173 -53.675106 80.78551
v -27.78425 -48.123795 9.864621
v -14.382172 -53.675102 9.864621
v -27.78425 -48.123802 80.78551
v -14.382173 -53.675102 112.13307
v -27.78425 -48.123795 112.13307
v -27.78425 -48.123802 80.78551
v -39.29288 -39.292927 9.864621
v -27.78425 -48.123795 9.864621
v -39.29288 -39.29293 80.78551
v -27.78425 -48.123795 112.13307
v -39.29288 -39.292927 112.13307
v -39.29288 -39.29293 80.78551
v -48.123764 -27.784311 9.864621
v -39.29288 -39.292927 9.864621
v -48.123768 -27.784311 80.78551
v -39.29288 -39.292927 112.13307
v -48.123768 -27.784311 112.13307
v -48.123768 -27.784311 80.78551
v -53.675087 -14.382238 9.864621
v -48.123764 -27.784311 9.864621
v -53.67509 -14.382239 80.78551
v -48.123768 -27.784311 112.13307
v -53.675087 -14.382238 112.13307
v -53.67509 -14.382239 80.78551
v -55.568554 0 9.864621
v -53.675087 -14.382238 9.864621
v -55.568558 0 80.78551
v -53.675087 -14.382238 112.13307
v -55.568554 0 112.13307
v -14.382173 -53.675102 112.13307
v -0 -55.568554 80.78551
v -0 -55.56855 112.13307
v -14.382173 -53.675106 80.78551
v -0 -55.56855 9.864621
v -14.382172 -53.675102 9.864621
vt 0.0065047443 0.029430002
vt 0.37392512 0.029430002
vt 0.37392512 0.03030774
vt 0.0065047443 0.03030774
vt 0.0065047443 0.029430002
vt 0.0065047443 0.03030774
vt 0.0065047443 0.03030774
vt 0.37392512 0.03030774
vt 0.37392512 0.031185478
vt 0.0065047443 0.031185478
vt 0.0065047443 0.03030774
vt 0.0065047443 0.031185478
vt 0.0065047443 0.031185478
vt 0.37392512 0.031185478
vt 0.37392512 0.032063216
vt 0.0065047443 0.032063216
vt 0.0065047443 0.031185478
vt 0.0065047443 0.032063216
vt 0.0065047443 0.032063216
vt 0.37392512 0.032063216
vt 0.37392512 0.032940954
vt 0.0065047443 0.032940954
vt 0.0065047443 0.032063216
vt 0.0065047443 0.032940954
vt 0.0065047443 0.032940954
vt 0.37392512 0.032940954
vt 0.37392512 0.033818692
vt 0.0065047443 0.033818692
vt 0.0065047443 0.032940954
vt 0.0065047443 0.033818692
vt 0.0065047443 0.033818692
vt 0.37392512 0.033818692
vt 0.37392512 0.03469643
vt 0.0065047443 0.03469643
vt 0.0065047443 0.033818692
vt 0.0065047443 0.03469643
vt 0.0065047443 0.025041312
vt 0.37392515 0.025041312
vt 0.37392515 0.02591905
vt 0.0065047443 0.02591905
vt 0.0065047443 0.025041312
vt 0.0065047443 0.02591905
vt 0.0065047443 0.02591905
vt 0.37392515 0.02591905
vt 0.37392515 0.026796788
vt 0.0065047443 0.026796788
vt 0.0065047443 0.02591905
vt 0.0065047443 0.026796788
vt 0.0065047443 0.026796788
vt 0.37392515 0.026796788
vt 0.37392515 0.027675197
vt 0.0065047443 0.027674526
vt 0.0065047443 0.026796788
vt 0.0065047443 0.027674526
vt 0.0065047443 0.027674526
vt 0.37392515 0.027675197
vt 0.37392512 0.028552935
vt 0.0065047443 0.028552264
vt 0.0065047443 0.027674526
vt 0.0065047443 0.028552264
vt 0.0065047443 0.028552264
vt 0.37392512 0.028552935
vt 0.37392512 0.029430002
vt 0.0065047443 0.029430002
vt 0.0065047443 0.028552264
vt 0.0065047443 0.029430002
vt 0.0065047443 0.024163576
vt 0.0065047443 0.025041312
vt 0.0065047443 0.024163576
vt 0.0065047443 0.025041312
vt 0.37392515 0.024163576
vt 0.37392515 0.025041312
vt 0.0065047443 0.029430002
vt 0.37392512 0.03030774
vt 0.37392512 0.029430002
vt 0.0065047443 0.03030774
vt 0.0065047443 0.029430002
vt 0.0065047443 0.03030774
vt 0.0065047443 0.03030774
vt 0.37392512 0.031185478
vt 0.37392512 0.03030774
vt 0.0065047443 0.031185478
vt 0.0065047443 0.03030774
vt 0.0065047443 0.031185478
vt 0.0065047443 0.031185478
vt 0.37392512 0.032063216
vt 0.37392512 0.031185478
vt 0.0065047443 0.032063216
vt 0.0065047443 0.031185478
vt 0.0065047443 0.032063216
vt 0.0065047443 0.032063216
vt 0.37392512 0.032940954
vt 0.37392512 0.032063216
vt 0.0065047443 0.032940954
vt 0.0065047443 0.032063216
vt 0.0065047443 0.032940954
vt 0.0065047443 0.032940954
vt 0.37392512 0.033818692
vt 0.37392512 0.032940954
vt 0.0065047443 0.033818692
vt 0.0065047443 0.032940954
vt 0.0065047443 0.033818692
vt 0.0065047443 0.033818692
vt 0.37392512 0.03469643
vt 0.37392512 0.033818692
vt 0.0065047443 0.03469643
vt 0.0065047443 0.033818692
vt 0.0065047443 0.03469643
vt 0.0065047443 0.025041312
vt 0.37392515 0.02591905
vt 0.37392515 0.025041312
vt 0.0065047443 0.02591905
vt 0.0065047443 0.025041312
vt 0.0065047443 0.02591905
vt 0.0065047443 0.02591905
vt 0.37392515 0.026796788
vt 0.37392515 0.02591905
vt 0.0065047443 0.026796788
vt 0.0065047443 0.02591905
vt 0.0065047443 0.026796788
vt 0.0065047443 0.026796788
vt 0.37392515 0.027675197
vt 0.37392515 0.026796788
vt 0.0065047443 0.027674526
vt 0.0065047443 0.026796788
vt 0.0065047443 0.027674526
vt 0.0065047443 0.027674526
vt 0.37392512 0.028552935
vt 0.37392515 0.027675197
vt 0.0065047443 0.028552264
vt 0.0065047443 0.027674526
vt 0.0065047443 0.028552264
vt 0.0065047443 0.028552264
vt 0.37392512 0.029430002
vt 0.37392512 0.028552935
vt 0.0065047443 0.029430002
vt 0.0065047443 0.028552264
vt 0.0065047443 0.029430002
vt 0.0065047443 0.025041312
vt 0.0065047443 0.024163576
vt 0.0065047443 0.024163576
vt 0.0065047443 0.025041312
vt 0.37392515 0.024163576
vt 0.37392515 0.025041312
vn -0.9914449 -0.13052648 0
vn -0.9914449 -0.13052648 0
vn -0.9914449 -0.13052648 0
vn -0.9914449 -0.13052648 0
vn -0.9914449 -0.1305265 -1.5462226E-07
vn -0.9914449 -0.13052648 -1.5462223E-07
vn -0.9238796 -0.38268325 0
vn -0.9238796 -0.38268325 0
vn -0.9238796 -0.38268325 0
vn -0.9238796 -0.38268325 0
vn -0.9238796 -0.38268328 -1.7523858E-07
vn -0.9238796 -0.38268328 -1.7523858E-07
vn -0.7933535 -0.60876125 0
vn -0.7933535 -0.60876125 0
vn -0.7933535 -0.60876125 0
vn -0.7933535 -0.60876125 0
vn -0.79335344 -0.6087614 -1.8898277E-07
vn -0.79335344 -0.6087614 -1.8898274E-07
vn -0.60876125 -0.7933535 0
vn -0.60876125 -0.7933535 0
vn -0.60876125 -0.7933535 0
vn -0.60876125 -0.79335356 0
vn -0.6087614 -0.7933533 -1.4775011E-07
vn -0.6087614 -0.79335344 -1.4775013E-07
vn -0.38268328 -0.9238796 0
vn -0.38268328 -0.9238796 0
vn -0.38268328 -0.9238796 0
vn -0.38268328 -0.9238796 0
vn -0.38268343 -0.9238795 0
vn -0.38268343 -0.9238795 0
vn -0.13052648 -0.9914449 0
vn -0.13052648 -0.9914449 0
vn -0.13052648 -0.9914449 0
vn -0.13052648 -0.9914449 0
vn -0.13052632 -0.9914449 0
vn -0.13052632 -0.9914449 0
vn -0.38268247 0.9238799 0
vn -0.38268247 0.9238799 0
vn -0.38268244 0.9238799 0
vn -0.38268247 0.9238799 0
vn -0.38268247 0.9238799 -2.1647124E-07
vn -0.38268244 0.9238799 -2.1647121E-07
vn -0.6087609 0.79335374 0
vn -0.6087609 0.79335374 0
vn -0.6087609 0.79335374 0
vn -0.6087609 0.79335374 0
vn -0.60876095 0.79335374 -1.5462226E-07
vn -0.6087609 0.79335374 -1.5462223E-07
vn -0.7933529 0.608762 0
vn -0.7933529 0.6087621 0
vn -0.7933529 0.6087621 0
vn -0.7933529 0.608762 0
vn -0.79335284 0.60876215 0
vn -0.79335284 0.60876215 0
vn -0.92387944 0.3826836 0
vn -0.92387944 0.3826836 0
vn -0.92387944 0.3826836 0
vn -0.92387944 0.3826836 0
vn -0.9238795 0.38268355 0
vn -0.9238795 0.38268355 0
vn -0.99144477 0.1305268 0
vn -0.99144477 0.1305268 0
vn -0.99144477 0.1305268 0
vn -0.99144477 0.1305268 0
vn -0.99144477 0.13052683 -1.5805787E-07
vn -0.99144477 0.13052683 -1.5805787E-07
vn -0.13052605 0.9914449 -1.529045E-07
vn -0.13052605 0.9914449 -1.529045E-07
vn -0.13052605 0.9914449 -1.529045E-07
vn -0.13052605 0.9914449 -1.529045E-07
vn -0.13052611 0.9914449 0
vn -0.13052611 0.9914449 0
vn 0.9914449 -0.1305265 0
vn 0.9914449 -0.1305265 0
vn 0.9914449 -0.1305265 0
vn 0.9914449 -0.1305265 0
vn 0.9914449 -0.1305265 -1.5462226E-07
vn 0.9914449 -0.13052648 -1.5462223E-07
vn 0.9238796 -0.38268325 0
vn 0.9238796 -0.38268325 0
vn 0.9238796 -0.38268325 0
vn 0.9238796 -0.38268325 0
vn 0.9238796 -0.38268325 -1.7523858E-07
vn 0.9238796 -0.38268325 -1.7523858E-07
vn 0.7933535 -0.60876125 0
vn 0.7933535 -0.60876125 0
vn 0.7933535 -0.60876125 0
vn 0.7933535 -0.60876125 0
vn 0.7933533 -0.6087614 -1.8898274E-07
vn 0.79335344 -0.6087614 -1.8898274E-07
vn 0.60876125 -0.79335356 0
vn 0.60876125 -0.79335356 0
vn 0.60876125 -0.79335356 0
vn 0.60876113 -0.79335356 0
vn 0.6087614 -0.7933533 -1.4775011E-07
vn 0.6087614 -0.79335344 -1.4775013E-07
vn 0.38268328 -0.9238795 0
vn 0.38268328 -0.9238795 0
vn 0.38268328 -0.9238796 0
vn 0.38268328 -0.9238795 0
vn 0.38268346 -0.9238795 0
vn 0.38268346 -0.9238795 0
vn 0.13052648 -0.9914449 0
vn 0.13052648 -0.9914449 0
vn 0.13052648 -0.9914449 0
vn 0.13052648 -0.9914449 0
vn 0.13052632 -0.9914449 0
vn 0.13052632 -0.9914449 0
vn 0.38268247 0.9238799 0
vn 0.38268244 0.9238799 0
vn 0.38268247 0.9238799 0
vn 0.38268247 0.9238799 0
vn 0.3826824 0.9238799 -2.164712E-07
vn 0.3826824 0.9238799 -2.164712E-07
vn 0.60876095 0.79335374 0
vn 0.60876095 0.79335374 0
vn 0.60876095 0.79335374 0
vn 0.60876095 0.79335374 0
vn 0.6087609 0.79335374 -1.5462226E-07
vn 0.60876083 0.7933538 -1.5462223E-07
vn 0.7933529 0.608762 0
vn 0.7933529 0.6087621 0
vn 0.7933529 0.6087621 0
vn 0.7933529 0.608762 0
vn 0.79335284 0.60876215 0
vn 0.79335284 0.60876215 0
vn 0.92387944 0.38268363 0
vn 0.92387944 0.38268363 0
vn 0.92387944 0.38268366 0
vn 0.92387944 0.38268363 0
vn 0.9238795 0.38268355 0
vn 0.9238795 0.38268355 0
vn 0.99144477 0.1305268 0
vn 0.99144477 0.1305268 0
vn 0.99144477 0.1305268 0
vn 0.99144477 0.1305268 0
vn 0.99144477 0.1305268 -1.5805786E-07
vn 0.99144477 0.1305268 -1.5805786E-07
vn 0.13052607 0.9914449 -1.529045E-07
vn 0.13052607 0.9914449 -1.529045E-07
vn 0.13052607 0.9914449 -1.529045E-07
vn 0.13052607 0.9914449 -1.529045E-07
vn 0.13052611 0.9914449 0
vn 0.13052611 0.9914449 0
g sb_CH0331_bg_box_01_top_0
f 3/3/3 2/2/2 1/1/1
f 4/4/4 3/3/3 1/1/1
f 1/1/1 5/5/5 4/4/4
f 5/5/5 6/6/6 4/4/4
f 9/9/9 8/8/8 7/7/7
f 10/10/10 9/9/9 7/7/7
f 7/7/7 11/11/11 10/10/10
f 11/11/11 12/12/12 10/10/10
f 15/15/15 14/14/14 13/13/13
f 16/16/16 15/15/15 13/13/13
f 13/13/13 17/17/17 16/16/16
f 17/17/17 18/18/18 16/16/16
f 21/21/21 20/20/20 19/19/19
f 22/22/22 21/21/21 19/19/19
f 19/19/19 23/23/23 22/22/22
f 23/23/23 24/24/24 22/22/22
f 27/27/27 26/26/26 25/25/25
f 28/28/28 27/27/27 25/25/25
f 25/25/25 29/29/29 28/28/28
f 29/29/29 30/30/30 28/28/28
f 33/33/33 32/32/32 31/31/31
f 34/34/34 33/33/33 31/31/31
f 31/31/31 35/35/35 34/34/34
f 35/35/35 36/36/36 34/34/34
f 39/39/39 38/38/38 37/37/37
f 40/40/40 39/39/39 37/37/37
f 37/37/37 41/41/41 40/40/40
f 41/41/41 42/42/42 40/40/40
f 45/45/45 44/44/44 43/43/43
f 46/46/46 45/45/45 43/43/43
f 43/43/43 47/47/47 46/46/46
f 47/47/47 48/48/48 46/46/46
f 51/51/51 50/50/50 49/49/49
f 52/52/52 51/51/51 49/49/49
f 49/49/49 53/53/53 52/52/52
f 53/53/53 54/54/54 52/52/52
f 57/57/57 56/56/56 55/55/55
f 58/58/58 57/57/57 55/55/55
f 55/55/55 59/59/59 58/58/58
f 59/59/59 60/60/60 58/58/58
f 63/63/63 62/62/62 61/61/61
f 64/64/64 63/63/63 61/61/61
f 61/61/61 65/65/65 64/64/64
f 65/65/65 66/66/66 64/64/64
f 69/69/69 68/68/68 67/67/67
f 68/68/68 70/70/70 67/67/67
f 71/71/71 67/67/67 70/70/70
f 72/72/72 71/71/71 70/70/70
f 75/75/75 74/74/74 73/73/73
f 74/74/74 76/76/76 73/73/73
f 77/77/77 73/73/73 76/76/76
f 78/78/78 77/77/77 76/76/76
f 81/81/81 80/80/80 79/79/79
f 80/80/80 82/82/82 79/79/79
f 83/83/83 79/79/79 82/82/82
f 84/84/84 83/83/83 82/82/82
f 87/87/87 86/86/86 85/85/85
f 86/86/86 88/88/88 85/85/85
f 89/89/89 85/85/85 88/88/88
f 90/90/90 89/89/89 88/88/88
f 93/93/93 92/92/92 91/91/91
f 92/92/92 94/94/94 91/91/91
f 95/95/95 91/91/91 94/94/94
f 96/96/96 95/95/95 94/94/94
f 99/99/99 98/98/98 97/97/97
f 98/98/98 100/100/100 97/97/97
f 101/101/101 97/97/97 100/100/100
f 102/102/102 101/101/101 100/100/100
f 105/105/105 104/104/104 103/103/103
f 104/104/104 106/106/106 103/103/103
f 107/107/107 103/103/103 106/106/106
f 108/108/108 107/107/107 106/106/106
f 111/111/111 110/110/110 109/109/109
f 110/110/110 112/112/112 109/109/109
f 113/113/113 109/109/109 112/112/112
f 114/114/114 113/113/113 112/112/112
f 117/117/117 116/116/116 115/115/115
f 116/116/116 118/118/118 115/115/115
f 119/119/119 115/115/115 118/118/118
f 120/120/120 119/119/119 118/118/118
f 123/123/123 122/122/122 121/121/121
f 122/122/122 124/124/124 121/121/121
f 125/125/125 121/121/121 124/124/124
f 126/126/126 125/125/125 124/124/124
f 129/129/129 128/128/128 127/127/127
f 128/128/128 130/130/130 127/127/127
f 131/131/131 127/127/127 130/130/130
f 132/132/132 131/131/131 130/130/130
f 135/135/135 134/134/134 133/133/133
f 134/134/134 136/136/136 133/133/133
f 137/137/137 133/133/133 136/136/136
f 138/138/138 137/137/137 136/136/136
f 141/141/141 140/140/140 139/139/139
f 140/140/140 142/142/142 139/139/139
f 142/142/142 140/140/140 143/143/143
f 144/144/144 142/142/142 143/143/143
