g sb_CH0331_bg_propbox_02
v -0.19257833 -46.04099 0
v -0.5893089 -46.04099 0
v -0.58930856 -48.748 0
v -0.192578 -48.748 0
v -0.19257833 -46.04099 3
v -0.192578 -48.748 3
v -0.58930856 -48.748 3
v -0.5893089 -46.04099 3
v -0.19257833 -46.04099 0
v -0.19257833 -46.04099 3
v -0.5893089 -46.04099 3
v -0.5893089 -46.04099 0
v -0.5893089 -46.04099 0
v -0.5893089 -46.04099 3
v -0.58930856 -48.748 3
v -0.58930856 -48.748 0
v -0.58930856 -48.748 0
v -0.58930856 -48.748 3
v -0.192578 -48.748 3
v -0.192578 -48.748 0
v -0.192578 -48.748 0
v -0.192578 -48.748 3
v -0.19257833 -46.04099 3
v -0.19257833 -46.04099 0
v -0.1856916 -46.025284 -0.011546936
v -0.59619564 -46.025284 -0.011546936
v -0.5961953 -48.763714 -0.011546936
v -0.18569125 -48.763714 -0.011546936
v -0.1856916 -46.025284 3.0115469
v -0.18569125 -48.763714 3.0115469
v -0.5961953 -48.763714 3.0115469
v -0.59619564 -46.025284 3.0115469
v -0.1856916 -46.025284 -0.011546936
v -0.1856916 -46.025284 3.0115469
v -0.59619564 -46.025284 3.0115469
v -0.59619564 -46.025284 -0.011546936
v -0.59619564 -46.025284 -0.011546936
v -0.59619564 -46.025284 3.0115469
v -0.5961953 -48.763714 3.0115469
v -0.5961953 -48.763714 -0.011546936
v -0.5961953 -48.763714 -0.011546936
v -0.5961953 -48.763714 3.0115469
v -0.18569125 -48.763714 3.0115469
v -0.18569125 -48.763714 -0.011546936
v -0.18569125 -48.763714 -0.011546936
v -0.18569125 -48.763714 3.0115469
v -0.1856916 -46.025284 3.0115469
v -0.1856916 -46.025284 -0.011546936
v -0.18500297 -46.023705 -0.012701721
v -0.18500297 -46.023705 3.0127017
v -0.5968843 -46.023705 3.0127017
v -0.5968843 -46.023705 -0.012701721
v -0.5968843 -46.023705 -0.012701721
v -0.5968843 -46.023705 3.0127017
v -0.5968839 -48.76528 3.0127017
v -0.5968839 -48.76528 -0.012701721
v -0.5968839 -48.76528 -0.012701721
v -0.5968839 -48.76528 3.0127017
v -0.18500262 -48.76528 3.0127017
v -0.18500262 -48.76528 -0.012701721
v -0.18500262 -48.76528 -0.012701721
v -0.18500262 -48.76528 3.0127017
v -0.18500297 -46.023705 3.0127017
v -0.18500297 -46.023705 -0.012701721
vt 0.42694756 0.037158787
vt 0.42694756 0.004431635
vt 0.4281361 0.004431635
vt 0.4281361 0.037158787
vt 0.4069711 0.004431635
vt 0.4081596 0.004431635
vt 0.4081596 0.037158787
vt 0.4069711 0.037158787
vt 0.42694756 0.004431635
vt 0.40688726 0.004431635
vt 0.40688726 0.037158787
vt 0.42694756 0.037158787
vt 0.42694756 0.004431635
vt 0.40688726 0.004431635
vt 0.40688726 0.037158787
vt 0.42694756 0.037158787
vt 0.42694756 0.004431635
vt 0.40688726 0.004431635
vt 0.40688726 0.037158787
vt 0.42694756 0.037158787
vt 0.42694756 0.004431635
vt 0.40688726 0.004431635
vt 0.40688726 0.037158787
vt 0.42694756 0.037158787
vt 0.017594133 0.9867263
vt 0.017594133 0.014377989
vt 0.985535 0.014377989
vt 0.985535 0.9867263
vt 0.017594133 0.014377989
vt 0.985535 0.014377989
vt 0.985535 0.9867263
vt 0.017594133 0.9867263
vt 0.985535 0.014377989
vt 0.017594133 0.014377989
vt 0.017594133 0.9867263
vt 0.985535 0.9867263
vt 0.985535 0.014377989
vt 0.017594133 0.014377989
vt 0.017594133 0.9867263
vt 0.985535 0.9867263
vt 0.985535 0.014377989
vt 0.017594133 0.014377989
vt 0.017594133 0.9867263
vt 0.985535 0.9867263
vt 0.985535 0.014377989
vt 0.017594133 0.014377989
vt 0.017594133 0.9867263
vt 0.985535 0.9867263
vt 0.9450248 0.785031
vt 0.9450248 0.34441394
vt 0.9480944 0.344414
vt 0.9480944 0.7850311
vt 0.9450248 0.785031
vt 0.9450248 0.34441394
vt 0.9480944 0.344414
vt 0.9480944 0.7850311
vt 0.9450248 0.785031
vt 0.9450248 0.34441394
vt 0.9480944 0.344414
vt 0.9480944 0.7850311
vt 0.9450248 0.785031
vt 0.9450248 0.34441394
vt 0.9480944 0.344414
vt 0.9480944 0.7850311
vn -0 0 -1
vn -0 0 -1
vn -0 0 -1
vn -0 0 -1
vn -0 0 1
vn -0 0 1
vn -0 0 1
vn -0 0 1
vn -0 1 0
vn -0 1 0
vn -0 1 0
vn -0 1 0
vn -1 -1.2682722E-07 0
vn -1 -1.2682722E-07 0
vn -1 -1.2682722E-07 0
vn -1 -1.2682722E-07 0
vn -0 -1 0
vn -0 -1 0
vn -0 -1 0
vn -0 -1 0
vn 1 1.1978126E-07 0
vn 1 1.1978126E-07 0
vn 1 1.1978126E-07 0
vn 1 1.1978126E-07 0
vn -0 0 -1
vn -0 0 -1
vn -0 0 -1
vn -0 0 -1
vn -0 0 1
vn -0 0 1
vn -0 0 1
vn -0 0 1
vn -0 1 0
vn -0 1 0
vn -0 1 0
vn -0 1 0
vn -1 -1.393022E-07 0
vn -1 -1.393022E-07 0
vn -1 -1.393022E-07 0
vn -1 -1.393022E-07 0
vn -0 -1 0
vn -0 -1 0
vn -0 -1 0
vn -0 -1 0
vn 1 1.2537198E-07 0
vn 1 1.2537198E-07 0
vn 1 1.2537198E-07 0
vn 1 1.2537198E-07 0
vn -0 1 0
vn -0 1 0
vn -0 1 0
vn -0 1 0
vn -1 -1.3914243E-07 0
vn -1 -1.3914243E-07 0
vn -1 -1.3914243E-07 0
vn -1 -1.3914243E-07 0
vn -0 -1 0
vn -0 -1 0
vn -0 -1 0
vn -0 -1 0
vn 1 1.252282E-07 0
vn 1 1.252282E-07 0
vn 1 1.252282E-07 0
vn 1 1.252282E-07 0
g sb_CH0331_bg_propbox_02_0
f 3/3/3 2/2/2 1/1/1
f 4/4/4 3/3/3 1/1/1
f 7/7/7 6/6/6 5/5/5
f 8/8/8 7/7/7 5/5/5
f 11/11/11 10/10/10 9/9/9
f 12/12/12 11/11/11 9/9/9
f 15/15/15 14/14/14 13/13/13
f 16/16/16 15/15/15 13/13/13
f 19/19/19 18/18/18 17/17/17
f 20/20/20 19/19/19 17/17/17
f 23/23/23 22/22/22 21/21/21
f 24/24/24 23/23/23 21/21/21
g sb_CH0331_bg_propbox_02_1
f 27/27/27 26/26/26 25/25/25
f 28/28/28 27/27/27 25/25/25
f 31/31/31 30/30/30 29/29/29
f 32/32/32 31/31/31 29/29/29
f 35/35/35 34/34/34 33/33/33
f 36/36/36 35/35/35 33/33/33
f 39/39/39 38/38/38 37/37/37
f 40/40/40 39/39/39 37/37/37
f 43/43/43 42/42/42 41/41/41
f 44/44/44 43/43/43 41/41/41
f 47/47/47 46/46/46 45/45/45
f 48/48/48 47/47/47 45/45/45
g sb_CH0331_bg_propbox_02_2
f 51/51/51 50/50/50 49/49/49
f 52/52/52 51/51/51 49/49/49
f 55/55/55 54/54/54 53/53/53
f 56/56/56 55/55/55 53/53/53
f 59/59/59 58/58/58 57/57/57
f 60/60/60 59/59/59 57/57/57
f 63/63/63 62/62/62 61/61/61
f 64/64/64 63/63/63 61/61/61
