g sb_CH0331_bg_box_glow
v 53.00444 0 77.057816
v 53.004436 0 9.409437
v 51.198353 13.718558 9.409437
v 51.198357 13.718559 77.057816
v 51.198357 13.718559 77.057816
v 51.198353 13.718558 9.409437
v 45.90319 26.502218 9.409437
v 45.9032 26.50222 77.057816
v 45.9032 26.50222 77.057816
v 45.90319 26.502218 9.409437
v 37.4798 37.4798 9.409437
v 37.4798 37.4798 77.057816
v 37.4798 37.4798 77.057816
v 37.4798 37.4798 9.409437
v 26.502218 45.90319 9.409437
v 26.502218 45.9032 77.057816
v 26.502218 45.9032 77.057816
v 26.502218 45.90319 9.409437
v 13.718559 51.198353 9.409437
v 13.71856 51.198357 77.057816
v 13.71856 51.198357 77.057816
v 13.718559 51.198353 9.409437
v -0 53.004436 9.409437
v -0 53.00444 77.057816
v 13.718533 -51.198364 77.057816
v 13.718532 -51.198357 9.409437
v 26.502193 -45.903206 9.409437
v 26.502193 -45.903214 77.057816
v 26.502193 -45.903214 77.057816
v 26.502193 -45.903206 9.409437
v 37.47978 -37.479824 9.409437
v 37.47978 -37.479824 77.057816
v 37.47978 -37.479824 77.057816
v 37.47978 -37.479824 9.409437
v 45.90317 -26.502253 9.409437
v 45.903183 -26.502253 77.057816
v 45.903183 -26.502253 77.057816
v 45.90317 -26.502253 9.409437
v 51.198345 -13.7185955 9.409437
v 51.19835 -13.718597 77.057816
v 51.19835 -13.718597 77.057816
v 51.198345 -13.7185955 9.409437
v 53.004436 0 9.409437
v 53.00444 0 77.057816
v 13.718533 -51.198364 77.057816
v -0 -53.004436 77.057816
v -0 -53.004433 9.409437
v 13.718532 -51.198357 9.409437
v -53.00444 0 77.057816
v -51.198357 13.718559 77.057816
v -51.198353 13.718558 9.409437
v -53.004436 0 9.409437
v -51.198357 13.718559 77.057816
v -45.9032 26.50222 77.057816
v -45.90319 26.502218 9.409437
v -51.198353 13.718558 9.409437
v -45.9032 26.50222 77.057816
v -37.4798 37.4798 77.057816
v -37.4798 37.4798 9.409437
v -45.90319 26.502218 9.409437
v -37.4798 37.4798 77.057816
v -26.502218 45.9032 77.057816
v -26.502218 45.90319 9.409437
v -37.4798 37.4798 9.409437
v -26.502218 45.9032 77.057816
v -13.71856 51.198357 77.057816
v -13.718559 51.198353 9.409437
v -26.502218 45.90319 9.409437
v -13.71856 51.198357 77.057816
v -0 53.00444 77.057816
v -0 53.004436 9.409437
v -13.718559 51.198353 9.409437
v -13.718533 -51.198364 77.057816
v -26.502193 -45.903214 77.057816
v -26.502193 -45.903206 9.409437
v -13.718532 -51.198357 9.409437
v -26.502193 -45.903214 77.057816
v -37.47978 -37.479824 77.057816
v -37.47978 -37.479824 9.409437
v -26.502193 -45.903206 9.409437
v -37.47978 -37.479824 77.057816
v -45.903183 -26.502253 77.057816
v -45.90317 -26.502253 9.409437
v -37.47978 -37.479824 9.409437
v -45.903183 -26.502253 77.057816
v -51.19835 -13.718597 77.057816
v -51.198345 -13.7185955 9.409437
v -45.90317 -26.502253 9.409437
v -51.19835 -13.718597 77.057816
v -53.00444 0 77.057816
v -53.004436 0 9.409437
v -51.198345 -13.7185955 9.409437
v -0 -53.004433 9.409437
v -0 -53.004436 77.057816
v -13.718533 -51.198364 77.057816
v -13.718532 -51.198357 9.409437
vt 0.9461629 0.34176722
vt 0.9461629 1.0046943
vt 0.9458726 1.0046943
vt 0.9458726 0.34176722
vt 0.9458726 0.34176722
vt 0.9458726 1.0046943
vt 0.94558245 1.0046943
vt 0.94558245 0.34176722
vt 0.94558245 0.34176722
vt 0.94558245 1.0046943
vt 0.9452922 1.0046943
vt 0.9452922 0.34176722
vt 0.9452922 0.34176722
vt 0.9452922 1.0046943
vt 0.945002 1.0046943
vt 0.945002 0.34176722
vt 0.945002 0.34176722
vt 0.945002 1.0046943
vt 0.94471174 1.0046943
vt 0.94471174 0.34176722
vt 0.94471174 0.34176722
vt 0.94471174 1.0046943
vt 0.9444216 1.0046943
vt 0.9444216 0.34176722
vt 0.9476139 0.34176722
vt 0.9476139 1.0046943
vt 0.94732374 1.0046943
vt 0.94732374 0.34176722
vt 0.94732374 0.34176722
vt 0.94732374 1.0046943
vt 0.94703346 1.0046943
vt 0.94703346 0.34176722
vt 0.94703346 0.34176722
vt 0.94703346 1.0046943
vt 0.9467431 1.0046943
vt 0.9467433 0.34176722
vt 0.9467433 0.34176722
vt 0.9467431 1.0046943
vt 0.94645286 1.0046943
vt 0.94645303 0.34176722
vt 0.94645303 0.34176722
vt 0.94645286 1.0046943
vt 0.9461629 1.0046943
vt 0.9461629 0.34176722
vt 0.9476139 0.34176722
vt 0.9479042 0.34176722
vt 0.94790417 1.0046943
vt 0.9476139 1.0046943
vt 0.9461629 0.34176722
vt 0.9458726 0.34176722
vt 0.9458726 1.0046943
vt 0.9461629 1.0046943
vt 0.9458726 0.34176722
vt 0.94558245 0.34176722
vt 0.94558245 1.0046943
vt 0.9458726 1.0046943
vt 0.94558245 0.34176722
vt 0.9452922 0.34176722
vt 0.9452922 1.0046943
vt 0.94558245 1.0046943
vt 0.9452922 0.34176722
vt 0.945002 0.34176722
vt 0.945002 1.0046943
vt 0.9452922 1.0046943
vt 0.945002 0.34176722
vt 0.94471174 0.34176722
vt 0.94471174 1.0046943
vt 0.945002 1.0046943
vt 0.94471174 0.34176722
vt 0.9444216 0.34176722
vt 0.9444216 1.0046943
vt 0.94471174 1.0046943
vt 0.9476139 0.34176722
vt 0.94732374 0.34176722
vt 0.94732374 1.0046943
vt 0.9476139 1.0046943
vt 0.94732374 0.34176722
vt 0.94703346 0.34176722
vt 0.94703346 1.0046943
vt 0.94732374 1.0046943
vt 0.94703346 0.34176722
vt 0.9467433 0.34176722
vt 0.9467431 1.0046943
vt 0.94703346 1.0046943
vt 0.9467433 0.34176722
vt 0.94645303 0.34176722
vt 0.94645286 1.0046943
vt 0.9467431 1.0046943
vt 0.94645303 0.34176722
vt 0.9461629 0.34176722
vt 0.9461629 1.0046943
vt 0.94645286 1.0046943
vt 0.94790417 1.0046943
vt 0.9479042 0.34176722
vt 0.9476139 0.34176722
vt 0.9476139 1.0046943
vn -0.9914449 -0.13052632 0
vn -0.9914449 -0.13052632 0
vn -0.9914449 -0.13052632 0
vn -0.9914449 -0.13052632 0
vn -0.92387974 -0.3826831 0
vn -0.92387974 -0.3826831 0
vn -0.92387974 -0.3826831 0
vn -0.92387974 -0.3826831 0
vn -0.79335344 -0.6087614 0
vn -0.79335344 -0.6087614 0
vn -0.79335344 -0.6087614 0
vn -0.79335344 -0.6087614 0
vn -0.6087613 -0.79335344 0
vn -0.6087613 -0.79335344 0
vn -0.6087613 -0.79335344 0
vn -0.6087613 -0.79335344 0
vn -0.3826832 -0.9238796 0
vn -0.3826832 -0.9238796 0
vn -0.3826832 -0.9238796 0
vn -0.3826832 -0.9238796 0
vn -0.13052627 -0.9914449 0
vn -0.13052627 -0.9914449 0
vn -0.13052627 -0.9914449 0
vn -0.13052627 -0.9914449 0
vn -0.38268247 0.9238799 0
vn -0.38268247 0.9238799 0
vn -0.38268244 0.9238799 0
vn -0.38268247 0.9238799 0
vn -0.60876083 0.7933538 0
vn -0.60876083 0.7933538 0
vn -0.60876083 0.7933538 0
vn -0.60876083 0.7933538 0
vn -0.79335296 0.60876185 0
vn -0.79335296 0.6087619 0
vn -0.79335296 0.6087619 0
vn -0.79335296 0.60876185 0
vn -0.92387944 0.38268372 1.0349385E-07
vn -0.92387944 0.38268372 1.0349385E-07
vn -0.92387944 0.38268372 1.0349385E-07
vn -0.92387944 0.38268372 1.0349385E-07
vn -0.99144477 0.13052662 0
vn -0.99144477 0.13052662 0
vn -0.99144477 0.13052662 0
vn -0.99144477 0.13052662 0
vn -0.13052586 0.9914449 0
vn -0.13052586 0.9914449 0
vn -0.13052586 0.9914449 0
vn -0.13052586 0.9914449 0
vn 0.9914449 -0.13052632 0
vn 0.9914449 -0.13052632 0
vn 0.9914449 -0.13052632 0
vn 0.9914449 -0.13052632 0
vn 0.92387974 -0.3826831 0
vn 0.92387974 -0.3826831 0
vn 0.92387974 -0.3826831 0
vn 0.92387974 -0.3826831 0
vn 0.79335344 -0.6087614 0
vn 0.79335344 -0.6087614 0
vn 0.79335344 -0.6087614 0
vn 0.79335344 -0.6087614 0
vn 0.6087613 -0.79335344 0
vn 0.6087613 -0.79335344 0
vn 0.6087613 -0.79335344 0
vn 0.6087613 -0.79335344 0
vn 0.3826832 -0.9238796 0
vn 0.3826832 -0.9238796 0
vn 0.3826832 -0.9238796 0
vn 0.3826832 -0.9238796 0
vn 0.13052627 -0.9914449 0
vn 0.13052627 -0.9914449 0
vn 0.13052627 -0.9914449 0
vn 0.13052627 -0.9914449 0
vn 0.3826825 0.9238799 0
vn 0.3826825 0.9238799 0
vn 0.3826825 0.9238799 0
vn 0.3826825 0.9238799 0
vn 0.60876083 0.7933538 0
vn 0.6087609 0.7933538 0
vn 0.60876083 0.7933538 0
vn 0.6087609 0.7933538 0
vn 0.79335296 0.6087619 0
vn 0.79335296 0.6087619 0
vn 0.7933529 0.608762 0
vn 0.7933529 0.608762 0
vn 0.92387944 0.38268372 1.0349385E-07
vn 0.92387944 0.38268372 1.0349385E-07
vn 0.92387944 0.38268372 1.0349385E-07
vn 0.92387944 0.38268372 1.0349385E-07
vn 0.99144477 0.13052662 0
vn 0.99144477 0.13052662 0
vn 0.99144477 0.13052662 0
vn 0.99144477 0.13052662 0
vn 0.13052583 0.9914449 0
vn 0.13052583 0.9914449 0
vn 0.13052583 0.9914449 0
vn 0.13052583 0.9914449 0
g sb_CH0331_bg_box_glow_0
f 3/3/3 2/2/2 1/1/1
f 4/4/4 3/3/3 1/1/1
f 7/7/7 6/6/6 5/5/5
f 8/8/8 7/7/7 5/5/5
f 11/11/11 10/10/10 9/9/9
f 12/12/12 11/11/11 9/9/9
f 15/15/15 14/14/14 13/13/13
f 16/16/16 15/15/15 13/13/13
f 19/19/19 18/18/18 17/17/17
f 20/20/20 19/19/19 17/17/17
f 23/23/23 22/22/22 21/21/21
f 24/24/24 23/23/23 21/21/21
f 27/27/27 26/26/26 25/25/25
f 28/28/28 27/27/27 25/25/25
f 31/31/31 30/30/30 29/29/29
f 32/32/32 31/31/31 29/29/29
f 35/35/35 34/34/34 33/33/33
f 36/36/36 35/35/35 33/33/33
f 39/39/39 38/38/38 37/37/37
f 40/40/40 39/39/39 37/37/37
f 43/43/43 42/42/42 41/41/41
f 44/44/44 43/43/43 41/41/41
f 47/47/47 46/46/46 45/45/45
f 48/48/48 47/47/47 45/45/45
f 51/51/51 50/50/50 49/49/49
f 52/52/52 51/51/51 49/49/49
f 55/55/55 54/54/54 53/53/53
f 56/56/56 55/55/55 53/53/53
f 59/59/59 58/58/58 57/57/57
f 60/60/60 59/59/59 57/57/57
f 63/63/63 62/62/62 61/61/61
f 64/64/64 63/63/63 61/61/61
f 67/67/67 66/66/66 65/65/65
f 68/68/68 67/67/67 65/65/65
f 71/71/71 70/70/70 69/69/69
f 72/72/72 71/71/71 69/69/69
f 75/75/75 74/74/74 73/73/73
f 76/76/76 75/75/75 73/73/73
f 79/79/79 78/78/78 77/77/77
f 80/80/80 79/79/79 77/77/77
f 83/83/83 82/82/82 81/81/81
f 84/84/84 83/83/83 81/81/81
f 87/87/87 86/86/86 85/85/85
f 88/88/88 87/87/87 85/85/85
f 91/91/91 90/90/90 89/89/89
f 92/92/92 91/91/91 89/89/89
f 95/95/95 94/94/94 93/93/93
f 96/96/96 95/95/95 93/93/93
