g sb_CH0331_bg_box_01
v -37.89534 -20.737051 7.5571294
v -37.89534 -20.737055 -7.5571265
v 37.895264 -20.737434 -7.5571275
v 37.89526 -20.73743 7.5571275
v -37.895264 20.737436 7.5571246
v 37.895344 20.737062 7.5571237
v 37.895344 20.73706 -7.5571313
v -37.895264 20.737436 -7.5571303
v 37.89526 -20.73743 7.5571275
v 37.895264 -20.737434 -7.5571275
v 37.895344 20.73706 -7.5571313
v 37.895344 20.737062 7.5571237
v -37.89534 -20.737051 7.5571294
v -37.895264 20.737436 7.5571246
v -37.895264 20.737436 -7.5571303
v -37.89534 -20.737055 -7.5571265
vt 0.37392515 0.024163574
vt 0.42503086 0.024163574
vt 0.42503086 0.025041312
vt 0.37392515 0.025041312
vt 0.37392515 0.024163574
vt 0.37392515 0.025041312
vt 0.42503086 0.025041312
vt 0.42503086 0.024163574
vt 0.37392515 0.024163574
vt 0.42503086 0.024163574
vt 0.42503086 0.025041312
vt 0.37392515 0.025041312
vt 0.37392515 0.024163574
vt 0.37392515 0.025041312
vt 0.42503086 0.025041312
vt 0.42503086 0.024163574
vn -0 1 0
vn -0 1 0
vn -0.26515648 0.9642054 0
vn -0.26515648 0.9642054 0
vn -0 -1 0
vn 0.26515648 -0.9642054 0
vn 0.26515648 -0.9642054 0
vn -0 -1 0
vn -0 1 0
vn -0 1 0
vn -0.26515648 0.9642054 0
vn -0.26515648 0.9642054 0
vn -0 -1 0
vn 0.26515648 -0.9642054 0
vn 0.26515648 -0.9642054 0
vn -0 -1 0
g sb_CH0331_bg_box_01_0
f 3/3/3 2/2/2 1/1/1
f 4/4/4 3/3/3 1/1/1
f 7/7/7 6/6/6 5/5/5
f 8/8/8 7/7/7 5/5/5
f 11/11/11 10/10/10 9/9/9
f 12/12/12 11/11/11 9/9/9
f 15/15/15 14/14/14 13/13/13
f 16/16/16 15/15/15 13/13/13
